
<svg xmlns="http://www.w3.org/2000/svg" version="1.1" xmlns:xlink="http://www.w3.org/1999/xlink" preserveAspectRatio="none" x="0px" y="0px" width="720px" height="330px" viewBox="0 0 720 330">
<defs>
<g id="Symbol_8_0_Layer0_0_FILL">
<path fill="#E7E2DA" stroke="none" d="
M 5.15 8.95
Q 5.1802734375 8.848828125 5.2 8.75
L -9.7 6.05
Q -11.4134765625 8.3953125 -9.95 11.65
L -8.9 11.45 5.15 8.95 Z"/>

<path fill="#637480" stroke="none" d="
M 5.7 8.85
L 6.2 5.9 -9.2 3.05
Q -10.5 3.65 -9.7 6.05
L 5.2 8.75 5.7 8.85 Z"/>

<path fill="#FFE0B1" stroke="none" d="
M -8.9 11.45
Q -9.2880859375 16.8732421875 -8.95 22.25 -5.9 25.15 -1.4 26 3.299609375 18.134375 5.15 8.95
L -8.9 11.45 Z"/>

<path fill="#7E95A3" stroke="none" d="
M 5.6 -3.65
Q 3.75 -6.35 0.55 -6.9
L 0.5 -6.9
Q -0.1 -7 -0.65 -7 -5.7 -7.15 -9.2 3.05
L 6.2 5.9 6.85 2.3
Q 7.45 -0.9 5.6 -3.65 Z"/>
</g>

<g id="Symbol_9_0_Layer0_0_FILL">
<path fill="#FFE0B1" stroke="none" d="
M 4.9 -1.85
Q 3.1 -6.8 0.65 -9
L -9 -6.45
Q -10.2 -6.15 -9.95 -5.05
L -9.8 -4.5
Q -7.1 7.6 -0.2 5.8 2.25 5.2 4.65 3.95 6.25 3.15 5.95 1.95
L 5.9 1.7
Q 5.5 0.25 5.1 -1.1
L 5.1 -1.05 4.9 -1.85
M -8.15 -3
Q -8.2 -3.45 -7.05 -4.15 -5.95 -4.85 -4.25 -5.45 -2.5 -6 -1.3 -6.15 0 -6.25 0.05 -5.85 0.15 -5.4 -0.95 -4.7 -2.05 -3.95 -3.8 -3.35 -5.5 -2.75 -6.75 -2.65 -8.05 -2.55 -8.15 -3 Z"/>

<path fill="#E7CBA0" stroke="none" d="
M -7.05 -4.15
Q -8.2 -3.45 -8.15 -3 -8.05 -2.55 -6.75 -2.65 -5.5 -2.75 -3.8 -3.35 -2.05 -3.95 -0.95 -4.7 0.15 -5.4 0.05 -5.85 0 -6.25 -1.3 -6.15 -2.5 -6 -4.25 -5.45 -5.95 -4.85 -7.05 -4.15
M 5.1 -1.1
Q 8.2 -5.45 0.65 -9 3.1 -6.8 4.9 -1.85
L 5.1 -1.05 5.1 -1.1 Z"/>
</g>

<g id="Symbol_18_0_Layer0_0_FILL">
<path fill="#B8824D" stroke="none" d="
M -19 5.95
L -19 10 20 10 20 5.95 -19 5.95
M -19 -6.55
Q -12.3 -8.25 -13.5 -14.4 -14.3 -17.85 -12.9 -21
L -19 -21 -19 -6.55
M 13.9 -21
Q 15.3 -17.85 14.5 -14.4 13.3 -8.25 20 -6.55
L 20 -21 13.9 -21 Z"/>

<path fill="#7E95A3" stroke="none" d="
M 14.5 -14.4
Q 15.3 -17.85 13.9 -21
L -12.9 -21
Q -14.3 -17.85 -13.5 -14.4 -12.3 -8.25 -19 -6.55
L -19 5.95 20 5.95 20 -6.55
Q 13.3 -8.25 14.5 -14.4 Z"/>
</g>

<g id="Symbol_18_0_Layer0_1_FILL">
<path fill="#000000" fill-opacity="0.10196078431372549" stroke="none" d="
M -41.35 5.75
L -44.9 5.75 -55.85 5.75 -59.35 5.75
Q -50.35 8.05 -41.35 5.75 Z"/>

<path fill="#9C6E41" stroke="none" d="
M -46.6 -1.6
L -54.1 -1.6 -56.65 0.75 -55.85 5.75 -44.9 5.75 -44.05 0.75 -46.6 -1.6
M -51.4 -10.75
Q -51.4 -10.3 -51.1 -10 -50.8 -9.65 -50.35 -9.65 -49.9 -9.65 -49.6 -10 -49.3 -10.3 -49.3 -10.75 -49.3 -11.15 -49.6 -11.5 -49.9 -11.8 -50.35 -11.8 -50.8 -11.8 -51.1 -11.5 -51.4 -11.15 -51.4 -10.75
M -61.4 -10.35
L -61.4 -8.35 -50.35 -6.75 -39.3 -8.35 -39.3 -10.35 -50.35 -8.75 -61.4 -10.35 Z"/>

<path fill="#B8824D" stroke="none" d="
M -54.1 -1.6
L -46.6 -1.6 -44.05 0.75 -44.9 5.75 -41.35 5.75 -40.35 5.75
Q -39.3 5.75 -39.3 4.7
L -39.3 -8.35 -50.35 -6.75 -61.4 -8.35 -61.4 4.7
Q -61.4 5.75 -60.35 5.75
L -59.35 5.75 -55.85 5.75 -56.65 0.75 -54.1 -1.6
M -61.4 -17.2
L -61.4 -10.35 -50.35 -8.75 -39.3 -10.35 -39.3 -17.2
Q -39.3 -18.25 -40.35 -18.25
L -60.35 -18.25
Q -61.4 -18.25 -61.4 -17.2
M -51.1 -10
Q -51.4 -10.3 -51.4 -10.75 -51.4 -11.15 -51.1 -11.5 -50.8 -11.8 -50.35 -11.8 -49.9 -11.8 -49.6 -11.5 -49.3 -11.15 -49.3 -10.75 -49.3 -10.3 -49.6 -10 -49.9 -9.65 -50.35 -9.65 -50.8 -9.65 -51.1 -10 Z"/>
</g>

<g id="Symbol_17_0_Layer0_0_FILL">
<path fill="#D7BD93" stroke="none" d="
M -7.35 1.7
Q -4.4 3.65 -0.2 3.65 4 3.65 6.95 1.7 8.7 0.55 9.4 -0.9
L -9.8 -0.9
Q -9.1 0.55 -7.35 1.7 Z"/>

<path fill="#FFE0B1" stroke="none" d="
M 19.15 -5.45
Q 20.7 -15.55 19.1 -26.1 18.45 -30.55 14 -30.55
L -16.35 -30.55
Q -20.75 -30.55 -21.45 -26 -22.95 -15.7 -21.45 -5.4 -20.75 -0.9 -16.35 -0.9
L -9.8 -0.9 9.4 -0.9 14 -0.9
Q 18.45 -0.9 19.15 -5.45 Z"/>
</g>

<g id="Symbol_17_0_Layer0_1_FILL">
<path fill="#5D5454" stroke="none" d="
M 0 -6.35
L 19.8 -13.2
Q -1 -7.6251953125 -21.8 -12.3
L 0 -6.35
M 14.15 -47.55
Q 14.7546875 -48.1908203125 15.65 -48.35 7.05 -49.6 -4.3 -45.3 -4.55 -45.25 -4.8 -45.15 -10.5 -43.45 -17.85 -40.05
L -19.1 -36.95 -22.2 -38.3 -25.2 -31.55
Q -27.888671875 -24.348046875 -22.65 -12.55 -22.43046875 -12.0466796875 -22.2 -11.55
L -21.9 -12.35 -16.2 -26.45
Q -7.357421875 -42.121875 14.15 -47.55
M 13.05 -44.45
L 17.15 -25.7 20.65 -19.3 20.65 -34.3 13.05 -44.45 Z"/>

<path fill="#544B4B" stroke="none" d="
M 13.05 -44.45
Q 13.2607421875 -46.5572265625 14.15 -47.55 -7.357421875 -42.121875 -16.2 -26.45
L -21.9 -12.35 -21.8 -12.3
Q -1 -7.6251953125 19.8 -13.2
L 20.65 -19.3 17.15 -25.7 13.05 -44.45 Z"/>
</g>

<g id="Symbol_16_0_Layer0_0_MEMBER_0_FILL">
<path fill="#D7BD93" stroke="none" d="
M 6.6 3.15
Q 8.35 2 9.05 0.55
L -10.15 0.55
Q -9.45 2 -7.7 3.15 -4.75 5.1 -0.55 5.1 3.65 5.1 6.6 3.15 Z"/>

<path fill="#FFE0B1" stroke="none" d="
M 13.75 -7.5
Q 18.4 -5.9 19.55 -12.1 19.6 -14.8 19.5 -17.55 19.3 -21.05 18.75 -24.65 18.1 -29.1 13.65 -29.1
L -16.7 -29.1
Q -21.1 -29.1 -21.8 -24.55 -22.35 -20.65 -22.5 -16.7 -19.25 -5.45 -14.05 -7.85 -12.9 -8.3 -11.7 -8.65 -6.75 -10.15 -0.6 -10.15 7.6 -10.15 13.75 -7.5 Z"/>

<path fill="#E7E2DA" stroke="none" d="
M 18.9 -4.45
Q 19.45 -8.25 19.55 -12.1 18.4 -5.9 13.75 -7.5 7.6 -10.15 -0.6 -10.15 -6.75 -10.15 -11.7 -8.65 -12.9 -8.3 -14.05 -7.85 -19.25 -5.45 -22.5 -16.7 -22.75 -10.35 -21.8 -3.95 -21.7 -3.4 -21.55 -2.95 -21.4 -2.25 -21.05 -1.7 -19.8 0.55 -16.7 0.55
L -10.15 0.55 9.05 0.55 13.65 0.55
Q 17.85 0.55 18.7 -3.45 18.75 -3.75 18.8 -4 18.85 -4.25 18.9 -4.45 Z"/>
</g>

<g id="Symbol_16_0_Layer0_1_FILL">
<path fill="#FFFFFF" stroke="none" d="
M -5.1 -17.55
Q -6.1 -18.65 -7.65 -18.65 -9.2 -18.65 -10.3 -17.55 -11.3 -16.4 -11.3 -14.85 -11.3 -13.3 -10.3 -12.2 -9.2 -11.05 -7.65 -11.05 -6.1 -11.05 -5.1 -12.2 -4 -13.3 -4 -14.85 -4 -16.4 -5.1 -17.55
M 14.6 -14.85
Q 14.6 -16.4 13.5 -17.55 12.5 -18.65 10.95 -18.65 9.4 -18.65 8.3 -17.55 7.3 -16.4 7.3 -14.85 7.3 -13.3 8.3 -12.2 9.4 -11.05 10.95 -11.05 12.5 -11.05 13.5 -12.2 14.6 -13.3 14.6 -14.85 Z"/>

<path fill="#544B4B" stroke="none" d="
M 7.55 -22.6
L 6.9 -19.4 15.7 -19.4
Q 12.95 -22.85 7.55 -22.6
M -3.95 -20.3
L -4.6 -23.5
Q -10 -23.75 -12.75 -20.3
L -3.95 -20.3 Z"/>
</g>

<g id="Symbol_16_0_Layer0_1_MEMBER_0_FILL">
<path fill="#7F7058" stroke="none" d="
M -62.55 -10.95
L -69.55 -10.95
Q -69.8 -10.6 -70 -10.2 -70.25 -9.75 -70.35 -9.25 -70.45 -8.9 -70.35 -8.65 -70.25 -8.3 -69.95 -8.15 -69.7 -7.95 -69.4 -7.95
L -59.7 -7.95
Q -59.4 -7.95 -59.1 -8.15 -58.85 -8.3 -58.75 -8.65 -58.65 -8.9 -58.7 -9.25 -58.85 -9.75 -59.1 -10.2 -59.55 -11.1 -60.3 -11.85
L -60.35 -11.9
Q -61.35 -12.9 -62.6 -13.35
L -62.55 -10.95 Z"/>

<path fill="#FFFFFF" stroke="none" d="
M -62.6 -13.35
Q -63.5 -13.65 -64.55 -13.65 -67 -13.65 -68.8 -11.85 -69.25 -11.45 -69.55 -10.95
L -62.55 -10.95 -62.6 -13.35 Z"/>
</g>

<g id="Symbol_16_0_Layer0_1_MEMBER_1_FILL">
<path fill="#7F7058" stroke="none" d="
M -4.6 -12.65
Q -3.95 -13.55 -3.95 -14.85 -3.95 -16.15 -4.6 -17.1 -5.2 -18 -6.1 -18 -7 -18 -7.65 -17.1 -8.25 -16.15 -8.25 -14.85 -8.25 -13.55 -7.65 -12.65 -7 -11.7 -6.1 -11.7 -5.2 -11.7 -4.6 -12.65
M 12.25 -12.65
Q 12.9 -13.55 12.9 -14.85 12.9 -16.15 12.25 -17.1 11.65 -18 10.75 -18 9.85 -18 9.2 -17.1 8.6 -16.15 8.6 -14.85 8.6 -13.55 9.2 -12.65 9.85 -11.7 10.75 -11.7 11.65 -11.7 12.25 -12.65 Z"/>
</g>

<g id="Symbol_16_0_Layer0_2_FILL">
<path fill="#5D5454" stroke="none" d="
M 14.15 -47.55
Q 14.7546875 -48.1908203125 15.65 -48.35 7.05 -49.6 -4.3 -45.3 -4.55 -45.25 -4.8 -45.15 -10.5 -43.45 -17.85 -40.05
L -19.1 -36.95 -22.2 -38.3 -25.2 -31.55
Q -28 -24.05 -22.2 -11.55
L -16.2 -26.45
Q -7.357421875 -42.121875 14.15 -47.55
M 13.05 -44.45
L 17.15 -25.7 19.55 -17.55 20.65 -34.3 13.05 -44.45 Z"/>

<path fill="#544B4B" stroke="none" d="
M 1.7 -25.9
Q 8.9099609375 -24.3138671875 17.15 -25.7
L 13.05 -44.45
Q 13.2607421875 -46.5572265625 14.15 -47.55 -7.357421875 -42.121875 -16.2 -26.45 -10.8669921875 -29.1984375 -5.1 -27.9 -2.0802734375 -27.026953125 0 -24.35
L 1.7 -25.9 Z"/>
</g>

<g id="Symbol_11_0_Layer0_0_FILL">
<path fill="#916B4E" stroke="none" d="
M 8.95 9.25
L 9 6.35 -8.75 6.35 -8.75 8.35 8.95 9.25 Z"/>

<path fill="#AA7E5C" stroke="none" d="
M 8.95 16
L 8.95 9.25 -8.75 8.35 -7.2 11 -8.75 11
Q -10.55 11.9 -12 13.85
L -12 16 8.95 16 Z"/>

<path fill="#E0C1A2" stroke="none" d="
M 9 6.35
L 9 2.95 -8.75 2.95 -8.75 6.35 9 6.35 Z"/>

<path fill="#ECCFB1" stroke="none" d="
M 6.45 -4.5
Q 3.85 -7 0.15 -7
L 0.1 -7
Q -3.6 -7 -6.15 -4.5 -8.75 -1.95 -8.75 1.7
L -8.75 2.95 9 2.95 9 1.7
Q 9 -1.95 6.45 -4.5 Z"/>
</g>

<g id="Symbol_10_0_Layer0_0_FILL">
<path fill="#B8824D" stroke="none" d="
M 20 10
L 20 5.95 -5.6 5.95 -16.55 5.95 -19 5.95 -19 10 20 10
M -11.1 -18.6
Q -11.75 -19.75 -12.6 -21
L -19 -21 -19 -3.55
Q -6.1 -5.75 -9.5 -15.2
L -11.8 -16.4
Q -11.65 -17.55 -11.1 -18.6
M 20 -21
L 13.9 -21
Q 15.3 -17.85 14.5 -14.4 13.3 -8.25 20 -6.55
L 20 -21 Z"/>

<path fill="#E0C79A" stroke="none" d="
M 2.6 -9.1
L 13.9 -21 -9.3 -21 2.6 -9.1 Z"/>

<path fill="#637480" stroke="none" d="
M 14.5 -14.4
Q 15.3 -17.85 13.9 -21
L 2.6 -9.1 14.5 -14.4
M -11.1 -18.6
Q -11.65 -17.55 -11.8 -16.4
L -9.5 -15.2 2.6 -9.1 -9.3 -21
Q -10.45 -19.9 -11.1 -18.6 Z"/>

<path fill="#7E95A3" stroke="none" d="
M -9.5 -15.2
Q -6.1 -5.75 -19 -3.55
L -19 5.95 -16.55 5.95 -9.3 0.9 -5.6 5.95 20 5.95 20 -6.55
Q 13.3 -8.25 14.5 -14.4
L 2.6 -9.1 -9.5 -15.2
M 3.75 -5.5
Q 3.25 -5.95 3.25 -6.55 3.25 -7.15 3.75 -7.65 4.2 -8.1 4.8 -8.1 5.4 -8.1 5.85 -7.65 6.3 -7.15 6.3 -6.55 6.3 -5.95 5.85 -5.5 5.4 -5.05 4.8 -5.05 4.2 -5.05 3.75 -5.5
M 2.4 -1.2
Q 6 -1.2 8.55 -0.55 10.85 0.1 11.1 0.9
L -6.25 0.9
Q -6.05 0.1 -3.75 -0.55 -1.2 -1.2 2.4 -1.2
M -12.6 -21
Q -11.75 -19.75 -11.1 -18.6 -10.45 -19.9 -9.3 -21
L -12.6 -21 Z"/>

<path fill="#738895" stroke="none" d="
M 8.55 -0.55
Q 6 -1.2 2.4 -1.2 -1.2 -1.2 -3.75 -0.55 -6.05 0.1 -6.25 0.9
L 11.1 0.9
Q 10.85 0.1 8.55 -0.55 Z"/>

<path fill="#E7E2DA" stroke="none" d="
M 3.25 -6.55
Q 3.25 -5.95 3.75 -5.5 4.2 -5.05 4.8 -5.05 5.4 -5.05 5.85 -5.5 6.3 -5.95 6.3 -6.55 6.3 -7.15 5.85 -7.65 5.4 -8.1 4.8 -8.1 4.2 -8.1 3.75 -7.65 3.25 -7.15 3.25 -6.55
M -9.3 0.9
L -16.55 5.95 -5.6 5.95 -9.3 0.9 Z"/>
</g>

<g id="Symbol_12_0_Layer0_0_MEMBER_0_FILL">
<path fill="#D7BD93" stroke="none" d="
M 923.8 609.2
Q 928 609.2 930.95 607.25 932.7 606.1 933.4 604.65
L 914.2 604.65
Q 914.9 606.1 916.65 607.25 919.6 609.2 923.8 609.2 Z"/>

<path fill="#E7E2DA" stroke="none" d="
M 943.15 600.1
Q 943.2 599.85 943.25 599.65 943.8 595.85 943.9 592 942.75 598.2 938.1 596.6 931.95 593.95 923.75 593.95 917.6 593.95 912.65 595.45 911.45 595.8 910.3 596.25 905.1 598.65 901.85 587.4 901.6 593.75 902.55 600.15 902.65 600.7 902.8 601.15 902.95 601.85 903.3 602.4 904.55 604.65 907.65 604.65
L 914.2 604.65 933.4 604.65 938 604.65
Q 942.2 604.65 943.05 600.65 943.1 600.35 943.15 600.1 Z"/>

<path fill="#FFE0B1" stroke="none" d="
M 902.55 579.55
Q 902 583.45 901.85 587.4 905.1 598.65 910.3 596.25 911.45 595.8 912.65 595.45 917.6 593.95 923.75 593.95 931.95 593.95 938.1 596.6 942.75 598.2 943.9 592 943.95 589.3 943.85 586.55 943.65 583.05 943.1 579.45 942.45 575 938 575
L 907.65 575
Q 903.25 575 902.55 579.55 Z"/>
</g>

<g id="Symbol_12_0_Layer0_1_FILL">
<path fill="#544B4B" stroke="none" d="
M 7.55 -21.6
L 6.9 -18.4 15.7 -18.4
Q 12.95 -21.85 7.55 -21.6
M -3.95 -17.3
L -4.6 -20.5
Q -10 -20.75 -12.75 -17.3
L -3.95 -17.3 Z"/>

<path fill="#7F7058" stroke="none" d="
M -8.95 -15.15
Q -9.05 -14.7 -9.05 -14.2 -9.05 -12.9 -8.45 -12 -8.3 -11.8 -8.15 -11.65 -7.6 -11.05 -6.9 -11.05 -6.2 -11.05 -5.65 -11.65 -5.5 -11.8 -5.4 -12 -4.75 -12.9 -4.75 -14.2 -4.75 -14.7 -4.85 -15.15
L -8.95 -15.15
M 12.1 -14.2
Q 12.1 -14.7 12 -15.15
L 7.9 -15.15
Q 7.8 -14.7 7.8 -14.2 7.8 -12.9 8.4 -12 8.55 -11.8 8.7 -11.65 9.25 -11.05 9.95 -11.05 10.65 -11.05 11.2 -11.65 11.35 -11.8 11.45 -12 12.1 -12.9 12.1 -14.2
M 6.5 -8.45
Q 6.2 -8.65 5.9 -8.65
L 3.05 -8.65 3.05 -5.65 -3.95 -5.65
Q -3.65 -5.15 -3.2 -4.75 -1.4 -2.95 1.05 -2.95 3.5 -2.95 5.25 -4.7
L 5.3 -4.75
Q 6.05 -5.5 6.5 -6.4 6.75 -6.85 6.9 -7.35 6.95 -7.7 6.85 -7.95 6.75 -8.3 6.5 -8.45 Z"/>

<path fill="#FFFFFF" stroke="none" d="
M -9.05 -14.2
Q -9.05 -14.7 -8.95 -15.15
L -11.2 -15.15
Q -11.3 -14.7 -11.3 -14.2 -11.3 -12.7 -10.4 -11.65 -10.35 -11.6 -10.3 -11.55 -9.2 -10.4 -7.65 -10.4 -6.1 -10.4 -5.1 -11.55 -5.05 -11.6 -5 -11.65 -4 -12.7 -4 -14.2 -4 -14.7 -4.1 -15.15
L -4.85 -15.15
Q -4.75 -14.7 -4.75 -14.2 -4.75 -12.9 -5.4 -12 -5.5 -11.8 -5.65 -11.65 -6.2 -11.05 -6.9 -11.05 -7.6 -11.05 -8.15 -11.65 -8.3 -11.8 -8.45 -12 -9.05 -12.9 -9.05 -14.2
M 12 -15.15
Q 12.1 -14.7 12.1 -14.2 12.1 -12.9 11.45 -12 11.35 -11.8 11.2 -11.65 10.65 -11.05 9.95 -11.05 9.25 -11.05 8.7 -11.65 8.55 -11.8 8.4 -12 7.8 -12.9 7.8 -14.2 7.8 -14.7 7.9 -15.15
L 7.4 -15.15
Q 7.3 -14.7 7.3 -14.2 7.3 -12.7 8.2 -11.65 8.25 -11.6 8.3 -11.55 9.4 -10.4 10.95 -10.4 12.5 -10.4 13.5 -11.55 13.55 -11.6 13.6 -11.65 14.6 -12.7 14.6 -14.2 14.6 -14.7 14.5 -15.15
L 12 -15.15
M 3.05 -5.65
L 3.05 -8.65 -3.8 -8.65
Q -4.1 -8.65 -4.35 -8.45 -4.65 -8.3 -4.75 -7.95 -4.85 -7.7 -4.75 -7.35 -4.65 -6.85 -4.4 -6.4 -4.2 -6 -3.95 -5.65
L 3.05 -5.65 Z"/>
</g>

<g id="Symbol_12_0_Layer0_2_FILL">
<path fill="#544B4B" stroke="none" d="
M 1.7 -25.9
Q 8.9099609375 -24.3138671875 17.15 -25.7
L 13.05 -44.45
Q 13.2607421875 -46.5572265625 14.15 -47.55 -7.357421875 -42.121875 -16.2 -26.45 -10.8669921875 -29.1984375 -5.1 -27.9 -2.0802734375 -27.026953125 0 -24.35
L 1.7 -25.9 Z"/>

<path fill="#5D5454" stroke="none" d="
M 13.05 -44.45
L 17.15 -25.7 19.55 -17.55 20.65 -34.3 13.05 -44.45
M 14.15 -47.55
Q 14.7546875 -48.1908203125 15.65 -48.35 7.05 -49.6 -4.3 -45.3 -4.55 -45.25 -4.8 -45.15 -10.5 -43.45 -17.85 -40.05
L -19.1 -36.95 -22.2 -38.3 -25.2 -31.55
Q -28 -24.05 -22.2 -11.55
L -16.2 -26.45
Q -7.357421875 -42.121875 14.15 -47.55 Z"/>
</g>

<g id="Symbol_15_0_Layer0_0_MEMBER_0_FILL">
<path fill="#D7BD93" stroke="none" d="
M 6.6 3.15
Q 8.35 2 9.05 0.55
L -10.15 0.55
Q -9.45 2 -7.7 3.15 -4.75 5.1 -0.55 5.1 3.65 5.1 6.6 3.15 Z"/>

<path fill="#FFE0B1" stroke="none" d="
M 13.75 -7.5
Q 18.4 -5.9 19.55 -12.1 19.6 -14.8 19.5 -17.55 19.3 -21.05 18.75 -24.65 18.1 -29.1 13.65 -29.1
L -16.7 -29.1
Q -21.1 -29.1 -21.8 -24.55 -22.35 -20.65 -22.5 -16.7 -19.25 -5.45 -14.05 -7.85 -12.9 -8.3 -11.7 -8.65 -6.75 -10.15 -0.6 -10.15 7.6 -10.15 13.75 -7.5 Z"/>

<path fill="#E7E2DA" stroke="none" d="
M 18.9 -4.45
Q 19.45 -8.25 19.55 -12.1 18.4 -5.9 13.75 -7.5 7.6 -10.15 -0.6 -10.15 -6.75 -10.15 -11.7 -8.65 -12.9 -8.3 -14.05 -7.85 -19.25 -5.45 -22.5 -16.7 -22.75 -10.35 -21.8 -3.95 -21.7 -3.4 -21.55 -2.95 -21.4 -2.25 -21.05 -1.7 -19.8 0.55 -16.7 0.55
L -10.15 0.55 9.05 0.55 13.65 0.55
Q 17.85 0.55 18.7 -3.45 18.75 -3.75 18.8 -4 18.85 -4.25 18.9 -4.45 Z"/>
</g>

<g id="Symbol_15_0_Layer0_1_FILL">
<path fill="#544B4B" stroke="none" d="
M 6.3 -21.6
L 6.5 -18.35 15 -20.6
Q 11.45 -23.2 6.3 -21.6
M -3.5 -20.2
L -3.3 -23.5
Q -8.45 -25.15 -12 -22.5
L -3.5 -20.2 Z"/>

<path fill="#7F7058" stroke="none" d="
M 7.65 -5.7
Q 8.05 -5.85 8.25 -6.2 8.4 -6.55 8.3 -6.95 8.15 -7.35 7.8 -7.5 7.45 -7.7 7.05 -7.6 1.7 -5.9 -2.25 -8.45 -2.6 -8.7 -3 -8.6 -3.4 -8.55 -3.6 -8.2 -3.85 -7.85 -3.75 -7.45 -3.7 -7.05 -3.35 -6.8 1.3 -3.7 7.65 -5.7 Z"/>

<path fill="#FFFFFF" stroke="none" d="
M -5.1 -17.55
Q -6.1 -18.65 -7.65 -18.65 -9.2 -18.65 -10.3 -17.55 -11.3 -16.4 -11.3 -14.85 -11.3 -13.3 -10.3 -12.2 -9.2 -11.05 -7.65 -11.05 -6.1 -11.05 -5.1 -12.2 -4 -13.3 -4 -14.85 -4 -16.4 -5.1 -17.55
M 13.5 -17.55
Q 12.5 -18.65 10.95 -18.65 9.4 -18.65 8.3 -17.55 7.3 -16.4 7.3 -14.85 7.3 -13.3 8.3 -12.2 9.4 -11.05 10.95 -11.05 12.5 -11.05 13.5 -12.2 14.6 -13.3 14.6 -14.85 14.6 -16.4 13.5 -17.55 Z"/>
</g>

<g id="Symbol_15_0_Layer0_1_MEMBER_0_FILL">
<path fill="#7F7058" stroke="none" d="
M -5.4 -12.65
Q -4.75 -13.55 -4.75 -14.85 -4.75 -16.15 -5.4 -17.1 -6 -18 -6.9 -18 -7.8 -18 -8.45 -17.1 -9.05 -16.15 -9.05 -14.85 -9.05 -13.55 -8.45 -12.65 -7.8 -11.7 -6.9 -11.7 -6 -11.7 -5.4 -12.65
M 11.45 -12.65
Q 12.1 -13.55 12.1 -14.85 12.1 -16.15 11.45 -17.1 10.85 -18 9.95 -18 9.05 -18 8.4 -17.1 7.8 -16.15 7.8 -14.85 7.8 -13.55 8.4 -12.65 9.05 -11.7 9.95 -11.7 10.85 -11.7 11.45 -12.65 Z"/>
</g>

<g id="Symbol_15_0_Layer0_2_FILL">
<path fill="#5D5454" stroke="none" d="
M 14.15 -47.55
Q 14.7546875 -48.1908203125 15.65 -48.35 7.05 -49.6 -4.3 -45.3 -4.55 -45.25 -4.8 -45.15 -10.5 -43.45 -17.85 -40.05
L -19.1 -36.95 -22.2 -38.3 -25.2 -31.55
Q -28 -24.05 -22.2 -11.55
L -16.2 -26.45
Q -7.357421875 -42.121875 14.15 -47.55
M 13.05 -44.45
L 17.15 -25.7 19.55 -17.55 20.65 -34.3 13.05 -44.45 Z"/>

<path fill="#544B4B" stroke="none" d="
M 1.7 -25.9
Q 8.9099609375 -24.3138671875 17.15 -25.7
L 13.05 -44.45
Q 13.2607421875 -46.5572265625 14.15 -47.55 -7.357421875 -42.121875 -16.2 -26.45 -10.8669921875 -29.1984375 -5.1 -27.9 -2.0802734375 -27.026953125 0 -24.35
L 1.7 -25.9 Z"/>
</g>
</defs>

<g id="armLeft" transform="matrix( 0.86602783203125, 0.4999847412109375, 0.4110107421875, -1.1675262451171875, 539.45,57.15) ">
<g transform="matrix( 1, 0, 0, 1, 0,0) ">
<use xlink:href="#Symbol_8_0_Layer0_0_FILL"/>
</g>
</g>

<g id="handLeft" transform="matrix( -0.965911865234375, -0.2587890625, 0.2587890625, -0.9658966064453125, 540.95,23.6) ">
<g transform="matrix( 1, 0, 0, 1, 0,0) ">
<use xlink:href="#Symbol_9_0_Layer0_0_FILL"/>
</g>
</g>

<g id="armRight" transform="matrix( -0.6365509033203125, 0.7712249755859375, -0.5618133544921875, -0.463714599609375, 506.2,62.15) ">
<g transform="matrix( 1, 0, 0, 1, 0,0) ">
<use xlink:href="#Symbol_8_0_Layer0_0_FILL"/>
</g>
</g>

<g id="handRight" transform="matrix( 0.9999237060546875, 0.0097808837890625, 0.0097808837890625, -0.9999237060546875, 502.4,44.1) ">
<g transform="matrix( 1, 0, 0, 1, 0,0) ">
<use xlink:href="#Symbol_9_0_Layer0_0_FILL"/>
</g>
</g>

<g transform="matrix( 0.9870147705078125, 0.158935546875, 0, 1, 521.35,78.35) ">
<g transform="matrix( 1, 0, 0, 1, 0,0) ">
<use xlink:href="#Symbol_18_0_Layer0_0_FILL"/>
</g>

<g transform="matrix( 0.719451904296875, 0, 0, 0.719451904296875, 36.2,-0.35) ">
<use xlink:href="#Symbol_18_0_Layer0_1_FILL"/>
</g>
</g>

<g transform="matrix( 1, 0, 0, 1, 971,53.7) ">
<g transform="matrix( 1, 0, 0, 1, 0,0) ">
<use xlink:href="#Symbol_17_0_Layer0_0_FILL"/>
</g>

<g transform="matrix( 1, 0, 0, 1, 0,0) ">
<use xlink:href="#Symbol_17_0_Layer0_1_FILL"/>
</g>
</g>

<g transform="matrix( 1, 0, 0, 1, 850.6,53.65) ">
<g transform="matrix( 1, 0, 0, 1, 0,0) ">
<use xlink:href="#Symbol_16_0_Layer0_0_MEMBER_0_FILL"/>
</g>

<g transform="matrix( 1, 0, 0, 1, 0,0) ">
<use xlink:href="#Symbol_16_0_Layer0_1_FILL"/>
</g>

<g transform="matrix( 1, 0, 0, 1, 66.85,4.9) ">
<use xlink:href="#Symbol_16_0_Layer0_1_MEMBER_0_FILL"/>
</g>

<g transform="matrix( 1, 0, 0, 1, -0.8,0) ">
<use xlink:href="#Symbol_16_0_Layer0_1_MEMBER_1_FILL"/>
</g>

<g transform="matrix( 1, 0, 0, 1, 0,0) ">
<use xlink:href="#Symbol_16_0_Layer0_2_FILL"/>
</g>
</g>

<g id="armRight_FL" transform="matrix( -0.9877471923828125, 0.2588043212890625, 0.1600341796875, 0.8716888427734375, 457.1,288.85) ">
<g transform="matrix( 1, 0, 0, 1, 0,0) ">
<use xlink:href="#Symbol_8_0_Layer0_0_FILL"/>
</g>
</g>

<g id="handRight_FL" transform="matrix( -0.9877471923828125, 0.2588043212890625, 0.177337646484375, 0.9659271240234375, 460.3,314) ">
<g transform="matrix( 1, 0, 0, 1, 0,0) ">
<use xlink:href="#Symbol_9_0_Layer0_0_FILL"/>
</g>
</g>

<g id="legLeft" transform="matrix( 1, 0, 0, 1, 21.25,313.85) ">
<g transform="matrix( 1, 0, 0, 1, 0,0) ">
<use xlink:href="#Symbol_11_0_Layer0_0_FILL"/>
</g>
</g>

<g id="legRight" transform="matrix( -1, 0, 0.12384033203125, 1, 41.4,313.85) ">
<g transform="matrix( 1, 0, 0, 1, 0,0) ">
<use xlink:href="#Symbol_11_0_Layer0_0_FILL"/>
</g>
</g>

<g id="body" transform="matrix( 0.9168853759765625, 0, 0.1072998046875, 1, 31.85,305.15) ">
<g transform="matrix( 1, 0, 0, 1, 0,0) ">
<use xlink:href="#Symbol_10_0_Layer0_0_FILL"/>
</g>
</g>

<g id="armLeft_FL" transform="matrix( 1, 0, 0, 1, 10.9,290.25) ">
<g transform="matrix( 1, 0, 0, 1, 0,0) ">
<use xlink:href="#Symbol_8_0_Layer0_0_FILL"/>
</g>
</g>

<g id="handLeft_FL" transform="matrix( 1, 0, 0, 1, 12.2,316.85) ">
<g transform="matrix( 1, 0, 0, 1, 0,0) ">
<use xlink:href="#Symbol_9_0_Layer0_0_FILL"/>
</g>
</g>

<g id="armRight_FL_FL" transform="matrix( 0.6190185546875, -0.7853546142578125, 0.7853546142578125, 0.6190185546875, 47.35,289.55) ">
<g transform="matrix( 1, 0, 0, 1, 0,0) ">
<use xlink:href="#Symbol_8_0_Layer0_0_FILL"/>
</g>
</g>

<g id="handRight_FL_FL" transform="matrix( 0.4999847412109375, -0.8660125732421875, 0.8660125732421875, 0.4999847412109375, 68.4,303.6) ">
<g transform="matrix( 1, 0, 0, 1, 0,0) ">
<use xlink:href="#Symbol_9_0_Layer0_0_FILL"/>
</g>
</g>

<g id="head" transform="matrix( 1, 0, 0, 1, 31.75,286.15) ">
<g transform="matrix( 1, 0, 0, 1, -924.35,-604.1) ">
<use xlink:href="#Symbol_12_0_Layer0_0_MEMBER_0_FILL"/>
</g>

<g transform="matrix( 1, 0, 0, 1, 0,0) ">
<use xlink:href="#Symbol_12_0_Layer0_1_FILL"/>
</g>

<g transform="matrix( 1, 0, 0, 1, 0,0) ">
<use xlink:href="#Symbol_12_0_Layer0_2_FILL"/>
</g>
</g>

<g id="legLeft_FL" transform="matrix( 1, 0, 0, 1, 30.75,93.85) ">
<g transform="matrix( 1, 0, 0, 1, 0,0) ">
<use xlink:href="#Symbol_11_0_Layer0_0_FILL"/>
</g>
</g>

<g id="legRight_FL" transform="matrix( -1, 0, 0, 1, 51.9,93.85) ">
<g transform="matrix( 1, 0, 0, 1, 0,0) ">
<use xlink:href="#Symbol_11_0_Layer0_0_FILL"/>
</g>
</g>

<g id="body_FL" transform="matrix( 1, 0, 0, 1, 41.35,85.15) ">
<g transform="matrix( 1, 0, 0, 1, 0,0) ">
<use xlink:href="#Symbol_10_0_Layer0_0_FILL"/>
</g>
</g>

<g id="armLeft_FL_FL" transform="matrix( 0.9659271240234375, 0.2588043212890625, -0.233551025390625, 0.8716888427734375, 23.55,70.35) ">
<g transform="matrix( 1, 0, 0, 1, 0,0) ">
<use xlink:href="#Symbol_8_0_Layer0_0_FILL"/>
</g>
</g>

<g id="handLeft_FL_FL" transform="matrix( 0.9659271240234375, 0.2588043212890625, -0.2588043212890625, 0.9659271240234375, 18.3,95.05) ">
<g transform="matrix( 1, 0, 0, 1, 0,0) ">
<use xlink:href="#Symbol_9_0_Layer0_0_FILL"/>
</g>
</g>

<g id="armRight_FL_FL_FL" transform="matrix( -0.9659271240234375, 0.2588043212890625, 0.233551025390625, 0.8716888427734375, 57.6,69.35) ">
<g transform="matrix( 1, 0, 0, 1, 0,0) ">
<use xlink:href="#Symbol_8_0_Layer0_0_FILL"/>
</g>
</g>

<g id="handRight_FL_FL_FL" transform="matrix( -0.9659271240234375, 0.2588043212890625, 0.2588043212890625, 0.9659271240234375, 62.9,94.5) ">
<g transform="matrix( 1, 0, 0, 1, 0,0) ">
<use xlink:href="#Symbol_9_0_Layer0_0_FILL"/>
</g>
</g>

<g id="head_FL" transform="matrix( 1, 0, 0, 1, 41.25,66.15) ">
<g transform="matrix( 1, 0, 0, 1, -924.35,-604.1) ">
<use xlink:href="#Symbol_12_0_Layer0_0_MEMBER_0_FILL"/>
</g>

<g transform="matrix( 1, 0, 0, 1, 0,0) ">
<use xlink:href="#Symbol_12_0_Layer0_1_FILL"/>
</g>

<g transform="matrix( 1, 0, 0, 1, 0,0) ">
<use xlink:href="#Symbol_12_0_Layer0_2_FILL"/>
</g>
</g>

<g id="legLeft_FL_FL" transform="matrix( -0.858612060546875, -0.499969482421875, -0.4956817626953125, 0.86602783203125, 114.15,89.5) ">
<g transform="matrix( 1, 0, 0, 1, 0,0) ">
<use xlink:href="#Symbol_11_0_Layer0_0_FILL"/>
</g>
</g>

<g id="armRight_FL_FL_FL_FL" transform="matrix( 0.773681640625, 0.6253204345703125, 0.619964599609375, -0.780364990234375, 139.2,63.85) ">
<g transform="matrix( 1, 0, 0, 1, 0,0) ">
<use xlink:href="#Symbol_8_0_Layer0_0_FILL"/>
</g>
</g>

<g id="body_FL_FL" transform="matrix( 0.991424560546875, 0, 0, 1, 122.85,80.25) ">
<g transform="matrix( 1, 0, 0, 1, 0,0) ">
<use xlink:href="#Symbol_10_0_Layer0_0_FILL"/>
</g>
</g>

<g id="armLeft_FL_FL_FL" transform="matrix( 0.9059906005859375, 0.406097412109375, -0.402618408203125, 0.913818359375, 102.1,65.35) ">
<g transform="matrix( 1, 0, 0, 1, 0,0) ">
<use xlink:href="#Symbol_8_0_Layer0_0_FILL"/>
</g>
</g>

<g id="handLeft_FL_FL_FL" transform="matrix( 0.8837890625, 0.4531707763671875, -0.44927978515625, 0.89141845703125, 91.75,91.45) ">
<g transform="matrix( 1, 0, 0, 1, 0,0) ">
<use xlink:href="#Symbol_9_0_Layer0_0_FILL"/>
</g>
</g>

<g id="handRight_FL_FL_FL_FL" transform="matrix( -0.9189910888671875, -0.3751678466796875, 0.3719482421875, -0.92694091796875, 147.25,34.7) ">
<g transform="matrix( 1, 0, 0, 1, 0,0) ">
<use xlink:href="#Symbol_9_0_Layer0_0_FILL"/>
</g>
</g>

<g id="head_FL_FL" transform="matrix( 0.991424560546875, 0, 0, 1, 122.75,61.25) ">
<g transform="matrix( 1, 0, 0, 1, -924.35,-604.1) ">
<use xlink:href="#Symbol_12_0_Layer0_0_MEMBER_0_FILL"/>
</g>

<g transform="matrix( 1, 0, 0, 1, 0,0) ">
<use xlink:href="#Symbol_12_0_Layer0_1_FILL"/>
</g>

<g transform="matrix( 1, 0, 0, 1, 0,0) ">
<use xlink:href="#Symbol_12_0_Layer0_2_FILL"/>
</g>
</g>

<g id="legRight_FL_FL" transform="matrix( -0.9887542724609375, -0.1416015625, -0.256591796875, 0.9659271240234375, 135.5,83.5) ">
<g transform="matrix( 1, 0, 0, 1, 0,0) ">
<use xlink:href="#Symbol_11_0_Layer0_0_FILL"/>
</g>
</g>

<g id="legLeft_FL_FL_FL" transform="matrix( -0.9180755615234375, -0.4373779296875, -0.2588043212890625, 0.9659271240234375, 190.2,86.2) ">
<g transform="matrix( 1, 0, 0, 1, 0,0) ">
<use xlink:href="#Symbol_11_0_Layer0_0_FILL"/>
</g>
</g>

<g id="legRight_FL_FL_FL" transform="matrix( -1.0137786865234375, 0.080230712890625, 0.2588043212890625, 0.9659271240234375, 214.3,91.65) ">
<g transform="matrix( 1, 0, 0, 1, 0,0) ">
<use xlink:href="#Symbol_11_0_Layer0_0_FILL"/>
</g>
</g>

<g id="body_FL_FL_FL" transform="matrix( 1.00140380859375, 0.027069091796875, -0.08673095703125, 0.9962310791015625, 201,79.95) ">
<g transform="matrix( 1, 0, 0, 1, 0,0) ">
<use xlink:href="#Symbol_10_0_Layer0_0_FILL"/>
</g>
</g>

<g id="armLeft_FL_FL_FL_FL" transform="matrix( 0.7071075439453125, 0.70709228515625, -0.70709228515625, 0.7071075439453125, 185.55,64.55) ">
<g transform="matrix( 1, 0, 0, 1, 0,0) ">
<use xlink:href="#Symbol_8_0_Layer0_0_FILL"/>
</g>
</g>

<g id="handLeft_FL_FL_FL_FL" transform="matrix( 0.86602783203125, 0.4999847412109375, -0.4999847412109375, 0.86602783203125, 169.9,83.55) ">
<g transform="matrix( 1, 0, 0, 1, 0,0) ">
<use xlink:href="#Symbol_9_0_Layer0_0_FILL"/>
</g>
</g>

<g id="armRight_FL_FL_FL_FL_FL" transform="matrix( -0.8660125732421875, 0.5, 0.5, 0.8660125732421875, 220.75,67.05) ">
<g transform="matrix( 1, 0, 0, 1, 0,0) ">
<use xlink:href="#Symbol_8_0_Layer0_0_FILL"/>
</g>
</g>

<g id="handRight_FL_FL_FL_FL_FL" transform="matrix( -0.9659271240234375, 0.2588043212890625, 0.2588043212890625, 0.9659271240234375, 231.05,89.7) ">
<g transform="matrix( 1, 0, 0, 1, 0,0) ">
<use xlink:href="#Symbol_9_0_Layer0_0_FILL"/>
</g>
</g>

<g id="legLeft_FL_FL_FL_FL" transform="matrix( 0.25885009765625, -0.9658966064453125, -0.9658966064453125, -0.2588348388671875, 270.8,101.15) ">
<g transform="matrix( 1, 0, 0, 1, 0,0) ">
<use xlink:href="#Symbol_11_0_Layer0_0_FILL"/>
</g>
</g>

<g id="body_FL_FL_FL_FL" transform="matrix( 0.9965667724609375, -0.0825958251953125, 0.0825958251953125, 0.9965667724609375, 281.35,92.6) ">
<g transform="matrix( 1, 0, 0, 1, 0,0) ">
<use xlink:href="#Symbol_10_0_Layer0_0_FILL"/>
</g>
</g>

<g id="legRight_FL_FL_FL_FL" transform="matrix( -1, 0, 0, 1, 291.9,93.85) ">
<g transform="matrix( 1, 0, 0, 1, 0,0) ">
<use xlink:href="#Symbol_11_0_Layer0_0_FILL"/>
</g>
</g>

<g id="armLeft_FL_FL_FL_FL_FL" transform="matrix( 0.9351959228515625, 0.3541259765625, -0.3541259765625, 0.9351959228515625, 264.6,77) ">
<g transform="matrix( 1, 0, 0, 1, 0,0) ">
<use xlink:href="#Symbol_8_0_Layer0_0_FILL"/>
</g>
</g>

<g id="handLeft_FL_FL_FL_FL_FL" transform="matrix( 0.9351959228515625, 0.3541259765625, -0.3541259765625, 0.9351959228515625, 256.35,102.6) ">
<g transform="matrix( 1, 0, 0, 1, 0,0) ">
<use xlink:href="#Symbol_9_0_Layer0_0_FILL"/>
</g>
</g>

<g id="armRight_FL_FL_FL_FL_FL_FL" transform="matrix( -0.9659271240234375, 0.2588043212890625, 0.2588043212890625, 0.9659271240234375, 298.1,73.75) ">
<g transform="matrix( 1, 0, 0, 1, 0,0) ">
<use xlink:href="#Symbol_8_0_Layer0_0_FILL"/>
</g>
</g>

<g id="handRight_FL_FL_FL_FL_FL_FL" transform="matrix( -0.9659271240234375, -0.2588043212890625, -0.2588043212890625, 0.9659271240234375, 302.2,95.7) ">
<g transform="matrix( 1, 0, 0, 1, 0,0) ">
<use xlink:href="#Symbol_9_0_Layer0_0_FILL"/>
</g>
</g>

<g id="legLeft_FL_FL_FL_FL_FL" transform="matrix( 0.8660125732421875, 0.5000152587890625, -0.4088287353515625, 0.9186553955078125, 352.45,87.5) ">
<g transform="matrix( 1, 0, 0, 1, 0,0) ">
<use xlink:href="#Symbol_11_0_Layer0_0_FILL"/>
</g>
</g>

<g id="legRight_FL_FL_FL_FL_FL" transform="matrix( -0.8660125732421875, 0.4999847412109375, 0.7039794921875, 0.823089599609375, 370.1,86.5) ">
<g transform="matrix( 1, 0, 0, 1, 0,0) ">
<use xlink:href="#Symbol_11_0_Layer0_0_FILL"/>
</g>
</g>

<g id="body_FL_FL_FL_FL_FL" transform="matrix( 0.8311614990234375, -0.0647735595703125, 0, 1, 361.55,77.8) ">
<g transform="matrix( 1, 0, 0, 1, 0,0) ">
<use xlink:href="#Symbol_10_0_Layer0_0_FILL"/>
</g>
</g>

<g id="armLeft_FL_FL_FL_FL_FL_FL" transform="matrix( 0.707122802734375, 0.70709228515625, -0.70709228515625, 0.707122802734375, 347.25,62.7) ">
<g transform="matrix( 1, 0, 0, 1, 0,0) ">
<use xlink:href="#Symbol_8_0_Layer0_0_FILL"/>
</g>
</g>

<g id="handLeft_FL_FL_FL_FL_FL_FL" transform="matrix( 0.707122802734375, 0.70709228515625, -0.70709228515625, 0.707122802734375, 328.65,83.3) ">
<g transform="matrix( 1, 0, 0, 1, 0,0) ">
<use xlink:href="#Symbol_9_0_Layer0_0_FILL"/>
</g>
</g>

<g id="armRight_FL_FL_FL_FL_FL_FL_FL" transform="matrix( -0.81951904296875, 0.5730438232421875, 0.5730438232421875, 0.81951904296875, 376.95,62.25) ">
<g transform="matrix( 1, 0, 0, 1, 0,0) ">
<use xlink:href="#Symbol_8_0_Layer0_0_FILL"/>
</g>
</g>

<g id="handRight_FL_FL_FL_FL_FL_FL_FL" transform="matrix( -0.707122802734375, 0.7070770263671875, 0.7070770263671875, 0.707122802734375, 392.05,84.1) ">
<g transform="matrix( 1, 0, 0, 1, 0,0) ">
<use xlink:href="#Symbol_9_0_Layer0_0_FILL"/>
</g>
</g>

<g id="legLeft_FL_FL_FL_FL_FL_FL" transform="matrix( -0.7071075439453125, -0.70709228515625, -0.70709228515625, 0.7071075439453125, 30.25,199.75) ">
<g transform="matrix( 1, 0, 0, 1, 0,0) ">
<use xlink:href="#Symbol_11_0_Layer0_0_FILL"/>
</g>
</g>

<g id="armRight_FL_FL_FL_FL_FL_FL_FL_FL" transform="matrix( -1, 0, 0, 1, 60.6,179.75) ">
<g transform="matrix( 1, 0, 0, 1, 0,0) ">
<use xlink:href="#Symbol_8_0_Layer0_0_FILL"/>
</g>
</g>

<g id="handRight_FL_FL_FL_FL_FL_FL_FL_FL" transform="matrix( 0.965911865234375, -0.258819580078125, 0.258819580078125, 0.965911865234375, 67.65,202.9) ">
<g transform="matrix( 1, 0, 0, 1, 0,0) ">
<use xlink:href="#Symbol_9_0_Layer0_0_FILL"/>
</g>
</g>

<g id="legRight_FL_FL_FL_FL_FL_FL" transform="matrix( -0.7071075439453125, 0.70709228515625, 0.70709228515625, 0.7071075439453125, 53.9,202.25) ">
<g transform="matrix( 1, 0, 0, 1, 0,0) ">
<use xlink:href="#Symbol_11_0_Layer0_0_FILL"/>
</g>
</g>

<g id="body_FL_FL_FL_FL_FL_FL" transform="matrix( 0.99761962890625, -0.0689544677734375, 0.0689544677734375, 0.99761962890625, 41.35,193.4) ">
<g transform="matrix( 1, 0, 0, 1, 0,0) ">
<use xlink:href="#Symbol_10_0_Layer0_0_FILL"/>
</g>
</g>

<g id="armLeft_FL_FL_FL_FL_FL_FL_FL" transform="matrix( 0.86602783203125, 0.4999847412109375, -0.4999847412109375, 0.86602783203125, 22.9,179.75) ">
<g transform="matrix( 1, 0, 0, 1, 0,0) ">
<use xlink:href="#Symbol_8_0_Layer0_0_FILL"/>
</g>
</g>

<g id="handLeft_FL_FL_FL_FL_FL_FL_FL" transform="matrix( 0.707122802734375, 0.7070770263671875, -0.7070770263671875, 0.707122802734375, 10.2,200.9) ">
<g transform="matrix( 1, 0, 0, 1, 0,0) ">
<use xlink:href="#Symbol_9_0_Layer0_0_FILL"/>
</g>
</g>

<g id="head_FL_FL_FL" transform="matrix( 1, 0, 0, 1, 41.25,175.65) ">
<g transform="matrix( 1, 0, 0, 1, -924.35,-604.1) ">
<use xlink:href="#Symbol_12_0_Layer0_0_MEMBER_0_FILL"/>
</g>

<g transform="matrix( 1, 0, 0, 1, 0,0) ">
<use xlink:href="#Symbol_12_0_Layer0_1_FILL"/>
</g>

<g transform="matrix( 1, 0, 0, 1, 0,0) ">
<use xlink:href="#Symbol_12_0_Layer0_2_FILL"/>
</g>
</g>

<g id="legLeft_FL_FL_FL_FL_FL_FL_FL" transform="matrix( -0.8660125732421875, -0.5, -0.5, 0.8660125732421875, 116.5,198.85) ">
<g transform="matrix( 1, 0, 0, 1, 0,0) ">
<use xlink:href="#Symbol_11_0_Layer0_0_FILL"/>
</g>
</g>

<g id="armRight_FL_FL_FL_FL_FL_FL_FL_FL_FL" transform="matrix( -0.935211181640625, -0.3540802001953125, -0.3540802001953125, 0.935211181640625, 136.9,179.15) ">
<g transform="matrix( 1, 0, 0, 1, 0,0) ">
<use xlink:href="#Symbol_8_0_Layer0_0_FILL"/>
</g>
</g>

<g id="handRight_FL_FL_FL_FL_FL_FL_FL_FL_FL" transform="matrix( 0.9949798583984375, 0.0999603271484375, -0.0999603271484375, 0.9949798583984375, 135.3,203.3) ">
<g transform="matrix( 1, 0, 0, 1, 0,0) ">
<use xlink:href="#Symbol_9_0_Layer0_0_FILL"/>
</g>
</g>

<g id="legRight_FL_FL_FL_FL_FL_FL_FL" transform="matrix( -0.9999847412109375, 0, 0, 0.9999847412109375, 125.15,203.85) ">
<g transform="matrix( 1, 0, 0, 1, 0,0) ">
<use xlink:href="#Symbol_11_0_Layer0_0_FILL"/>
</g>
</g>

<g id="body_FL_FL_FL_FL_FL_FL_FL" transform="matrix( 0.9992218017578125, 0.0394287109375, -0.0394287109375, 0.9992218017578125, 121.1,192.5) ">
<g transform="matrix( 1, 0, 0, 1, 0,0) ">
<use xlink:href="#Symbol_10_0_Layer0_0_FILL"/>
</g>
</g>

<g id="armLeft_FL_FL_FL_FL_FL_FL_FL_FL" transform="matrix( 0.9861297607421875, 0.16595458984375, -0.16595458984375, 0.9861297607421875, 106.1,176.7) ">
<g transform="matrix( 1, 0, 0, 1, 0,0) ">
<use xlink:href="#Symbol_8_0_Layer0_0_FILL"/>
</g>
</g>

<g id="handLeft_FL_FL_FL_FL_FL_FL_FL_FL" transform="matrix( 0.9741668701171875, 0.22576904296875, -0.22576904296875, 0.9741668701171875, 102.5,202.1) ">
<g transform="matrix( 1, 0, 0, 1, 0,0) ">
<use xlink:href="#Symbol_9_0_Layer0_0_FILL"/>
</g>
</g>

<g id="head_FL_FL_FL_FL" transform="matrix( 1, 0, 0, 1, 125,174.75) ">
<g transform="matrix( 1, 0, 0, 1, -924.35,-604.1) ">
<use xlink:href="#Symbol_12_0_Layer0_0_MEMBER_0_FILL"/>
</g>

<g transform="matrix( 1, 0, 0, 1, 0,0) ">
<use xlink:href="#Symbol_12_0_Layer0_1_FILL"/>
</g>

<g transform="matrix( 1, 0, 0, 1, 0,0) ">
<use xlink:href="#Symbol_12_0_Layer0_2_FILL"/>
</g>
</g>

<g id="legLeft_FL_FL_FL_FL_FL_FL_FL_FL" transform="matrix( 1, 0, 0, 1, 181.25,203.85) ">
<g transform="matrix( 1, 0, 0, 1, 0,0) ">
<use xlink:href="#Symbol_11_0_Layer0_0_FILL"/>
</g>
</g>

<g id="legRight_FL_FL_FL_FL_FL_FL_FL_FL" transform="matrix( -1, 0, 0, 1, 202.4,203.85) ">
<g transform="matrix( 1, 0, 0, 1, 0,0) ">
<use xlink:href="#Symbol_11_0_Layer0_0_FILL"/>
</g>
</g>

<g id="body_FL_FL_FL_FL_FL_FL_FL_FL" transform="matrix( 1, 0, 0, 1, 191.85,195.15) ">
<g transform="matrix( 1, 0, 0, 1, 0,0) ">
<use xlink:href="#Symbol_10_0_Layer0_0_FILL"/>
</g>
</g>

<g id="armLeft_FL_FL_FL_FL_FL_FL_FL_FL_FL" transform="matrix( 1, 0, 0, 1, 170.9,180.25) ">
<g transform="matrix( 1, 0, 0, 1, 0,0) ">
<use xlink:href="#Symbol_8_0_Layer0_0_FILL"/>
</g>
</g>

<g id="handLeft_FL_FL_FL_FL_FL_FL_FL_FL_FL" transform="matrix( 1, 0, 0, 1, 172.1,206.6) ">
<g transform="matrix( 1, 0, 0, 1, 0,0) ">
<use xlink:href="#Symbol_9_0_Layer0_0_FILL"/>
</g>
</g>

<g id="armRight_FL_FL_FL_FL_FL_FL_FL_FL_FL_FL" transform="matrix( -0.220489501953125, 0.9753875732421875, 0.9753875732421875, 0.220489501953125, 205.1,179.75) ">
<g transform="matrix( 1, 0, 0, 1, 0,0) ">
<use xlink:href="#Symbol_8_0_Layer0_0_FILL"/>
</g>
</g>

<g id="handRight_FL_FL_FL_FL_FL_FL_FL_FL_FL_FL" transform="matrix( 0.258819580078125, -0.965911865234375, 0.965911865234375, 0.258819580078125, 232.25,178.05) ">
<g transform="matrix( 1, 0, 0, 1, 0,0) ">
<use xlink:href="#Symbol_9_0_Layer0_0_FILL"/>
</g>
</g>

<g id="legLeft_FL_FL_FL_FL_FL_FL_FL_FL_FL" transform="matrix( 1, 0, 0, 1, 341.9,203.85) ">
<g transform="matrix( 1, 0, 0, 1, 0,0) ">
<use xlink:href="#Symbol_11_0_Layer0_0_FILL"/>
</g>
</g>

<g id="legRight_FL_FL_FL_FL_FL_FL_FL_FL_FL" transform="matrix( -0.6073760986328125, 0.7933807373046875, 0.8723297119140625, 0.506927490234375, 364.05,200.35) ">
<g transform="matrix( 1, 0, 0, 1, 0,0) ">
<use xlink:href="#Symbol_11_0_Layer0_0_FILL"/>
</g>
</g>

<g id="body_FL_FL_FL_FL_FL_FL_FL_FL_FL" transform="matrix( 0.8892822265625, -0.1226348876953125, 0.0825958251953125, 0.9965667724609375, 351,193.55) ">
<g transform="matrix( 1, 0, 0, 1, 0,0) ">
<use xlink:href="#Symbol_10_0_Layer0_0_FILL"/>
</g>
</g>

<g id="armLeft_FL_FL_FL_FL_FL_FL_FL_FL_FL_FL" transform="matrix( 0.9965667724609375, -0.0825958251953125, 0.0825958251953125, 0.9965667724609375, 329.9,180.45) ">
<g transform="matrix( 1, 0, 0, 1, 0,0) ">
<use xlink:href="#Symbol_8_0_Layer0_0_FILL"/>
</g>
</g>

<g id="handLeft_FL_FL_FL_FL_FL_FL_FL_FL_FL_FL" transform="matrix( 0.9965667724609375, -0.0825958251953125, 0.0825958251953125, 0.9965667724609375, 333.1,206.05) ">
<g transform="matrix( 1, 0, 0, 1, 0,0) ">
<use xlink:href="#Symbol_9_0_Layer0_0_FILL"/>
</g>
</g>

<g id="armRight_FL_FL_FL_FL_FL_FL_FL_FL_FL_FL_FL" transform="matrix( 0.6817626953125, 0.731536865234375, 0.731536865234375, -0.6817626953125, 363.6,169.95) ">
<g transform="matrix( 1, 0, 0, 1, 0,0) ">
<use xlink:href="#Symbol_8_0_Layer0_0_FILL"/>
</g>
</g>

<g id="handRight_FL_FL_FL_FL_FL_FL_FL_FL_FL_FL_FL" transform="matrix( 0.904327392578125, 0.4267425537109375, 0.4267425537109375, -0.904327392578125, 382.45,150.35) ">
<g transform="matrix( 1, 0, 0, 1, 0,0) ">
<use xlink:href="#Symbol_9_0_Layer0_0_FILL"/>
</g>
</g>

<g id="head_FL_FL_FL_FL_FL" transform="matrix( 0.9965667724609375, -0.0825958251953125, 0.0825958251953125, 0.9965667724609375, 350.3,174.6) ">
<g transform="matrix( 1, 0, 0, 1, -924.35,-604.1) ">
<use xlink:href="#Symbol_12_0_Layer0_0_MEMBER_0_FILL"/>
</g>

<g transform="matrix( 1, 0, 0, 1, 0,0) ">
<use xlink:href="#Symbol_12_0_Layer0_1_FILL"/>
</g>

<g transform="matrix( 1, 0, 0, 1, 0,0) ">
<use xlink:href="#Symbol_12_0_Layer0_2_FILL"/>
</g>
</g>

<g id="legLeft_FL_FL_FL_FL_FL_FL_FL_FL_FL_FL" transform="matrix( 0.86602783203125, 0.4999847412109375, -0.4999847412109375, 0.86602783203125, 421.3,201.35) ">
<g transform="matrix( 1, 0, 0, 1, 0,0) ">
<use xlink:href="#Symbol_11_0_Layer0_0_FILL"/>
</g>
</g>

<g id="legRight_FL_FL_FL_FL_FL_FL_FL_FL_FL_FL" transform="matrix( -1, 0, 0, 1, 439.2,203.85) ">
<g transform="matrix( 1, 0, 0, 1, 0,0) ">
<use xlink:href="#Symbol_11_0_Layer0_0_FILL"/>
</g>
</g>

<g id="body_FL_FL_FL_FL_FL_FL_FL_FL_FL_FL" transform="matrix( 0.91351318359375, 0.183197021484375, -0.1000213623046875, 0.994964599609375, 431.2,193.7) ">
<g transform="matrix( 1, 0, 0, 1, 0,0) ">
<use xlink:href="#Symbol_10_0_Layer0_0_FILL"/>
</g>
</g>

<g id="armLeft_FL_FL_FL_FL_FL_FL_FL_FL_FL_FL_FL" transform="matrix( 0.994964599609375, 0.1000213623046875, -0.1000213623046875, 0.994964599609375, 411.85,176.75) ">
<g transform="matrix( 1, 0, 0, 1, 0,0) ">
<use xlink:href="#Symbol_8_0_Layer0_0_FILL"/>
</g>
</g>

<g id="handLeft_FL_FL_FL_FL_FL_FL_FL_FL_FL_FL_FL" transform="matrix( 0.994964599609375, 0.1000213623046875, -0.1000213623046875, 0.994964599609375, 410.3,204.4) ">
<g transform="matrix( 1, 0, 0, 1, 0,0) ">
<use xlink:href="#Symbol_9_0_Layer0_0_FILL"/>
</g>
</g>

<g id="armRight_FL_FL_FL_FL_FL_FL_FL_FL_FL_FL_FL_FL" transform="matrix( -0.402496337890625, 0.915374755859375, 0.915374755859375, 0.402496337890625, 445.1,177.4) ">
<g transform="matrix( 1, 0, 0, 1, 0,0) ">
<use xlink:href="#Symbol_8_0_Layer0_0_FILL"/>
</g>
</g>

<g id="handRight_FL_FL_FL_FL_FL_FL_FL_FL_FL_FL_FL_FL" transform="matrix( 0.361968994140625, 0.9321136474609375, 0.9321136474609375, -0.361968994140625, 472.35,183.95) ">
<g transform="matrix( 1, 0, 0, 1, 0,0) ">
<use xlink:href="#Symbol_9_0_Layer0_0_FILL"/>
</g>
</g>

<g transform="matrix( 0.9901885986328125, 0.1395721435546875, -0.1395721435546875, 0.9901885986328125, 433.45,176.4) ">
<g transform="matrix( 1, 0, 0, 1, 0,0) ">
<use xlink:href="#Symbol_15_0_Layer0_0_MEMBER_0_FILL"/>
</g>

<g transform="matrix( 1, 0, 0, 1, 0,0) ">
<use xlink:href="#Symbol_15_0_Layer0_1_FILL"/>
</g>

<g transform="matrix( 1, 0, 0, 1, 0,0) ">
<use xlink:href="#Symbol_15_0_Layer0_1_MEMBER_0_FILL"/>
</g>

<g transform="matrix( 1, 0, 0, 1, 0,0) ">
<use xlink:href="#Symbol_15_0_Layer0_2_FILL"/>
</g>
</g>

<g id="legLeft_FL_FL_FL_FL_FL_FL_FL_FL_FL_FL_FL" transform="matrix( 1, 0, 0, 1, 507.4,203.85) ">
<g transform="matrix( 1, 0, 0, 1, 0,0) ">
<use xlink:href="#Symbol_11_0_Layer0_0_FILL"/>
</g>
</g>

<g id="armRight_FL_FL_FL_FL_FL_FL_FL_FL_FL_FL_FL_FL_FL" transform="matrix( -0.9482879638671875, 0.3173675537109375, 0.3173675537109375, 0.9482879638671875, 526.4,172.3) ">
<g transform="matrix( 1, 0, 0, 1, 0,0) ">
<use xlink:href="#Symbol_8_0_Layer0_0_FILL"/>
</g>
</g>

<g id="handRight_FL_FL_FL_FL_FL_FL_FL_FL_FL_FL_FL_FL_FL" transform="matrix( -0.9482879638671875, 0.3173675537109375, 0.3173675537109375, 0.9482879638671875, 533.4,197) ">
<g transform="matrix( 1, 0, 0, 1, 0,0) ">
<use xlink:href="#Symbol_9_0_Layer0_0_FILL"/>
</g>
</g>

<g id="legRight_FL_FL_FL_FL_FL_FL_FL_FL_FL_FL_FL" transform="matrix( -0.6176605224609375, 0.83392333984375, 0.997589111328125, 0.272064208984375, 535.05,196.35) ">
<g transform="matrix( 1, 0, 0, 1, 0,0) ">
<use xlink:href="#Symbol_11_0_Layer0_0_FILL"/>
</g>
</g>

<g id="body_FL_FL_FL_FL_FL_FL_FL_FL_FL_FL_FL" transform="matrix( 0.899658203125, -0.180694580078125, 0.11248779296875, 0.9936370849609375, 515.8,192.35) ">
<g transform="matrix( 1, 0, 0, 1, 0,0) ">
<use xlink:href="#Symbol_10_0_Layer0_0_FILL"/>
</g>
</g>

<g id="armLeft_FL_FL_FL_FL_FL_FL_FL_FL_FL_FL_FL_FL" transform="matrix( 0.9702606201171875, 0.2420196533203125, -0.2420196533203125, 0.9702606201171875, 496.75,177.45) ">
<g transform="matrix( 1, 0, 0, 1, 0,0) ">
<use xlink:href="#Symbol_8_0_Layer0_0_FILL"/>
</g>
</g>

<g id="handLeft_FL_FL_FL_FL_FL_FL_FL_FL_FL_FL_FL_FL" transform="matrix( 0.9889068603515625, 0.14849853515625, -0.14849853515625, 0.9889068603515625, 492.05,203.8) ">
<g transform="matrix( 1, 0, 0, 1, 0,0) ">
<use xlink:href="#Symbol_9_0_Layer0_0_FILL"/>
</g>
</g>

<g id="legLeft_FL_FL_FL_FL_FL_FL_FL_FL_FL_FL_FL_FL" transform="matrix( 1, 0, 0, 1, 590.8,93.85) ">
<g transform="matrix( 1, 0, 0, 1, 0,0) ">
<use xlink:href="#Symbol_11_0_Layer0_0_FILL"/>
</g>
</g>

<g id="legRight_FL_FL_FL_FL_FL_FL_FL_FL_FL_FL_FL_FL" transform="matrix( -1, 0, 0, 1, 611.95,93.85) ">
<g transform="matrix( 1, 0, 0, 1, 0,0) ">
<use xlink:href="#Symbol_11_0_Layer0_0_FILL"/>
</g>
</g>

<g id="body_FL_FL_FL_FL_FL_FL_FL_FL_FL_FL_FL_FL" transform="matrix( 1, 0, 0, 1, 601.4,85.15) ">
<g transform="matrix( 1, 0, 0, 1, 0,0) ">
<use xlink:href="#Symbol_10_0_Layer0_0_FILL"/>
</g>
</g>

<g id="armLeft_FL_FL_FL_FL_FL_FL_FL_FL_FL_FL_FL_FL_FL" transform="matrix( 0.829071044921875, -0.5591278076171875, -0.5591278076171875, -0.829071044921875, 584.05,66.6) ">
<g transform="matrix( 1, 0, 0, 1, 0,0) ">
<use xlink:href="#Symbol_8_0_Layer0_0_FILL"/>
</g>
</g>

<g id="handLeft_FL_FL_FL_FL_FL_FL_FL_FL_FL_FL_FL_FL_FL" transform="matrix( 0.829071044921875, -0.5591278076171875, -0.5591278076171875, -0.829071044921875, 570.3,43.65) ">
<g transform="matrix( 1, 0, 0, 1, 0,0) ">
<use xlink:href="#Symbol_9_0_Layer0_0_FILL"/>
</g>
</g>

<g id="armRight_FL_FL_FL_FL_FL_FL_FL_FL_FL_FL_FL_FL_FL_FL" transform="matrix( -0.871307373046875, -0.4907073974609375, 0.4907073974609375, -0.871307373046875, 617.75,67.2) ">
<g transform="matrix( 1, 0, 0, 1, 0,0) ">
<use xlink:href="#Symbol_8_0_Layer0_0_FILL"/>
</g>
</g>

<g id="handRight_FL_FL_FL_FL_FL_FL_FL_FL_FL_FL_FL_FL_FL_FL" transform="matrix( -0.871307373046875, -0.4907073974609375, 0.4907073974609375, -0.871307373046875, 629.7,43.2) ">
<g transform="matrix( 1, 0, 0, 1, 0,0) ">
<use xlink:href="#Symbol_9_0_Layer0_0_FILL"/>
</g>
</g>

<g id="head_FL_FL_FL_FL_FL_FL" transform="matrix( 0.9978790283203125, -0.065093994140625, 0.065093994140625, 0.9978790283203125, 601.3,66.15) ">
<g transform="matrix( 1, 0, 0, 1, -924.35,-604.1) ">
<use xlink:href="#Symbol_12_0_Layer0_0_MEMBER_0_FILL"/>
</g>

<g transform="matrix( 1, 0, 0, 1, 0,0) ">
<use xlink:href="#Symbol_12_0_Layer0_1_FILL"/>
</g>

<g transform="matrix( 1, 0, 0, 1, 0,0) ">
<use xlink:href="#Symbol_12_0_Layer0_2_FILL"/>
</g>
</g>

<g id="legLeft_FL_FL_FL_FL_FL_FL_FL_FL_FL_FL_FL_FL_FL" transform="matrix( -0.939910888671875, -0.3414154052734375, -0.3414154052734375, 0.939910888671875, 591.05,196.85) ">
<g transform="matrix( 1, 0, 0, 1, 0,0) ">
<use xlink:href="#Symbol_11_0_Layer0_0_FILL"/>
</g>
</g>

<g id="legRight_FL_FL_FL_FL_FL_FL_FL_FL_FL_FL_FL_FL_FL" transform="matrix( -0.9890594482421875, 0.1475067138671875, 0.1475067138671875, 0.9890594482421875, 611.05,196.8) ">
<g transform="matrix( 1, 0, 0, 1, 0,0) ">
<use xlink:href="#Symbol_11_0_Layer0_0_FILL"/>
</g>
</g>

<g id="body_FL_FL_FL_FL_FL_FL_FL_FL_FL_FL_FL_FL_FL" transform="matrix( 0.8961029052734375, 0, 0, 1, 600.65,189.15) ">
<g transform="matrix( 1, 0, 0, 1, 0,0) ">
<use xlink:href="#Symbol_10_0_Layer0_0_FILL"/>
</g>
</g>

<g id="armLeft_FL_FL_FL_FL_FL_FL_FL_FL_FL_FL_FL_FL_FL_FL" transform="matrix( 0.646881103515625, 0.7625885009765625, -0.7625885009765625, 0.646881103515625, 585.35,174.55) ">
<g transform="matrix( 1, 0, 0, 1, 0,0) ">
<use xlink:href="#Symbol_8_0_Layer0_0_FILL"/>
</g>
</g>

<g id="handLeft_FL_FL_FL_FL_FL_FL_FL_FL_FL_FL_FL_FL_FL_FL" transform="matrix( 0.25885009765625, 0.9658966064453125, -0.9658966064453125, 0.25885009765625, 567.4,189.6) ">
<g transform="matrix( 1, 0, 0, 1, 0,0) ">
<use xlink:href="#Symbol_9_0_Layer0_0_FILL"/>
</g>
</g>

<g id="armRight_FL_FL_FL_FL_FL_FL_FL_FL_FL_FL_FL_FL_FL_FL_FL" transform="matrix( -0.62646484375, 0.779449462890625, 0.779449462890625, 0.62646484375, 613.65,173.3) ">
<g transform="matrix( 1, 0, 0, 1, 0,0) ">
<use xlink:href="#Symbol_8_0_Layer0_0_FILL"/>
</g>
</g>

<g id="handRight_FL_FL_FL_FL_FL_FL_FL_FL_FL_FL_FL_FL_FL_FL_FL" transform="matrix( -0.42279052734375, 0.9062042236328125, 0.9062042236328125, 0.42279052734375, 632.05,187.75) ">
<g transform="matrix( 1, 0, 0, 1, 0,0) ">
<use xlink:href="#Symbol_9_0_Layer0_0_FILL"/>
</g>
</g>

<g id="legLeft_FL_FL_FL_FL_FL_FL_FL_FL_FL_FL_FL_FL_FL_FL" transform="matrix( -0.52630615234375, -0.8502655029296875, -0.8502655029296875, 0.52630615234375, 126,311.3) ">
<g transform="matrix( 1, 0, 0, 1, 0,0) ">
<use xlink:href="#Symbol_11_0_Layer0_0_FILL"/>
</g>
</g>

<g id="legRight_FL_FL_FL_FL_FL_FL_FL_FL_FL_FL_FL_FL_FL_FL" transform="matrix( -0.70709228515625, 0.70709228515625, 0.70709228515625, 0.7071075439453125, 139.05,300.75) ">
<g transform="matrix( 1, 0, 0, 1, 0,0) ">
<use xlink:href="#Symbol_11_0_Layer0_0_FILL"/>
</g>
</g>

<g id="armRight_FL_FL_FL_FL_FL_FL_FL_FL_FL_FL_FL_FL_FL_FL_FL_FL" transform="matrix( 0.168670654296875, 0.9856719970703125, 0.9856719970703125, -0.168670654296875, 125.55,284.35) ">
<g transform="matrix( 1, 0, 0, 1, 0,0) ">
<use xlink:href="#Symbol_8_0_Layer0_0_FILL"/>
</g>
</g>

<g id="handRight_FL_FL_FL_FL_FL_FL_FL_FL_FL_FL_FL_FL_FL_FL_FL_FL" transform="matrix( 0.168670654296875, 0.9856719970703125, 0.9856719970703125, -0.168670654296875, 150.8,281.3) ">
<g transform="matrix( 1, 0, 0, 1, 0,0) ">
<use xlink:href="#Symbol_9_0_Layer0_0_FILL"/>
</g>
</g>

<g id="body_FL_FL_FL_FL_FL_FL_FL_FL_FL_FL_FL_FL_FL_FL" transform="matrix( 0.4500732421875, -0.654541015625, 0.947845458984375, 0.3809814453125, 127.55,300.75) ">
<g transform="matrix( 1, 0, 0, 1, 0,0) ">
<use xlink:href="#Symbol_10_0_Layer0_0_FILL"/>
</g>
</g>

<g id="armLeft_FL_FL_FL_FL_FL_FL_FL_FL_FL_FL_FL_FL_FL_FL_FL" transform="matrix( 0.7070770263671875, 0.70709228515625, -0.70709228515625, 0.7070770263671875, 108.1,298.95) ">
<g transform="matrix( 1, 0, 0, 1, 0,0) ">
<use xlink:href="#Symbol_8_0_Layer0_0_FILL"/>
</g>
</g>

<g id="handLeft_FL_FL_FL_FL_FL_FL_FL_FL_FL_FL_FL_FL_FL_FL_FL" transform="matrix( 0.8659820556640625, 0.5, -0.499969482421875, 0.865997314453125, 92.15,318.25) ">
<g transform="matrix( 1, 0, 0, 1, 0,0) ">
<use xlink:href="#Symbol_9_0_Layer0_0_FILL"/>
</g>
</g>

<g id="body_FL_FL_FL_FL_FL_FL_FL_FL_FL_FL_FL_FL_FL_FL_FL" transform="matrix( 1, 0, 0, 1, 681.9,84.15) ">
<g transform="matrix( 1, 0, 0, 1, 0,0) ">
<use xlink:href="#Symbol_10_0_Layer0_0_FILL"/>
</g>
</g>

<g id="armLeft_FL_FL_FL_FL_FL_FL_FL_FL_FL_FL_FL_FL_FL_FL_FL_FL" transform="matrix( 0.829071044921875, -0.5591278076171875, -0.5591278076171875, -0.829071044921875, 664.55,67.6) ">
<g transform="matrix( 1, 0, 0, 1, 0,0) ">
<use xlink:href="#Symbol_8_0_Layer0_0_FILL"/>
</g>
</g>

<g id="handLeft_FL_FL_FL_FL_FL_FL_FL_FL_FL_FL_FL_FL_FL_FL_FL_FL" transform="matrix( 0.829071044921875, -0.5591278076171875, -0.5591278076171875, -0.829071044921875, 650.8,44.65) ">
<g transform="matrix( 1, 0, 0, 1, 0,0) ">
<use xlink:href="#Symbol_9_0_Layer0_0_FILL"/>
</g>
</g>

<g id="armRight_FL_FL_FL_FL_FL_FL_FL_FL_FL_FL_FL_FL_FL_FL_FL_FL_FL" transform="matrix( -0.871307373046875, -0.4907073974609375, 0.4907073974609375, -0.871307373046875, 698.25,68.2) ">
<g transform="matrix( 1, 0, 0, 1, 0,0) ">
<use xlink:href="#Symbol_8_0_Layer0_0_FILL"/>
</g>
</g>

<g id="handRight_FL_FL_FL_FL_FL_FL_FL_FL_FL_FL_FL_FL_FL_FL_FL_FL_FL" transform="matrix( -0.871307373046875, -0.4907073974609375, 0.4907073974609375, -0.871307373046875, 710.15,44.65) ">
<g transform="matrix( 1, 0, 0, 1, 0,0) ">
<use xlink:href="#Symbol_9_0_Layer0_0_FILL"/>
</g>
</g>

<g id="head_FL_FL_FL_FL_FL_FL_FL" transform="matrix( 0.9978790283203125, -0.065093994140625, 0.065093994140625, 0.9978790283203125, 681.8,67.15) ">
<g transform="matrix( 1, 0, 0, 1, -924.35,-604.1) ">
<use xlink:href="#Symbol_12_0_Layer0_0_MEMBER_0_FILL"/>
</g>

<g transform="matrix( 1, 0, 0, 1, 0,0) ">
<use xlink:href="#Symbol_12_0_Layer0_1_FILL"/>
</g>

<g transform="matrix( 1, 0, 0, 1, 0,0) ">
<use xlink:href="#Symbol_12_0_Layer0_2_FILL"/>
</g>
</g>

<g id="legLeft_FL_FL_FL_FL_FL_FL_FL_FL_FL_FL_FL_FL_FL_FL_FL" transform="matrix( -0.96484375, -0.2628021240234375, -0.2628021240234375, 0.96484375, 672,198.85) ">
<g transform="matrix( 1, 0, 0, 1, 0,0) ">
<use xlink:href="#Symbol_11_0_Layer0_0_FILL"/>
</g>
</g>

<g id="legRight_FL_FL_FL_FL_FL_FL_FL_FL_FL_FL_FL_FL_FL_FL_FL" transform="matrix( -0.999755859375, 0.022491455078125, 0.022491455078125, 0.999755859375, 692,194.8) ">
<g transform="matrix( 1, 0, 0, 1, 0,0) ">
<use xlink:href="#Symbol_11_0_Layer0_0_FILL"/>
</g>
</g>

<g id="body_FL_FL_FL_FL_FL_FL_FL_FL_FL_FL_FL_FL_FL_FL_FL_FL" transform="matrix( 0.8961029052734375, 0, 0, 1, 681.6,189.15) ">
<g transform="matrix( 1, 0, 0, 1, 0,0) ">
<use xlink:href="#Symbol_10_0_Layer0_0_FILL"/>
</g>
</g>

<g id="armLeft_FL_FL_FL_FL_FL_FL_FL_FL_FL_FL_FL_FL_FL_FL_FL_FL_FL" transform="matrix( 0.760528564453125, 0.6492919921875, -0.6492919921875, 0.760528564453125, 665.35,173.15) ">
<g transform="matrix( 1, 0, 0, 1, 0,0) ">
<use xlink:href="#Symbol_8_0_Layer0_0_FILL"/>
</g>
</g>

<g id="handLeft_FL_FL_FL_FL_FL_FL_FL_FL_FL_FL_FL_FL_FL_FL_FL_FL_FL" transform="matrix( 0.632080078125, 0.7748565673828125, -0.7748565673828125, 0.632080078125, 650.1,191.05) ">
<g transform="matrix( 1, 0, 0, 1, 0,0) ">
<use xlink:href="#Symbol_9_0_Layer0_0_FILL"/>
</g>
</g>

<g id="armRight_FL_FL_FL_FL_FL_FL_FL_FL_FL_FL_FL_FL_FL_FL_FL_FL_FL_FL" transform="matrix( -0.7285614013671875, 0.68499755859375, 0.68499755859375, 0.7285614013671875, 695.4,172.05) ">
<g transform="matrix( 1, 0, 0, 1, 0,0) ">
<use xlink:href="#Symbol_8_0_Layer0_0_FILL"/>
</g>
</g>

<g id="handRight_FL_FL_FL_FL_FL_FL_FL_FL_FL_FL_FL_FL_FL_FL_FL_FL_FL_FL" transform="matrix( -0.5598602294921875, 0.8285369873046875, 0.8285369873046875, 0.5598602294921875, 711.05,188.9) ">
<g transform="matrix( 1, 0, 0, 1, 0,0) ">
<use xlink:href="#Symbol_9_0_Layer0_0_FILL"/>
</g>
</g>

<g id="legLeft_FL_FL_FL_FL_FL_FL_FL_FL_FL_FL_FL_FL_FL_FL_FL_FL" transform="matrix( 1, 0, -0.0464324951171875, 1, 262.25,203.85) ">
<g transform="matrix( 1, 0, 0, 1, 0,0) ">
<use xlink:href="#Symbol_11_0_Layer0_0_FILL"/>
</g>
</g>

<g id="legRight_FL_FL_FL_FL_FL_FL_FL_FL_FL_FL_FL_FL_FL_FL_FL_FL" transform="matrix( -1, 0, 0.2167205810546875, 1, 281.4,203.85) ">
<g transform="matrix( 1, 0, 0, 1, 0,0) ">
<use xlink:href="#Symbol_11_0_Layer0_0_FILL"/>
</g>
</g>

<g id="armRight_FL_FL_FL_FL_FL_FL_FL_FL_FL_FL_FL_FL_FL_FL_FL_FL_FL_FL_FL" transform="matrix( -0.8426971435546875, 0.5383758544921875, 0.287139892578125, 1.003204345703125, 286.4,178.75) ">
<g transform="matrix( 1, 0, 0, 1, 0,0) ">
<use xlink:href="#Symbol_8_0_Layer0_0_FILL"/>
</g>
</g>

<g id="body_FL_FL_FL_FL_FL_FL_FL_FL_FL_FL_FL_FL_FL_FL_FL_FL_FL" transform="matrix( 0.9220733642578125, 0, -0.1209259033203125, 1, 270.85,195.15) ">
<g transform="matrix( 1, 0, 0, 1, 0,0) ">
<use xlink:href="#Symbol_10_0_Layer0_0_FILL"/>
</g>
</g>

<g id="legLeft_FL_FL_FL_FL_FL_FL_FL_FL_FL_FL_FL_FL_FL_FL_FL_FL_FL" transform="matrix( -0.86602783203125, -0.499969482421875, -0.499969482421875, 0.86602783203125, 198.55,309.4) ">
<g transform="matrix( 1, 0, 0, 1, 0,0) ">
<use xlink:href="#Symbol_11_0_Layer0_0_FILL"/>
</g>
</g>

<g id="armRight_FL_FL_FL_FL_FL_FL_FL_FL_FL_FL_FL_FL_FL_FL_FL_FL_FL_FL_FL_FL" transform="matrix( 0.915496826171875, 0.402313232421875, 0.402313232421875, -0.915496826171875, 222.45,271.25) ">
<g transform="matrix( 1, 0, 0, 1, 0,0) ">
<use xlink:href="#Symbol_8_0_Layer0_0_FILL"/>
</g>
</g>

<g id="body_FL_FL_FL_FL_FL_FL_FL_FL_FL_FL_FL_FL_FL_FL_FL_FL_FL_FL" transform="matrix( 0.8961029052734375, -0.1512908935546875, 0, 1, 207.35,295.15) ">
<g transform="matrix( 1, 0, 0, 1, 0,0) ">
<use xlink:href="#Symbol_10_0_Layer0_0_FILL"/>
</g>
</g>

<g id="armLeft_FL_FL_FL_FL_FL_FL_FL_FL_FL_FL_FL_FL_FL_FL_FL_FL_FL_FL" transform="matrix( 0.7775726318359375, 0.628753662109375, -0.628753662109375, 0.7775726318359375, 189.35,282.35) ">
<g transform="matrix( 1, 0, 0, 1, 0,0) ">
<use xlink:href="#Symbol_8_0_Layer0_0_FILL"/>
</g>
</g>

<g id="handLeft_FL_FL_FL_FL_FL_FL_FL_FL_FL_FL_FL_FL_FL_FL_FL_FL_FL_FL" transform="matrix( 0.7437591552734375, 0.668426513671875, -0.668426513671875, 0.7437591552734375, 172.55,304.85) ">
<g transform="matrix( 1, 0, 0, 1, 0,0) ">
<use xlink:href="#Symbol_9_0_Layer0_0_FILL"/>
</g>
</g>

<g id="handRight_FL_FL_FL_FL_FL_FL_FL_FL_FL_FL_FL_FL_FL_FL_FL_FL_FL_FL_FL" transform="matrix( 0.602294921875, 0.7982330322265625, 0.7982330322265625, -0.602294921875, 233.7,252.15) ">
<g transform="matrix( 1, 0, 0, 1, 0,0) ">
<use xlink:href="#Symbol_9_0_Layer0_0_FILL"/>
</g>
</g>

<g id="legRight_FL_FL_FL_FL_FL_FL_FL_FL_FL_FL_FL_FL_FL_FL_FL_FL_FL" transform="matrix( -0.8993072509765625, -0.2700347900390625, -0.2588043212890625, 0.9659271240234375, 220.15,300.9) ">
<g transform="matrix( 1, 0, 0, 1, 0,0) ">
<use xlink:href="#Symbol_11_0_Layer0_0_FILL"/>
</g>
</g>

<g id="legLeft_FL_FL_FL_FL_FL_FL_FL_FL_FL_FL_FL_FL_FL_FL_FL_FL_FL_FL" transform="matrix( -1.0149383544921875, 0.3154144287109375, 0.6787109375, 0.84124755859375, 288.3,310.6) ">
<g transform="matrix( 1, 0, 0, 1, 0,0) ">
<use xlink:href="#Symbol_11_0_Layer0_0_FILL"/>
</g>
</g>

<g id="legRight_FL_FL_FL_FL_FL_FL_FL_FL_FL_FL_FL_FL_FL_FL_FL_FL_FL_FL" transform="matrix( -0.7070770263671875, 0.707061767578125, 0.6151123046875, 0.7990264892578125, 270.75,311.9) ">
<g transform="matrix( 1, 0, 0, 1, 0,0) ">
<use xlink:href="#Symbol_11_0_Layer0_0_FILL"/>
</g>
</g>

<g id="body_FL_FL_FL_FL_FL_FL_FL_FL_FL_FL_FL_FL_FL_FL_FL_FL_FL_FL_FL" transform="matrix( 0.922210693359375, -0.0208587646484375, 0, 1, 281.1,301.65) ">
<g transform="matrix( 1, 0, 0, 1, 0,0) ">
<use xlink:href="#Symbol_10_0_Layer0_0_FILL"/>
</g>
</g>

<g id="armRight_FL_FL_FL_FL_FL_FL_FL_FL_FL_FL_FL_FL_FL_FL_FL_FL_FL_FL_FL_FL_FL" transform="matrix( 0.6365509033203125, 0.771240234375, 0.69598388671875, -0.5744476318359375, 292.35,288.35) ">
<g transform="matrix( 1, 0, 0, 1, 0,0) ">
<use xlink:href="#Symbol_8_0_Layer0_0_FILL"/>
</g>
</g>

<g id="head_FL_FL_FL_FL_FL_FL_FL_FL" transform="matrix( -0.99542236328125, 0.0955657958984375, 0.0955657958984375, 0.99542236328125, 278.5,285.15) ">
<g transform="matrix( 1, 0, 0, 1, -924.35,-604.1) ">
<use xlink:href="#Symbol_12_0_Layer0_0_MEMBER_0_FILL"/>
</g>

<g transform="matrix( 1, 0, 0, 1, 0,0) ">
<use xlink:href="#Symbol_12_0_Layer0_1_FILL"/>
</g>

<g transform="matrix( 1, 0, 0, 1, 0,0) ">
<use xlink:href="#Symbol_12_0_Layer0_2_FILL"/>
</g>
</g>

<g id="handRight_FL_FL_FL_FL_FL_FL_FL_FL_FL_FL_FL_FL_FL_FL_FL_FL_FL_FL_FL_FL" transform="matrix( -0.5000152587890625, 0.865997314453125, 0.865997314453125, 0.5000152587890625, 309.35,283.5) ">
<g transform="matrix( 1, 0, 0, 1, 0,0) ">
<use xlink:href="#Symbol_9_0_Layer0_0_FILL"/>
</g>
</g>

<g id="armLeft_FL_FL_FL_FL_FL_FL_FL_FL_FL_FL_FL_FL_FL_FL_FL_FL_FL_FL_FL" transform="matrix( 0.5000152587890625, -0.865997314453125, 0.7815093994140625, 0.4512176513671875, 260.95,292.65) ">
<g transform="matrix( 1, 0, 0, 1, 0,0) ">
<use xlink:href="#Symbol_8_0_Layer0_0_FILL"/>
</g>
</g>

<g id="handLeft_FL_FL_FL_FL_FL_FL_FL_FL_FL_FL_FL_FL_FL_FL_FL_FL_FL_FL_FL" transform="matrix( 0.2588043212890625, -0.9659271240234375, 0.9659271240234375, 0.2588043212890625, 281.95,301.85) ">
<g transform="matrix( 1, 0, 0, 1, 0,0) ">
<use xlink:href="#Symbol_9_0_Layer0_0_FILL"/>
</g>
</g>

<g id="body_FL_FL_FL_FL_FL_FL_FL_FL_FL_FL_FL_FL_FL_FL_FL_FL_FL_FL_FL_FL" transform="matrix( 1, 0, 0, 1, 792,99) ">
<g transform="matrix( 1, 0, 0, 1, 0,0) ">
<use xlink:href="#Symbol_10_0_Layer0_0_FILL"/>
</g>
</g>

<g id="armRight_FL_FL_FL_FL_FL_FL_FL_FL_FL_FL_FL_FL_FL_FL_FL_FL_FL_FL_FL_FL_FL_FL" transform="matrix( -1, 0, 0, 1, 887,91) ">
<g transform="matrix( 1, 0, 0, 1, 0,0) ">
<use xlink:href="#Symbol_8_0_Layer0_0_FILL"/>
</g>
</g>

<g id="handRight_FL_FL_FL_FL_FL_FL_FL_FL_FL_FL_FL_FL_FL_FL_FL_FL_FL_FL_FL_FL_FL" transform="matrix( -1, 0, 0, 1, 885,141) ">
<g transform="matrix( 1, 0, 0, 1, 0,0) ">
<use xlink:href="#Symbol_9_0_Layer0_0_FILL"/>
</g>
</g>

<g id="legRight_FL_FL_FL_FL_FL_FL_FL_FL_FL_FL_FL_FL_FL_FL_FL_FL_FL_FL_FL" transform="matrix( -1, 0, 0, 1, 850,133) ">
<g transform="matrix( 1, 0, 0, 1, 0,0) ">
<use xlink:href="#Symbol_11_0_Layer0_0_FILL"/>
</g>
</g>

<g id="head_FL_FL_FL_FL_FL_FL_FL_FL_FL" transform="matrix( 1, 0, 0, 1, 791.4,52.25) ">
<g transform="matrix( 1, 0, 0, 1, -924.35,-604.1) ">
<use xlink:href="#Symbol_12_0_Layer0_0_MEMBER_0_FILL"/>
</g>

<g transform="matrix( 1, 0, 0, 1, 0,0) ">
<use xlink:href="#Symbol_12_0_Layer0_1_FILL"/>
</g>

<g transform="matrix( 1, 0, 0, 1, 0,0) ">
<use xlink:href="#Symbol_12_0_Layer0_2_FILL"/>
</g>
</g>

<g id="armLeft_FL_FL_FL_FL_FL_FL_FL_FL_FL_FL_FL_FL_FL_FL_FL_FL_FL_FL_FL_FL" transform="matrix( 0.9659271240234375, 0.2588043212890625, -0.233551025390625, 0.8716888427734375, 343.55,290.35) ">
<g transform="matrix( 1, 0, 0, 1, 0,0) ">
<use xlink:href="#Symbol_8_0_Layer0_0_FILL"/>
</g>
</g>

<g id="handLeft_FL_FL_FL_FL_FL_FL_FL_FL_FL_FL_FL_FL_FL_FL_FL_FL_FL_FL_FL_FL" transform="matrix( 0.9659271240234375, 0.2588043212890625, -0.2588043212890625, 0.9659271240234375, 338.5,314.25) ">
<g transform="matrix( 1, 0, 0, 1, 0,0) ">
<use xlink:href="#Symbol_9_0_Layer0_0_FILL"/>
</g>
</g>

<g id="armRight_FL_FL_FL_FL_FL_FL_FL_FL_FL_FL_FL_FL_FL_FL_FL_FL_FL_FL_FL_FL_FL_FL_FL" transform="matrix( -0.9659271240234375, 0.2588043212890625, 0.233551025390625, 0.8716888427734375, 377.6,289.35) ">
<g transform="matrix( 1, 0, 0, 1, 0,0) ">
<use xlink:href="#Symbol_8_0_Layer0_0_FILL"/>
</g>
</g>

<g id="handRight_FL_FL_FL_FL_FL_FL_FL_FL_FL_FL_FL_FL_FL_FL_FL_FL_FL_FL_FL_FL_FL_FL" transform="matrix( -0.9659271240234375, 0.2588043212890625, 0.2588043212890625, 0.9659271240234375, 382.9,314.5) ">
<g transform="matrix( 1, 0, 0, 1, 0,0) ">
<use xlink:href="#Symbol_9_0_Layer0_0_FILL"/>
</g>
</g>

<g id="legLeft_FL_FL_FL_FL_FL_FL_FL_FL_FL_FL_FL_FL_FL_FL_FL_FL_FL_FL_FL" transform="matrix( 1, 0, 0, 1, 350.75,313.85) ">
<g transform="matrix( 1, 0, 0, 1, 0,0) ">
<use xlink:href="#Symbol_11_0_Layer0_0_FILL"/>
</g>
</g>

<g id="legRight_FL_FL_FL_FL_FL_FL_FL_FL_FL_FL_FL_FL_FL_FL_FL_FL_FL_FL_FL_FL" transform="matrix( -1, 0, 0, 1, 371.9,313.85) ">
<g transform="matrix( 1, 0, 0, 1, 0,0) ">
<use xlink:href="#Symbol_11_0_Layer0_0_FILL"/>
</g>
</g>

<g transform="matrix( 1, 0, 0, 1, 361.35,304.15) ">
<g transform="matrix( 1, 0, 0, 1, 0,0) ">
<use xlink:href="#Symbol_18_0_Layer0_0_FILL"/>
</g>

<g transform="matrix( 0.719451904296875, 0, 0, 0.719451904296875, 36.2,-0.35) ">
<use xlink:href="#Symbol_18_0_Layer0_1_FILL"/>
</g>
</g>

<g id="handRight_FL_FL_FL_FL_FL_FL_FL_FL_FL_FL_FL_FL_FL_FL_FL_FL_FL_FL_FL_FL_FL_FL_FL" transform="matrix( -0.25616455078125, -0.9665679931640625, -0.9665679931640625, 0.25616455078125, 291.7,196) ">
<g transform="matrix( 1, 0, 0, 1, 0,0) ">
<use xlink:href="#Symbol_9_0_Layer0_0_FILL"/>
</g>
</g>

<g id="legLeft_FL_FL_FL_FL_FL_FL_FL_FL_FL_FL_FL_FL_FL_FL_FL_FL_FL_FL_FL_FL" transform="matrix( -1, 0, -0.2476806640625, 1, 430.75,313.85) ">
<g transform="matrix( 1, 0, 0, 1, 0,0) ">
<use xlink:href="#Symbol_11_0_Layer0_0_FILL"/>
</g>
</g>

<g id="legRight_FL_FL_FL_FL_FL_FL_FL_FL_FL_FL_FL_FL_FL_FL_FL_FL_FL_FL_FL_FL_FL" transform="matrix( -1, 0, 0.1083526611328125, 1, 451.9,313.85) ">
<g transform="matrix( 1, 0, 0, 1, 0,0) ">
<use xlink:href="#Symbol_11_0_Layer0_0_FILL"/>
</g>
</g>

<g id="body_FL_FL_FL_FL_FL_FL_FL_FL_FL_FL_FL_FL_FL_FL_FL_FL_FL_FL_FL_FL_FL" transform="matrix( 1, 0, 0, 1, 441.35,305.15) ">
<g transform="matrix( 1, 0, 0, 1, 0,0) ">
<use xlink:href="#Symbol_10_0_Layer0_0_FILL"/>
</g>
</g>

<g id="armLeft_FL_FL_FL_FL_FL_FL_FL_FL_FL_FL_FL_FL_FL_FL_FL_FL_FL_FL_FL_FL_FL" transform="matrix( 0.9660186767578125, 0.2584228515625, -0.23321533203125, 0.87176513671875, 424.55,289.35) ">
<g transform="matrix( 1, 0, 0, 1, 0,0) ">
<use xlink:href="#Symbol_8_0_Layer0_0_FILL"/>
</g>
</g>

<g id="handLeft_FL_FL_FL_FL_FL_FL_FL_FL_FL_FL_FL_FL_FL_FL_FL_FL_FL_FL_FL_FL_FL" transform="matrix( 0.965911865234375, -0.258819580078125, 0.258819580078125, 0.965911865234375, 422.3,310.3) ">
<g transform="matrix( 1, 0, 0, 1, 0,0) ">
<use xlink:href="#Symbol_9_0_Layer0_0_FILL"/>
</g>
</g>

<g id="legRight_FL_FL_FL_FL_FL_FL_FL_FL_FL_FL_FL_FL_FL_FL_FL_FL_FL_FL_FL_FL_FL_FL" transform="matrix( 0.942108154296875, -0.34771728515625, 0.2938079833984375, 0.9530029296875, 506.4,79.35) ">
<g transform="matrix( 1, 0, 0, 1, 0,0) ">
<use xlink:href="#Symbol_11_0_Layer0_0_FILL"/>
</g>
</g>

<g id="legLeft_FL_FL_FL_FL_FL_FL_FL_FL_FL_FL_FL_FL_FL_FL_FL_FL_FL_FL_FL_FL_FL" transform="matrix( -0.9604034423828125, -0.2794342041015625, -0.1309356689453125, 1.00311279296875, 533.95,85.65) ">
<g transform="matrix( 1, 0, 0, 1, 0,0) ">
<use xlink:href="#Symbol_11_0_Layer0_0_FILL"/>
</g>
</g>

<g id="legLeft_FL_FL_FL_FL_FL_FL_FL_FL_FL_FL_FL_FL_FL_FL_FL_FL_FL_FL_FL_FL_FL_FL" transform="matrix( 0.8357696533203125, 0.5355377197265625, -0.6060791015625, 0.8081207275390625, 669.3,91.85) ">
<g transform="matrix( 1, 0, 0, 1, 0,0) ">
<use xlink:href="#Symbol_11_0_Layer0_0_FILL"/>
</g>
</g>

<g id="legRight_FL_FL_FL_FL_FL_FL_FL_FL_FL_FL_FL_FL_FL_FL_FL_FL_FL_FL_FL_FL_FL_FL_FL" transform="matrix( -0.8170928955078125, 0.59710693359375, 0.6360321044921875, 0.759033203125, 694.45,91.85) ">
<g transform="matrix( 1, 0, 0, 1, 0,0) ">
<use xlink:href="#Symbol_11_0_Layer0_0_FILL"/>
</g>
</g>

<g transform="matrix( 0.9996185302734375, 0.0266265869140625, -0.0266265869140625, 0.9996185302734375, 273.7,177.55) ">
<g transform="matrix( 1, 0, 0, 1, 0,0) ">
<use xlink:href="#Symbol_15_0_Layer0_0_MEMBER_0_FILL"/>
</g>

<g transform="matrix( 1, 0, 0, 1, 0,0) ">
<use xlink:href="#Symbol_15_0_Layer0_1_FILL"/>
</g>

<g transform="matrix( 1, 0, 0, 1, 0,0) ">
<use xlink:href="#Symbol_15_0_Layer0_1_MEMBER_0_FILL"/>
</g>

<g transform="matrix( 1, 0, 0, 1, 0,0) ">
<use xlink:href="#Symbol_15_0_Layer0_2_FILL"/>
</g>
</g>

<g id="armLeft_FL_FL_FL_FL_FL_FL_FL_FL_FL_FL_FL_FL_FL_FL_FL_FL_FL_FL_FL_FL_FL_FL" transform="matrix( 0.65667724609375, -0.7541656494140625, 0.7541656494140625, 0.65667724609375, 261.4,180.9) ">
<g transform="matrix( 1, 0, 0, 1, 0,0) ">
<use xlink:href="#Symbol_8_0_Layer0_0_FILL"/>
</g>
</g>

<g id="handLeft_FL_FL_FL_FL_FL_FL_FL_FL_FL_FL_FL_FL_FL_FL_FL_FL_FL_FL_FL_FL_FL_FL" transform="matrix( 0.4999847412109375, -0.8660125732421875, 0.8660125732421875, 0.4999847412109375, 282.65,195.8) ">
<g transform="matrix( 1, 0, 0, 1, 0,0) ">
<use xlink:href="#Symbol_9_0_Layer0_0_FILL"/>
</g>
</g>

<g transform="matrix( 1, 0, 0, 1, 910.6,53.7) ">
<g transform="matrix( 1, 0, 0, 1, 0,0) ">
<use xlink:href="#Symbol_15_0_Layer0_0_MEMBER_0_FILL"/>
</g>

<g transform="matrix( 1, 0, 0, 1, 0,0) ">
<use xlink:href="#Symbol_15_0_Layer0_1_FILL"/>
</g>

<g transform="matrix( 1, 0, 0, 1, 0,0) ">
<use xlink:href="#Symbol_15_0_Layer0_1_MEMBER_0_FILL"/>
</g>

<g transform="matrix( 1, 0, 0, 1, 0,0) ">
<use xlink:href="#Symbol_15_0_Layer0_2_FILL"/>
</g>
</g>

<g transform="matrix( 1, 0, 0, 1, 842,99) ">
<g transform="matrix( 1, 0, 0, 1, 0,0) ">
<use xlink:href="#Symbol_18_0_Layer0_0_FILL"/>
</g>

<g transform="matrix( 0.719451904296875, 0, 0, 0.719451904296875, 36.2,-0.35) ">
<use xlink:href="#Symbol_18_0_Layer0_1_FILL"/>
</g>
</g>

<g transform="matrix( 0.9969329833984375, 0.0782470703125, -0.0782470703125, 0.9969329833984375, 204.7,62.55) ">
<g transform="matrix( 1, 0, 0, 1, 0,0) ">
<use xlink:href="#Symbol_16_0_Layer0_0_MEMBER_0_FILL"/>
</g>

<g transform="matrix( 1, 0, 0, 1, 0,0) ">
<use xlink:href="#Symbol_16_0_Layer0_1_FILL"/>
</g>

<g transform="matrix( 1, 0, 0, 1, 66.85,4.9) ">
<use xlink:href="#Symbol_16_0_Layer0_1_MEMBER_0_FILL"/>
</g>

<g transform="matrix( 1, 0, 0, 1, -0.8,0) ">
<use xlink:href="#Symbol_16_0_Layer0_1_MEMBER_1_FILL"/>
</g>

<g transform="matrix( 1, 0, 0, 1, 0,0) ">
<use xlink:href="#Symbol_16_0_Layer0_2_FILL"/>
</g>
</g>

<g transform="matrix( 0.9969329833984375, 0.0782470703125, -0.0782470703125, 0.9969329833984375, 360.75,60.2) ">
<g transform="matrix( 1, 0, 0, 1, 0,0) ">
<use xlink:href="#Symbol_16_0_Layer0_0_MEMBER_0_FILL"/>
</g>

<g transform="matrix( 1, 0, 0, 1, 0,0) ">
<use xlink:href="#Symbol_16_0_Layer0_1_FILL"/>
</g>

<g transform="matrix( 1, 0, 0, 1, 66.85,4.9) ">
<use xlink:href="#Symbol_16_0_Layer0_1_MEMBER_0_FILL"/>
</g>

<g transform="matrix( 1, 0, 0, 1, -0.8,0) ">
<use xlink:href="#Symbol_16_0_Layer0_1_MEMBER_1_FILL"/>
</g>

<g transform="matrix( 1, 0, 0, 1, 0,0) ">
<use xlink:href="#Symbol_16_0_Layer0_2_FILL"/>
</g>
</g>

<g transform="matrix( -0.9965667724609375, -0.0825958251953125, -0.0825958251953125, 0.9965667724609375, 521.1,62.6) ">
<g transform="matrix( 1, 0, 0, 1, 0,0) ">
<use xlink:href="#Symbol_17_0_Layer0_0_FILL"/>
</g>

<g transform="matrix( 1, 0, 0, 1, 0,0) ">
<use xlink:href="#Symbol_17_0_Layer0_1_FILL"/>
</g>
</g>

<g transform="matrix( 0.9965667724609375, 0.0825958251953125, -0.0825958251953125, 0.9965667724609375, 281.35,77.4) ">
<g transform="matrix( 1, 0, 0, 1, 0,0) ">
<use xlink:href="#Symbol_15_0_Layer0_0_MEMBER_0_FILL"/>
</g>

<g transform="matrix( 1, 0, 0, 1, 0,0) ">
<use xlink:href="#Symbol_15_0_Layer0_1_FILL"/>
</g>

<g transform="matrix( 1, 0, 0, 1, 0,0) ">
<use xlink:href="#Symbol_15_0_Layer0_1_MEMBER_0_FILL"/>
</g>

<g transform="matrix( 1, 0, 0, 1, 0,0) ">
<use xlink:href="#Symbol_15_0_Layer0_2_FILL"/>
</g>
</g>

<g transform="matrix( 0.9996185302734375, 0.0266265869140625, -0.0266265869140625, 0.9996185302734375, 189.05,177.55) ">
<g transform="matrix( 1, 0, 0, 1, 0,0) ">
<use xlink:href="#Symbol_15_0_Layer0_0_MEMBER_0_FILL"/>
</g>

<g transform="matrix( 1, 0, 0, 1, 0,0) ">
<use xlink:href="#Symbol_15_0_Layer0_1_FILL"/>
</g>

<g transform="matrix( 1, 0, 0, 1, 0,0) ">
<use xlink:href="#Symbol_15_0_Layer0_1_MEMBER_0_FILL"/>
</g>

<g transform="matrix( 1, 0, 0, 1, 0,0) ">
<use xlink:href="#Symbol_15_0_Layer0_2_FILL"/>
</g>
</g>

<g transform="matrix( 0.9996185302734375, 0.0266265869140625, -0.0266265869140625, 0.9996185302734375, 513.9,175) ">
<g transform="matrix( 1, 0, 0, 1, 0,0) ">
<use xlink:href="#Symbol_15_0_Layer0_0_MEMBER_0_FILL"/>
</g>

<g transform="matrix( 1, 0, 0, 1, 0,0) ">
<use xlink:href="#Symbol_15_0_Layer0_1_FILL"/>
</g>

<g transform="matrix( 1, 0, 0, 1, 0,0) ">
<use xlink:href="#Symbol_15_0_Layer0_1_MEMBER_0_FILL"/>
</g>

<g transform="matrix( 1, 0, 0, 1, 0,0) ">
<use xlink:href="#Symbol_15_0_Layer0_2_FILL"/>
</g>
</g>

<g transform="matrix( 0.9996185302734375, 0.0266265869140625, -0.0266265869140625, 0.9996185302734375, 599.05,170) ">
<g transform="matrix( 1, 0, 0, 1, 0,0) ">
<use xlink:href="#Symbol_15_0_Layer0_0_MEMBER_0_FILL"/>
</g>

<g transform="matrix( 1, 0, 0, 1, 0,0) ">
<use xlink:href="#Symbol_15_0_Layer0_1_FILL"/>
</g>

<g transform="matrix( 1, 0, 0, 1, 0,0) ">
<use xlink:href="#Symbol_15_0_Layer0_1_MEMBER_0_FILL"/>
</g>

<g transform="matrix( 1, 0, 0, 1, 0,0) ">
<use xlink:href="#Symbol_15_0_Layer0_2_FILL"/>
</g>
</g>

<g transform="matrix( 0.9998931884765625, -0.012420654296875, 0.012420654296875, 0.9998931884765625, 679.4,170) ">
<g transform="matrix( 1, 0, 0, 1, 0,0) ">
<use xlink:href="#Symbol_15_0_Layer0_0_MEMBER_0_FILL"/>
</g>

<g transform="matrix( 1, 0, 0, 1, 0,0) ">
<use xlink:href="#Symbol_15_0_Layer0_1_FILL"/>
</g>

<g transform="matrix( 1, 0, 0, 1, 0,0) ">
<use xlink:href="#Symbol_15_0_Layer0_1_MEMBER_0_FILL"/>
</g>

<g transform="matrix( 1, 0, 0, 1, 0,0) ">
<use xlink:href="#Symbol_15_0_Layer0_2_FILL"/>
</g>
</g>

<g transform="matrix( 0.9996185302734375, 0.0266265869140625, -0.0266265869140625, 0.9996185302734375, 439.95,286.9) ">
<g transform="matrix( 1, 0, 0, 1, 0,0) ">
<use xlink:href="#Symbol_15_0_Layer0_0_MEMBER_0_FILL"/>
</g>

<g transform="matrix( 1, 0, 0, 1, 0,0) ">
<use xlink:href="#Symbol_15_0_Layer0_1_FILL"/>
</g>

<g transform="matrix( 1, 0, 0, 1, 0,0) ">
<use xlink:href="#Symbol_15_0_Layer0_1_MEMBER_0_FILL"/>
</g>

<g transform="matrix( 1, 0, 0, 1, 0,0) ">
<use xlink:href="#Symbol_15_0_Layer0_2_FILL"/>
</g>
</g>

<g transform="matrix( 0.990966796875, -0.133819580078125, 0.133819580078125, 0.990966796875, 203.2,278.4) ">
<g transform="matrix( 1, 0, 0, 1, 0,0) ">
<use xlink:href="#Symbol_15_0_Layer0_0_MEMBER_0_FILL"/>
</g>

<g transform="matrix( 1, 0, 0, 1, 0,0) ">
<use xlink:href="#Symbol_15_0_Layer0_1_FILL"/>
</g>

<g transform="matrix( 1, 0, 0, 1, 0,0) ">
<use xlink:href="#Symbol_15_0_Layer0_1_MEMBER_0_FILL"/>
</g>

<g transform="matrix( 1, 0, 0, 1, 0,0) ">
<use xlink:href="#Symbol_15_0_Layer0_2_FILL"/>
</g>
</g>

<g transform="matrix( 0.9857025146484375, -0.168243408203125, 0.168243408203125, 0.9857025146484375, 111.7,294.95) ">
<g transform="matrix( 1, 0, 0, 1, 0,0) ">
<use xlink:href="#Symbol_15_0_Layer0_0_MEMBER_0_FILL"/>
</g>

<g transform="matrix( 1, 0, 0, 1, 0,0) ">
<use xlink:href="#Symbol_15_0_Layer0_1_FILL"/>
</g>

<g transform="matrix( 1, 0, 0, 1, 0,0) ">
<use xlink:href="#Symbol_15_0_Layer0_1_MEMBER_0_FILL"/>
</g>

<g transform="matrix( 1, 0, 0, 1, 0,0) ">
<use xlink:href="#Symbol_15_0_Layer0_2_FILL"/>
</g>
</g>

<g transform="matrix( 1, 0, 0, 1, 360.6,287.65) ">
<g transform="matrix( 1, 0, 0, 1, 0,0) ">
<use xlink:href="#Symbol_17_0_Layer0_0_FILL"/>
</g>

<g transform="matrix( 1, 0, 0, 1, 0,0) ">
<use xlink:href="#Symbol_17_0_Layer0_1_FILL"/>
</g>
</g>

<g id="armLeft_FL_FL_FL_FL_FL_FL_FL_FL_FL_FL_FL_FL_FL_FL_FL_FL_FL_FL_FL_FL_FL_FL_FL" transform="matrix( -0.86602783203125, 0.4999847412109375, -0.4110107421875, -1.1675262451171875, 420.55,57.15) ">
<g transform="matrix( 1, 0, 0, 1, 0,0) ">
<use xlink:href="#Symbol_8_0_Layer0_0_FILL"/>
</g>
</g>

<g id="handLeft_FL_FL_FL_FL_FL_FL_FL_FL_FL_FL_FL_FL_FL_FL_FL_FL_FL_FL_FL_FL_FL_FL_FL" transform="matrix( 0.965911865234375, -0.2587890625, -0.2587890625, -0.9658966064453125, 419.05,23.6) ">
<g transform="matrix( 1, 0, 0, 1, 0,0) ">
<use xlink:href="#Symbol_9_0_Layer0_0_FILL"/>
</g>
</g>

<g id="armRight_FL_FL_FL_FL_FL_FL_FL_FL_FL_FL_FL_FL_FL_FL_FL_FL_FL_FL_FL_FL_FL_FL_FL_FL" transform="matrix( 0.6365509033203125, 0.7712249755859375, 0.5618133544921875, -0.463714599609375, 453.8,62.15) ">
<g transform="matrix( 1, 0, 0, 1, 0,0) ">
<use xlink:href="#Symbol_8_0_Layer0_0_FILL"/>
</g>
</g>

<g id="handRight_FL_FL_FL_FL_FL_FL_FL_FL_FL_FL_FL_FL_FL_FL_FL_FL_FL_FL_FL_FL_FL_FL_FL_FL" transform="matrix( -0.9999237060546875, 0.0097808837890625, -0.0097808837890625, -0.9999237060546875, 457.6,44.1) ">
<g transform="matrix( 1, 0, 0, 1, 0,0) ">
<use xlink:href="#Symbol_9_0_Layer0_0_FILL"/>
</g>
</g>

<g transform="matrix( -0.9870147705078125, 0.158935546875, 0, 1, 438.65,78.35) ">
<g transform="matrix( 1, 0, 0, 1, 0,0) ">
<use xlink:href="#Symbol_18_0_Layer0_0_FILL"/>
</g>

<g transform="matrix( 0.719451904296875, 0, 0, 0.719451904296875, 36.2,-0.35) ">
<use xlink:href="#Symbol_18_0_Layer0_1_FILL"/>
</g>
</g>

<g id="legRight_FL_FL_FL_FL_FL_FL_FL_FL_FL_FL_FL_FL_FL_FL_FL_FL_FL_FL_FL_FL_FL_FL_FL_FL" transform="matrix( -0.942108154296875, -0.34771728515625, -0.2938079833984375, 0.9530029296875, 453.6,79.35) ">
<g transform="matrix( 1, 0, 0, 1, 0,0) ">
<use xlink:href="#Symbol_11_0_Layer0_0_FILL"/>
</g>
</g>

<g id="legLeft_FL_FL_FL_FL_FL_FL_FL_FL_FL_FL_FL_FL_FL_FL_FL_FL_FL_FL_FL_FL_FL_FL_FL" transform="matrix( 0.9604034423828125, -0.2794342041015625, 0.1309356689453125, 1.00311279296875, 426.05,85.65) ">
<g transform="matrix( 1, 0, 0, 1, 0,0) ">
<use xlink:href="#Symbol_11_0_Layer0_0_FILL"/>
</g>
</g>

<g transform="matrix( 0.9965667724609375, -0.0825958251953125, 0.0825958251953125, 0.9965667724609375, 438.9,62.6) ">
<g transform="matrix( 1, 0, 0, 1, 0,0) ">
<use xlink:href="#Symbol_17_0_Layer0_0_FILL"/>
</g>

<g transform="matrix( 1, 0, 0, 1, 0,0) ">
<use xlink:href="#Symbol_17_0_Layer0_1_FILL"/>
</g>
</g>
</svg>
