
<svg xmlns="http://www.w3.org/2000/svg" version="1.1" xmlns:xlink="http://www.w3.org/1999/xlink" preserveAspectRatio="none" x="0px" y="0px" width="720px" height="330px" viewBox="0 0 720 330">
<defs>
<g id="Symbol_8_0_Layer0_0_FILL">
<path fill="#FFE0B1" stroke="none" d="
M -8.25 10.25
L -8.15 22.95
Q -5.3078125 25.2619140625 -1.4 26 0.069921875 17.8390625 4.15 10.5
L -8.25 10.25 Z"/>

<path fill="#FCF7EE" stroke="none" d="
M 4.15 10.5
Q 4.6619140625 9.6296875 5.2 8.75
L -8.3 6.3 -8.25 10.25 4.15 10.5 Z"/>

<path fill="#2E88C4" stroke="none" d="
M 5.2 8.75
L 5.7 8.85 6.2 5.9 -9.2 3.05
Q -10.5 3.65 -9.7 6.05
L -8.3 6.3 5.2 8.75 Z"/>

<path fill="#3498DB" stroke="none" d="
M 5.6 -3.65
Q 3.75 -6.35 0.55 -6.9
L 0.5 -6.9
Q -0.1 -7 -0.65 -7 -5.7 -7.15 -9.2 3.05
L 6.2 5.9 6.85 2.3
Q 7.45 -0.9 5.6 -3.65 Z"/>
</g>

<g id="Symbol_9_0_Layer0_0_FILL">
<path fill="#E7CBA0" stroke="none" d="
M 5.1 -1.05
L 5.1 -1.1
Q 8.2 -5.45 0.65 -9 3.1 -6.8 4.9 -1.85
L 5.1 -1.05
M -8.15 -3
Q -8.05 -2.55 -6.75 -2.65 -5.5 -2.75 -3.8 -3.35 -2.05 -3.95 -0.95 -4.7 0.15 -5.4 0.05 -5.85 0 -6.25 -1.3 -6.15 -2.5 -6 -4.25 -5.45 -5.95 -4.85 -7.05 -4.15 -8.2 -3.45 -8.15 -3 Z"/>

<path fill="#FFE0B1" stroke="none" d="
M 5.1 -1.1
L 5.1 -1.05 4.9 -1.85
Q 3.1 -6.8 0.65 -9
L -9 -6.45
Q -10.2 -6.15 -9.95 -5.05
L -9.8 -4.5
Q -7.1 7.6 -0.2 5.8 2.25 5.2 4.65 3.95 6.25 3.15 5.95 1.95
L 5.9 1.7
Q 5.5 0.25 5.1 -1.1
M -6.75 -2.65
Q -8.05 -2.55 -8.15 -3 -8.2 -3.45 -7.05 -4.15 -5.95 -4.85 -4.25 -5.45 -2.5 -6 -1.3 -6.15 0 -6.25 0.05 -5.85 0.15 -5.4 -0.95 -4.7 -2.05 -3.95 -3.8 -3.35 -5.5 -2.75 -6.75 -2.65 Z"/>
</g>

<g id="Symbol_18_0_Layer0_0_FILL">
<path fill="#D9D6BF" stroke="none" d="
M -17.05 5.9
Q -16.1130859375 8.51953125 -13.55 10 0.7 7.6283203125 14.95 10 16.8498046875 8.3373046875 17.7 5.9 0.54453125 4.102734375 -17.05 5.9 Z"/>

<path fill="#3498DB" stroke="none" d="
M 18.35 -0.7
L 18.35 -0.7
Q 16.958203125 -9.89296875 20 -21
L -19 -21
Q -15.1470703125 -10.248828125 -17.3 0.05 -17.8623046875 3.4666015625 -17.05 5.9 0.54453125 4.102734375 17.7 5.9 18.706640625 3.117578125 18.35 -0.7 Z"/>
</g>

<g id="Symbol_17_0_Layer0_0_FILL">
<path fill="#D7BD93" stroke="none" d="
M 6.6 3.15
Q 8.35 2 9.05 0.55
L -10.15 0.55
Q -9.45 2 -7.7 3.15 -4.75 5.1 -0.55 5.1 3.65 5.1 6.6 3.15 Z"/>

<path fill="#FFE0B1" stroke="none" d="
M 18.75 -24.65
Q 18.1 -29.1 13.55 -33.3 -0.2958984375 -46.1703125 -16.7 -29.1 -21.1 -29.1 -21.8 -24.55 -22.74140625 -18.073046875 -22.7 -13.4 -19.326953125 -3.9837890625 -10.15 0.55
L 9.05 0.55
Q 16.9462890625 -3.48046875 19.55 -12.45 19.6884765625 -18.4623046875 18.75 -24.65 Z"/>
</g>

<g id="Symbol_17_0_Layer0_1_FILL">
<path fill="#B8824D" stroke="none" d="
M 7.1 -40.65
Q 3.75 -41.6 1.55 -40.9 -1.7 -41.8 -4.85 -41.7 -5.4 -41.75 -5.95 -41.65 -16.45 -39.95 -22.15 -29.85 -24 -26.7 -24.9 -23.4 -25.8 -20.7 -25.95 -17.85 -25.95 -17.65 -25.95 -17.35 -25.3 -3.2 -15.9 -2 10.9357421875 2.48671875 18.65 -6.15 20.55 -7.25 20.45 -13.45
L 20.9 -21.7
Q 20.85 -22 20.85 -22.3 20.6 -23.9 20.5 -25.4 18.15 -37.65 7.1 -40.65
M 7.1 -31.65
Q 8.5859375 -30.1384765625 9.3 -28.3 10 -26.5734375 10 -24.55 10 -22.5826171875 9.35 -20.9 8.6251953125 -19.0251953125 7.1 -17.5 4.15 -14.55 0 -14.55 -4.15 -14.55 -7.1 -17.5 -8.6251953125 -19.0251953125 -9.35 -20.9 -10 -22.5826171875 -10 -24.55 -10 -26.5734375 -9.3 -28.3 -8.5859375 -30.1384765625 -7.1 -31.65 -4.15 -34.55 0 -34.55 4.15 -34.55 7.1 -31.65 Z"/>

<path fill="#A67545" stroke="none" d="
M 8.15 -29.05
Q 4.75 -30.85 0 -30.85 -4.75 -30.85 -8.15 -29.05 -8.791796875 -28.6955078125 -9.3 -28.3 -10 -26.5734375 -10 -24.55 -10 -22.5826171875 -9.35 -20.9 -8.6251953125 -19.0251953125 -7.1 -17.5 -4.15 -14.55 0 -14.55 4.15 -14.55 7.1 -17.5 8.6251953125 -19.0251953125 9.35 -20.9 10 -22.5826171875 10 -24.55 10 -26.5734375 9.3 -28.3 8.791796875 -28.6955078125 8.15 -29.05 Z"/>

<path fill="#C68C53" stroke="none" d="
M 0 -30.85
Q 4.75 -30.85 8.15 -29.05 8.791796875 -28.6955078125 9.3 -28.3 8.5859375 -30.1384765625 7.1 -31.65 4.15 -34.55 0 -34.55 -4.15 -34.55 -7.1 -31.65 -8.5859375 -30.1384765625 -9.3 -28.3 -8.791796875 -28.6955078125 -8.15 -29.05 -4.75 -30.85 0 -30.85
M 1.55 -40.9
Q 3.75 -41.6 7.1 -40.65 18.15 -37.65 20.5 -25.4 20.6 -23.9 20.85 -22.3 20.8 -23.15 20.75 -23.9 20.6 -25.6 20.35 -27.15 18.1 -39.25 7.05 -42.2 3.8 -43.1 1.55 -42.5 -1.5 -43.4 -4.5 -43.25 -4.75 -43.3 -5 -43.3 -5.55 -43.3 -5.95 -43.2 -7.95 -42.95 -9.7 -42.3 -17.5 -39.7 -22.1 -31.45 -23.95 -28.4 -24.8 -25.05 -25.75 -22 -25.95 -18.7 -25.95 -18.35 -25.95 -17.85 -25.8 -20.7 -24.9 -23.4 -24 -26.7 -22.15 -29.85 -16.45 -39.95 -5.95 -41.65 -5.4 -41.75 -4.85 -41.7 -1.7 -41.8 1.55 -40.9 Z"/>
</g>

<g id="Symbol_16_0_Layer0_0_FILL">
<path fill="#D7BD93" stroke="none" d="
M 6.6 3.15
Q 8.35 2 9.05 0.55
L -10.15 0.55
Q -9.45 2 -7.7 3.15 -4.75 5.1 -0.55 5.1 3.65 5.1 6.6 3.15 Z"/>

<path fill="#FFE0B1" stroke="none" d="
M 18.75 -24.65
Q 18.1 -29.1 13.55 -33.3 -0.2958984375 -46.1703125 -16.7 -29.1 -21.1 -29.1 -21.8 -24.55 -22.74140625 -18.073046875 -22.7 -13.4 -19.326953125 -3.9837890625 -10.15 0.55
L 9.05 0.55
Q 16.9462890625 -3.48046875 19.55 -12.45 19.6884765625 -18.4623046875 18.75 -24.65 Z"/>
</g>

<g id="Symbol_16_0_Layer0_1_FILL">
<path fill="#9F7042" stroke="none" d="
M -46.75 -35.55
Q -46.75 -39.25 -49.35 -41.85 -51.95 -44.45 -55.65 -44.45 -59.35 -44.45 -61.95 -41.85 -64.55 -39.25 -64.55 -35.55 -64.55 -31.85 -61.95 -29.25 -59.35 -26.65 -55.65 -26.65 -51.95 -26.65 -49.35 -29.25 -46.75 -31.85 -46.75 -35.55 Z"/>
</g>

<g id="Symbol_16_0_Layer0_2_FILL">
<path fill="#BFA984" stroke="none" d="
M -8.8 -16.1
Q -7.9 -17.1 -6.55 -17.2
L -11.9 -17.4 -9.85 -12.6
Q -9.9 -13 -9.9 -13.4 -9.9 -14.95 -8.8 -16.1
M 10.25 -17.2
Q 11.6 -17.1 12.5 -16.1 13.6 -14.95 13.6 -13.4 13.6 -13 13.55 -12.6
L 15.6 -17.4 10.25 -17.2 Z"/>

<path fill="#FFFFFF" stroke="none" d="
M -6.25 -17.2
Q -6.4 -17.2 -6.55 -17.2 -7.9 -17.1 -8.8 -16.1 -9.9 -14.95 -9.9 -13.4 -9.9 -13 -9.85 -12.6 -9.6 -11.55 -8.8 -10.75 -7.8 -9.6 -6.25 -9.6 -4.7 -9.6 -3.6 -10.75 -2.6 -11.85 -2.6 -13.4 -2.6 -14.95 -3.6 -16.1 -4.7 -17.2 -6.25 -17.2
M -7.4 -13.25
L -7.4 -13.5
Q -7.35 -14.4 -6.75 -15.05 -6.15 -15.7 -5.25 -15.7 -4.35 -15.7 -3.7 -15.05 -3.15 -14.4 -3.1 -13.5
L -3.1 -13.25
Q -3.15 -12.4 -3.7 -11.8 -4.35 -11.1 -5.25 -11.1 -6.15 -11.1 -6.75 -11.8 -7.35 -12.4 -7.4 -13.25
M 12.5 -16.1
Q 11.6 -17.1 10.25 -17.2 10.1 -17.2 9.95 -17.2 8.4 -17.2 7.3 -16.1 6.3 -14.95 6.3 -13.4 6.3 -11.85 7.3 -10.75 8.4 -9.6 9.95 -9.6 11.5 -9.6 12.5 -10.75 13.3 -11.55 13.55 -12.6 13.6 -13 13.6 -13.4 13.6 -14.95 12.5 -16.1
M 11.1 -13.5
L 11.1 -13.25
Q 11.05 -12.4 10.45 -11.8 9.85 -11.1 8.95 -11.1 8.05 -11.1 7.4 -11.8 6.85 -12.4 6.8 -13.25
L 6.8 -13.5
Q 6.85 -14.4 7.4 -15.05 8.05 -15.7 8.95 -15.7 9.85 -15.7 10.45 -15.05 11.05 -14.4 11.1 -13.5 Z"/>

<path fill="#7F7058" stroke="none" d="
M -7.4 -13.5
L -7.4 -13.25
Q -7.35 -12.4 -6.75 -11.8 -6.15 -11.1 -5.25 -11.1 -4.35 -11.1 -3.7 -11.8 -3.15 -12.4 -3.1 -13.25
L -3.1 -13.5
Q -3.15 -14.4 -3.7 -15.05 -4.35 -15.7 -5.25 -15.7 -6.15 -15.7 -6.75 -15.05 -7.35 -14.4 -7.4 -13.5
M 11.1 -13.25
L 11.1 -13.5
Q 11.05 -14.4 10.45 -15.05 9.85 -15.7 8.95 -15.7 8.05 -15.7 7.4 -15.05 6.85 -14.4 6.8 -13.5
L 6.8 -13.25
Q 6.85 -12.4 7.4 -11.8 8.05 -11.1 8.95 -11.1 9.85 -11.1 10.45 -11.8 11.05 -12.4 11.1 -13.25 Z"/>
</g>

<g id="Symbol_16_0_Layer0_2_MEMBER_0_FILL">
<path fill="#B8824D" stroke="none" d="
M 15.05 -19.5
Q 11.8 -21.15 7.65 -20.35 7.2 -20.3 7 -19.95 6.75 -19.65 6.85 -19.2 6.9 -18.8 7.25 -18.55 7.55 -18.35 12.45 -19.15 13.95 -19.45 15.05 -19.5 Z"/>
</g>

<g id="Symbol_16_0_Layer0_2_MEMBER_1_FILL">
<path fill="#B8824D" stroke="none" d="
M -9.9 -19.5
Q -8.8 -19.45 -7.3 -19.15 -2.4 -18.35 -2.1 -18.55 -1.75 -18.8 -1.7 -19.2 -1.6 -19.65 -1.85 -19.95 -2.05 -20.3 -2.5 -20.35 -6.65 -21.15 -9.9 -19.5 Z"/>
</g>

<g id="Symbol_16_0_Layer0_2_MEMBER_2_FILL">
<path fill="#FFFFFF" stroke="none" d="
M 3.85 -15.15
Q 2.95 -15.45 1.9 -15.45 -0.55 -15.45 -2.35 -13.65 -2.8 -13.25 -3.1 -12.75
L 3.9 -12.75 3.85 -15.15 Z"/>

<path fill="#7F7058" stroke="none" d="
M 6.15 -13.65
L 6.1 -13.7
Q 5.1 -14.7 3.85 -15.15
L 3.9 -12.75 -3.1 -12.75
Q -3.35 -12.4 -3.55 -12 -3.8 -11.55 -3.9 -11.05 -4 -10.7 -3.9 -10.45 -3.8 -10.1 -3.5 -9.95 -3.25 -9.75 -2.95 -9.75
L 6.75 -9.75
Q 7.05 -9.75 7.35 -9.95 7.6 -10.1 7.7 -10.45 7.8 -10.7 7.75 -11.05 7.6 -11.55 7.35 -12 6.9 -12.9 6.15 -13.65 Z"/>
</g>

<g id="Symbol_16_0_Layer0_2_MEMBER_3_FILL">
<path fill="#FFFFFF" fill-opacity="0.30196078431372547" stroke="none" d="
M -11.7 -9.2
Q -12.4 -8.55 -12.4 -7.6 -12.4 -6.75 -11.7 -6.1 -10.95 -5.45 -9.9 -5.45 -8.9 -5.45 -8.2 -6.1 -7.4 -6.75 -7.4 -7.6 -7.4 -8.55 -8.2 -9.2 -8.9 -9.8 -9.9 -9.8 -10.95 -9.8 -11.7 -9.2 Z"/>
</g>

<g id="Symbol_16_0_Layer0_2_MEMBER_4_FILL">
<path fill="#FFFFFF" fill-opacity="0.30196078431372547" stroke="none" d="
M 15.85 -6.1
Q 16.65 -6.75 16.65 -7.6 16.65 -8.55 15.85 -9.2 15.15 -9.8 14.15 -9.8 13.1 -9.8 12.35 -9.2 11.65 -8.55 11.65 -7.6 11.65 -6.75 12.35 -6.1 13.1 -5.45 14.15 -5.45 15.15 -5.45 15.85 -6.1 Z"/>
</g>

<g id="Symbol_16_0_Layer0_3_FILL">
<path fill="#B8824D" stroke="none" d="
M 1.95 -27.85
Q 1.45 -26.7 1 -25.55
L 14.95 -21.4
Q 18.8126953125 -20.0453125 17.5 -14.55 16.3005859375 -9.102734375 18.55 -3.4 20.439453125 -4.50546875 20.3 -10.7
L 20.8 -18.95
Q 20.75 -19.25 20.75 -19.55 20.5 -21.15 20.4 -22.65 18.05 -34.9 7 -37.9 3.65 -38.85 1.45 -38.15 -1.8 -39.05 -4.95 -38.95 -5.5 -39 -6.05 -38.9 -16.55 -37.2 -22.25 -27.1 -24.1 -23.95 -25 -20.65 -25.9 -17.95 -26.05 -15.1 -26.05 -14.9 -26.05 -14.6 -25.4099609375 -0.4390625 -16 0.75 -17.0380859375 -9.426171875 -10.95 -12.1
L -12.95 -20.05
Q -4.5 -21.85 2.75 -30.55 2.75 -30.65 2.85 -30.65 2.35 -29.25 1.95 -27.85 Z"/>

<path fill="#AD7A48" stroke="none" d="
M 1 -25.55
Q 1.45 -26.7 1.95 -27.85 2.35 -29.25 2.85 -30.65 2.75 -30.65 2.75 -30.55 -4.5 -21.85 -12.95 -20.05
L -10.95 -12.1 -10.95 -12
Q -3.4 -15.55 1 -25.55 Z"/>

<path fill="#C68C53" stroke="none" d="
M 6.95 -39.45
Q 3.7 -40.35 1.45 -39.75 -1.6 -40.65 -4.6 -40.5 -4.85 -40.55 -5.1 -40.55 -5.65 -40.55 -6.05 -40.45 -8.05 -40.2 -9.8 -39.55 -17.6 -36.95 -22.2 -28.7 -24.05 -25.65 -24.9 -22.3 -25.85 -19.25 -26.05 -15.95 -26.05 -15.6 -26.05 -15.1 -25.9 -17.95 -25 -20.65 -24.1 -23.95 -22.25 -27.1 -16.55 -37.2 -6.05 -38.9 -5.5 -39 -4.95 -38.95 -1.8 -39.05 1.45 -38.15 3.65 -38.85 7 -37.9 18.05 -34.9 20.4 -22.65 20.5 -21.15 20.75 -19.55 20.7 -20.4 20.65 -21.15 20.5 -22.85 20.25 -24.4 18 -36.5 6.95 -39.45 Z"/>
</g>

<g id="Symbol_11_0_Layer0_0_FILL">
<path fill="#B8824D" stroke="none" d="
M 8 6.3
L 7.45 0.4
Q 7.1138671875 -2.8609375 4.85 -5 2.678515625 -7 -0.2 -7
L -0.25 -7
Q -3.1421875 -7 -5.25 -5 -7.4513671875 -2.8609375 -7.7 0.4
L -8.1 6.3 8 6.3 Z"/>

<path fill="#9F7042" stroke="none" d="
M 8.4 10
L 8 6.3 -8.1 6.3 -8.35 9.95 -8.35 10 8.35 10 8.4 10 Z"/>

<path fill="#D4D0C9" stroke="none" d="
M 8.95 16
L 8.35 10 -8.35 10 -8.35 9.95
Q -10.1115234375 11.00859375 -11.75 13.3
L -12 16 8.95 16 Z"/>
</g>

<g id="Symbol_10_0_Layer0_0_FILL">
<path fill="#D9D6BF" stroke="none" d="
M -17.05 5.9
Q -16.1130859375 8.51953125 -13.55 10 0.7 7.6283203125 14.95 10 16.8498046875 8.3373046875 17.7 5.9 0.54453125 4.102734375 -17.05 5.9 Z"/>

<path fill="#3498DB" stroke="none" d="
M 18.35 -0.7
L 18.35 -0.7
Q 16.958203125 -9.89296875 20 -21
L -19 -21
Q -15.1470703125 -10.248828125 -17.3 0.05 -17.8623046875 3.4666015625 -17.05 5.9 0.54453125 4.102734375 17.7 5.9 18.706640625 3.117578125 18.35 -0.7 Z"/>
</g>

<g id="Symbol_10_0_Layer0_1_FILL">
<path fill="#2E88C4" stroke="none" d="
M 14.05 -15.6
Q 13.7 -16 13.35 -16.4 13.25 -16.55 13.05 -16.55 12.9 -16.55 12.75 -16.45 12.6 -16.35 12.6 -16.15 12.5 -16 12.6 -15.8 13.25 -14.35 12.7 -12.8
L 12.7 -12.85
Q 11.85 -10.65 9.15 -9.7 6.45 -8.8 3.4 -9.6 3.15 -9.75 2.85 -9.8 2.7 -9.85 2.6 -9.75 2.4 -9.65 2.35 -9.5 2.3 -9.35 2.35 -9.15 2.35 -9 2.5 -8.9 3.8 -7.85 5.75 -7.25
L 5.7 -7.25
Q 8.75 -6.25 11.5 -7.15 14.3 -8.15 15.1 -10.7
L 15.1 -10.65
Q 15.85 -13.05 14.05 -15.6
M -12.05 -15.25
Q -12.2 -15.25 -12.3 -15.1 -12.75 -14.65 -12.95 -14.2 -14.85 -11.55 -14 -9.2
L -14 -9.25
Q -13.3 -6.7 -10.45 -6.05 -7.7 -5.4 -4.6 -6.75 -2.8 -7.55 -1.45 -8.7 -1.3 -8.8 -1.25 -8.95 -1.25 -9.15 -1.3 -9.3 -1.35 -9.45 -1.5 -9.55 -1.7 -9.65 -1.8 -9.6 -2.1 -9.55 -2.3 -9.4 -5.4 -8.2 -8.15 -8.85 -10.8 -9.5 -11.65 -11.55 -12.2 -13 -11.6 -14.55 -11.55 -14.7 -11.55 -14.85 -11.6 -15.05 -11.7 -15.15 -11.85 -15.25 -12.05 -15.25 Z"/>
</g>

<g id="Symbol_12_0_Layer0_0_FILL">
<path fill="#9F7042" stroke="none" d="
M -9.1 -25.35
Q -6.5 -27.95 -6.5 -31.65 -6.5 -35.35 -9.1 -37.95 -11.7 -40.55 -15.4 -40.55 -19.1 -40.55 -21.7 -37.95 -24.3 -35.35 -24.3 -31.65 -24.3 -27.95 -21.7 -25.35 -19.1 -22.75 -15.4 -22.75 -11.7 -22.75 -9.1 -25.35 Z"/>
</g>

<g id="Symbol_12_0_Layer0_1_FILL">
<path fill="#D7BD93" stroke="none" d="
M -7.7 3.15
Q -4.75 5.1 -0.55 5.1 3.65 5.1 6.6 3.15 8.35 2 9.05 0.55
L -10.15 0.55
Q -9.45 2 -7.7 3.15 Z"/>

<path fill="#FFE0B1" stroke="none" d="
M 18.75 -24.65
Q 18.1 -29.1 13.55 -33.3 -0.2958984375 -46.1703125 -16.7 -29.1 -21.1 -29.1 -21.8 -24.55 -22.74140625 -18.073046875 -22.7 -13.4 -19.326953125 -3.9837890625 -10.15 0.55
L 9.05 0.55
Q 16.9462890625 -3.48046875 19.55 -12.45 19.6884765625 -18.4623046875 18.75 -24.65 Z"/>
</g>

<g id="Symbol_12_0_Layer0_2_FILL">
<path fill="#BFA984" stroke="none" d="
M -8.8 -16.1
Q -7.9 -17.1 -6.55 -17.2
L -11.9 -17.4 -9.85 -12.6
Q -9.9 -13 -9.9 -13.4 -9.9 -14.95 -8.8 -16.1
M 10.25 -17.2
Q 11.6 -17.1 12.5 -16.1 13.6 -14.95 13.6 -13.4 13.6 -13 13.55 -12.6
L 15.6 -17.4 10.25 -17.2 Z"/>

<path fill="#FFFFFF" stroke="none" d="
M -6.25 -17.2
Q -6.4 -17.2 -6.55 -17.2 -7.9 -17.1 -8.8 -16.1 -9.9 -14.95 -9.9 -13.4 -9.9 -13 -9.85 -12.6 -9.6 -11.55 -8.8 -10.75 -7.8 -9.6 -6.25 -9.6 -4.7 -9.6 -3.6 -10.75 -2.6 -11.85 -2.6 -13.4 -2.6 -14.95 -3.6 -16.1 -4.7 -17.2 -6.25 -17.2
M -7.4 -13.5
Q -7.35 -14.4 -6.75 -15.05 -6.15 -15.7 -5.25 -15.7 -4.35 -15.7 -3.7 -15.05 -3.15 -14.4 -3.1 -13.5
L -3.1 -13.25
Q -3.15 -12.4 -3.7 -11.8 -4.35 -11.1 -5.25 -11.1 -6.15 -11.1 -6.75 -11.8 -7.35 -12.4 -7.4 -13.25
L -7.4 -13.5
M 12.5 -16.1
Q 11.6 -17.1 10.25 -17.2 10.1 -17.2 9.95 -17.2 8.4 -17.2 7.3 -16.1 6.3 -14.95 6.3 -13.4 6.3 -11.85 7.3 -10.75 8.4 -9.6 9.95 -9.6 11.5 -9.6 12.5 -10.75 13.3 -11.55 13.55 -12.6 13.6 -13 13.6 -13.4 13.6 -14.95 12.5 -16.1
M 11.1 -13.5
L 11.1 -13.25
Q 11.05 -12.4 10.45 -11.8 9.85 -11.1 8.95 -11.1 8.05 -11.1 7.4 -11.8 6.85 -12.4 6.8 -13.25
L 6.8 -13.5
Q 6.85 -14.4 7.4 -15.05 8.05 -15.7 8.95 -15.7 9.85 -15.7 10.45 -15.05 11.05 -14.4 11.1 -13.5 Z"/>

<path fill="#7F7058" stroke="none" d="
M -6.75 -15.05
Q -7.35 -14.4 -7.4 -13.5
L -7.4 -13.25
Q -7.35 -12.4 -6.75 -11.8 -6.15 -11.1 -5.25 -11.1 -4.35 -11.1 -3.7 -11.8 -3.15 -12.4 -3.1 -13.25
L -3.1 -13.5
Q -3.15 -14.4 -3.7 -15.05 -4.35 -15.7 -5.25 -15.7 -6.15 -15.7 -6.75 -15.05
M 11.1 -13.25
L 11.1 -13.5
Q 11.05 -14.4 10.45 -15.05 9.85 -15.7 8.95 -15.7 8.05 -15.7 7.4 -15.05 6.85 -14.4 6.8 -13.5
L 6.8 -13.25
Q 6.85 -12.4 7.4 -11.8 8.05 -11.1 8.95 -11.1 9.85 -11.1 10.45 -11.8 11.05 -12.4 11.1 -13.25 Z"/>
</g>

<g id="Symbol_12_0_Layer0_2_MEMBER_0_FILL">
<path fill="#B8824D" stroke="none" d="
M 12.2 -18.65
Q 13.7 -18.35 14.75 -18 12.25 -20.75 8.15 -21.45 7.65 -21.55 7.4 -21.35 7.05 -21.15 6.95 -20.7 6.9 -20.3 7.1 -19.9 7.3 -19.65 12.2 -18.65 Z"/>
</g>

<g id="Symbol_12_0_Layer0_2_MEMBER_1_FILL">
<path fill="#B8824D" stroke="none" d="
M -9.75 -19.45
Q -8.7 -19.65 -7.15 -19.75 -2.2 -20.25 -2 -20.5 -1.7 -20.85 -1.75 -21.25 -1.8 -21.75 -2.1 -21.9 -2.4 -22.2 -2.8 -22.15 -7 -21.9 -9.75 -19.45 Z"/>
</g>

<g id="Symbol_12_0_Layer0_2_MEMBER_2_FILL">
<path fill="#FFFFFF" fill-opacity="0.30196078431372547" stroke="none" d="
M -8.7 -6.1
Q -7.9 -6.75 -7.9 -7.6 -7.9 -8.55 -8.7 -9.2 -9.4 -9.8 -10.4 -9.8 -11.45 -9.8 -12.2 -9.2 -12.9 -8.55 -12.9 -7.6 -12.9 -6.75 -12.2 -6.1 -11.45 -5.45 -10.4 -5.45 -9.4 -5.45 -8.7 -6.1 Z"/>
</g>

<g id="Symbol_12_0_Layer0_2_MEMBER_3_FILL">
<path fill="#FFFFFF" fill-opacity="0.30196078431372547" stroke="none" d="
M 15.85 -6.1
Q 16.65 -6.75 16.65 -7.6 16.65 -8.55 15.85 -9.2 15.15 -9.8 14.15 -9.8 13.1 -9.8 12.35 -9.2 11.65 -8.55 11.65 -7.6 11.65 -6.75 12.35 -6.1 13.1 -5.45 14.15 -5.45 15.15 -5.45 15.85 -6.1 Z"/>
</g>

<g id="Symbol_12_0_Layer0_2_MEMBER_4_FILL">
<path fill="#FFFFFF" stroke="none" d="
M -46.75 4.75
Q -46.8 4.8 -46.85 4.95 -46.95 5.1 -46.85 5.35 -46.8 5.7 -46.6 6 -46.5 6.3 -46.3 6.5
L -41.5 6.5 -41.5 4.45 -46.2 4.45
Q -46.4 4.45 -46.6 4.6 -46.7 4.65 -46.75 4.75 Z"/>

<path fill="#7F7058" stroke="none" d="
M -38.85 5.35
Q -38.8 5.1 -38.9 4.95 -38.9 4.9 -38.9 4.85 -38.95 4.8 -39 4.75 -39.05 4.65 -39.1 4.65
L -39.15 4.6
Q -39.35 4.45 -39.55 4.45
L -41.5 4.45 -41.5 6.5 -46.3 6.5
Q -46.1 6.85 -45.8 7.15 -44.65 8.3 -43.1 8.35
L -42.7 8.35
Q -41.1 8.3 -40 7.15
L -39.95 7.15
Q -39.45 6.6 -39.15 6 -38.95 5.7 -38.85 5.35 Z"/>
</g>

<g id="Symbol_12_0_Layer0_3_FILL">
<path fill="#C68C53" stroke="none" d="
M 6.95 -39.45
Q 3.7 -40.35 1.45 -39.75 -1.6 -40.65 -4.6 -40.5 -4.85 -40.55 -5.1 -40.55 -5.65 -40.55 -6.05 -40.45 -8.05 -40.2 -9.8 -39.55 -17.6 -36.95 -22.2 -28.7 -24.05 -25.65 -24.9 -22.3 -25.85 -19.25 -26.05 -15.95 -26.05 -15.6 -26.05 -15.1 -25.9 -17.95 -25 -20.65 -24.1 -23.95 -22.25 -27.1 -16.55 -37.2 -6.05 -38.9 -5.5 -39 -4.95 -38.95 -1.8 -39.05 1.45 -38.15 3.65 -38.85 7 -37.9 18.05 -34.9 20.4 -22.65 20.5 -21.15 20.75 -19.55 20.7 -20.4 20.65 -21.15 20.5 -22.85 20.25 -24.4 18 -36.5 6.95 -39.45 Z"/>

<path fill="#B8824D" stroke="none" d="
M 1.95 -27.85
Q 1.45 -26.7 1 -25.55
L 14.95 -21.4
Q 18.8126953125 -20.0453125 17.5 -14.55 16.3005859375 -9.102734375 18.55 -3.4 20.439453125 -4.50546875 20.3 -10.7
L 20.8 -18.95
Q 20.75 -19.25 20.75 -19.55 20.5 -21.15 20.4 -22.65 18.05 -34.9 7 -37.9 3.65 -38.85 1.45 -38.15 -1.8 -39.05 -4.95 -38.95 -5.5 -39 -6.05 -38.9 -16.55 -37.2 -22.25 -27.1 -24.1 -23.95 -25 -20.65 -25.9 -17.95 -26.05 -15.1 -26.05 -14.9 -26.05 -14.6 -25.4099609375 -0.4390625 -16 0.75 -17.0380859375 -9.426171875 -10.95 -12.1
L -12.95 -20.05
Q -4.5 -21.85 2.75 -30.55 2.75 -30.65 2.85 -30.65 2.35 -29.25 1.95 -27.85 Z"/>

<path fill="#AD7A48" stroke="none" d="
M 1 -25.55
Q 1.45 -26.7 1.95 -27.85 2.35 -29.25 2.85 -30.65 2.75 -30.65 2.75 -30.55 -4.5 -21.85 -12.95 -20.05
L -10.95 -12.1 -10.95 -12
Q -3.4 -15.55 1 -25.55 Z"/>
</g>

<g id="Symbol_15_0_Layer0_0_FILL">
<path fill="#D7BD93" stroke="none" d="
M 6.6 3.15
Q 8.35 2 9.05 0.55
L -10.15 0.55
Q -9.45 2 -7.7 3.15 -4.75 5.1 -0.55 5.1 3.65 5.1 6.6 3.15 Z"/>

<path fill="#FFE0B1" stroke="none" d="
M 18.75 -24.65
Q 18.1 -29.1 13.55 -33.3 -0.2958984375 -46.1703125 -16.7 -29.1 -21.1 -29.1 -21.8 -24.55 -22.74140625 -18.073046875 -22.7 -13.4 -19.326953125 -3.9837890625 -10.15 0.55
L 9.05 0.55
Q 16.9462890625 -3.48046875 19.55 -12.45 19.6884765625 -18.4623046875 18.75 -24.65 Z"/>
</g>

<g id="Symbol_15_0_Layer0_1_FILL">
<path fill="#9F7042" stroke="none" d="
M -9.1 -25.35
Q -6.5 -27.95 -6.5 -31.65 -6.5 -35.35 -9.1 -37.95 -11.7 -40.55 -15.4 -40.55 -19.1 -40.55 -21.7 -37.95 -24.3 -35.35 -24.3 -31.65 -24.3 -27.95 -21.7 -25.35 -19.1 -22.75 -15.4 -22.75 -11.7 -22.75 -9.1 -25.35 Z"/>
</g>

<g id="Symbol_15_0_Layer0_2_FILL">
<path fill="#BFA984" stroke="none" d="
M -8.8 -16.1
Q -7.9 -17.1 -6.55 -17.2
L -11.9 -17.4 -9.85 -12.6
Q -9.9 -13 -9.9 -13.4 -9.9 -14.95 -8.8 -16.1
M 10.25 -17.2
Q 11.6 -17.1 12.5 -16.1 13.6 -14.95 13.6 -13.4 13.6 -13 13.55 -12.6
L 15.6 -17.4 10.25 -17.2 Z"/>

<path fill="#FFFFFF" stroke="none" d="
M -6.25 -17.2
Q -6.4 -17.2 -6.55 -17.2 -7.9 -17.1 -8.8 -16.1 -9.9 -14.95 -9.9 -13.4 -9.9 -13 -9.85 -12.6 -9.6 -11.55 -8.8 -10.75 -7.8 -9.6 -6.25 -9.6 -4.7 -9.6 -3.6 -10.75 -2.6 -11.85 -2.6 -13.4 -2.6 -14.95 -3.6 -16.1 -4.7 -17.2 -6.25 -17.2
M -7.4 -13.5
Q -7.35 -14.4 -6.75 -15.05 -6.15 -15.7 -5.25 -15.7 -4.35 -15.7 -3.7 -15.05 -3.15 -14.4 -3.1 -13.5
L -3.1 -13.25
Q -3.15 -12.4 -3.7 -11.8 -4.35 -11.1 -5.25 -11.1 -6.15 -11.1 -6.75 -11.8 -7.35 -12.4 -7.4 -13.25
L -7.4 -13.5
M 12.5 -16.1
Q 11.6 -17.1 10.25 -17.2 10.1 -17.2 9.95 -17.2 8.4 -17.2 7.3 -16.1 6.3 -14.95 6.3 -13.4 6.3 -11.85 7.3 -10.75 8.4 -9.6 9.95 -9.6 11.5 -9.6 12.5 -10.75 13.3 -11.55 13.55 -12.6 13.6 -13 13.6 -13.4 13.6 -14.95 12.5 -16.1
M 11.1 -13.5
L 11.1 -13.25
Q 11.05 -12.4 10.45 -11.8 9.85 -11.1 8.95 -11.1 8.05 -11.1 7.4 -11.8 6.85 -12.4 6.8 -13.25
L 6.8 -13.5
Q 6.85 -14.4 7.4 -15.05 8.05 -15.7 8.95 -15.7 9.85 -15.7 10.45 -15.05 11.05 -14.4 11.1 -13.5 Z"/>

<path fill="#7F7058" stroke="none" d="
M -6.75 -15.05
Q -7.35 -14.4 -7.4 -13.5
L -7.4 -13.25
Q -7.35 -12.4 -6.75 -11.8 -6.15 -11.1 -5.25 -11.1 -4.35 -11.1 -3.7 -11.8 -3.15 -12.4 -3.1 -13.25
L -3.1 -13.5
Q -3.15 -14.4 -3.7 -15.05 -4.35 -15.7 -5.25 -15.7 -6.15 -15.7 -6.75 -15.05
M 11.1 -13.25
L 11.1 -13.5
Q 11.05 -14.4 10.45 -15.05 9.85 -15.7 8.95 -15.7 8.05 -15.7 7.4 -15.05 6.85 -14.4 6.8 -13.5
L 6.8 -13.25
Q 6.85 -12.4 7.4 -11.8 8.05 -11.1 8.95 -11.1 9.85 -11.1 10.45 -11.8 11.05 -12.4 11.1 -13.25 Z"/>
</g>

<g id="Symbol_15_0_Layer0_2_MEMBER_0_FILL">
<path fill="#B8824D" stroke="none" d="
M 12.2 -18.65
Q 13.7 -18.35 14.75 -18 12.25 -20.75 8.15 -21.45 7.65 -21.55 7.4 -21.35 7.05 -21.15 6.95 -20.7 6.9 -20.3 7.1 -19.9 7.3 -19.65 12.2 -18.65 Z"/>
</g>

<g id="Symbol_15_0_Layer0_2_MEMBER_1_FILL">
<path fill="#B8824D" stroke="none" d="
M -9.75 -19.45
Q -8.7 -19.65 -7.15 -19.75 -2.2 -20.25 -2 -20.5 -1.7 -20.85 -1.75 -21.25 -1.8 -21.75 -2.1 -21.9 -2.4 -22.2 -2.8 -22.15 -7 -21.9 -9.75 -19.45 Z"/>
</g>

<g id="Symbol_15_0_Layer0_2_MEMBER_2_FILL">
<path fill="#FFFFFF" fill-opacity="0.30196078431372547" stroke="none" d="
M -8.7 -6.1
Q -7.9 -6.75 -7.9 -7.6 -7.9 -8.55 -8.7 -9.2 -9.4 -9.8 -10.4 -9.8 -11.45 -9.8 -12.2 -9.2 -12.9 -8.55 -12.9 -7.6 -12.9 -6.75 -12.2 -6.1 -11.45 -5.45 -10.4 -5.45 -9.4 -5.45 -8.7 -6.1 Z"/>
</g>

<g id="Symbol_15_0_Layer0_2_MEMBER_3_FILL">
<path fill="#FFFFFF" fill-opacity="0.30196078431372547" stroke="none" d="
M 15.85 -6.1
Q 16.65 -6.75 16.65 -7.6 16.65 -8.55 15.85 -9.2 15.15 -9.8 14.15 -9.8 13.1 -9.8 12.35 -9.2 11.65 -8.55 11.65 -7.6 11.65 -6.75 12.35 -6.1 13.1 -5.45 14.15 -5.45 15.15 -5.45 15.85 -6.1 Z"/>
</g>

<g id="Symbol_15_0_Layer0_2_MEMBER_4_FILL">
<path fill="#7F7058" stroke="none" d="
M 52.05 -3.55
Q 51.7 -3.8 51.3 -3.7 50.9 -3.65 50.7 -3.3 50.45 -2.95 50.55 -2.55 50.6 -2.15 50.95 -1.9 55.6 1.2 61.95 -0.8 62.35 -0.95 62.55 -1.3 62.7 -1.65 62.6 -2.05 62.45 -2.45 62.1 -2.6 61.75 -2.8 61.35 -2.7 56 -1 52.05 -3.55 Z"/>
</g>

<g id="Symbol_15_0_Layer0_3_FILL">
<path fill="#C68C53" stroke="none" d="
M 6.95 -39.45
Q 3.7 -40.35 1.45 -39.75 -1.6 -40.65 -4.6 -40.5 -4.85 -40.55 -5.1 -40.55 -5.65 -40.55 -6.05 -40.45 -8.05 -40.2 -9.8 -39.55 -17.6 -36.95 -22.2 -28.7 -24.05 -25.65 -24.9 -22.3 -25.85 -19.25 -26.05 -15.95 -26.05 -15.6 -26.05 -15.1 -25.9 -17.95 -25 -20.65 -24.1 -23.95 -22.25 -27.1 -16.55 -37.2 -6.05 -38.9 -5.5 -39 -4.95 -38.95 -1.8 -39.05 1.45 -38.15 3.65 -38.85 7 -37.9 18.05 -34.9 20.4 -22.65 20.5 -21.15 20.75 -19.55 20.7 -20.4 20.65 -21.15 20.5 -22.85 20.25 -24.4 18 -36.5 6.95 -39.45 Z"/>

<path fill="#B8824D" stroke="none" d="
M 1.95 -27.85
Q 1.45 -26.7 1 -25.55
L 14.95 -21.4
Q 18.8126953125 -20.0453125 17.5 -14.55 16.3005859375 -9.102734375 18.55 -3.4 20.439453125 -4.50546875 20.3 -10.7
L 20.8 -18.95
Q 20.75 -19.25 20.75 -19.55 20.5 -21.15 20.4 -22.65 18.05 -34.9 7 -37.9 3.65 -38.85 1.45 -38.15 -1.8 -39.05 -4.95 -38.95 -5.5 -39 -6.05 -38.9 -16.55 -37.2 -22.25 -27.1 -24.1 -23.95 -25 -20.65 -25.9 -17.95 -26.05 -15.1 -26.05 -14.9 -26.05 -14.6 -25.4099609375 -0.4390625 -16 0.75 -17.0380859375 -9.426171875 -10.95 -12.1
L -12.95 -20.05
Q -4.5 -21.85 2.75 -30.55 2.75 -30.65 2.85 -30.65 2.35 -29.25 1.95 -27.85 Z"/>

<path fill="#AD7A48" stroke="none" d="
M 1 -25.55
Q 1.45 -26.7 1.95 -27.85 2.35 -29.25 2.85 -30.65 2.75 -30.65 2.75 -30.55 -4.5 -21.85 -12.95 -20.05
L -10.95 -12.1 -10.95 -12
Q -3.4 -15.55 1 -25.55 Z"/>
</g>
</defs>

<g id="armRight" transform="matrix( 0.6190185546875, -0.7853546142578125, 0.7853546142578125, 0.6190185546875, 47.35,289.55) ">
<g transform="matrix( 1, 0, 0, 1, 0,0) ">
<use xlink:href="#Symbol_8_0_Layer0_0_FILL"/>
</g>
</g>

<g id="armRight_FL" transform="matrix( -0.220489501953125, 0.9753875732421875, 0.9753875732421875, 0.220489501953125, 205.1,179.75) ">
<g transform="matrix( 1, 0, 0, 1, 0,0) ">
<use xlink:href="#Symbol_8_0_Layer0_0_FILL"/>
</g>
</g>

<g id="armRight_FL_FL" transform="matrix( -0.402496337890625, 0.915374755859375, 0.915374755859375, 0.402496337890625, 445.1,177.4) ">
<g transform="matrix( 1, 0, 0, 1, 0,0) ">
<use xlink:href="#Symbol_8_0_Layer0_0_FILL"/>
</g>
</g>

<g id="armLeft" transform="matrix( 0.646881103515625, 0.7625885009765625, -0.7625885009765625, 0.646881103515625, 585.35,174.55) ">
<g transform="matrix( 1, 0, 0, 1, 0,0) ">
<use xlink:href="#Symbol_8_0_Layer0_0_FILL"/>
</g>
</g>

<g id="handLeft" transform="matrix( 0.25885009765625, 0.9658966064453125, -0.9658966064453125, 0.25885009765625, 567.4,189.1) ">
<g transform="matrix( 1, 0, 0, 1, 0,0) ">
<use xlink:href="#Symbol_9_0_Layer0_0_FILL"/>
</g>
</g>

<g id="armRight_FL_FL_FL" transform="matrix( -0.62646484375, 0.779449462890625, 0.779449462890625, 0.62646484375, 613.65,173.3) ">
<g transform="matrix( 1, 0, 0, 1, 0,0) ">
<use xlink:href="#Symbol_8_0_Layer0_0_FILL"/>
</g>
</g>

<g id="handRight" transform="matrix( -0.42279052734375, 0.9062042236328125, 0.9062042236328125, 0.42279052734375, 631.8,188) ">
<g transform="matrix( 1, 0, 0, 1, 0,0) ">
<use xlink:href="#Symbol_9_0_Layer0_0_FILL"/>
</g>
</g>

<g id="armLeft_FL" transform="matrix( 0.760528564453125, 0.6492919921875, -0.6492919921875, 0.760528564453125, 665.35,173.15) ">
<g transform="matrix( 1, 0, 0, 1, 0,0) ">
<use xlink:href="#Symbol_8_0_Layer0_0_FILL"/>
</g>
</g>

<g id="handLeft_FL" transform="matrix( 0.632080078125, 0.7748565673828125, -0.7748565673828125, 0.632080078125, 650.1,191.05) ">
<g transform="matrix( 1, 0, 0, 1, 0,0) ">
<use xlink:href="#Symbol_9_0_Layer0_0_FILL"/>
</g>
</g>

<g id="armRight_FL_FL_FL_FL" transform="matrix( -0.7285614013671875, 0.68499755859375, 0.68499755859375, 0.7285614013671875, 695.4,172.05) ">
<g transform="matrix( 1, 0, 0, 1, 0,0) ">
<use xlink:href="#Symbol_8_0_Layer0_0_FILL"/>
</g>
</g>

<g id="handRight_FL" transform="matrix( -0.5598602294921875, 0.8285369873046875, 0.8285369873046875, 0.5598602294921875, 711.05,188.9) ">
<g transform="matrix( 1, 0, 0, 1, 0,0) ">
<use xlink:href="#Symbol_9_0_Layer0_0_FILL"/>
</g>
</g>

<g id="armLeft_FL_FL" transform="matrix( 0.829071044921875, -0.5591278076171875, -0.5591278076171875, -0.829071044921875, 584.05,66.6) ">
<g transform="matrix( 1, 0, 0, 1, 0,0) ">
<use xlink:href="#Symbol_8_0_Layer0_0_FILL"/>
</g>
</g>

<g id="handLeft_FL_FL" transform="matrix( 0.829071044921875, -0.5591278076171875, -0.5591278076171875, -0.829071044921875, 570.3,43.65) ">
<g transform="matrix( 1, 0, 0, 1, 0,0) ">
<use xlink:href="#Symbol_9_0_Layer0_0_FILL"/>
</g>
</g>

<g id="armRight_FL_FL_FL_FL_FL" transform="matrix( -0.871307373046875, -0.4907073974609375, 0.4907073974609375, -0.871307373046875, 617.75,67.2) ">
<g transform="matrix( 1, 0, 0, 1, 0,0) ">
<use xlink:href="#Symbol_8_0_Layer0_0_FILL"/>
</g>
</g>

<g id="handRight_FL_FL" transform="matrix( -0.871307373046875, -0.4907073974609375, 0.4907073974609375, -0.871307373046875, 629.7,43.2) ">
<g transform="matrix( 1, 0, 0, 1, 0,0) ">
<use xlink:href="#Symbol_9_0_Layer0_0_FILL"/>
</g>
</g>

<g id="armLeft_FL_FL_FL" transform="matrix( 0.829071044921875, -0.5591278076171875, -0.5591278076171875, -0.829071044921875, 664.55,67.6) ">
<g transform="matrix( 1, 0, 0, 1, 0,0) ">
<use xlink:href="#Symbol_8_0_Layer0_0_FILL"/>
</g>
</g>

<g id="handLeft_FL_FL_FL" transform="matrix( 0.829071044921875, -0.5591278076171875, -0.5591278076171875, -0.829071044921875, 650.8,44.65) ">
<g transform="matrix( 1, 0, 0, 1, 0,0) ">
<use xlink:href="#Symbol_9_0_Layer0_0_FILL"/>
</g>
</g>

<g id="armRight_FL_FL_FL_FL_FL_FL" transform="matrix( -0.871307373046875, -0.4907073974609375, 0.4907073974609375, -0.871307373046875, 698.25,68.2) ">
<g transform="matrix( 1, 0, 0, 1, 0,0) ">
<use xlink:href="#Symbol_8_0_Layer0_0_FILL"/>
</g>
</g>

<g id="handRight_FL_FL_FL" transform="matrix( -0.871307373046875, -0.4907073974609375, 0.4907073974609375, -0.871307373046875, 710.15,44.65) ">
<g transform="matrix( 1, 0, 0, 1, 0,0) ">
<use xlink:href="#Symbol_9_0_Layer0_0_FILL"/>
</g>
</g>

<g id="armLeft_FL_FL_FL_FL" transform="matrix( 0.707122802734375, 0.70709228515625, -0.70709228515625, 0.707122802734375, 347.25,62.7) ">
<g transform="matrix( 1, 0, 0, 1, 0,0) ">
<use xlink:href="#Symbol_8_0_Layer0_0_FILL"/>
</g>
</g>

<g id="handLeft_FL_FL_FL_FL" transform="matrix( 0.707122802734375, 0.70709228515625, -0.70709228515625, 0.707122802734375, 328.65,83.3) ">
<g transform="matrix( 1, 0, 0, 1, 0,0) ">
<use xlink:href="#Symbol_9_0_Layer0_0_FILL"/>
</g>
</g>

<g id="armRight_FL_FL_FL_FL_FL_FL_FL" transform="matrix( -0.81951904296875, 0.5730438232421875, 0.5730438232421875, 0.81951904296875, 376.95,62.25) ">
<g transform="matrix( 1, 0, 0, 1, 0,0) ">
<use xlink:href="#Symbol_8_0_Layer0_0_FILL"/>
</g>
</g>

<g id="handRight_FL_FL_FL_FL" transform="matrix( -0.707122802734375, 0.7070770263671875, 0.7070770263671875, 0.707122802734375, 392.05,84.1) ">
<g transform="matrix( 1, 0, 0, 1, 0,0) ">
<use xlink:href="#Symbol_9_0_Layer0_0_FILL"/>
</g>
</g>

<g id="armLeft_FL_FL_FL_FL_FL" transform="matrix( 0.7071075439453125, 0.70709228515625, -0.70709228515625, 0.7071075439453125, 185.55,64.55) ">
<g transform="matrix( 1, 0, 0, 1, 0,0) ">
<use xlink:href="#Symbol_8_0_Layer0_0_FILL"/>
</g>
</g>

<g id="handLeft_FL_FL_FL_FL_FL" transform="matrix( 0.86602783203125, 0.4999847412109375, -0.4999847412109375, 0.86602783203125, 169.9,83.55) ">
<g transform="matrix( 1, 0, 0, 1, 0,0) ">
<use xlink:href="#Symbol_9_0_Layer0_0_FILL"/>
</g>
</g>

<g id="armRight_FL_FL_FL_FL_FL_FL_FL_FL" transform="matrix( -0.8660125732421875, 0.5, 0.5, 0.8660125732421875, 220.75,67.05) ">
<g transform="matrix( 1, 0, 0, 1, 0,0) ">
<use xlink:href="#Symbol_8_0_Layer0_0_FILL"/>
</g>
</g>

<g id="handRight_FL_FL_FL_FL_FL" transform="matrix( -0.9659271240234375, 0.2588043212890625, 0.2588043212890625, 0.9659271240234375, 231.05,89.7) ">
<g transform="matrix( 1, 0, 0, 1, 0,0) ">
<use xlink:href="#Symbol_9_0_Layer0_0_FILL"/>
</g>
</g>

<g id="armLeft_FL_FL_FL_FL_FL_FL" transform="matrix( 0.86602783203125, 0.4999847412109375, 0.4110107421875, -1.1675262451171875, 539.45,57.15) ">
<g transform="matrix( 1, 0, 0, 1, 0,0) ">
<use xlink:href="#Symbol_8_0_Layer0_0_FILL"/>
</g>
</g>

<g id="handLeft_FL_FL_FL_FL_FL_FL" transform="matrix( -0.965911865234375, -0.2587890625, 0.2587890625, -0.9658966064453125, 540.95,23.6) ">
<g transform="matrix( 1, 0, 0, 1, 0,0) ">
<use xlink:href="#Symbol_9_0_Layer0_0_FILL"/>
</g>
</g>

<g id="armRight_FL_FL_FL_FL_FL_FL_FL_FL_FL" transform="matrix( -0.6365509033203125, 0.7712249755859375, -0.5618133544921875, -0.463714599609375, 506.2,62.15) ">
<g transform="matrix( 1, 0, 0, 1, 0,0) ">
<use xlink:href="#Symbol_8_0_Layer0_0_FILL"/>
</g>
</g>

<g id="handRight_FL_FL_FL_FL_FL_FL" transform="matrix( 0.9999237060546875, 0.0097808837890625, 0.0097808837890625, -0.9999237060546875, 502.4,44.1) ">
<g transform="matrix( 1, 0, 0, 1, 0,0) ">
<use xlink:href="#Symbol_9_0_Layer0_0_FILL"/>
</g>
</g>

<g transform="matrix( 0.9870147705078125, 0.158935546875, 0, 1, 521.35,78.35) ">
<g transform="matrix( 1, 0, 0, 1, 0,0) ">
<use xlink:href="#Symbol_18_0_Layer0_0_FILL"/>
</g>
</g>

<g transform="matrix( 1, 0, 0, 1, 971,53.7) ">
<g transform="matrix( 1, 0, 0, 1, 0,0) ">
<use xlink:href="#Symbol_17_0_Layer0_0_FILL"/>
</g>

<g transform="matrix( 1, 0, 0, 1, 0,0) ">
<use xlink:href="#Symbol_17_0_Layer0_1_FILL"/>
</g>
</g>

<g transform="matrix( 1, 0, 0, 1, 850.6,53.65) ">
<g transform="matrix( 1, 0, 0, 1, 0,0) ">
<use xlink:href="#Symbol_16_0_Layer0_0_FILL"/>
</g>

<g transform="matrix( 1, 0, 0, 1, 40.25,3.9) ">
<use xlink:href="#Symbol_16_0_Layer0_1_FILL"/>
</g>

<g transform="matrix( 1, 0, 0, 1, 0,0) ">
<use xlink:href="#Symbol_16_0_Layer0_2_FILL"/>
</g>

<g transform="matrix( 0.9337615966796875, 0.3578948974609375, -0.3578948974609375, 0.9337615966796875, -6.3,-5.2) ">
<use xlink:href="#Symbol_16_0_Layer0_2_MEMBER_0_FILL"/>
</g>

<g transform="matrix( 0.9659271240234375, -0.2588043212890625, 0.2588043212890625, 0.9659271240234375, 4.85,-3.15) ">
<use xlink:href="#Symbol_16_0_Layer0_2_MEMBER_1_FILL"/>
</g>

<g transform="matrix( 0.75213623046875, 0, 0, 0.75213623046875, -0.05,4) ">
<use xlink:href="#Symbol_16_0_Layer0_2_MEMBER_2_FILL"/>
</g>

<g transform="matrix( 1, 0, 0, 1, -0.5,0) ">
<use xlink:href="#Symbol_16_0_Layer0_2_MEMBER_3_FILL"/>
</g>

<g transform="matrix( 1, 0, 0, 1, 0,0) ">
<use xlink:href="#Symbol_16_0_Layer0_2_MEMBER_4_FILL"/>
</g>

<g transform="matrix( 1, 0, 0, 1, 0,0) ">
<use xlink:href="#Symbol_16_0_Layer0_3_FILL"/>
</g>
</g>

<g id="armRight_FL_FL_FL_FL_FL_FL_FL_FL_FL_FL" transform="matrix( -0.939056396484375, 0.4009857177734375, 0.2862548828125, 0.8387451171875, 455.05,288.65) ">
<g transform="matrix( 1, 0, 0, 1, 0,0) ">
<use xlink:href="#Symbol_8_0_Layer0_0_FILL"/>
</g>
</g>

<g id="handRight_FL_FL_FL_FL_FL_FL_FL" transform="matrix( -0.9877471923828125, 0.2588043212890625, 0.177337646484375, 0.9659271240234375, 460.3,313) ">
<g transform="matrix( 1, 0, 0, 1, 0,0) ">
<use xlink:href="#Symbol_9_0_Layer0_0_FILL"/>
</g>
</g>

<g id="legLeft" transform="matrix( 1, 0, 0, 1, 21.25,313.85) ">
<g transform="matrix( 1, 0, 0, 1, 0,0) ">
<use xlink:href="#Symbol_11_0_Layer0_0_FILL"/>
</g>
</g>

<g id="legRight" transform="matrix( -1, 0, 0.12384033203125, 1, 41.4,313.85) ">
<g transform="matrix( 1, 0, 0, 1, 0,0) ">
<use xlink:href="#Symbol_11_0_Layer0_0_FILL"/>
</g>
</g>

<g id="body" transform="matrix( 0.9168853759765625, 0, 0.1072998046875, 1, 31.85,305.15) ">
<g transform="matrix( 1, 0, 0, 1, 0,0) ">
<use xlink:href="#Symbol_10_0_Layer0_0_FILL"/>
</g>

<g transform="matrix( 1, 0, 0, 1, 0.2,0) ">
<use xlink:href="#Symbol_10_0_Layer0_1_FILL"/>
</g>
</g>

<g id="armLeft_FL_FL_FL_FL_FL_FL_FL" transform="matrix( 1, 0, 0, 1, 10.9,290.25) ">
<g transform="matrix( 1, 0, 0, 1, 0,0) ">
<use xlink:href="#Symbol_8_0_Layer0_0_FILL"/>
</g>
</g>

<g id="handLeft_FL_FL_FL_FL_FL_FL_FL" transform="matrix( 1, 0, 0, 1, 13.2,317.85) ">
<g transform="matrix( 1, 0, 0, 1, 0,0) ">
<use xlink:href="#Symbol_9_0_Layer0_0_FILL"/>
</g>
</g>

<g id="handRight_FL_FL_FL_FL_FL_FL_FL_FL" transform="matrix( 0.4999847412109375, -0.8660125732421875, 0.8660125732421875, 0.4999847412109375, 68.4,303.6) ">
<g transform="matrix( 1, 0, 0, 1, 0,0) ">
<use xlink:href="#Symbol_9_0_Layer0_0_FILL"/>
</g>
</g>

<g id="head" transform="matrix( 1, 0, 0, 1, 31.75,286.15) ">
<g transform="matrix( 1, 0, 0, 1, 0,0) ">
<use xlink:href="#Symbol_12_0_Layer0_0_FILL"/>
</g>

<g transform="matrix( 1, 0, 0, 1, 0,0) ">
<use xlink:href="#Symbol_12_0_Layer0_1_FILL"/>
</g>

<g transform="matrix( 1, 0, 0, 1, 0,0) ">
<use xlink:href="#Symbol_12_0_Layer0_2_FILL"/>
</g>

<g transform="matrix( 0.9659271240234375, -0.2588043212890625, 0.2588043212890625, 0.9659271240234375, 5.45,2.15) ">
<use xlink:href="#Symbol_12_0_Layer0_2_MEMBER_0_FILL"/>
</g>

<g transform="matrix( 0.9659271240234375, 0.2588043212890625, -0.2588043212890625, 0.9659271240234375, -5.6,1.8) ">
<use xlink:href="#Symbol_12_0_Layer0_2_MEMBER_1_FILL"/>
</g>

<g transform="matrix( 1, 0, 0, 1, 0,0) ">
<use xlink:href="#Symbol_12_0_Layer0_2_MEMBER_2_FILL"/>
</g>

<g transform="matrix( 1, 0, 0, 1, 0,0) ">
<use xlink:href="#Symbol_12_0_Layer0_2_MEMBER_3_FILL"/>
</g>

<g transform="matrix( 1, 0, 0, 1, 44.8,-12.05) ">
<use xlink:href="#Symbol_12_0_Layer0_2_MEMBER_4_FILL"/>
</g>

<g transform="matrix( 1, 0, 0, 1, 0,0) ">
<use xlink:href="#Symbol_12_0_Layer0_3_FILL"/>
</g>
</g>

<g id="legLeft_FL" transform="matrix( 1, 0, 0, 1, 30.75,93.85) ">
<g transform="matrix( 1, 0, 0, 1, 0,0) ">
<use xlink:href="#Symbol_11_0_Layer0_0_FILL"/>
</g>
</g>

<g id="legRight_FL" transform="matrix( -1, 0, 0, 1, 51.9,93.85) ">
<g transform="matrix( 1, 0, 0, 1, 0,0) ">
<use xlink:href="#Symbol_11_0_Layer0_0_FILL"/>
</g>
</g>

<g id="body_FL" transform="matrix( 1, 0, 0, 1, 41.35,85.15) ">
<g transform="matrix( 1, 0, 0, 1, 0,0) ">
<use xlink:href="#Symbol_10_0_Layer0_0_FILL"/>
</g>

<g transform="matrix( 1, 0, 0, 1, 0.2,0) ">
<use xlink:href="#Symbol_10_0_Layer0_1_FILL"/>
</g>
</g>

<g id="armLeft_FL_FL_FL_FL_FL_FL_FL_FL" transform="matrix( 0.9659271240234375, 0.2588043212890625, -0.233551025390625, 0.8716888427734375, 23.55,70.35) ">
<g transform="matrix( 1, 0, 0, 1, 0,0) ">
<use xlink:href="#Symbol_8_0_Layer0_0_FILL"/>
</g>
</g>

<g id="handLeft_FL_FL_FL_FL_FL_FL_FL_FL" transform="matrix( 0.9659271240234375, 0.2588043212890625, -0.2588043212890625, 0.9659271240234375, 18.3,95.05) ">
<g transform="matrix( 1, 0, 0, 1, 0,0) ">
<use xlink:href="#Symbol_9_0_Layer0_0_FILL"/>
</g>
</g>

<g id="armRight_FL_FL_FL_FL_FL_FL_FL_FL_FL_FL_FL" transform="matrix( -0.9659271240234375, 0.2588043212890625, 0.233551025390625, 0.8716888427734375, 57.6,69.35) ">
<g transform="matrix( 1, 0, 0, 1, 0,0) ">
<use xlink:href="#Symbol_8_0_Layer0_0_FILL"/>
</g>
</g>

<g id="handRight_FL_FL_FL_FL_FL_FL_FL_FL_FL" transform="matrix( -0.9659271240234375, 0.2588043212890625, 0.2588043212890625, 0.9659271240234375, 62.9,94.5) ">
<g transform="matrix( 1, 0, 0, 1, 0,0) ">
<use xlink:href="#Symbol_9_0_Layer0_0_FILL"/>
</g>
</g>

<g id="head_FL" transform="matrix( 1, 0, 0, 1, 41.25,64.15) ">
<g transform="matrix( 1, 0, 0, 1, 0,0) ">
<use xlink:href="#Symbol_12_0_Layer0_0_FILL"/>
</g>

<g transform="matrix( 1, 0, 0, 1, 0,0) ">
<use xlink:href="#Symbol_12_0_Layer0_1_FILL"/>
</g>

<g transform="matrix( 1, 0, 0, 1, 0,0) ">
<use xlink:href="#Symbol_12_0_Layer0_2_FILL"/>
</g>

<g transform="matrix( 0.9659271240234375, -0.2588043212890625, 0.2588043212890625, 0.9659271240234375, 5.45,2.15) ">
<use xlink:href="#Symbol_12_0_Layer0_2_MEMBER_0_FILL"/>
</g>

<g transform="matrix( 0.9659271240234375, 0.2588043212890625, -0.2588043212890625, 0.9659271240234375, -5.6,1.8) ">
<use xlink:href="#Symbol_12_0_Layer0_2_MEMBER_1_FILL"/>
</g>

<g transform="matrix( 1, 0, 0, 1, 0,0) ">
<use xlink:href="#Symbol_12_0_Layer0_2_MEMBER_2_FILL"/>
</g>

<g transform="matrix( 1, 0, 0, 1, 0,0) ">
<use xlink:href="#Symbol_12_0_Layer0_2_MEMBER_3_FILL"/>
</g>

<g transform="matrix( 1, 0, 0, 1, 44.8,-12.05) ">
<use xlink:href="#Symbol_12_0_Layer0_2_MEMBER_4_FILL"/>
</g>

<g transform="matrix( 1, 0, 0, 1, 0,0) ">
<use xlink:href="#Symbol_12_0_Layer0_3_FILL"/>
</g>
</g>

<g id="legLeft_FL_FL" transform="matrix( -0.858612060546875, -0.499969482421875, -0.4956817626953125, 0.86602783203125, 114.15,89.5) ">
<g transform="matrix( 1, 0, 0, 1, 0,0) ">
<use xlink:href="#Symbol_11_0_Layer0_0_FILL"/>
</g>
</g>

<g id="armRight_FL_FL_FL_FL_FL_FL_FL_FL_FL_FL_FL_FL" transform="matrix( 0.773681640625, 0.6253204345703125, 0.619964599609375, -0.780364990234375, 139.2,63.85) ">
<g transform="matrix( 1, 0, 0, 1, 0,0) ">
<use xlink:href="#Symbol_8_0_Layer0_0_FILL"/>
</g>
</g>

<g id="body_FL_FL" transform="matrix( 0.991424560546875, 0, 0, 1, 122.85,80.25) ">
<g transform="matrix( 1, 0, 0, 1, 0,0) ">
<use xlink:href="#Symbol_10_0_Layer0_0_FILL"/>
</g>

<g transform="matrix( 1, 0, 0, 1, 0.2,0) ">
<use xlink:href="#Symbol_10_0_Layer0_1_FILL"/>
</g>
</g>

<g id="armLeft_FL_FL_FL_FL_FL_FL_FL_FL_FL" transform="matrix( 0.9059906005859375, 0.406097412109375, -0.402618408203125, 0.913818359375, 102.1,65.35) ">
<g transform="matrix( 1, 0, 0, 1, 0,0) ">
<use xlink:href="#Symbol_8_0_Layer0_0_FILL"/>
</g>
</g>

<g id="handLeft_FL_FL_FL_FL_FL_FL_FL_FL_FL" transform="matrix( 0.8837890625, 0.4531707763671875, -0.44927978515625, 0.89141845703125, 91.75,91.45) ">
<g transform="matrix( 1, 0, 0, 1, 0,0) ">
<use xlink:href="#Symbol_9_0_Layer0_0_FILL"/>
</g>
</g>

<g id="handRight_FL_FL_FL_FL_FL_FL_FL_FL_FL_FL" transform="matrix( -0.9189910888671875, -0.3751678466796875, 0.3719482421875, -0.92694091796875, 147.25,34.7) ">
<g transform="matrix( 1, 0, 0, 1, 0,0) ">
<use xlink:href="#Symbol_9_0_Layer0_0_FILL"/>
</g>
</g>

<g id="head_FL_FL" transform="matrix( 0.991424560546875, 0, 0, 1, 122.75,59.25) ">
<g transform="matrix( 1, 0, 0, 1, 0,0) ">
<use xlink:href="#Symbol_12_0_Layer0_0_FILL"/>
</g>

<g transform="matrix( 1, 0, 0, 1, 0,0) ">
<use xlink:href="#Symbol_12_0_Layer0_1_FILL"/>
</g>

<g transform="matrix( 1, 0, 0, 1, 0,0) ">
<use xlink:href="#Symbol_12_0_Layer0_2_FILL"/>
</g>

<g transform="matrix( 0.9659271240234375, -0.2588043212890625, 0.2588043212890625, 0.9659271240234375, 5.45,2.15) ">
<use xlink:href="#Symbol_12_0_Layer0_2_MEMBER_0_FILL"/>
</g>

<g transform="matrix( 0.9659271240234375, 0.2588043212890625, -0.2588043212890625, 0.9659271240234375, -5.6,1.8) ">
<use xlink:href="#Symbol_12_0_Layer0_2_MEMBER_1_FILL"/>
</g>

<g transform="matrix( 1, 0, 0, 1, 0,0) ">
<use xlink:href="#Symbol_12_0_Layer0_2_MEMBER_2_FILL"/>
</g>

<g transform="matrix( 1, 0, 0, 1, 0,0) ">
<use xlink:href="#Symbol_12_0_Layer0_2_MEMBER_3_FILL"/>
</g>

<g transform="matrix( 1, 0, 0, 1, 44.8,-12.05) ">
<use xlink:href="#Symbol_12_0_Layer0_2_MEMBER_4_FILL"/>
</g>

<g transform="matrix( 1, 0, 0, 1, 0,0) ">
<use xlink:href="#Symbol_12_0_Layer0_3_FILL"/>
</g>
</g>

<g id="legRight_FL_FL" transform="matrix( -0.9887542724609375, -0.1416015625, -0.256591796875, 0.9659271240234375, 135.5,83.5) ">
<g transform="matrix( 1, 0, 0, 1, 0,0) ">
<use xlink:href="#Symbol_11_0_Layer0_0_FILL"/>
</g>
</g>

<g id="legLeft_FL_FL_FL" transform="matrix( -0.9180755615234375, -0.4373779296875, -0.2588043212890625, 0.9659271240234375, 190.2,86.2) ">
<g transform="matrix( 1, 0, 0, 1, 0,0) ">
<use xlink:href="#Symbol_11_0_Layer0_0_FILL"/>
</g>
</g>

<g id="legRight_FL_FL_FL" transform="matrix( -1.0137786865234375, 0.080230712890625, 0.2588043212890625, 0.9659271240234375, 214.3,91.65) ">
<g transform="matrix( 1, 0, 0, 1, 0,0) ">
<use xlink:href="#Symbol_11_0_Layer0_0_FILL"/>
</g>
</g>

<g id="body_FL_FL_FL" transform="matrix( 1.00140380859375, 0.027069091796875, -0.08673095703125, 0.9962310791015625, 201,79.95) ">
<g transform="matrix( 1, 0, 0, 1, 0,0) ">
<use xlink:href="#Symbol_10_0_Layer0_0_FILL"/>
</g>

<g transform="matrix( 1, 0, 0, 1, 0.2,0) ">
<use xlink:href="#Symbol_10_0_Layer0_1_FILL"/>
</g>
</g>

<g id="legLeft_FL_FL_FL_FL" transform="matrix( 0.25885009765625, -0.9658966064453125, -0.9658966064453125, -0.2588348388671875, 270.8,101.15) ">
<g transform="matrix( 1, 0, 0, 1, 0,0) ">
<use xlink:href="#Symbol_11_0_Layer0_0_FILL"/>
</g>
</g>

<g id="body_FL_FL_FL_FL" transform="matrix( 0.9965667724609375, -0.0825958251953125, 0.0825958251953125, 0.9965667724609375, 281.35,92.6) ">
<g transform="matrix( 1, 0, 0, 1, 0,0) ">
<use xlink:href="#Symbol_10_0_Layer0_0_FILL"/>
</g>

<g transform="matrix( 1, 0, 0, 1, 0.2,0) ">
<use xlink:href="#Symbol_10_0_Layer0_1_FILL"/>
</g>
</g>

<g id="armRight_FL_FL_FL_FL_FL_FL_FL_FL_FL_FL_FL_FL_FL" transform="matrix( -0.9659271240234375, 0.2588043212890625, 0.2588043212890625, 0.9659271240234375, 298.1,73.75) ">
<g transform="matrix( 1, 0, 0, 1, 0,0) ">
<use xlink:href="#Symbol_8_0_Layer0_0_FILL"/>
</g>
</g>

<g id="legRight_FL_FL_FL_FL" transform="matrix( -1, 0, 0, 1, 291.9,93.85) ">
<g transform="matrix( 1, 0, 0, 1, 0,0) ">
<use xlink:href="#Symbol_11_0_Layer0_0_FILL"/>
</g>
</g>

<g id="armLeft_FL_FL_FL_FL_FL_FL_FL_FL_FL_FL" transform="matrix( 0.9351959228515625, 0.3541259765625, -0.3541259765625, 0.9351959228515625, 264.6,77) ">
<g transform="matrix( 1, 0, 0, 1, 0,0) ">
<use xlink:href="#Symbol_8_0_Layer0_0_FILL"/>
</g>
</g>

<g id="handLeft_FL_FL_FL_FL_FL_FL_FL_FL_FL_FL" transform="matrix( 0.9351959228515625, 0.3541259765625, -0.3541259765625, 0.9351959228515625, 256.35,102.6) ">
<g transform="matrix( 1, 0, 0, 1, 0,0) ">
<use xlink:href="#Symbol_9_0_Layer0_0_FILL"/>
</g>
</g>

<g id="handRight_FL_FL_FL_FL_FL_FL_FL_FL_FL_FL_FL" transform="matrix( -0.9659271240234375, -0.2588043212890625, -0.2588043212890625, 0.9659271240234375, 302.2,95.7) ">
<g transform="matrix( 1, 0, 0, 1, 0,0) ">
<use xlink:href="#Symbol_9_0_Layer0_0_FILL"/>
</g>
</g>

<g id="legLeft_FL_FL_FL_FL_FL" transform="matrix( 0.8660125732421875, 0.5000152587890625, -0.4088287353515625, 0.9186553955078125, 352.45,87.5) ">
<g transform="matrix( 1, 0, 0, 1, 0,0) ">
<use xlink:href="#Symbol_11_0_Layer0_0_FILL"/>
</g>
</g>

<g id="legRight_FL_FL_FL_FL_FL" transform="matrix( -0.8660125732421875, 0.4999847412109375, 0.7039794921875, 0.823089599609375, 370.1,86.5) ">
<g transform="matrix( 1, 0, 0, 1, 0,0) ">
<use xlink:href="#Symbol_11_0_Layer0_0_FILL"/>
</g>
</g>

<g id="body_FL_FL_FL_FL_FL" transform="matrix( 0.8311614990234375, -0.0647735595703125, 0, 1, 361.55,77.8) ">
<g transform="matrix( 1, 0, 0, 1, 0,0) ">
<use xlink:href="#Symbol_10_0_Layer0_0_FILL"/>
</g>

<g transform="matrix( 1, 0, 0, 1, 0.2,0) ">
<use xlink:href="#Symbol_10_0_Layer0_1_FILL"/>
</g>
</g>

<g id="legLeft_FL_FL_FL_FL_FL_FL" transform="matrix( -0.7071075439453125, -0.70709228515625, -0.70709228515625, 0.7071075439453125, 30.25,199.75) ">
<g transform="matrix( 1, 0, 0, 1, 0,0) ">
<use xlink:href="#Symbol_11_0_Layer0_0_FILL"/>
</g>
</g>

<g id="armRight_FL_FL_FL_FL_FL_FL_FL_FL_FL_FL_FL_FL_FL_FL" transform="matrix( -1, 0, 0, 1, 59.6,178.25) ">
<g transform="matrix( 1, 0, 0, 1, 0,0) ">
<use xlink:href="#Symbol_8_0_Layer0_0_FILL"/>
</g>
</g>

<g id="handRight_FL_FL_FL_FL_FL_FL_FL_FL_FL_FL_FL_FL" transform="matrix( 0.965911865234375, -0.258819580078125, 0.258819580078125, 0.965911865234375, 66.65,201.4) ">
<g transform="matrix( 1, 0, 0, 1, 0,0) ">
<use xlink:href="#Symbol_9_0_Layer0_0_FILL"/>
</g>
</g>

<g id="legRight_FL_FL_FL_FL_FL_FL" transform="matrix( -0.7071075439453125, 0.70709228515625, 0.70709228515625, 0.7071075439453125, 53.9,202.25) ">
<g transform="matrix( 1, 0, 0, 1, 0,0) ">
<use xlink:href="#Symbol_11_0_Layer0_0_FILL"/>
</g>
</g>

<g id="armLeft_FL_FL_FL_FL_FL_FL_FL_FL_FL_FL_FL" transform="matrix( 0.86602783203125, 0.4999847412109375, -0.4999847412109375, 0.86602783203125, 22.9,179.75) ">
<g transform="matrix( 1, 0, 0, 1, 0,0) ">
<use xlink:href="#Symbol_8_0_Layer0_0_FILL"/>
</g>
</g>

<g id="body_FL_FL_FL_FL_FL_FL" transform="matrix( 0.99761962890625, -0.0689544677734375, 0.0689544677734375, 0.99761962890625, 41.35,193.4) ">
<g transform="matrix( 1, 0, 0, 1, 0,0) ">
<use xlink:href="#Symbol_10_0_Layer0_0_FILL"/>
</g>

<g transform="matrix( 1, 0, 0, 1, 0.2,0) ">
<use xlink:href="#Symbol_10_0_Layer0_1_FILL"/>
</g>
</g>

<g id="handLeft_FL_FL_FL_FL_FL_FL_FL_FL_FL_FL_FL" transform="matrix( 0.707122802734375, 0.7070770263671875, -0.7070770263671875, 0.707122802734375, 10.2,200.9) ">
<g transform="matrix( 1, 0, 0, 1, 0,0) ">
<use xlink:href="#Symbol_9_0_Layer0_0_FILL"/>
</g>
</g>

<g id="head_FL_FL_FL" transform="matrix( 1, 0, 0, 1, 41.25,174.65) ">
<g transform="matrix( 1, 0, 0, 1, 0,0) ">
<use xlink:href="#Symbol_12_0_Layer0_0_FILL"/>
</g>

<g transform="matrix( 1, 0, 0, 1, 0,0) ">
<use xlink:href="#Symbol_12_0_Layer0_1_FILL"/>
</g>

<g transform="matrix( 1, 0, 0, 1, 0,0) ">
<use xlink:href="#Symbol_12_0_Layer0_2_FILL"/>
</g>

<g transform="matrix( 0.9659271240234375, -0.2588043212890625, 0.2588043212890625, 0.9659271240234375, 5.45,2.15) ">
<use xlink:href="#Symbol_12_0_Layer0_2_MEMBER_0_FILL"/>
</g>

<g transform="matrix( 0.9659271240234375, 0.2588043212890625, -0.2588043212890625, 0.9659271240234375, -5.6,1.8) ">
<use xlink:href="#Symbol_12_0_Layer0_2_MEMBER_1_FILL"/>
</g>

<g transform="matrix( 1, 0, 0, 1, 0,0) ">
<use xlink:href="#Symbol_12_0_Layer0_2_MEMBER_2_FILL"/>
</g>

<g transform="matrix( 1, 0, 0, 1, 0,0) ">
<use xlink:href="#Symbol_12_0_Layer0_2_MEMBER_3_FILL"/>
</g>

<g transform="matrix( 1, 0, 0, 1, 44.8,-12.05) ">
<use xlink:href="#Symbol_12_0_Layer0_2_MEMBER_4_FILL"/>
</g>

<g transform="matrix( 1, 0, 0, 1, 0,0) ">
<use xlink:href="#Symbol_12_0_Layer0_3_FILL"/>
</g>
</g>

<g id="legLeft_FL_FL_FL_FL_FL_FL_FL" transform="matrix( -0.8660125732421875, -0.5, -0.5, 0.8660125732421875, 116.5,198.85) ">
<g transform="matrix( 1, 0, 0, 1, 0,0) ">
<use xlink:href="#Symbol_11_0_Layer0_0_FILL"/>
</g>
</g>

<g id="armRight_FL_FL_FL_FL_FL_FL_FL_FL_FL_FL_FL_FL_FL_FL_FL" transform="matrix( -0.935211181640625, -0.3540802001953125, -0.3540802001953125, 0.935211181640625, 137.9,178.15) ">
<g transform="matrix( 1, 0, 0, 1, 0,0) ">
<use xlink:href="#Symbol_8_0_Layer0_0_FILL"/>
</g>
</g>

<g id="handRight_FL_FL_FL_FL_FL_FL_FL_FL_FL_FL_FL_FL_FL" transform="matrix( 0.9949798583984375, 0.0999603271484375, -0.0999603271484375, 0.9949798583984375, 135.3,203.3) ">
<g transform="matrix( 1, 0, 0, 1, 0,0) ">
<use xlink:href="#Symbol_9_0_Layer0_0_FILL"/>
</g>
</g>

<g id="legRight_FL_FL_FL_FL_FL_FL_FL" transform="matrix( -0.9999847412109375, 0, 0, 0.9999847412109375, 125.15,203.85) ">
<g transform="matrix( 1, 0, 0, 1, 0,0) ">
<use xlink:href="#Symbol_11_0_Layer0_0_FILL"/>
</g>
</g>

<g id="body_FL_FL_FL_FL_FL_FL_FL" transform="matrix( 0.9992218017578125, 0.0394287109375, -0.0394287109375, 0.9992218017578125, 121.1,192.5) ">
<g transform="matrix( 1, 0, 0, 1, 0,0) ">
<use xlink:href="#Symbol_10_0_Layer0_0_FILL"/>
</g>

<g transform="matrix( 1, 0, 0, 1, 0.2,0) ">
<use xlink:href="#Symbol_10_0_Layer0_1_FILL"/>
</g>
</g>

<g id="armLeft_FL_FL_FL_FL_FL_FL_FL_FL_FL_FL_FL_FL" transform="matrix( 0.9861297607421875, 0.16595458984375, -0.16595458984375, 0.9861297607421875, 106.1,176.7) ">
<g transform="matrix( 1, 0, 0, 1, 0,0) ">
<use xlink:href="#Symbol_8_0_Layer0_0_FILL"/>
</g>
</g>

<g id="handLeft_FL_FL_FL_FL_FL_FL_FL_FL_FL_FL_FL_FL" transform="matrix( 0.9741668701171875, 0.22576904296875, -0.22576904296875, 0.9741668701171875, 103,202.6) ">
<g transform="matrix( 1, 0, 0, 1, 0,0) ">
<use xlink:href="#Symbol_9_0_Layer0_0_FILL"/>
</g>
</g>

<g id="head_FL_FL_FL_FL" transform="matrix( 1, 0, 0, 1, 125,172.75) ">
<g transform="matrix( 1, 0, 0, 1, 0,0) ">
<use xlink:href="#Symbol_12_0_Layer0_0_FILL"/>
</g>

<g transform="matrix( 1, 0, 0, 1, 0,0) ">
<use xlink:href="#Symbol_12_0_Layer0_1_FILL"/>
</g>

<g transform="matrix( 1, 0, 0, 1, 0,0) ">
<use xlink:href="#Symbol_12_0_Layer0_2_FILL"/>
</g>

<g transform="matrix( 0.9659271240234375, -0.2588043212890625, 0.2588043212890625, 0.9659271240234375, 5.45,2.15) ">
<use xlink:href="#Symbol_12_0_Layer0_2_MEMBER_0_FILL"/>
</g>

<g transform="matrix( 0.9659271240234375, 0.2588043212890625, -0.2588043212890625, 0.9659271240234375, -5.6,1.8) ">
<use xlink:href="#Symbol_12_0_Layer0_2_MEMBER_1_FILL"/>
</g>

<g transform="matrix( 1, 0, 0, 1, 0,0) ">
<use xlink:href="#Symbol_12_0_Layer0_2_MEMBER_2_FILL"/>
</g>

<g transform="matrix( 1, 0, 0, 1, 0,0) ">
<use xlink:href="#Symbol_12_0_Layer0_2_MEMBER_3_FILL"/>
</g>

<g transform="matrix( 1, 0, 0, 1, 44.8,-12.05) ">
<use xlink:href="#Symbol_12_0_Layer0_2_MEMBER_4_FILL"/>
</g>

<g transform="matrix( 1, 0, 0, 1, 0,0) ">
<use xlink:href="#Symbol_12_0_Layer0_3_FILL"/>
</g>
</g>

<g id="legLeft_FL_FL_FL_FL_FL_FL_FL_FL" transform="matrix( 1, 0, 0, 1, 181.25,203.85) ">
<g transform="matrix( 1, 0, 0, 1, 0,0) ">
<use xlink:href="#Symbol_11_0_Layer0_0_FILL"/>
</g>
</g>

<g id="legRight_FL_FL_FL_FL_FL_FL_FL_FL" transform="matrix( -1, 0, 0, 1, 202.4,203.85) ">
<g transform="matrix( 1, 0, 0, 1, 0,0) ">
<use xlink:href="#Symbol_11_0_Layer0_0_FILL"/>
</g>
</g>

<g id="body_FL_FL_FL_FL_FL_FL_FL_FL" transform="matrix( 1, 0, 0, 1, 191.85,195.15) ">
<g transform="matrix( 1, 0, 0, 1, 0,0) ">
<use xlink:href="#Symbol_10_0_Layer0_0_FILL"/>
</g>

<g transform="matrix( 1, 0, 0, 1, 0.2,0) ">
<use xlink:href="#Symbol_10_0_Layer0_1_FILL"/>
</g>
</g>

<g id="armLeft_FL_FL_FL_FL_FL_FL_FL_FL_FL_FL_FL_FL_FL" transform="matrix( 1, 0, 0, 1, 170.9,180.25) ">
<g transform="matrix( 1, 0, 0, 1, 0,0) ">
<use xlink:href="#Symbol_8_0_Layer0_0_FILL"/>
</g>
</g>

<g id="handLeft_FL_FL_FL_FL_FL_FL_FL_FL_FL_FL_FL_FL_FL" transform="matrix( 1, 0, 0, 1, 172.6,206.6) ">
<g transform="matrix( 1, 0, 0, 1, 0,0) ">
<use xlink:href="#Symbol_9_0_Layer0_0_FILL"/>
</g>
</g>

<g id="handRight_FL_FL_FL_FL_FL_FL_FL_FL_FL_FL_FL_FL_FL_FL" transform="matrix( 0.258819580078125, -0.965911865234375, 0.965911865234375, 0.258819580078125, 231,176.8) ">
<g transform="matrix( 1, 0, 0, 1, 0,0) ">
<use xlink:href="#Symbol_9_0_Layer0_0_FILL"/>
</g>
</g>

<g id="legLeft_FL_FL_FL_FL_FL_FL_FL_FL_FL" transform="matrix( 1, 0, 0, 1, 341.9,203.85) ">
<g transform="matrix( 1, 0, 0, 1, 0,0) ">
<use xlink:href="#Symbol_11_0_Layer0_0_FILL"/>
</g>
</g>

<g id="legRight_FL_FL_FL_FL_FL_FL_FL_FL_FL" transform="matrix( -0.6073760986328125, 0.7933807373046875, 0.8723297119140625, 0.506927490234375, 364.05,200.35) ">
<g transform="matrix( 1, 0, 0, 1, 0,0) ">
<use xlink:href="#Symbol_11_0_Layer0_0_FILL"/>
</g>
</g>

<g id="body_FL_FL_FL_FL_FL_FL_FL_FL_FL" transform="matrix( 0.8892822265625, -0.1226348876953125, 0.0825958251953125, 0.9965667724609375, 351,193.55) ">
<g transform="matrix( 1, 0, 0, 1, 0,0) ">
<use xlink:href="#Symbol_10_0_Layer0_0_FILL"/>
</g>

<g transform="matrix( 1, 0, 0, 1, 0.2,0) ">
<use xlink:href="#Symbol_10_0_Layer0_1_FILL"/>
</g>
</g>

<g id="armLeft_FL_FL_FL_FL_FL_FL_FL_FL_FL_FL_FL_FL_FL_FL" transform="matrix( 0.9965667724609375, -0.0825958251953125, 0.0825958251953125, 0.9965667724609375, 329.9,180.45) ">
<g transform="matrix( 1, 0, 0, 1, 0,0) ">
<use xlink:href="#Symbol_8_0_Layer0_0_FILL"/>
</g>
</g>

<g id="handLeft_FL_FL_FL_FL_FL_FL_FL_FL_FL_FL_FL_FL_FL_FL" transform="matrix( 0.9965667724609375, -0.0825958251953125, 0.0825958251953125, 0.9965667724609375, 333.1,206.05) ">
<g transform="matrix( 1, 0, 0, 1, 0,0) ">
<use xlink:href="#Symbol_9_0_Layer0_0_FILL"/>
</g>
</g>

<g id="armRight_FL_FL_FL_FL_FL_FL_FL_FL_FL_FL_FL_FL_FL_FL_FL_FL" transform="matrix( 0.6817626953125, 0.731536865234375, 0.731536865234375, -0.6817626953125, 363.6,169.95) ">
<g transform="matrix( 1, 0, 0, 1, 0,0) ">
<use xlink:href="#Symbol_8_0_Layer0_0_FILL"/>
</g>
</g>

<g id="handRight_FL_FL_FL_FL_FL_FL_FL_FL_FL_FL_FL_FL_FL_FL_FL" transform="matrix( 0.904327392578125, 0.4267425537109375, 0.4267425537109375, -0.904327392578125, 382.45,150.35) ">
<g transform="matrix( 1, 0, 0, 1, 0,0) ">
<use xlink:href="#Symbol_9_0_Layer0_0_FILL"/>
</g>
</g>

<g id="head_FL_FL_FL_FL_FL" transform="matrix( 0.9965667724609375, -0.0825958251953125, 0.0825958251953125, 0.9965667724609375, 349.3,173.6) ">
<g transform="matrix( 1, 0, 0, 1, 0,0) ">
<use xlink:href="#Symbol_12_0_Layer0_0_FILL"/>
</g>

<g transform="matrix( 1, 0, 0, 1, 0,0) ">
<use xlink:href="#Symbol_12_0_Layer0_1_FILL"/>
</g>

<g transform="matrix( 1, 0, 0, 1, 0,0) ">
<use xlink:href="#Symbol_12_0_Layer0_2_FILL"/>
</g>

<g transform="matrix( 0.9659271240234375, -0.2588043212890625, 0.2588043212890625, 0.9659271240234375, 5.45,2.15) ">
<use xlink:href="#Symbol_12_0_Layer0_2_MEMBER_0_FILL"/>
</g>

<g transform="matrix( 0.9659271240234375, 0.2588043212890625, -0.2588043212890625, 0.9659271240234375, -5.6,1.8) ">
<use xlink:href="#Symbol_12_0_Layer0_2_MEMBER_1_FILL"/>
</g>

<g transform="matrix( 1, 0, 0, 1, 0,0) ">
<use xlink:href="#Symbol_12_0_Layer0_2_MEMBER_2_FILL"/>
</g>

<g transform="matrix( 1, 0, 0, 1, 0,0) ">
<use xlink:href="#Symbol_12_0_Layer0_2_MEMBER_3_FILL"/>
</g>

<g transform="matrix( 1, 0, 0, 1, 44.8,-12.05) ">
<use xlink:href="#Symbol_12_0_Layer0_2_MEMBER_4_FILL"/>
</g>

<g transform="matrix( 1, 0, 0, 1, 0,0) ">
<use xlink:href="#Symbol_12_0_Layer0_3_FILL"/>
</g>
</g>

<g id="legLeft_FL_FL_FL_FL_FL_FL_FL_FL_FL_FL" transform="matrix( 0.86602783203125, 0.4999847412109375, -0.4999847412109375, 0.86602783203125, 421.3,201.35) ">
<g transform="matrix( 1, 0, 0, 1, 0,0) ">
<use xlink:href="#Symbol_11_0_Layer0_0_FILL"/>
</g>
</g>

<g id="legRight_FL_FL_FL_FL_FL_FL_FL_FL_FL_FL" transform="matrix( -1, 0, 0, 1, 439.2,203.85) ">
<g transform="matrix( 1, 0, 0, 1, 0,0) ">
<use xlink:href="#Symbol_11_0_Layer0_0_FILL"/>
</g>
</g>

<g id="body_FL_FL_FL_FL_FL_FL_FL_FL_FL_FL" transform="matrix( 0.91351318359375, 0.183197021484375, -0.1000213623046875, 0.994964599609375, 431.2,193.7) ">
<g transform="matrix( 1, 0, 0, 1, 0,0) ">
<use xlink:href="#Symbol_10_0_Layer0_0_FILL"/>
</g>

<g transform="matrix( 1, 0, 0, 1, 0.2,0) ">
<use xlink:href="#Symbol_10_0_Layer0_1_FILL"/>
</g>
</g>

<g id="armLeft_FL_FL_FL_FL_FL_FL_FL_FL_FL_FL_FL_FL_FL_FL_FL" transform="matrix( 0.994964599609375, 0.1000213623046875, -0.1000213623046875, 0.994964599609375, 411.85,176.75) ">
<g transform="matrix( 1, 0, 0, 1, 0,0) ">
<use xlink:href="#Symbol_8_0_Layer0_0_FILL"/>
</g>
</g>

<g id="handLeft_FL_FL_FL_FL_FL_FL_FL_FL_FL_FL_FL_FL_FL_FL_FL" transform="matrix( 0.994964599609375, 0.1000213623046875, -0.1000213623046875, 0.994964599609375, 410.3,204.4) ">
<g transform="matrix( 1, 0, 0, 1, 0,0) ">
<use xlink:href="#Symbol_9_0_Layer0_0_FILL"/>
</g>
</g>

<g id="handRight_FL_FL_FL_FL_FL_FL_FL_FL_FL_FL_FL_FL_FL_FL_FL_FL" transform="matrix( 0.361968994140625, 0.9321136474609375, 0.9321136474609375, -0.361968994140625, 471.85,183.45) ">
<g transform="matrix( 1, 0, 0, 1, 0,0) ">
<use xlink:href="#Symbol_9_0_Layer0_0_FILL"/>
</g>
</g>

<g transform="matrix( 0.9901885986328125, 0.1395721435546875, -0.1395721435546875, 0.9901885986328125, 434.45,172.4) ">
<g transform="matrix( 1, 0, 0, 1, 0,0) ">
<use xlink:href="#Symbol_15_0_Layer0_0_FILL"/>
</g>

<g transform="matrix( 1, 0, 0, 1, 0,0) ">
<use xlink:href="#Symbol_15_0_Layer0_1_FILL"/>
</g>

<g transform="matrix( 1, 0, 0, 1, 0,0) ">
<use xlink:href="#Symbol_15_0_Layer0_2_FILL"/>
</g>

<g transform="matrix( 0.9659271240234375, -0.2588043212890625, 0.2588043212890625, 0.9659271240234375, 5.45,2.15) ">
<use xlink:href="#Symbol_15_0_Layer0_2_MEMBER_0_FILL"/>
</g>

<g transform="matrix( 0.9659271240234375, 0.2588043212890625, -0.2588043212890625, 0.9659271240234375, -5.6,2.8) ">
<use xlink:href="#Symbol_15_0_Layer0_2_MEMBER_1_FILL"/>
</g>

<g transform="matrix( 1, 0, 0, 1, 0,0) ">
<use xlink:href="#Symbol_15_0_Layer0_2_MEMBER_2_FILL"/>
</g>

<g transform="matrix( 1, 0, 0, 1, 0,0) ">
<use xlink:href="#Symbol_15_0_Layer0_2_MEMBER_3_FILL"/>
</g>

<g transform="matrix( 0.7704925537109375, 0, 0, 0.7704925537109375, -42.3,-4.6) ">
<use xlink:href="#Symbol_15_0_Layer0_2_MEMBER_4_FILL"/>
</g>

<g transform="matrix( 1, 0, 0, 1, 0,0) ">
<use xlink:href="#Symbol_15_0_Layer0_3_FILL"/>
</g>
</g>

<g id="legLeft_FL_FL_FL_FL_FL_FL_FL_FL_FL_FL_FL" transform="matrix( 1, 0, 0, 1, 507.4,203.85) ">
<g transform="matrix( 1, 0, 0, 1, 0,0) ">
<use xlink:href="#Symbol_11_0_Layer0_0_FILL"/>
</g>
</g>

<g id="armRight_FL_FL_FL_FL_FL_FL_FL_FL_FL_FL_FL_FL_FL_FL_FL_FL_FL" transform="matrix( -0.9482879638671875, 0.3173675537109375, 0.3173675537109375, 0.9482879638671875, 526.4,172.3) ">
<g transform="matrix( 1, 0, 0, 1, 0,0) ">
<use xlink:href="#Symbol_8_0_Layer0_0_FILL"/>
</g>
</g>

<g id="handRight_FL_FL_FL_FL_FL_FL_FL_FL_FL_FL_FL_FL_FL_FL_FL_FL_FL" transform="matrix( -0.9482879638671875, 0.3173675537109375, 0.3173675537109375, 0.9482879638671875, 533.4,197) ">
<g transform="matrix( 1, 0, 0, 1, 0,0) ">
<use xlink:href="#Symbol_9_0_Layer0_0_FILL"/>
</g>
</g>

<g id="legRight_FL_FL_FL_FL_FL_FL_FL_FL_FL_FL_FL" transform="matrix( -0.6176605224609375, 0.83392333984375, 0.997589111328125, 0.272064208984375, 535.05,196.35) ">
<g transform="matrix( 1, 0, 0, 1, 0,0) ">
<use xlink:href="#Symbol_11_0_Layer0_0_FILL"/>
</g>
</g>

<g id="body_FL_FL_FL_FL_FL_FL_FL_FL_FL_FL_FL" transform="matrix( 0.899658203125, -0.180694580078125, 0.11248779296875, 0.9936370849609375, 515.8,192.35) ">
<g transform="matrix( 1, 0, 0, 1, 0,0) ">
<use xlink:href="#Symbol_10_0_Layer0_0_FILL"/>
</g>

<g transform="matrix( 1, 0, 0, 1, 0.2,0) ">
<use xlink:href="#Symbol_10_0_Layer0_1_FILL"/>
</g>
</g>

<g id="armLeft_FL_FL_FL_FL_FL_FL_FL_FL_FL_FL_FL_FL_FL_FL_FL_FL" transform="matrix( 0.9702606201171875, 0.2420196533203125, -0.2420196533203125, 0.9702606201171875, 496.75,177.45) ">
<g transform="matrix( 1, 0, 0, 1, 0,0) ">
<use xlink:href="#Symbol_8_0_Layer0_0_FILL"/>
</g>
</g>

<g id="handLeft_FL_FL_FL_FL_FL_FL_FL_FL_FL_FL_FL_FL_FL_FL_FL_FL" transform="matrix( 0.9889068603515625, 0.14849853515625, -0.14849853515625, 0.9889068603515625, 492.05,203.8) ">
<g transform="matrix( 1, 0, 0, 1, 0,0) ">
<use xlink:href="#Symbol_9_0_Layer0_0_FILL"/>
</g>
</g>

<g id="legLeft_FL_FL_FL_FL_FL_FL_FL_FL_FL_FL_FL_FL" transform="matrix( 1, 0, 0, 1, 590.8,93.85) ">
<g transform="matrix( 1, 0, 0, 1, 0,0) ">
<use xlink:href="#Symbol_11_0_Layer0_0_FILL"/>
</g>
</g>

<g id="legRight_FL_FL_FL_FL_FL_FL_FL_FL_FL_FL_FL_FL" transform="matrix( -1, 0, 0, 1, 611.95,93.85) ">
<g transform="matrix( 1, 0, 0, 1, 0,0) ">
<use xlink:href="#Symbol_11_0_Layer0_0_FILL"/>
</g>
</g>

<g id="body_FL_FL_FL_FL_FL_FL_FL_FL_FL_FL_FL_FL" transform="matrix( 1, 0, 0, 1, 601.4,85.15) ">
<g transform="matrix( 1, 0, 0, 1, 0,0) ">
<use xlink:href="#Symbol_10_0_Layer0_0_FILL"/>
</g>

<g transform="matrix( 1, 0, 0, 1, 0.2,0) ">
<use xlink:href="#Symbol_10_0_Layer0_1_FILL"/>
</g>
</g>

<g id="head_FL_FL_FL_FL_FL_FL" transform="matrix( 0.9978790283203125, -0.065093994140625, 0.065093994140625, 0.9978790283203125, 601.3,65.15) ">
<g transform="matrix( 1, 0, 0, 1, 0,0) ">
<use xlink:href="#Symbol_12_0_Layer0_0_FILL"/>
</g>

<g transform="matrix( 1, 0, 0, 1, 0,0) ">
<use xlink:href="#Symbol_12_0_Layer0_1_FILL"/>
</g>

<g transform="matrix( 1, 0, 0, 1, 0,0) ">
<use xlink:href="#Symbol_12_0_Layer0_2_FILL"/>
</g>

<g transform="matrix( 0.9659271240234375, -0.2588043212890625, 0.2588043212890625, 0.9659271240234375, 5.45,2.15) ">
<use xlink:href="#Symbol_12_0_Layer0_2_MEMBER_0_FILL"/>
</g>

<g transform="matrix( 0.9659271240234375, 0.2588043212890625, -0.2588043212890625, 0.9659271240234375, -5.6,1.8) ">
<use xlink:href="#Symbol_12_0_Layer0_2_MEMBER_1_FILL"/>
</g>

<g transform="matrix( 1, 0, 0, 1, 0,0) ">
<use xlink:href="#Symbol_12_0_Layer0_2_MEMBER_2_FILL"/>
</g>

<g transform="matrix( 1, 0, 0, 1, 0,0) ">
<use xlink:href="#Symbol_12_0_Layer0_2_MEMBER_3_FILL"/>
</g>

<g transform="matrix( 1, 0, 0, 1, 44.8,-12.05) ">
<use xlink:href="#Symbol_12_0_Layer0_2_MEMBER_4_FILL"/>
</g>

<g transform="matrix( 1, 0, 0, 1, 0,0) ">
<use xlink:href="#Symbol_12_0_Layer0_3_FILL"/>
</g>
</g>

<g id="legLeft_FL_FL_FL_FL_FL_FL_FL_FL_FL_FL_FL_FL_FL" transform="matrix( -0.939910888671875, -0.3414154052734375, -0.3414154052734375, 0.939910888671875, 591.05,196.85) ">
<g transform="matrix( 1, 0, 0, 1, 0,0) ">
<use xlink:href="#Symbol_11_0_Layer0_0_FILL"/>
</g>
</g>

<g id="legRight_FL_FL_FL_FL_FL_FL_FL_FL_FL_FL_FL_FL_FL" transform="matrix( -0.9890594482421875, 0.1475067138671875, 0.1475067138671875, 0.9890594482421875, 611.05,196.8) ">
<g transform="matrix( 1, 0, 0, 1, 0,0) ">
<use xlink:href="#Symbol_11_0_Layer0_0_FILL"/>
</g>
</g>

<g id="body_FL_FL_FL_FL_FL_FL_FL_FL_FL_FL_FL_FL_FL" transform="matrix( 0.8961029052734375, 0, 0, 1, 600.65,189.15) ">
<g transform="matrix( 1, 0, 0, 1, 0,0) ">
<use xlink:href="#Symbol_10_0_Layer0_0_FILL"/>
</g>

<g transform="matrix( 1, 0, 0, 1, 0.2,0) ">
<use xlink:href="#Symbol_10_0_Layer0_1_FILL"/>
</g>
</g>

<g id="legLeft_FL_FL_FL_FL_FL_FL_FL_FL_FL_FL_FL_FL_FL_FL" transform="matrix( -0.52630615234375, -0.8502655029296875, -0.8502655029296875, 0.52630615234375, 126,311.3) ">
<g transform="matrix( 1, 0, 0, 1, 0,0) ">
<use xlink:href="#Symbol_11_0_Layer0_0_FILL"/>
</g>
</g>

<g id="legRight_FL_FL_FL_FL_FL_FL_FL_FL_FL_FL_FL_FL_FL_FL" transform="matrix( -0.70709228515625, 0.70709228515625, 0.70709228515625, 0.7071075439453125, 139.05,300.75) ">
<g transform="matrix( 1, 0, 0, 1, 0,0) ">
<use xlink:href="#Symbol_11_0_Layer0_0_FILL"/>
</g>
</g>

<g id="armRight_FL_FL_FL_FL_FL_FL_FL_FL_FL_FL_FL_FL_FL_FL_FL_FL_FL_FL" transform="matrix( 0.168670654296875, 0.9856719970703125, 0.9856719970703125, -0.168670654296875, 125.55,284.35) ">
<g transform="matrix( 1, 0, 0, 1, 0,0) ">
<use xlink:href="#Symbol_8_0_Layer0_0_FILL"/>
</g>
</g>

<g id="handRight_FL_FL_FL_FL_FL_FL_FL_FL_FL_FL_FL_FL_FL_FL_FL_FL_FL_FL" transform="matrix( 0.168670654296875, 0.9856719970703125, 0.9856719970703125, -0.168670654296875, 150.8,281.05) ">
<g transform="matrix( 1, 0, 0, 1, 0,0) ">
<use xlink:href="#Symbol_9_0_Layer0_0_FILL"/>
</g>
</g>

<g id="body_FL_FL_FL_FL_FL_FL_FL_FL_FL_FL_FL_FL_FL_FL" transform="matrix( 0.4500732421875, -0.654541015625, 0.947845458984375, 0.3809814453125, 127.55,300.75) ">
<g transform="matrix( 1, 0, 0, 1, 0,0) ">
<use xlink:href="#Symbol_10_0_Layer0_0_FILL"/>
</g>

<g transform="matrix( 1, 0, 0, 1, 0.2,0) ">
<use xlink:href="#Symbol_10_0_Layer0_1_FILL"/>
</g>
</g>

<g id="armLeft_FL_FL_FL_FL_FL_FL_FL_FL_FL_FL_FL_FL_FL_FL_FL_FL_FL" transform="matrix( 0.7070770263671875, 0.70709228515625, -0.70709228515625, 0.7070770263671875, 108.1,298.95) ">
<g transform="matrix( 1, 0, 0, 1, 0,0) ">
<use xlink:href="#Symbol_8_0_Layer0_0_FILL"/>
</g>
</g>

<g id="handLeft_FL_FL_FL_FL_FL_FL_FL_FL_FL_FL_FL_FL_FL_FL_FL_FL_FL" transform="matrix( 0.8659820556640625, 0.5, -0.499969482421875, 0.865997314453125, 92.65,318.75) ">
<g transform="matrix( 1, 0, 0, 1, 0,0) ">
<use xlink:href="#Symbol_9_0_Layer0_0_FILL"/>
</g>
</g>

<g id="body_FL_FL_FL_FL_FL_FL_FL_FL_FL_FL_FL_FL_FL_FL_FL" transform="matrix( 1, 0, 0, 1, 681.9,84.15) ">
<g transform="matrix( 1, 0, 0, 1, 0,0) ">
<use xlink:href="#Symbol_10_0_Layer0_0_FILL"/>
</g>

<g transform="matrix( 1, 0, 0, 1, 0.2,0) ">
<use xlink:href="#Symbol_10_0_Layer0_1_FILL"/>
</g>
</g>

<g id="head_FL_FL_FL_FL_FL_FL_FL" transform="matrix( 0.9978790283203125, -0.065093994140625, 0.065093994140625, 0.9978790283203125, 681.8,66.15) ">
<g transform="matrix( 1, 0, 0, 1, 0,0) ">
<use xlink:href="#Symbol_12_0_Layer0_0_FILL"/>
</g>

<g transform="matrix( 1, 0, 0, 1, 0,0) ">
<use xlink:href="#Symbol_12_0_Layer0_1_FILL"/>
</g>

<g transform="matrix( 1, 0, 0, 1, 0,0) ">
<use xlink:href="#Symbol_12_0_Layer0_2_FILL"/>
</g>

<g transform="matrix( 0.9659271240234375, -0.2588043212890625, 0.2588043212890625, 0.9659271240234375, 5.45,2.15) ">
<use xlink:href="#Symbol_12_0_Layer0_2_MEMBER_0_FILL"/>
</g>

<g transform="matrix( 0.9659271240234375, 0.2588043212890625, -0.2588043212890625, 0.9659271240234375, -5.6,1.8) ">
<use xlink:href="#Symbol_12_0_Layer0_2_MEMBER_1_FILL"/>
</g>

<g transform="matrix( 1, 0, 0, 1, 0,0) ">
<use xlink:href="#Symbol_12_0_Layer0_2_MEMBER_2_FILL"/>
</g>

<g transform="matrix( 1, 0, 0, 1, 0,0) ">
<use xlink:href="#Symbol_12_0_Layer0_2_MEMBER_3_FILL"/>
</g>

<g transform="matrix( 1, 0, 0, 1, 44.8,-12.05) ">
<use xlink:href="#Symbol_12_0_Layer0_2_MEMBER_4_FILL"/>
</g>

<g transform="matrix( 1, 0, 0, 1, 0,0) ">
<use xlink:href="#Symbol_12_0_Layer0_3_FILL"/>
</g>
</g>

<g id="legLeft_FL_FL_FL_FL_FL_FL_FL_FL_FL_FL_FL_FL_FL_FL_FL" transform="matrix( -0.96484375, -0.2628021240234375, -0.2628021240234375, 0.96484375, 672,198.85) ">
<g transform="matrix( 1, 0, 0, 1, 0,0) ">
<use xlink:href="#Symbol_11_0_Layer0_0_FILL"/>
</g>
</g>

<g id="legRight_FL_FL_FL_FL_FL_FL_FL_FL_FL_FL_FL_FL_FL_FL_FL" transform="matrix( -0.999755859375, 0.022491455078125, 0.022491455078125, 0.999755859375, 692,194.8) ">
<g transform="matrix( 1, 0, 0, 1, 0,0) ">
<use xlink:href="#Symbol_11_0_Layer0_0_FILL"/>
</g>
</g>

<g id="body_FL_FL_FL_FL_FL_FL_FL_FL_FL_FL_FL_FL_FL_FL_FL_FL" transform="matrix( 0.8961029052734375, 0, 0, 1, 681.6,189.15) ">
<g transform="matrix( 1, 0, 0, 1, 0,0) ">
<use xlink:href="#Symbol_10_0_Layer0_0_FILL"/>
</g>

<g transform="matrix( 1, 0, 0, 1, 0.2,0) ">
<use xlink:href="#Symbol_10_0_Layer0_1_FILL"/>
</g>
</g>

<g id="legLeft_FL_FL_FL_FL_FL_FL_FL_FL_FL_FL_FL_FL_FL_FL_FL_FL" transform="matrix( 1, 0, -0.0464324951171875, 1, 262.25,203.85) ">
<g transform="matrix( 1, 0, 0, 1, 0,0) ">
<use xlink:href="#Symbol_11_0_Layer0_0_FILL"/>
</g>
</g>

<g id="legRight_FL_FL_FL_FL_FL_FL_FL_FL_FL_FL_FL_FL_FL_FL_FL_FL" transform="matrix( -1, 0, 0.2167205810546875, 1, 281.4,203.85) ">
<g transform="matrix( 1, 0, 0, 1, 0,0) ">
<use xlink:href="#Symbol_11_0_Layer0_0_FILL"/>
</g>
</g>

<g id="armRight_FL_FL_FL_FL_FL_FL_FL_FL_FL_FL_FL_FL_FL_FL_FL_FL_FL_FL_FL" transform="matrix( -0.8426971435546875, 0.5383758544921875, 0.287139892578125, 1.003204345703125, 286.4,178.75) ">
<g transform="matrix( 1, 0, 0, 1, 0,0) ">
<use xlink:href="#Symbol_8_0_Layer0_0_FILL"/>
</g>
</g>

<g id="body_FL_FL_FL_FL_FL_FL_FL_FL_FL_FL_FL_FL_FL_FL_FL_FL_FL" transform="matrix( 0.9220733642578125, 0, -0.1209259033203125, 1, 270.85,195.15) ">
<g transform="matrix( 1, 0, 0, 1, 0,0) ">
<use xlink:href="#Symbol_10_0_Layer0_0_FILL"/>
</g>

<g transform="matrix( 1, 0, 0, 1, 0.2,0) ">
<use xlink:href="#Symbol_10_0_Layer0_1_FILL"/>
</g>
</g>

<g id="legLeft_FL_FL_FL_FL_FL_FL_FL_FL_FL_FL_FL_FL_FL_FL_FL_FL_FL" transform="matrix( -0.86602783203125, -0.499969482421875, -0.499969482421875, 0.86602783203125, 198.55,309.4) ">
<g transform="matrix( 1, 0, 0, 1, 0,0) ">
<use xlink:href="#Symbol_11_0_Layer0_0_FILL"/>
</g>
</g>

<g id="armRight_FL_FL_FL_FL_FL_FL_FL_FL_FL_FL_FL_FL_FL_FL_FL_FL_FL_FL_FL_FL" transform="matrix( 0.915496826171875, 0.402313232421875, 0.402313232421875, -0.915496826171875, 222.45,271.25) ">
<g transform="matrix( 1, 0, 0, 1, 0,0) ">
<use xlink:href="#Symbol_8_0_Layer0_0_FILL"/>
</g>
</g>

<g id="armLeft_FL_FL_FL_FL_FL_FL_FL_FL_FL_FL_FL_FL_FL_FL_FL_FL_FL_FL" transform="matrix( 0.7775726318359375, 0.628753662109375, -0.628753662109375, 0.7775726318359375, 189.35,282.35) ">
<g transform="matrix( 1, 0, 0, 1, 0,0) ">
<use xlink:href="#Symbol_8_0_Layer0_0_FILL"/>
</g>
</g>

<g id="body_FL_FL_FL_FL_FL_FL_FL_FL_FL_FL_FL_FL_FL_FL_FL_FL_FL_FL" transform="matrix( 0.8961029052734375, -0.1512908935546875, 0, 1, 207.35,295.15) ">
<g transform="matrix( 1, 0, 0, 1, 0,0) ">
<use xlink:href="#Symbol_10_0_Layer0_0_FILL"/>
</g>

<g transform="matrix( 1, 0, 0, 1, 0.2,0) ">
<use xlink:href="#Symbol_10_0_Layer0_1_FILL"/>
</g>
</g>

<g id="handLeft_FL_FL_FL_FL_FL_FL_FL_FL_FL_FL_FL_FL_FL_FL_FL_FL_FL_FL" transform="matrix( 0.7437591552734375, 0.668426513671875, -0.668426513671875, 0.7437591552734375, 172.55,304.85) ">
<g transform="matrix( 1, 0, 0, 1, 0,0) ">
<use xlink:href="#Symbol_9_0_Layer0_0_FILL"/>
</g>
</g>

<g id="handRight_FL_FL_FL_FL_FL_FL_FL_FL_FL_FL_FL_FL_FL_FL_FL_FL_FL_FL_FL" transform="matrix( 0.602294921875, 0.7982330322265625, 0.7982330322265625, -0.602294921875, 233.95,251.9) ">
<g transform="matrix( 1, 0, 0, 1, 0,0) ">
<use xlink:href="#Symbol_9_0_Layer0_0_FILL"/>
</g>
</g>

<g id="legRight_FL_FL_FL_FL_FL_FL_FL_FL_FL_FL_FL_FL_FL_FL_FL_FL_FL" transform="matrix( -0.8993072509765625, -0.2700347900390625, -0.2588043212890625, 0.9659271240234375, 220.15,300.9) ">
<g transform="matrix( 1, 0, 0, 1, 0,0) ">
<use xlink:href="#Symbol_11_0_Layer0_0_FILL"/>
</g>
</g>

<g id="legLeft_FL_FL_FL_FL_FL_FL_FL_FL_FL_FL_FL_FL_FL_FL_FL_FL_FL_FL" transform="matrix( -1.0149383544921875, 0.3154144287109375, 0.6787109375, 0.84124755859375, 288.3,310.6) ">
<g transform="matrix( 1, 0, 0, 1, 0,0) ">
<use xlink:href="#Symbol_11_0_Layer0_0_FILL"/>
</g>
</g>

<g id="legRight_FL_FL_FL_FL_FL_FL_FL_FL_FL_FL_FL_FL_FL_FL_FL_FL_FL_FL" transform="matrix( -0.7070770263671875, 0.707061767578125, 0.6151123046875, 0.7990264892578125, 270.75,311.9) ">
<g transform="matrix( 1, 0, 0, 1, 0,0) ">
<use xlink:href="#Symbol_11_0_Layer0_0_FILL"/>
</g>
</g>

<g id="body_FL_FL_FL_FL_FL_FL_FL_FL_FL_FL_FL_FL_FL_FL_FL_FL_FL_FL_FL" transform="matrix( 0.922210693359375, -0.0208587646484375, 0, 1, 281.1,301.65) ">
<g transform="matrix( 1, 0, 0, 1, 0,0) ">
<use xlink:href="#Symbol_10_0_Layer0_0_FILL"/>
</g>

<g transform="matrix( 1, 0, 0, 1, 0.2,0) ">
<use xlink:href="#Symbol_10_0_Layer0_1_FILL"/>
</g>
</g>

<g id="armRight_FL_FL_FL_FL_FL_FL_FL_FL_FL_FL_FL_FL_FL_FL_FL_FL_FL_FL_FL_FL_FL" transform="matrix( 0.6365509033203125, 0.771240234375, 0.69598388671875, -0.5744476318359375, 292.35,288.35) ">
<g transform="matrix( 1, 0, 0, 1, 0,0) ">
<use xlink:href="#Symbol_8_0_Layer0_0_FILL"/>
</g>
</g>

<g id="head_FL_FL_FL_FL_FL_FL_FL_FL" transform="matrix( -0.99542236328125, 0.0955657958984375, 0.0955657958984375, 0.99542236328125, 278.5,285.15) ">
<g transform="matrix( 1, 0, 0, 1, 0,0) ">
<use xlink:href="#Symbol_12_0_Layer0_0_FILL"/>
</g>

<g transform="matrix( 1, 0, 0, 1, 0,0) ">
<use xlink:href="#Symbol_12_0_Layer0_1_FILL"/>
</g>

<g transform="matrix( 1, 0, 0, 1, 0,0) ">
<use xlink:href="#Symbol_12_0_Layer0_2_FILL"/>
</g>

<g transform="matrix( 0.9659271240234375, -0.2588043212890625, 0.2588043212890625, 0.9659271240234375, 5.45,2.15) ">
<use xlink:href="#Symbol_12_0_Layer0_2_MEMBER_0_FILL"/>
</g>

<g transform="matrix( 0.9659271240234375, 0.2588043212890625, -0.2588043212890625, 0.9659271240234375, -5.6,1.8) ">
<use xlink:href="#Symbol_12_0_Layer0_2_MEMBER_1_FILL"/>
</g>

<g transform="matrix( 1, 0, 0, 1, 0,0) ">
<use xlink:href="#Symbol_12_0_Layer0_2_MEMBER_2_FILL"/>
</g>

<g transform="matrix( 1, 0, 0, 1, 0,0) ">
<use xlink:href="#Symbol_12_0_Layer0_2_MEMBER_3_FILL"/>
</g>

<g transform="matrix( 1, 0, 0, 1, 44.8,-12.05) ">
<use xlink:href="#Symbol_12_0_Layer0_2_MEMBER_4_FILL"/>
</g>

<g transform="matrix( 1, 0, 0, 1, 0,0) ">
<use xlink:href="#Symbol_12_0_Layer0_3_FILL"/>
</g>
</g>

<g id="handRight_FL_FL_FL_FL_FL_FL_FL_FL_FL_FL_FL_FL_FL_FL_FL_FL_FL_FL_FL_FL" transform="matrix( -0.5000152587890625, 0.865997314453125, 0.865997314453125, 0.5000152587890625, 309.35,283.5) ">
<g transform="matrix( 1, 0, 0, 1, 0,0) ">
<use xlink:href="#Symbol_9_0_Layer0_0_FILL"/>
</g>
</g>

<g id="armLeft_FL_FL_FL_FL_FL_FL_FL_FL_FL_FL_FL_FL_FL_FL_FL_FL_FL_FL_FL" transform="matrix( 0.5000152587890625, -0.865997314453125, 0.7815093994140625, 0.4512176513671875, 260.95,292.65) ">
<g transform="matrix( 1, 0, 0, 1, 0,0) ">
<use xlink:href="#Symbol_8_0_Layer0_0_FILL"/>
</g>
</g>

<g id="handLeft_FL_FL_FL_FL_FL_FL_FL_FL_FL_FL_FL_FL_FL_FL_FL_FL_FL_FL_FL" transform="matrix( 0.2588043212890625, -0.9659271240234375, 0.9659271240234375, 0.2588043212890625, 281.95,301.85) ">
<g transform="matrix( 1, 0, 0, 1, 0,0) ">
<use xlink:href="#Symbol_9_0_Layer0_0_FILL"/>
</g>
</g>

<g id="body_FL_FL_FL_FL_FL_FL_FL_FL_FL_FL_FL_FL_FL_FL_FL_FL_FL_FL_FL_FL" transform="matrix( 1, 0, 0, 1, 792,99) ">
<g transform="matrix( 1, 0, 0, 1, 0,0) ">
<use xlink:href="#Symbol_10_0_Layer0_0_FILL"/>
</g>

<g transform="matrix( 1, 0, 0, 1, 0.2,0) ">
<use xlink:href="#Symbol_10_0_Layer0_1_FILL"/>
</g>
</g>

<g id="armRight_FL_FL_FL_FL_FL_FL_FL_FL_FL_FL_FL_FL_FL_FL_FL_FL_FL_FL_FL_FL_FL_FL" transform="matrix( -1, 0, 0, 1, 887,91) ">
<g transform="matrix( 1, 0, 0, 1, 0,0) ">
<use xlink:href="#Symbol_8_0_Layer0_0_FILL"/>
</g>
</g>

<g id="handRight_FL_FL_FL_FL_FL_FL_FL_FL_FL_FL_FL_FL_FL_FL_FL_FL_FL_FL_FL_FL_FL" transform="matrix( -1, 0, 0, 1, 885,141) ">
<g transform="matrix( 1, 0, 0, 1, 0,0) ">
<use xlink:href="#Symbol_9_0_Layer0_0_FILL"/>
</g>
</g>

<g id="legRight_FL_FL_FL_FL_FL_FL_FL_FL_FL_FL_FL_FL_FL_FL_FL_FL_FL_FL_FL" transform="matrix( -1, 0, 0, 1, 850,133) ">
<g transform="matrix( 1, 0, 0, 1, 0,0) ">
<use xlink:href="#Symbol_11_0_Layer0_0_FILL"/>
</g>
</g>

<g id="head_FL_FL_FL_FL_FL_FL_FL_FL_FL" transform="matrix( 1, 0, 0, 1, 791.4,52.25) ">
<g transform="matrix( 1, 0, 0, 1, 0,0) ">
<use xlink:href="#Symbol_12_0_Layer0_0_FILL"/>
</g>

<g transform="matrix( 1, 0, 0, 1, 0,0) ">
<use xlink:href="#Symbol_12_0_Layer0_1_FILL"/>
</g>

<g transform="matrix( 1, 0, 0, 1, 0,0) ">
<use xlink:href="#Symbol_12_0_Layer0_2_FILL"/>
</g>

<g transform="matrix( 0.9659271240234375, -0.2588043212890625, 0.2588043212890625, 0.9659271240234375, 5.45,2.15) ">
<use xlink:href="#Symbol_12_0_Layer0_2_MEMBER_0_FILL"/>
</g>

<g transform="matrix( 0.9659271240234375, 0.2588043212890625, -0.2588043212890625, 0.9659271240234375, -5.6,1.8) ">
<use xlink:href="#Symbol_12_0_Layer0_2_MEMBER_1_FILL"/>
</g>

<g transform="matrix( 1, 0, 0, 1, 0,0) ">
<use xlink:href="#Symbol_12_0_Layer0_2_MEMBER_2_FILL"/>
</g>

<g transform="matrix( 1, 0, 0, 1, 0,0) ">
<use xlink:href="#Symbol_12_0_Layer0_2_MEMBER_3_FILL"/>
</g>

<g transform="matrix( 1, 0, 0, 1, 44.8,-12.05) ">
<use xlink:href="#Symbol_12_0_Layer0_2_MEMBER_4_FILL"/>
</g>

<g transform="matrix( 1, 0, 0, 1, 0,0) ">
<use xlink:href="#Symbol_12_0_Layer0_3_FILL"/>
</g>
</g>

<g id="armLeft_FL_FL_FL_FL_FL_FL_FL_FL_FL_FL_FL_FL_FL_FL_FL_FL_FL_FL_FL_FL" transform="matrix( 0.9659271240234375, 0.2588043212890625, -0.233551025390625, 0.8716888427734375, 343.55,290.35) ">
<g transform="matrix( 1, 0, 0, 1, 0,0) ">
<use xlink:href="#Symbol_8_0_Layer0_0_FILL"/>
</g>
</g>

<g id="handLeft_FL_FL_FL_FL_FL_FL_FL_FL_FL_FL_FL_FL_FL_FL_FL_FL_FL_FL_FL_FL" transform="matrix( 0.9659271240234375, 0.2588043212890625, -0.2588043212890625, 0.9659271240234375, 338.5,314.25) ">
<g transform="matrix( 1, 0, 0, 1, 0,0) ">
<use xlink:href="#Symbol_9_0_Layer0_0_FILL"/>
</g>
</g>

<g id="armRight_FL_FL_FL_FL_FL_FL_FL_FL_FL_FL_FL_FL_FL_FL_FL_FL_FL_FL_FL_FL_FL_FL_FL" transform="matrix( -0.9659271240234375, 0.2588043212890625, 0.233551025390625, 0.8716888427734375, 377.6,289.35) ">
<g transform="matrix( 1, 0, 0, 1, 0,0) ">
<use xlink:href="#Symbol_8_0_Layer0_0_FILL"/>
</g>
</g>

<g id="handRight_FL_FL_FL_FL_FL_FL_FL_FL_FL_FL_FL_FL_FL_FL_FL_FL_FL_FL_FL_FL_FL_FL" transform="matrix( -0.9659271240234375, 0.2588043212890625, 0.2588043212890625, 0.9659271240234375, 382.9,314.5) ">
<g transform="matrix( 1, 0, 0, 1, 0,0) ">
<use xlink:href="#Symbol_9_0_Layer0_0_FILL"/>
</g>
</g>

<g id="legLeft_FL_FL_FL_FL_FL_FL_FL_FL_FL_FL_FL_FL_FL_FL_FL_FL_FL_FL_FL" transform="matrix( 1, 0, 0, 1, 350.75,313.85) ">
<g transform="matrix( 1, 0, 0, 1, 0,0) ">
<use xlink:href="#Symbol_11_0_Layer0_0_FILL"/>
</g>
</g>

<g id="legRight_FL_FL_FL_FL_FL_FL_FL_FL_FL_FL_FL_FL_FL_FL_FL_FL_FL_FL_FL_FL" transform="matrix( -1, 0, 0, 1, 371.9,313.85) ">
<g transform="matrix( 1, 0, 0, 1, 0,0) ">
<use xlink:href="#Symbol_11_0_Layer0_0_FILL"/>
</g>
</g>

<g transform="matrix( 1, 0, 0, 1, 361.35,304.15) ">
<g transform="matrix( 1, 0, 0, 1, 0,0) ">
<use xlink:href="#Symbol_18_0_Layer0_0_FILL"/>
</g>
</g>

<g id="handRight_FL_FL_FL_FL_FL_FL_FL_FL_FL_FL_FL_FL_FL_FL_FL_FL_FL_FL_FL_FL_FL_FL_FL" transform="matrix( -0.25616455078125, -0.9665679931640625, -0.9665679931640625, 0.25616455078125, 291.7,196) ">
<g transform="matrix( 1, 0, 0, 1, 0,0) ">
<use xlink:href="#Symbol_9_0_Layer0_0_FILL"/>
</g>
</g>

<g id="legLeft_FL_FL_FL_FL_FL_FL_FL_FL_FL_FL_FL_FL_FL_FL_FL_FL_FL_FL_FL_FL" transform="matrix( -1, 0, -0.2476806640625, 1, 430.75,313.85) ">
<g transform="matrix( 1, 0, 0, 1, 0,0) ">
<use xlink:href="#Symbol_11_0_Layer0_0_FILL"/>
</g>
</g>

<g id="legRight_FL_FL_FL_FL_FL_FL_FL_FL_FL_FL_FL_FL_FL_FL_FL_FL_FL_FL_FL_FL_FL" transform="matrix( -1, 0, 0.1083526611328125, 1, 451.9,313.85) ">
<g transform="matrix( 1, 0, 0, 1, 0,0) ">
<use xlink:href="#Symbol_11_0_Layer0_0_FILL"/>
</g>
</g>

<g id="body_FL_FL_FL_FL_FL_FL_FL_FL_FL_FL_FL_FL_FL_FL_FL_FL_FL_FL_FL_FL_FL" transform="matrix( 1, 0, 0, 1, 441.35,305.15) ">
<g transform="matrix( 1, 0, 0, 1, 0,0) ">
<use xlink:href="#Symbol_10_0_Layer0_0_FILL"/>
</g>

<g transform="matrix( 1, 0, 0, 1, 0.2,0) ">
<use xlink:href="#Symbol_10_0_Layer0_1_FILL"/>
</g>
</g>

<g id="armLeft_FL_FL_FL_FL_FL_FL_FL_FL_FL_FL_FL_FL_FL_FL_FL_FL_FL_FL_FL_FL_FL" transform="matrix( 0.9660186767578125, 0.2584228515625, -0.23321533203125, 0.87176513671875, 424.55,289.35) ">
<g transform="matrix( 1, 0, 0, 1, 0,0) ">
<use xlink:href="#Symbol_8_0_Layer0_0_FILL"/>
</g>
</g>

<g id="handLeft_FL_FL_FL_FL_FL_FL_FL_FL_FL_FL_FL_FL_FL_FL_FL_FL_FL_FL_FL_FL_FL" transform="matrix( 0.965911865234375, -0.258819580078125, 0.258819580078125, 0.965911865234375, 422.3,310.3) ">
<g transform="matrix( 1, 0, 0, 1, 0,0) ">
<use xlink:href="#Symbol_9_0_Layer0_0_FILL"/>
</g>
</g>

<g id="legRight_FL_FL_FL_FL_FL_FL_FL_FL_FL_FL_FL_FL_FL_FL_FL_FL_FL_FL_FL_FL_FL_FL" transform="matrix( 0.942108154296875, -0.34771728515625, 0.2938079833984375, 0.9530029296875, 506.4,79.35) ">
<g transform="matrix( 1, 0, 0, 1, 0,0) ">
<use xlink:href="#Symbol_11_0_Layer0_0_FILL"/>
</g>
</g>

<g id="legLeft_FL_FL_FL_FL_FL_FL_FL_FL_FL_FL_FL_FL_FL_FL_FL_FL_FL_FL_FL_FL_FL" transform="matrix( -0.9604034423828125, -0.2794342041015625, -0.1309356689453125, 1.00311279296875, 533.95,85.65) ">
<g transform="matrix( 1, 0, 0, 1, 0,0) ">
<use xlink:href="#Symbol_11_0_Layer0_0_FILL"/>
</g>
</g>

<g id="legLeft_FL_FL_FL_FL_FL_FL_FL_FL_FL_FL_FL_FL_FL_FL_FL_FL_FL_FL_FL_FL_FL_FL" transform="matrix( 0.8357696533203125, 0.5355377197265625, -0.6060791015625, 0.8081207275390625, 669.3,91.85) ">
<g transform="matrix( 1, 0, 0, 1, 0,0) ">
<use xlink:href="#Symbol_11_0_Layer0_0_FILL"/>
</g>
</g>

<g id="legRight_FL_FL_FL_FL_FL_FL_FL_FL_FL_FL_FL_FL_FL_FL_FL_FL_FL_FL_FL_FL_FL_FL_FL" transform="matrix( -0.8170928955078125, 0.59710693359375, 0.6360321044921875, 0.759033203125, 694.45,91.85) ">
<g transform="matrix( 1, 0, 0, 1, 0,0) ">
<use xlink:href="#Symbol_11_0_Layer0_0_FILL"/>
</g>
</g>

<g transform="matrix( 0.9996185302734375, 0.0266265869140625, -0.0266265869140625, 0.9996185302734375, 273.7,177.55) ">
<g transform="matrix( 1, 0, 0, 1, 0,0) ">
<use xlink:href="#Symbol_15_0_Layer0_0_FILL"/>
</g>

<g transform="matrix( 1, 0, 0, 1, 0,0) ">
<use xlink:href="#Symbol_15_0_Layer0_1_FILL"/>
</g>

<g transform="matrix( 1, 0, 0, 1, 0,0) ">
<use xlink:href="#Symbol_15_0_Layer0_2_FILL"/>
</g>

<g transform="matrix( 0.9659271240234375, -0.2588043212890625, 0.2588043212890625, 0.9659271240234375, 5.45,2.15) ">
<use xlink:href="#Symbol_15_0_Layer0_2_MEMBER_0_FILL"/>
</g>

<g transform="matrix( 0.9659271240234375, 0.2588043212890625, -0.2588043212890625, 0.9659271240234375, -5.6,2.8) ">
<use xlink:href="#Symbol_15_0_Layer0_2_MEMBER_1_FILL"/>
</g>

<g transform="matrix( 1, 0, 0, 1, 0,0) ">
<use xlink:href="#Symbol_15_0_Layer0_2_MEMBER_2_FILL"/>
</g>

<g transform="matrix( 1, 0, 0, 1, 0,0) ">
<use xlink:href="#Symbol_15_0_Layer0_2_MEMBER_3_FILL"/>
</g>

<g transform="matrix( 0.7704925537109375, 0, 0, 0.7704925537109375, -42.3,-4.6) ">
<use xlink:href="#Symbol_15_0_Layer0_2_MEMBER_4_FILL"/>
</g>

<g transform="matrix( 1, 0, 0, 1, 0,0) ">
<use xlink:href="#Symbol_15_0_Layer0_3_FILL"/>
</g>
</g>

<g id="armLeft_FL_FL_FL_FL_FL_FL_FL_FL_FL_FL_FL_FL_FL_FL_FL_FL_FL_FL_FL_FL_FL_FL" transform="matrix( 0.65667724609375, -0.7541656494140625, 0.7541656494140625, 0.65667724609375, 261.4,180.9) ">
<g transform="matrix( 1, 0, 0, 1, 0,0) ">
<use xlink:href="#Symbol_8_0_Layer0_0_FILL"/>
</g>
</g>

<g id="handLeft_FL_FL_FL_FL_FL_FL_FL_FL_FL_FL_FL_FL_FL_FL_FL_FL_FL_FL_FL_FL_FL_FL" transform="matrix( 0.4999847412109375, -0.8660125732421875, 0.8660125732421875, 0.4999847412109375, 282.65,195.8) ">
<g transform="matrix( 1, 0, 0, 1, 0,0) ">
<use xlink:href="#Symbol_9_0_Layer0_0_FILL"/>
</g>
</g>

<g transform="matrix( 1, 0, 0, 1, 910.6,53.7) ">
<g transform="matrix( 1, 0, 0, 1, 0,0) ">
<use xlink:href="#Symbol_15_0_Layer0_0_FILL"/>
</g>

<g transform="matrix( 1, 0, 0, 1, 0,0) ">
<use xlink:href="#Symbol_15_0_Layer0_1_FILL"/>
</g>

<g transform="matrix( 1, 0, 0, 1, 0,0) ">
<use xlink:href="#Symbol_15_0_Layer0_2_FILL"/>
</g>

<g transform="matrix( 0.9659271240234375, -0.2588043212890625, 0.2588043212890625, 0.9659271240234375, 5.45,2.15) ">
<use xlink:href="#Symbol_15_0_Layer0_2_MEMBER_0_FILL"/>
</g>

<g transform="matrix( 0.9659271240234375, 0.2588043212890625, -0.2588043212890625, 0.9659271240234375, -5.6,2.8) ">
<use xlink:href="#Symbol_15_0_Layer0_2_MEMBER_1_FILL"/>
</g>

<g transform="matrix( 1, 0, 0, 1, 0,0) ">
<use xlink:href="#Symbol_15_0_Layer0_2_MEMBER_2_FILL"/>
</g>

<g transform="matrix( 1, 0, 0, 1, 0,0) ">
<use xlink:href="#Symbol_15_0_Layer0_2_MEMBER_3_FILL"/>
</g>

<g transform="matrix( 0.7704925537109375, 0, 0, 0.7704925537109375, -42.3,-4.6) ">
<use xlink:href="#Symbol_15_0_Layer0_2_MEMBER_4_FILL"/>
</g>

<g transform="matrix( 1, 0, 0, 1, 0,0) ">
<use xlink:href="#Symbol_15_0_Layer0_3_FILL"/>
</g>
</g>

<g transform="matrix( 1, 0, 0, 1, 842,99) ">
<g transform="matrix( 1, 0, 0, 1, 0,0) ">
<use xlink:href="#Symbol_18_0_Layer0_0_FILL"/>
</g>
</g>

<g transform="matrix( 0.9969329833984375, 0.0782470703125, -0.0782470703125, 0.9969329833984375, 204.7,61.55) ">
<g transform="matrix( 1, 0, 0, 1, 0,0) ">
<use xlink:href="#Symbol_16_0_Layer0_0_FILL"/>
</g>

<g transform="matrix( 1, 0, 0, 1, 40.25,3.9) ">
<use xlink:href="#Symbol_16_0_Layer0_1_FILL"/>
</g>

<g transform="matrix( 1, 0, 0, 1, 0,0) ">
<use xlink:href="#Symbol_16_0_Layer0_2_FILL"/>
</g>

<g transform="matrix( 0.9337615966796875, 0.3578948974609375, -0.3578948974609375, 0.9337615966796875, -6.3,-5.2) ">
<use xlink:href="#Symbol_16_0_Layer0_2_MEMBER_0_FILL"/>
</g>

<g transform="matrix( 0.9659271240234375, -0.2588043212890625, 0.2588043212890625, 0.9659271240234375, 4.85,-3.15) ">
<use xlink:href="#Symbol_16_0_Layer0_2_MEMBER_1_FILL"/>
</g>

<g transform="matrix( 0.75213623046875, 0, 0, 0.75213623046875, -0.05,4) ">
<use xlink:href="#Symbol_16_0_Layer0_2_MEMBER_2_FILL"/>
</g>

<g transform="matrix( 1, 0, 0, 1, -0.5,0) ">
<use xlink:href="#Symbol_16_0_Layer0_2_MEMBER_3_FILL"/>
</g>

<g transform="matrix( 1, 0, 0, 1, 0,0) ">
<use xlink:href="#Symbol_16_0_Layer0_2_MEMBER_4_FILL"/>
</g>

<g transform="matrix( 1, 0, 0, 1, 0,0) ">
<use xlink:href="#Symbol_16_0_Layer0_3_FILL"/>
</g>
</g>

<g transform="matrix( 0.9969329833984375, 0.0782470703125, -0.0782470703125, 0.9969329833984375, 360.75,59.2) ">
<g transform="matrix( 1, 0, 0, 1, 0,0) ">
<use xlink:href="#Symbol_16_0_Layer0_0_FILL"/>
</g>

<g transform="matrix( 1, 0, 0, 1, 40.25,3.9) ">
<use xlink:href="#Symbol_16_0_Layer0_1_FILL"/>
</g>

<g transform="matrix( 1, 0, 0, 1, 0,0) ">
<use xlink:href="#Symbol_16_0_Layer0_2_FILL"/>
</g>

<g transform="matrix( 0.9337615966796875, 0.3578948974609375, -0.3578948974609375, 0.9337615966796875, -6.3,-5.2) ">
<use xlink:href="#Symbol_16_0_Layer0_2_MEMBER_0_FILL"/>
</g>

<g transform="matrix( 0.9659271240234375, -0.2588043212890625, 0.2588043212890625, 0.9659271240234375, 4.85,-3.15) ">
<use xlink:href="#Symbol_16_0_Layer0_2_MEMBER_1_FILL"/>
</g>

<g transform="matrix( 0.75213623046875, 0, 0, 0.75213623046875, -0.05,4) ">
<use xlink:href="#Symbol_16_0_Layer0_2_MEMBER_2_FILL"/>
</g>

<g transform="matrix( 1, 0, 0, 1, -0.5,0) ">
<use xlink:href="#Symbol_16_0_Layer0_2_MEMBER_3_FILL"/>
</g>

<g transform="matrix( 1, 0, 0, 1, 0,0) ">
<use xlink:href="#Symbol_16_0_Layer0_2_MEMBER_4_FILL"/>
</g>

<g transform="matrix( 1, 0, 0, 1, 0,0) ">
<use xlink:href="#Symbol_16_0_Layer0_3_FILL"/>
</g>
</g>

<g transform="matrix( -0.9965667724609375, -0.0825958251953125, -0.0825958251953125, 0.9965667724609375, 521.1,62.6) ">
<g transform="matrix( 1, 0, 0, 1, 0,0) ">
<use xlink:href="#Symbol_17_0_Layer0_0_FILL"/>
</g>

<g transform="matrix( 1, 0, 0, 1, 0,0) ">
<use xlink:href="#Symbol_17_0_Layer0_1_FILL"/>
</g>
</g>

<g transform="matrix( 0.9965667724609375, 0.0825958251953125, -0.0825958251953125, 0.9965667724609375, 281.35,76.4) ">
<g transform="matrix( 1, 0, 0, 1, 0,0) ">
<use xlink:href="#Symbol_15_0_Layer0_0_FILL"/>
</g>

<g transform="matrix( 1, 0, 0, 1, 0,0) ">
<use xlink:href="#Symbol_15_0_Layer0_1_FILL"/>
</g>

<g transform="matrix( 1, 0, 0, 1, 0,0) ">
<use xlink:href="#Symbol_15_0_Layer0_2_FILL"/>
</g>

<g transform="matrix( 0.9659271240234375, -0.2588043212890625, 0.2588043212890625, 0.9659271240234375, 5.45,2.15) ">
<use xlink:href="#Symbol_15_0_Layer0_2_MEMBER_0_FILL"/>
</g>

<g transform="matrix( 0.9659271240234375, 0.2588043212890625, -0.2588043212890625, 0.9659271240234375, -5.6,2.8) ">
<use xlink:href="#Symbol_15_0_Layer0_2_MEMBER_1_FILL"/>
</g>

<g transform="matrix( 1, 0, 0, 1, 0,0) ">
<use xlink:href="#Symbol_15_0_Layer0_2_MEMBER_2_FILL"/>
</g>

<g transform="matrix( 1, 0, 0, 1, 0,0) ">
<use xlink:href="#Symbol_15_0_Layer0_2_MEMBER_3_FILL"/>
</g>

<g transform="matrix( 0.7704925537109375, 0, 0, 0.7704925537109375, -42.3,-4.6) ">
<use xlink:href="#Symbol_15_0_Layer0_2_MEMBER_4_FILL"/>
</g>

<g transform="matrix( 1, 0, 0, 1, 0,0) ">
<use xlink:href="#Symbol_15_0_Layer0_3_FILL"/>
</g>
</g>

<g transform="matrix( 0.9996185302734375, 0.0266265869140625, -0.0266265869140625, 0.9996185302734375, 189.05,173.55) ">
<g transform="matrix( 1, 0, 0, 1, 0,0) ">
<use xlink:href="#Symbol_15_0_Layer0_0_FILL"/>
</g>

<g transform="matrix( 1, 0, 0, 1, 0,0) ">
<use xlink:href="#Symbol_15_0_Layer0_1_FILL"/>
</g>

<g transform="matrix( 1, 0, 0, 1, 0,0) ">
<use xlink:href="#Symbol_15_0_Layer0_2_FILL"/>
</g>

<g transform="matrix( 0.9659271240234375, -0.2588043212890625, 0.2588043212890625, 0.9659271240234375, 5.45,2.15) ">
<use xlink:href="#Symbol_15_0_Layer0_2_MEMBER_0_FILL"/>
</g>

<g transform="matrix( 0.9659271240234375, 0.2588043212890625, -0.2588043212890625, 0.9659271240234375, -5.6,2.8) ">
<use xlink:href="#Symbol_15_0_Layer0_2_MEMBER_1_FILL"/>
</g>

<g transform="matrix( 1, 0, 0, 1, 0,0) ">
<use xlink:href="#Symbol_15_0_Layer0_2_MEMBER_2_FILL"/>
</g>

<g transform="matrix( 1, 0, 0, 1, 0,0) ">
<use xlink:href="#Symbol_15_0_Layer0_2_MEMBER_3_FILL"/>
</g>

<g transform="matrix( 0.7704925537109375, 0, 0, 0.7704925537109375, -42.3,-4.6) ">
<use xlink:href="#Symbol_15_0_Layer0_2_MEMBER_4_FILL"/>
</g>

<g transform="matrix( 1, 0, 0, 1, 0,0) ">
<use xlink:href="#Symbol_15_0_Layer0_3_FILL"/>
</g>
</g>

<g transform="matrix( 0.9996185302734375, 0.0266265869140625, -0.0266265869140625, 0.9996185302734375, 513.9,175) ">
<g transform="matrix( 1, 0, 0, 1, 0,0) ">
<use xlink:href="#Symbol_15_0_Layer0_0_FILL"/>
</g>

<g transform="matrix( 1, 0, 0, 1, 0,0) ">
<use xlink:href="#Symbol_15_0_Layer0_1_FILL"/>
</g>

<g transform="matrix( 1, 0, 0, 1, 0,0) ">
<use xlink:href="#Symbol_15_0_Layer0_2_FILL"/>
</g>

<g transform="matrix( 0.9659271240234375, -0.2588043212890625, 0.2588043212890625, 0.9659271240234375, 5.45,2.15) ">
<use xlink:href="#Symbol_15_0_Layer0_2_MEMBER_0_FILL"/>
</g>

<g transform="matrix( 0.9659271240234375, 0.2588043212890625, -0.2588043212890625, 0.9659271240234375, -5.6,2.8) ">
<use xlink:href="#Symbol_15_0_Layer0_2_MEMBER_1_FILL"/>
</g>

<g transform="matrix( 1, 0, 0, 1, 0,0) ">
<use xlink:href="#Symbol_15_0_Layer0_2_MEMBER_2_FILL"/>
</g>

<g transform="matrix( 1, 0, 0, 1, 0,0) ">
<use xlink:href="#Symbol_15_0_Layer0_2_MEMBER_3_FILL"/>
</g>

<g transform="matrix( 0.7704925537109375, 0, 0, 0.7704925537109375, -42.3,-4.6) ">
<use xlink:href="#Symbol_15_0_Layer0_2_MEMBER_4_FILL"/>
</g>

<g transform="matrix( 1, 0, 0, 1, 0,0) ">
<use xlink:href="#Symbol_15_0_Layer0_3_FILL"/>
</g>
</g>

<g transform="matrix( 0.9996185302734375, 0.0266265869140625, -0.0266265869140625, 0.9996185302734375, 600.05,169) ">
<g transform="matrix( 1, 0, 0, 1, 0,0) ">
<use xlink:href="#Symbol_15_0_Layer0_0_FILL"/>
</g>

<g transform="matrix( 1, 0, 0, 1, 0,0) ">
<use xlink:href="#Symbol_15_0_Layer0_1_FILL"/>
</g>

<g transform="matrix( 1, 0, 0, 1, 0,0) ">
<use xlink:href="#Symbol_15_0_Layer0_2_FILL"/>
</g>

<g transform="matrix( 0.9659271240234375, -0.2588043212890625, 0.2588043212890625, 0.9659271240234375, 5.45,2.15) ">
<use xlink:href="#Symbol_15_0_Layer0_2_MEMBER_0_FILL"/>
</g>

<g transform="matrix( 0.9659271240234375, 0.2588043212890625, -0.2588043212890625, 0.9659271240234375, -5.6,2.8) ">
<use xlink:href="#Symbol_15_0_Layer0_2_MEMBER_1_FILL"/>
</g>

<g transform="matrix( 1, 0, 0, 1, 0,0) ">
<use xlink:href="#Symbol_15_0_Layer0_2_MEMBER_2_FILL"/>
</g>

<g transform="matrix( 1, 0, 0, 1, 0,0) ">
<use xlink:href="#Symbol_15_0_Layer0_2_MEMBER_3_FILL"/>
</g>

<g transform="matrix( 0.7704925537109375, 0, 0, 0.7704925537109375, -42.3,-4.6) ">
<use xlink:href="#Symbol_15_0_Layer0_2_MEMBER_4_FILL"/>
</g>

<g transform="matrix( 1, 0, 0, 1, 0,0) ">
<use xlink:href="#Symbol_15_0_Layer0_3_FILL"/>
</g>
</g>

<g transform="matrix( 0.9998931884765625, -0.012420654296875, 0.012420654296875, 0.9998931884765625, 680.4,169) ">
<g transform="matrix( 1, 0, 0, 1, 0,0) ">
<use xlink:href="#Symbol_15_0_Layer0_0_FILL"/>
</g>

<g transform="matrix( 1, 0, 0, 1, 0,0) ">
<use xlink:href="#Symbol_15_0_Layer0_1_FILL"/>
</g>

<g transform="matrix( 1, 0, 0, 1, 0,0) ">
<use xlink:href="#Symbol_15_0_Layer0_2_FILL"/>
</g>

<g transform="matrix( 0.9659271240234375, -0.2588043212890625, 0.2588043212890625, 0.9659271240234375, 5.45,2.15) ">
<use xlink:href="#Symbol_15_0_Layer0_2_MEMBER_0_FILL"/>
</g>

<g transform="matrix( 0.9659271240234375, 0.2588043212890625, -0.2588043212890625, 0.9659271240234375, -5.6,2.8) ">
<use xlink:href="#Symbol_15_0_Layer0_2_MEMBER_1_FILL"/>
</g>

<g transform="matrix( 1, 0, 0, 1, 0,0) ">
<use xlink:href="#Symbol_15_0_Layer0_2_MEMBER_2_FILL"/>
</g>

<g transform="matrix( 1, 0, 0, 1, 0,0) ">
<use xlink:href="#Symbol_15_0_Layer0_2_MEMBER_3_FILL"/>
</g>

<g transform="matrix( 0.7704925537109375, 0, 0, 0.7704925537109375, -42.3,-4.6) ">
<use xlink:href="#Symbol_15_0_Layer0_2_MEMBER_4_FILL"/>
</g>

<g transform="matrix( 1, 0, 0, 1, 0,0) ">
<use xlink:href="#Symbol_15_0_Layer0_3_FILL"/>
</g>
</g>

<g transform="matrix( 0.9996185302734375, 0.0266265869140625, -0.0266265869140625, 0.9996185302734375, 439.95,284.9) ">
<g transform="matrix( 1, 0, 0, 1, 0,0) ">
<use xlink:href="#Symbol_15_0_Layer0_0_FILL"/>
</g>

<g transform="matrix( 1, 0, 0, 1, 0,0) ">
<use xlink:href="#Symbol_15_0_Layer0_1_FILL"/>
</g>

<g transform="matrix( 1, 0, 0, 1, 0,0) ">
<use xlink:href="#Symbol_15_0_Layer0_2_FILL"/>
</g>

<g transform="matrix( 0.9659271240234375, -0.2588043212890625, 0.2588043212890625, 0.9659271240234375, 5.45,2.15) ">
<use xlink:href="#Symbol_15_0_Layer0_2_MEMBER_0_FILL"/>
</g>

<g transform="matrix( 0.9659271240234375, 0.2588043212890625, -0.2588043212890625, 0.9659271240234375, -5.6,2.8) ">
<use xlink:href="#Symbol_15_0_Layer0_2_MEMBER_1_FILL"/>
</g>

<g transform="matrix( 1, 0, 0, 1, 0,0) ">
<use xlink:href="#Symbol_15_0_Layer0_2_MEMBER_2_FILL"/>
</g>

<g transform="matrix( 1, 0, 0, 1, 0,0) ">
<use xlink:href="#Symbol_15_0_Layer0_2_MEMBER_3_FILL"/>
</g>

<g transform="matrix( 0.7704925537109375, 0, 0, 0.7704925537109375, -42.3,-4.6) ">
<use xlink:href="#Symbol_15_0_Layer0_2_MEMBER_4_FILL"/>
</g>

<g transform="matrix( 1, 0, 0, 1, 0,0) ">
<use xlink:href="#Symbol_15_0_Layer0_3_FILL"/>
</g>
</g>

<g transform="matrix( 0.990966796875, -0.133819580078125, 0.133819580078125, 0.990966796875, 203.2,278.4) ">
<g transform="matrix( 1, 0, 0, 1, 0,0) ">
<use xlink:href="#Symbol_15_0_Layer0_0_FILL"/>
</g>

<g transform="matrix( 1, 0, 0, 1, 0,0) ">
<use xlink:href="#Symbol_15_0_Layer0_1_FILL"/>
</g>

<g transform="matrix( 1, 0, 0, 1, 0,0) ">
<use xlink:href="#Symbol_15_0_Layer0_2_FILL"/>
</g>

<g transform="matrix( 0.9659271240234375, -0.2588043212890625, 0.2588043212890625, 0.9659271240234375, 5.45,2.15) ">
<use xlink:href="#Symbol_15_0_Layer0_2_MEMBER_0_FILL"/>
</g>

<g transform="matrix( 0.9659271240234375, 0.2588043212890625, -0.2588043212890625, 0.9659271240234375, -5.6,2.8) ">
<use xlink:href="#Symbol_15_0_Layer0_2_MEMBER_1_FILL"/>
</g>

<g transform="matrix( 1, 0, 0, 1, 0,0) ">
<use xlink:href="#Symbol_15_0_Layer0_2_MEMBER_2_FILL"/>
</g>

<g transform="matrix( 1, 0, 0, 1, 0,0) ">
<use xlink:href="#Symbol_15_0_Layer0_2_MEMBER_3_FILL"/>
</g>

<g transform="matrix( 0.7704925537109375, 0, 0, 0.7704925537109375, -42.3,-4.6) ">
<use xlink:href="#Symbol_15_0_Layer0_2_MEMBER_4_FILL"/>
</g>

<g transform="matrix( 1, 0, 0, 1, 0,0) ">
<use xlink:href="#Symbol_15_0_Layer0_3_FILL"/>
</g>
</g>

<g transform="matrix( 0.9857025146484375, -0.168243408203125, 0.168243408203125, 0.9857025146484375, 111.7,294.95) ">
<g transform="matrix( 1, 0, 0, 1, 0,0) ">
<use xlink:href="#Symbol_15_0_Layer0_0_FILL"/>
</g>

<g transform="matrix( 1, 0, 0, 1, 0,0) ">
<use xlink:href="#Symbol_15_0_Layer0_1_FILL"/>
</g>

<g transform="matrix( 1, 0, 0, 1, 0,0) ">
<use xlink:href="#Symbol_15_0_Layer0_2_FILL"/>
</g>

<g transform="matrix( 0.9659271240234375, -0.2588043212890625, 0.2588043212890625, 0.9659271240234375, 5.45,2.15) ">
<use xlink:href="#Symbol_15_0_Layer0_2_MEMBER_0_FILL"/>
</g>

<g transform="matrix( 0.9659271240234375, 0.2588043212890625, -0.2588043212890625, 0.9659271240234375, -5.6,2.8) ">
<use xlink:href="#Symbol_15_0_Layer0_2_MEMBER_1_FILL"/>
</g>

<g transform="matrix( 1, 0, 0, 1, 0,0) ">
<use xlink:href="#Symbol_15_0_Layer0_2_MEMBER_2_FILL"/>
</g>

<g transform="matrix( 1, 0, 0, 1, 0,0) ">
<use xlink:href="#Symbol_15_0_Layer0_2_MEMBER_3_FILL"/>
</g>

<g transform="matrix( 0.7704925537109375, 0, 0, 0.7704925537109375, -42.3,-4.6) ">
<use xlink:href="#Symbol_15_0_Layer0_2_MEMBER_4_FILL"/>
</g>

<g transform="matrix( 1, 0, 0, 1, 0,0) ">
<use xlink:href="#Symbol_15_0_Layer0_3_FILL"/>
</g>
</g>

<g transform="matrix( 1, 0, 0, 1, 361.6,285.65) ">
<g transform="matrix( 1, 0, 0, 1, 0,0) ">
<use xlink:href="#Symbol_17_0_Layer0_0_FILL"/>
</g>

<g transform="matrix( 1, 0, 0, 1, 0,0) ">
<use xlink:href="#Symbol_17_0_Layer0_1_FILL"/>
</g>
</g>

<g id="armLeft_FL_FL_FL_FL_FL_FL_FL_FL_FL_FL_FL_FL_FL_FL_FL_FL_FL_FL_FL_FL_FL_FL_FL" transform="matrix( -0.86602783203125, 0.4999847412109375, -0.4110107421875, -1.1675262451171875, 420.55,57.15) ">
<g transform="matrix( 1, 0, 0, 1, 0,0) ">
<use xlink:href="#Symbol_8_0_Layer0_0_FILL"/>
</g>
</g>

<g id="handLeft_FL_FL_FL_FL_FL_FL_FL_FL_FL_FL_FL_FL_FL_FL_FL_FL_FL_FL_FL_FL_FL_FL_FL" transform="matrix( 0.965911865234375, -0.2587890625, -0.2587890625, -0.9658966064453125, 419.05,23.6) ">
<g transform="matrix( 1, 0, 0, 1, 0,0) ">
<use xlink:href="#Symbol_9_0_Layer0_0_FILL"/>
</g>
</g>

<g id="armRight_FL_FL_FL_FL_FL_FL_FL_FL_FL_FL_FL_FL_FL_FL_FL_FL_FL_FL_FL_FL_FL_FL_FL_FL" transform="matrix( 0.6365509033203125, 0.7712249755859375, 0.5618133544921875, -0.463714599609375, 453.8,62.15) ">
<g transform="matrix( 1, 0, 0, 1, 0,0) ">
<use xlink:href="#Symbol_8_0_Layer0_0_FILL"/>
</g>
</g>

<g id="handRight_FL_FL_FL_FL_FL_FL_FL_FL_FL_FL_FL_FL_FL_FL_FL_FL_FL_FL_FL_FL_FL_FL_FL_FL" transform="matrix( -0.9999237060546875, 0.0097808837890625, -0.0097808837890625, -0.9999237060546875, 457.6,44.1) ">
<g transform="matrix( 1, 0, 0, 1, 0,0) ">
<use xlink:href="#Symbol_9_0_Layer0_0_FILL"/>
</g>
</g>

<g transform="matrix( -0.9870147705078125, 0.158935546875, 0, 1, 438.65,78.35) ">
<g transform="matrix( 1, 0, 0, 1, 0,0) ">
<use xlink:href="#Symbol_18_0_Layer0_0_FILL"/>
</g>
</g>

<g id="legRight_FL_FL_FL_FL_FL_FL_FL_FL_FL_FL_FL_FL_FL_FL_FL_FL_FL_FL_FL_FL_FL_FL_FL_FL" transform="matrix( -0.942108154296875, -0.34771728515625, -0.2938079833984375, 0.9530029296875, 453.6,79.35) ">
<g transform="matrix( 1, 0, 0, 1, 0,0) ">
<use xlink:href="#Symbol_11_0_Layer0_0_FILL"/>
</g>
</g>

<g id="legLeft_FL_FL_FL_FL_FL_FL_FL_FL_FL_FL_FL_FL_FL_FL_FL_FL_FL_FL_FL_FL_FL_FL_FL" transform="matrix( 0.9604034423828125, -0.2794342041015625, 0.1309356689453125, 1.00311279296875, 426.05,85.65) ">
<g transform="matrix( 1, 0, 0, 1, 0,0) ">
<use xlink:href="#Symbol_11_0_Layer0_0_FILL"/>
</g>
</g>

<g transform="matrix( 0.9965667724609375, -0.0825958251953125, 0.0825958251953125, 0.9965667724609375, 438.9,62.6) ">
<g transform="matrix( 1, 0, 0, 1, 0,0) ">
<use xlink:href="#Symbol_17_0_Layer0_0_FILL"/>
</g>

<g transform="matrix( 1, 0, 0, 1, 0,0) ">
<use xlink:href="#Symbol_17_0_Layer0_1_FILL"/>
</g>
</g>
</svg>
