
<svg xmlns="http://www.w3.org/2000/svg" version="1.1" xmlns:xlink="http://www.w3.org/1999/xlink" preserveAspectRatio="none" x="0px" y="0px" width="720px" height="330px" viewBox="0 0 720 330">
<defs>
<g id="Symbol_8_0_Layer0_0_FILL">
<path fill="#AF7B48" stroke="none" d="
M 0.55 -6.9
L 0.5 -6.9
Q -0.1 -7 -0.65 -7 -5.7 -7.15 -9.2 3.05
L -11.05 7.45 -8.2 7.1 -4.3 6.65 -1.8 9.75 1.7 8.2 5.25 9.65 6.7 10.3
Q 5.81875 8.7310546875 6.2 5.9
L 6.85 2.3
Q 7.45 -0.9 5.6 -3.65 3.75 -6.35 0.55 -6.9 Z"/>

<path fill="#2ECC71" stroke="none" d="
M 5.25 9.65
L 1.7 8.2 -1.8 9.75 -4.3 6.65 -8.2 7.1
Q -9.3400390625 16.0466796875 -8.95 22.25 -5.9 25.15 -1.4 26 2.5888671875 19.3240234375 5.25 9.65 Z"/>
</g>

<g id="Symbol_9_0_Layer0_0_FILL">
<path fill="#2ECC71" stroke="none" d="
M 4.9 -1.85
Q 3.1 -6.8 0.65 -9
L -9 -6.45
Q -10.2 -6.15 -9.95 -5.05
L -9.8 -4.5
Q -7.1 7.6 -0.2 5.8 2.25 5.2 4.65 3.95 6.25 3.15 5.95 1.95
L 5.9 1.7
Q 5.5 0.25 5.1 -1.1
L 5.1 -1.05 4.9 -1.85
M -8.15 -3
Q -8.2 -3.45 -7.05 -4.15 -5.95 -4.85 -4.25 -5.45 -2.5 -6 -1.3 -6.15 0 -6.25 0.05 -5.85 0.15 -5.4 -0.95 -4.7 -2.05 -3.95 -3.8 -3.35 -5.5 -2.75 -6.75 -2.65 -8.05 -2.55 -8.15 -3 Z"/>

<path fill="#29B665" stroke="none" d="
M -7.05 -4.15
Q -8.2 -3.45 -8.15 -3 -8.05 -2.55 -6.75 -2.65 -5.5 -2.75 -3.8 -3.35 -2.05 -3.95 -0.95 -4.7 0.15 -5.4 0.05 -5.85 0 -6.25 -1.3 -6.15 -2.5 -6 -4.25 -5.45 -5.95 -4.85 -7.05 -4.15
M 5.1 -1.1
Q 8.2 -5.45 0.65 -9 3.1 -6.8 4.9 -1.85
L 5.1 -1.05 5.1 -1.1 Z"/>
</g>

<g id="Symbol_18_0_Layer0_0_FILL">
<path fill="#C48A51" stroke="none" d="
M 20 -21
L -19 -21 -19 5.9 20 5.9 20 -21 Z"/>

<path fill="#8E643A" stroke="none" d="
M -19 5.9
L -19 10 20 10 20 5.9 -19 5.9 Z"/>
</g>

<g id="Symbol_18_0_Layer0_1_FILL">
<path fill="#B17D49" stroke="none" d="
M -2.35 -0.8
L -5.05 -3.9
Q -5.1 -4 -5.3 -4 -5.45 -4.05 -5.6 -3.95
L -6.25 -3.5
Q -6.35 -3.45 -6.4 -3.3 -6.4 -3.15 -6.35 -3
L -4.55 0.85
Q -4.5 0.9 -4.5 0.95
L -1.9 3.9
Q -1.8 4 -1.6 4 -1.45 4.05 -1.3 3.95
L -0.75 3.55
Q -0.65 3.45 -0.6 3.3 -0.55 3.15 -0.6 3
L -2.3 -0.7
Q -2.3 -0.75 -2.35 -0.8 Z"/>
</g>

<g id="Symbol_18_0_Layer0_2_FILL">
<path fill="#B17D49" stroke="none" d="
M 1.75 -16.25
Q 1.75 -16.1 1.8 -15.95
L 3.6 -12.1
Q 3.65 -12.05 3.65 -12
L 6.25 -9.05
Q 6.35 -8.95 6.55 -8.95 6.7 -8.9 6.85 -9
L 7.4 -9.4
Q 7.5 -9.5 7.55 -9.65 7.6 -9.8 7.55 -9.95
L 5.85 -13.65
Q 5.85 -13.7 5.8 -13.75
L 3.1 -16.85
Q 3.05 -16.95 2.85 -16.95 2.7 -17 2.55 -16.9
L 1.9 -16.45
Q 1.8 -16.4 1.75 -16.25 Z"/>
</g>

<g id="Symbol_18_0_Layer0_3_FILL">
<path fill="#E05848" stroke="none" d="
M 821.95 97.45
Q 821.85 97.95 823.3 98.7 823.85 98.95 824.55 99.25 824.6 99.75 824.85 100.25 825.15 100.75 825.65 101.1 825.5 101.8 825.5 102.4 825.4 104.15 825.9 104.25 826.4 104.4 827.15 102.85 827.4 102.3 827.7 101.65 828.2 101.5 828.65 101.25 829.15 100.95 829.5 100.6 830.25 100.65 830.9 100.75 832.6 100.8 832.7 100.3 832.85 99.85 831.35 99.1 830.75 98.75 830.05 98.45 830 97.95 829.7 97.45 829.45 96.95 829.05 96.7 829.15 95.9 829.2 95.25 829.25 93.6 828.75 93.45 828.25 93.35 827.55 94.8 827.25 95.35 827 96.1 826.4 96.15 825.9 96.45 825.4 96.75 825.1 97.2 824.35 97.05 823.75 97.05 822.1 97 821.95 97.45 Z"/>
</g>

<g id="Symbol_17_0_Layer0_0_FILL">
<path fill="#25A65B" stroke="none" d="
M -10.15 0.55
L -0.55 5.1 9.05 0.55 -10.15 0.55 Z"/>

<path fill="#2ECC71" stroke="none" d="
M 18.75 -24.65
Q 18.1 -29.1 13.65 -29.1
L -16.7 -29.1
Q -21.1 -29.1 -21.8 -24.55 -23.3 -14.25 -21.8 -3.95 -21.1 0.55 -16.7 0.55
L -10.15 0.55 9.05 0.55 13.65 0.55
Q 18.1 0.55 18.8 -4 20.35 -14.1 18.75 -24.65 Z"/>
</g>

<g id="Symbol_17_0_Layer0_1_FILL">
<path fill="#6B747B" stroke="none" d="
M 19.05 -41.85
Q 16.5802734375 -42.5087890625 14.15 -42.9 3.84609375 -41.0203125 -4.8 -35.85
L -7.7 -38.75 -24.95 -23.6
Q -24.21171875 -20.1357421875 -24.75 -17.15 -24.8591796875 -16.3068359375 -25.1 -15.5 -26.638671875 -10.1310546875 -22.05 -6.6
L -15.6 -6.6 -10.45 -2.2 0 -8.7 3.8 -6.7 9.55 -10.45 16.9 0
Q 20.675390625 -4.3125 19.55 -9.85
L 19.2 -11.3
Q 23.43671875 -24.1875 19.7 -37.1
L 17.2 -37.1 19.05 -41.85
M 16.45 -22.6
L 16.45 -22.6 8.95 -19.85 8.35 -21.15 16.45 -22.6
M -14.3 -22.25
L -15.7 -23.5 -10.2 -29.1 -14.3 -22.25 Z"/>

<path fill="#79838C" stroke="none" d="
M -15.7 -23.5
L -14.3 -22.25 -10.2 -29.1 -15.7 -23.5
M 16.45 -22.6
L 16.45 -22.6 8.35 -21.15 8.95 -19.85 16.45 -22.6 Z"/>

<path fill="#717B83" stroke="none" d="
M 19.2 -11.3
L 19.55 -9.85
Q 27.615234375 -22.025390625 25.05 -37.1
L 19.7 -37.1
Q 23.43671875 -24.1875 19.2 -11.3
M -7.7 -38.75
L -4.8 -35.85
Q 3.84609375 -41.0203125 14.15 -42.9 5.384765625 -44.227734375 -2.85 -41.85
L 0 -45.75
Q -9.221484375 -47.369921875 -14.9 -41.45
L -18.55 -37.75 -21.45 -39 -26.2 -27.9
Q -25.3431640625 -25.6625 -24.95 -23.6
L -7.7 -38.75 Z"/>
</g>

<g id="Symbol_16_0_Layer0_0_FILL">
<path fill="#25A65B" stroke="none" d="
M -10.15 0.55
L -0.55 5.1 9.05 0.55 -10.15 0.55 Z"/>

<path fill="#2ECC71" stroke="none" d="
M 18.75 -24.65
Q 18.1 -29.1 13.65 -29.1
L -16.7 -29.1
Q -21.1 -29.1 -21.8 -24.55 -23.3 -14.25 -21.8 -3.95 -21.1 0.55 -16.7 0.55
L -10.15 0.55 9.05 0.55 13.65 0.55
Q 18.1 0.55 18.8 -4 20.35 -14.1 18.75 -24.65 Z"/>
</g>

<g id="Symbol_16_0_Layer0_1_FILL">
<path fill="#FFFFFF" stroke="none" d="
M -7.65 -9.6
Q -6.1 -9.6 -5.1 -10.75 -4.1818359375 -11.6681640625 -4.05 -12.9
L -11.3 -12.9
Q -11.134765625 -11.6681640625 -10.3 -10.75 -9.2 -9.6 -7.65 -9.6
M 10.95 -9.6
Q 12.5 -9.6 13.5 -10.75 14.4181640625 -11.6681640625 14.55 -12.9
L 7.3 -12.9
Q 7.465234375 -11.6681640625 8.3 -10.75 9.4 -9.6 10.95 -9.6
M 3.9 -6.1
L 3.4 -8 -2.8 -6.6
Q -3.15 -5.65 -3.15 -4.6 -3.15 -4.4 -3.15 -4.2
L 3.9 -6.1 Z"/>

<path fill="#7F7058" stroke="none" d="
M 6.15 -8.55
Q 4.55 -10.2 2.3 -10.2 0.05 -10.2 -1.55 -8.55 -2.4 -7.7 -2.8 -6.6
L 3.4 -8 3.9 -6.1 7.2 -7.05
Q 6.8 -7.85 6.15 -8.55 Z"/>

<path fill="#7E8991" stroke="none" d="
M 15.75 -17.7
Q 15.45 -18.05 15 -18.1 11.45 -18.6 7.9 -20.35 7.55 -20.55 7.15 -20.35 6.8 -20.2 6.6 -19.8 6.4 -19.4 6.5 -19.1 6.7 -18.7 7.05 -18.5 10.95 -16.7 14.75 -16.15 15.25 -16 15.55 -16.3 15.8 -16.6 15.85 -16.95 15.95 -17.4 15.75 -17.7
M -3.6 -18.7
Q -3.25 -18.9 -3.15 -19.25 -3 -19.65 -3.2 -19.95 -3.4 -20.4 -3.75 -20.5 -4.15 -20.65 -4.5 -20.45 -8.05 -18.7 -11.55 -18.05 -12.05 -17.95 -12.25 -17.7 -12.55 -17.35 -12.4 -16.95 -12.35 -16.5 -12.05 -16.3 -11.7 -16 -11.25 -16.05 -7.5 -16.7 -3.6 -18.7 Z"/>
</g>

<g id="Symbol_16_0_Layer0_2_FILL">
<path fill="#28B162" stroke="none" d="
M -14.6 -10.5
Q -14.65 -10.6 -14.85 -10.6 -15 -10.65 -15.15 -10.55
L -15.8 -10.1
Q -15.9 -10.05 -15.95 -9.9 -15.95 -9.75 -15.9 -9.6
L -14.1 -5.75
Q -14.05 -5.7 -14.05 -5.65
L -11.45 -2.7
Q -11.35 -2.6 -11.15 -2.6 -11 -2.55 -10.85 -2.65
L -10.3 -3.05
Q -10.2 -3.15 -10.15 -3.3 -10.1 -3.45 -10.15 -3.6
L -11.85 -7.3
Q -11.85 -7.35 -11.9 -7.4
L -14.6 -10.5 Z"/>
</g>

<g id="Symbol_16_0_Layer0_3_FILL">
<path fill="#717B83" stroke="none" d="
M -7.7 -38.75
L -4.8 -35.85
Q 3.84609375 -41.0203125 14.15 -42.9 5.384765625 -44.227734375 -2.85 -41.85
L 0 -45.75
Q -9.221484375 -47.369921875 -14.9 -41.45
L -18.55 -37.75 -21.45 -39 -26.2 -27.9
Q -25.3431640625 -25.6625 -24.95 -23.6
L -7.7 -38.75
M -12.65 -25
L -10.2 -29.1 -15.7 -23.5 -14.3 -22.25 -12.65 -25
M 19.2 -11.3
L 19.55 -9.85
Q 27.615234375 -22.025390625 25.05 -37.1
L 19.7 -37.1
Q 23.43671875 -24.1875 19.2 -11.3
M 8.95 -19.85
L 16.45 -22.6 16.45 -22.6 8.35 -21.15 8.95 -19.85 Z"/>

<path fill="#000000" fill-opacity="0.10196078431372549" stroke="none" d="
M 1.7 -22.15
L 0 -26.85 -10.2 -29.1 -12.65 -25 1.7 -22.15 Z"/>

<path fill="#6B747B" stroke="none" d="
M 19.05 -41.85
Q 16.5802734375 -42.5087890625 14.15 -42.9 3.84609375 -41.0203125 -4.8 -35.85
L -7.7 -38.75 -24.95 -23.6
Q -24.0095703125 -19.15390625 -25.1 -15.5 -26.638671875 -10.1310546875 -21.45 -5.85
L -16.7 -13.85 -18.8 -20.35 -15.7 -23.5 -10.2 -29.1 0 -26.85 1.7 -22.15 2.45 -20.1 8.35 -21.15 16.45 -22.6 16.45 -22.6 19.2 -11.3
Q 23.43671875 -24.1875 19.7 -37.1
L 17.2 -37.1 19.05 -41.85 Z"/>
</g>

<g id="Symbol_11_0_Layer0_0_FILL">
<path fill="#E0C1A2" stroke="none" d="
M 9 11.05
L 9 7.65 -8.75 7.65 -8.75 11 -8.75 11.05 8.95 11.05 9 11.05 Z"/>

<path fill="#AA7E5C" stroke="none" d="
M 8.95 16
L 8.95 11.05 -8.75 11.05 -8.75 11
Q -10.55 11.9 -12 13.85
L -12 16 8.95 16 Z"/>

<path fill="#ECCFB1" stroke="none" d="
M 0.15 -7
L 0.1 -7
Q -3.6 -7 -6.15 -4.5 -8.75 -1.95 -8.75 1.7
L -8.75 7.65 9 7.65 9 1.7
Q 9 -1.95 6.45 -4.5 3.85 -7 0.15 -7 Z"/>
</g>

<g id="Symbol_10_0_Layer0_0_FILL">
<path fill="#FAFAFA" stroke="none" d="
M 1.25 -1.25
L 5.9 -14.45 -3.25 -14.05 1.25 -1.25 Z"/>

<path fill="#8E643A" stroke="none" d="
M 8.2 -21
L 5.9 -14.45 1.25 -1.25 8.45 -9.4 10.75 -12.05 13.2 -14.8 8.2 -21
M -3.25 -14.05
L -5.7 -21 -10.7 -14.8 1.25 -1.25 -3.25 -14.05
M -19 5.9
L -19 10 20 10 20 5.9 -19 5.9 Z"/>

<path fill="#25A65B" stroke="none" d="
M 5.9 -14.45
L 8.2 -21 -5.7 -21 -3.25 -14.05 5.9 -14.45 Z"/>

<path fill="#C48A51" stroke="none" d="
M 8.45 -9.4
L 1.25 -1.25 -10.7 -14.8 -5.7 -21 -19 -21 -19 5.9 20 5.9 20 -21 8.2 -21 13.2 -14.8 10.75 -12.05 16.2 -12.05 16.2 -9.4 8.45 -9.4 Z"/>

<path fill="#B17D49" stroke="none" d="
M 16.2 -12.05
L 10.75 -12.05 8.45 -9.4 16.2 -9.4 16.2 -12.05 Z"/>
</g>

<g id="Symbol_10_0_Layer0_1_FILL">
<path fill="#E05848" stroke="none" d="
M 8 -8.6
Q 7.8080078125 -7.678125 7.7 -6.65 6.961328125 -6.3359375 6.35 -5.75 5.774609375 -5.149609375 5.45 -4.45 4.4544921875 -4.3072265625 3.55 -4.1 1.25 -3.6 1.25 -2.9 1.25 -2.15 3.55 -1.65 4.455859375 -1.461328125 5.5 -1.35 5.7775390625 -0.6474609375 6.35 -0.1 6.9603515625 0.5103515625 7.65 0.8 7.805859375 1.845703125 8 2.7 8.5 5.1 9.25 5.1 9.95 5.1 10.45 2.7 10.66796875 1.8279296875 10.8 0.75 11.455859375 0.4677734375 12 -0.1 12.591015625 -0.641796875 12.9 -1.35 13.9671875 -1.4494140625 14.85 -1.65 17.25 -2.15 17.25 -2.9 17.25 -3.6 14.85 -4.1 13.9681640625 -4.3205078125 12.9 -4.45 12.5935546875 -5.1564453125 12 -5.75 11.4544921875 -6.2955078125 10.8 -6.6 10.6654296875 -7.66015625 10.45 -8.6 9.95 -10.9 9.25 -10.9 8.5 -10.9 8 -8.6 Z"/>
</g>

<g id="Symbol_10_0_Layer0_2_FILL">
<path fill="#E05848" stroke="none" d="
M 10.95 -0.65
Q 10.35 -0.6 9.85 -0.3 9.35 0 9.05 0.45 8.3 0.3 7.7 0.3 6.05 0.25 5.9 0.7 5.8 1.2 7.25 1.95 7.8 2.2 8.5 2.5 8.55 3 8.8 3.5 9.1 4 9.6 4.35 9.45 5.05 9.45 5.65 9.35 7.4 9.85 7.5 10.35 7.65 11.1 6.1 11.35 5.55 11.65 4.9 12.15 4.75 12.6 4.5 13.1 4.2 13.45 3.85 14.2 3.9 14.85 4 16.55 4.05 16.65 3.55 16.8 3.1 15.3 2.35 14.7 2 14 1.7 13.95 1.2 13.65 0.7 13.4 0.2 13 -0.05 13.1 -0.85 13.15 -1.5 13.2 -3.15 12.7 -3.3 12.2 -3.4 11.5 -1.95 11.2 -1.4 10.95 -0.65 Z"/>
</g>

<g id="Symbol_10_0_Layer0_3_FILL">
<path fill="#B17D49" stroke="none" d="
M 3.9 20
Q 3.95 19.85 3.9 19.7
L 2.2 16
Q 2.2 15.95 2.15 15.9
L -0.55 12.8
Q -0.6 12.7 -0.8 12.7 -0.95 12.65 -1.1 12.75
L -1.75 13.2
Q -1.85 13.25 -1.9 13.4 -1.9 13.55 -1.85 13.7
L -0.05 17.55
Q 0 17.6 0 17.65
L 2.6 20.6
Q 2.7 20.7 2.9 20.7 3.05 20.75 3.2 20.65
L 3.75 20.25
Q 3.85 20.15 3.9 20 Z"/>
</g>

<g id="Symbol_12_0_Layer0_0_FILL">
<path fill="#25A65B" stroke="none" d="
M -10.15 0.55
L -0.55 5.1 9.05 0.55 -10.15 0.55 Z"/>

<path fill="#2ECC71" stroke="none" d="
M 18.75 -24.65
Q 18.1 -29.1 13.65 -29.1
L -16.7 -29.1
Q -21.1 -29.1 -21.8 -24.55 -23.3 -14.25 -21.8 -3.95 -21.1 0.55 -16.7 0.55
L -10.15 0.55 9.05 0.55 13.65 0.55
Q 18.1 0.55 18.8 -4 20.35 -14.1 18.75 -24.65 Z"/>
</g>

<g id="Symbol_12_0_Layer0_1_FILL">
<path fill="#FFFFFF" stroke="none" d="
M -7.65 -9.6
Q -6.1 -9.6 -5.1 -10.75 -4.1818359375 -11.6681640625 -4.05 -12.9
L -11.3 -12.9
Q -11.134765625 -11.6681640625 -10.3 -10.75 -9.2 -9.6 -7.65 -9.6
M 10.95 -9.6
Q 12.5 -9.6 13.5 -10.75 14.4181640625 -11.6681640625 14.55 -12.9
L 7.3 -12.9
Q 7.465234375 -11.6681640625 8.3 -10.75 9.4 -9.6 10.95 -9.6 Z"/>

<path fill="#7E8991" stroke="none" d="
M -2.9 -17.65
Q -2.95 -18.1 -3.25 -18.35 -3.55 -18.65 -3.95 -18.6 -7.9 -18.25 -11.4 -19 -11.85 -19.1 -12.2 -18.9 -12.55 -18.7 -12.6 -18.25 -12.7 -17.85 -12.5 -17.5 -12.3 -17.15 -11.85 -17.05 -8.1 -16.25 -3.8 -16.6 -3.4 -16.65 -3.1 -16.95 -2.85 -17.25 -2.9 -17.65
M 15.15 -18.85
Q 14.8 -19.05 14.35 -18.95 10.85 -18.2 6.9 -18.55 6.5 -18.6 6.2 -18.3 5.9 -18.05 5.85 -17.6 5.8 -17.2 6.05 -16.9 6.35 -16.6 6.75 -16.55 11.05 -16.2 14.8 -17 15.25 -17.1 15.45 -17.45 15.65 -17.8 15.55 -18.2 15.5 -18.65 15.15 -18.85 Z"/>
</g>

<g id="Symbol_12_0_Layer0_1_MEMBER_0_FILL">
<path fill="#7F7058" stroke="none" d="
M 20.85 -1.2
Q 20.95 -1.6 20.8 -2
L 17.95 0 20.1 2.55 20.1 2.5
Q 20.4 2.2 20.45 1.75
L 20.85 -1.2 Z"/>

<path fill="#FFFFFF" stroke="none" d="
M 9 -1.6
Q 8.6 -1.2 8.6 -0.65 8.55 -0.1 8.85 0.35 9.2 0.8 9.75 0.95
L 18.6 3
Q 19 3.1 19.4 3 19.8 2.85 20.1 2.55
L 17.95 0 20.8 -2
Q 20.75 -2.05 20.75 -2.1 20.55 -2.55 20.1 -2.75 19.7 -3 19.25 -2.95
L 9.95 -2.05
Q 9.35 -2 9 -1.6 Z"/>
</g>

<g id="Symbol_12_0_Layer0_2_FILL">
<path fill="#28B162" stroke="none" d="
M -70.5 -63.55
Q -70.55 -63.25 -70.45 -63
L -67.15 -56.05
Q -67.1 -55.95 -67.05 -55.85
L -62.35 -50.55
Q -62.15 -50.3 -61.85 -50.3 -61.55 -50.25 -61.3 -50.4
L -60.3 -51.15
Q -60.1 -51.3 -60 -51.55 -59.95 -51.85 -60.05 -52.1
L -63.05 -58.85
Q -63.1 -58.9 -63.15 -59
L -68.05 -64.6
Q -68.2 -64.8 -68.5 -64.85 -68.8 -64.9 -69.05 -64.75
L -70.2 -63.95
Q -70.4 -63.8 -70.5 -63.55 Z"/>
</g>

<g id="Symbol_12_0_Layer0_3_FILL">
<path fill="#717B83" stroke="none" d="
M -12.65 -25
L -10.2 -29.1 -15.7 -23.5 -14.3 -22.25 -12.65 -25
M 16.45 -22.6
L 16.45 -22.6 8.35 -21.15 8.95 -19.85 16.45 -22.6
M 19.2 -11.3
L 19.55 -9.85
Q 27.615234375 -22.025390625 25.05 -37.1
L 19.7 -37.1
Q 23.43671875 -24.1875 19.2 -11.3
M -7.7 -38.75
L -4.8 -35.85
Q 3.84609375 -41.0203125 14.15 -42.9 5.384765625 -44.227734375 -2.85 -41.85
L 0 -45.75
Q -9.221484375 -47.369921875 -14.9 -41.45
L -18.55 -37.75 -21.45 -39 -26.2 -27.9
Q -25.3431640625 -25.6625 -24.95 -23.6
L -7.7 -38.75 Z"/>

<path fill="#000000" fill-opacity="0.10196078431372549" stroke="none" d="
M 1.7 -22.15
L 0 -26.85 -10.2 -29.1 -12.65 -25 1.7 -22.15 Z"/>

<path fill="#6B747B" stroke="none" d="
M 19.7 -37.1
L 17.2 -37.1 19.05 -41.85
Q 16.5802734375 -42.5087890625 14.15 -42.9 3.84609375 -41.0203125 -4.8 -35.85
L -7.7 -38.75 -24.95 -23.6
Q -24.0095703125 -19.15390625 -25.1 -15.5 -26.638671875 -10.1310546875 -21.45 -5.85
L -16.7 -13.85 -18.8 -20.35 -15.7 -23.5 -10.2 -29.1 0 -26.85 1.7 -22.15 2.45 -20.1 8.35 -21.15 16.45 -22.6 16.45 -22.6 19.2 -11.3
Q 23.43671875 -24.1875 19.7 -37.1 Z"/>
</g>

<g id="Symbol_15_0_Layer0_0_FILL">
<path fill="#25A65B" stroke="none" d="
M -10.15 0.55
L -0.55 5.1 9.05 0.55 -10.15 0.55 Z"/>

<path fill="#2ECC71" stroke="none" d="
M 18.75 -24.65
Q 18.1 -29.1 13.65 -29.1
L -16.7 -29.1
Q -21.1 -29.1 -21.8 -24.55 -23.3 -14.25 -21.8 -3.95 -21.1 0.55 -16.7 0.55
L -10.15 0.55 9.05 0.55 13.65 0.55
Q 18.1 0.55 18.8 -4 20.35 -14.1 18.75 -24.65 Z"/>
</g>

<g id="Symbol_15_0_Layer0_1_FILL">
<path fill="#FFFFFF" stroke="none" d="
M -7.65 -9.6
Q -6.1 -9.6 -5.1 -10.75 -4.1818359375 -11.6681640625 -4.05 -12.9
L -11.3 -12.9
Q -11.134765625 -11.6681640625 -10.3 -10.75 -9.2 -9.6 -7.65 -9.6
M 10.95 -9.6
Q 12.5 -9.6 13.5 -10.75 14.4181640625 -11.6681640625 14.55 -12.9
L 7.3 -12.9
Q 7.465234375 -11.6681640625 8.3 -10.75 9.4 -9.6 10.95 -9.6
M 0.15 -4.8
Q 1.7849609375 -4.7962890625 3.25 -5
L 3.25 -6.45 -3 -7.05
Q -3.1595703125 -6.926953125 -3.35 -6.8 -3.7 -6.55 -3.75 -6.15 -3.85 -5.75 -3.6 -5.4 -3.3966796875 -5.048046875 -3 -4.95 -2.56015625 -4.80625 0.15 -4.8 Z"/>

<path fill="#7F7058" stroke="none" d="
M 8.25 -7.4
Q 8.05 -7.75 7.65 -7.9 1.56015625 -9.8181640625 -3 -7.05
L 3.25 -6.45 3.25 -5
Q 4.2416015625 -5.1294921875 5.15 -5.35 7.446484375 -5.9021484375 7.8 -6.1 8.15 -6.25 8.3 -6.65 8.4 -7.05 8.25 -7.4 Z"/>

<path fill="#7E8991" stroke="none" d="
M -3.8 -16.6
Q -3.4 -16.65 -3.1 -16.95 -2.85 -17.25 -2.9 -17.65 -2.95 -18.1 -3.25 -18.35 -3.55 -18.65 -3.95 -18.6 -7.9 -18.25 -11.4 -19 -11.85 -19.1 -12.2 -18.9 -12.55 -18.7 -12.6 -18.25 -12.7 -17.85 -12.5 -17.5 -12.3 -17.15 -11.85 -17.05 -8.1 -16.25 -3.8 -16.6
M 15.15 -18.85
Q 14.8 -19.05 14.35 -18.95 10.85 -18.2 6.9 -18.55 6.5 -18.6 6.2 -18.3 5.9 -18.05 5.85 -17.6 5.8 -17.2 6.05 -16.9 6.35 -16.6 6.75 -16.55 11.05 -16.2 14.8 -17 15.25 -17.1 15.45 -17.45 15.65 -17.8 15.55 -18.2 15.5 -18.65 15.15 -18.85 Z"/>
</g>

<g id="Symbol_15_0_Layer0_2_FILL">
<path fill="#28B162" stroke="none" d="
M -14.6 -10.5
Q -14.65 -10.6 -14.85 -10.6 -15 -10.65 -15.15 -10.55
L -15.8 -10.1
Q -15.9 -10.05 -15.95 -9.9 -15.95 -9.75 -15.9 -9.6
L -14.1 -5.75
Q -14.05 -5.7 -14.05 -5.65
L -11.45 -2.7
Q -11.35 -2.6 -11.15 -2.6 -11 -2.55 -10.85 -2.65
L -10.3 -3.05
Q -10.2 -3.15 -10.15 -3.3 -10.1 -3.45 -10.15 -3.6
L -11.85 -7.3
Q -11.85 -7.35 -11.9 -7.4
L -14.6 -10.5 Z"/>
</g>

<g id="Symbol_15_0_Layer0_3_FILL">
<path fill="#717B83" stroke="none" d="
M -7.7 -38.75
L -4.8 -35.85
Q 3.84609375 -41.0203125 14.15 -42.9 5.384765625 -44.227734375 -2.85 -41.85
L 0 -45.75
Q -9.221484375 -47.369921875 -14.9 -41.45
L -18.55 -37.75 -21.45 -39 -26.2 -27.9
Q -25.3431640625 -25.6625 -24.95 -23.6
L -7.7 -38.75
M -12.65 -25
L -10.2 -29.1 -15.7 -23.5 -14.3 -22.25 -12.65 -25
M 19.2 -11.3
L 19.55 -9.85
Q 27.615234375 -22.025390625 25.05 -37.1
L 19.7 -37.1
Q 23.43671875 -24.1875 19.2 -11.3
M 8.95 -19.85
L 16.45 -22.6 16.45 -22.6 8.35 -21.15 8.95 -19.85 Z"/>

<path fill="#000000" fill-opacity="0.10196078431372549" stroke="none" d="
M 1.7 -22.15
L 0 -26.85 -10.2 -29.1 -12.65 -25 1.7 -22.15 Z"/>

<path fill="#6B747B" stroke="none" d="
M 19.05 -41.85
Q 16.5802734375 -42.5087890625 14.15 -42.9 3.84609375 -41.0203125 -4.8 -35.85
L -7.7 -38.75 -24.95 -23.6
Q -24.0095703125 -19.15390625 -25.1 -15.5 -26.638671875 -10.1310546875 -21.45 -5.85
L -16.7 -13.85 -18.8 -20.35 -15.7 -23.5 -10.2 -29.1 0 -26.85 1.7 -22.15 2.45 -20.1 8.35 -21.15 16.45 -22.6 16.45 -22.6 19.2 -11.3
Q 23.43671875 -24.1875 19.7 -37.1
L 17.2 -37.1 19.05 -41.85 Z"/>
</g>
</defs>

<g id="armLeft" transform="matrix( 0.86602783203125, 0.4999847412109375, 0.4110107421875, -1.1675262451171875, 539.45,57.15) ">
<g transform="matrix( 1, 0, 0, 1, 0,0) ">
<use xlink:href="#Symbol_8_0_Layer0_0_FILL"/>
</g>
</g>

<g id="handLeft" transform="matrix( -0.965911865234375, -0.2587890625, 0.2587890625, -0.9658966064453125, 540.95,23.6) ">
<g transform="matrix( 1, 0, 0, 1, 0,0) ">
<use xlink:href="#Symbol_9_0_Layer0_0_FILL"/>
</g>
</g>

<g id="armRight" transform="matrix( -0.6365509033203125, 0.7712249755859375, -0.5618133544921875, -0.463714599609375, 506.2,62.15) ">
<g transform="matrix( 1, 0, 0, 1, 0,0) ">
<use xlink:href="#Symbol_8_0_Layer0_0_FILL"/>
</g>
</g>

<g id="handRight" transform="matrix( 0.9999237060546875, 0.0097808837890625, 0.0097808837890625, -0.9999237060546875, 502.4,44.1) ">
<g transform="matrix( 1, 0, 0, 1, 0,0) ">
<use xlink:href="#Symbol_9_0_Layer0_0_FILL"/>
</g>
</g>

<g transform="matrix( 0.9870147705078125, 0.158935546875, 0, 1, 521.35,78.35) ">
<g transform="matrix( 1, 0, 0, 1, 0,0) ">
<use xlink:href="#Symbol_18_0_Layer0_0_FILL"/>
</g>

<g transform="matrix( 1, 0, 0, 1, 14.5,-14.35) ">
<use xlink:href="#Symbol_18_0_Layer0_1_FILL"/>
</g>

<g transform="matrix( -0.9871368408203125, -0.1598663330078125, -0.1598663330078125, 0.9871368408203125, -7.45,14.05) ">
<use xlink:href="#Symbol_18_0_Layer0_2_FILL"/>
</g>

<g transform="matrix( 0.5, -0.8660125732421875, 0.8660125732421875, 0.5, -488.55,663.6) ">
<use xlink:href="#Symbol_18_0_Layer0_3_FILL"/>
</g>
</g>

<g transform="matrix( 1, 0, 0, 1, 971,53.7) ">
<g transform="matrix( 1, 0, 0, 1, 0,0) ">
<use xlink:href="#Symbol_17_0_Layer0_0_FILL"/>
</g>

<g transform="matrix( 1, 0, 0, 1, 0,0) ">
<use xlink:href="#Symbol_17_0_Layer0_1_FILL"/>
</g>
</g>

<g transform="matrix( 1, 0, 0, 1, 850.6,53.65) ">
<g transform="matrix( 1, 0, 0, 1, 0,0) ">
<use xlink:href="#Symbol_16_0_Layer0_0_FILL"/>
</g>

<g transform="matrix( 1, 0, 0, 1, 0,0) ">
<use xlink:href="#Symbol_16_0_Layer0_1_FILL"/>
</g>

<g transform="matrix( 1, 0, 0, 1, 0,0) ">
<use xlink:href="#Symbol_16_0_Layer0_2_FILL"/>
</g>

<g transform="matrix( 1, 0, 0, 1, 0,0) ">
<use xlink:href="#Symbol_16_0_Layer0_3_FILL"/>
</g>
</g>

<g id="armRight_FL" transform="matrix( -0.9877471923828125, 0.2588043212890625, 0.1600341796875, 0.8716888427734375, 457.1,288.85) ">
<g transform="matrix( 1, 0, 0, 1, 0,0) ">
<use xlink:href="#Symbol_8_0_Layer0_0_FILL"/>
</g>
</g>

<g id="handRight_FL" transform="matrix( -0.9877471923828125, 0.2588043212890625, 0.177337646484375, 0.9659271240234375, 460.3,314) ">
<g transform="matrix( 1, 0, 0, 1, 0,0) ">
<use xlink:href="#Symbol_9_0_Layer0_0_FILL"/>
</g>
</g>

<g id="legLeft" transform="matrix( 1, 0, 0, 1, 21.25,313.85) ">
<g transform="matrix( 1, 0, 0, 1, 0,0) ">
<use xlink:href="#Symbol_11_0_Layer0_0_FILL"/>
</g>
</g>

<g id="legRight" transform="matrix( -1, 0, 0.12384033203125, 1, 41.4,313.85) ">
<g transform="matrix( 1, 0, 0, 1, 0,0) ">
<use xlink:href="#Symbol_11_0_Layer0_0_FILL"/>
</g>
</g>

<g id="body" transform="matrix( 0.9168853759765625, 0, 0.1072998046875, 1, 31.85,305.15) ">
<g transform="matrix( 1, 0, 0, 1, 0,0) ">
<use xlink:href="#Symbol_10_0_Layer0_0_FILL"/>
</g>

<g transform="matrix( 0.6724700927734375, 0.18017578125, -0.18017578125, 0.6724700927734375, 4.55,2.4) ">
<use xlink:href="#Symbol_10_0_Layer0_1_FILL"/>
</g>

<g transform="matrix( 0.829620361328125, -0.558319091796875, 0.558319091796875, 0.829620361328125, -21.5,-4.2) ">
<use xlink:href="#Symbol_10_0_Layer0_2_FILL"/>
</g>

<g transform="matrix( 1, 0, 0, 1, -4.5,-16.7) ">
<use xlink:href="#Symbol_10_0_Layer0_3_FILL"/>
</g>
</g>

<g id="armLeft_FL" transform="matrix( 1, 0, 0, 1, 10.9,290.25) ">
<g transform="matrix( 1, 0, 0, 1, 0,0) ">
<use xlink:href="#Symbol_8_0_Layer0_0_FILL"/>
</g>
</g>

<g id="handLeft_FL" transform="matrix( 1, 0, 0, 1, 12.2,316.85) ">
<g transform="matrix( 1, 0, 0, 1, 0,0) ">
<use xlink:href="#Symbol_9_0_Layer0_0_FILL"/>
</g>
</g>

<g id="armRight_FL_FL" transform="matrix( 0.6190185546875, -0.7853546142578125, 0.7853546142578125, 0.6190185546875, 47.35,289.55) ">
<g transform="matrix( 1, 0, 0, 1, 0,0) ">
<use xlink:href="#Symbol_8_0_Layer0_0_FILL"/>
</g>
</g>

<g id="handRight_FL_FL" transform="matrix( 0.4999847412109375, -0.8660125732421875, 0.8660125732421875, 0.4999847412109375, 68.4,303.6) ">
<g transform="matrix( 1, 0, 0, 1, 0,0) ">
<use xlink:href="#Symbol_9_0_Layer0_0_FILL"/>
</g>
</g>

<g id="head" transform="matrix( 1, 0, 0, 1, 31.75,286.15) ">
<g transform="matrix( 1, 0, 0, 1, 0,0) ">
<use xlink:href="#Symbol_12_0_Layer0_0_FILL"/>
</g>

<g transform="matrix( 1, 0, 0, 1, 0,0) ">
<use xlink:href="#Symbol_12_0_Layer0_1_FILL"/>
</g>

<g transform="matrix( 1, 0, 0, 1, -13.6,-5.7) ">
<use xlink:href="#Symbol_12_0_Layer0_1_MEMBER_0_FILL"/>
</g>

<g transform="matrix( 0.5523834228515625, 0, 0, 0.5523834228515625, 23,25.2) ">
<use xlink:href="#Symbol_12_0_Layer0_2_FILL"/>
</g>

<g transform="matrix( 1, 0, 0, 1, 0,0) ">
<use xlink:href="#Symbol_12_0_Layer0_3_FILL"/>
</g>
</g>

<g id="legLeft_FL" transform="matrix( 1, 0, 0, 1, 30.75,93.85) ">
<g transform="matrix( 1, 0, 0, 1, 0,0) ">
<use xlink:href="#Symbol_11_0_Layer0_0_FILL"/>
</g>
</g>

<g id="legRight_FL" transform="matrix( -1, 0, 0, 1, 51.9,93.85) ">
<g transform="matrix( 1, 0, 0, 1, 0,0) ">
<use xlink:href="#Symbol_11_0_Layer0_0_FILL"/>
</g>
</g>

<g id="body_FL" transform="matrix( 1, 0, 0, 1, 41.35,85.15) ">
<g transform="matrix( 1, 0, 0, 1, 0,0) ">
<use xlink:href="#Symbol_10_0_Layer0_0_FILL"/>
</g>

<g transform="matrix( 0.6724700927734375, 0.18017578125, -0.18017578125, 0.6724700927734375, 4.55,2.4) ">
<use xlink:href="#Symbol_10_0_Layer0_1_FILL"/>
</g>

<g transform="matrix( 0.829620361328125, -0.558319091796875, 0.558319091796875, 0.829620361328125, -21.5,-4.2) ">
<use xlink:href="#Symbol_10_0_Layer0_2_FILL"/>
</g>

<g transform="matrix( 1, 0, 0, 1, -4.5,-16.7) ">
<use xlink:href="#Symbol_10_0_Layer0_3_FILL"/>
</g>
</g>

<g id="armLeft_FL_FL" transform="matrix( 0.9659271240234375, 0.2588043212890625, -0.233551025390625, 0.8716888427734375, 23.55,70.35) ">
<g transform="matrix( 1, 0, 0, 1, 0,0) ">
<use xlink:href="#Symbol_8_0_Layer0_0_FILL"/>
</g>
</g>

<g id="handLeft_FL_FL" transform="matrix( 0.9659271240234375, 0.2588043212890625, -0.2588043212890625, 0.9659271240234375, 18.3,95.05) ">
<g transform="matrix( 1, 0, 0, 1, 0,0) ">
<use xlink:href="#Symbol_9_0_Layer0_0_FILL"/>
</g>
</g>

<g id="armRight_FL_FL_FL" transform="matrix( -0.9659271240234375, 0.2588043212890625, 0.233551025390625, 0.8716888427734375, 57.6,69.35) ">
<g transform="matrix( 1, 0, 0, 1, 0,0) ">
<use xlink:href="#Symbol_8_0_Layer0_0_FILL"/>
</g>
</g>

<g id="handRight_FL_FL_FL" transform="matrix( -0.9659271240234375, 0.2588043212890625, 0.2588043212890625, 0.9659271240234375, 62.9,94.5) ">
<g transform="matrix( 1, 0, 0, 1, 0,0) ">
<use xlink:href="#Symbol_9_0_Layer0_0_FILL"/>
</g>
</g>

<g id="head_FL" transform="matrix( 1, 0, 0, 1, 41.25,66.15) ">
<g transform="matrix( 1, 0, 0, 1, 0,0) ">
<use xlink:href="#Symbol_12_0_Layer0_0_FILL"/>
</g>

<g transform="matrix( 1, 0, 0, 1, 0,0) ">
<use xlink:href="#Symbol_12_0_Layer0_1_FILL"/>
</g>

<g transform="matrix( 1, 0, 0, 1, -13.6,-5.7) ">
<use xlink:href="#Symbol_12_0_Layer0_1_MEMBER_0_FILL"/>
</g>

<g transform="matrix( 0.5523834228515625, 0, 0, 0.5523834228515625, 23,25.2) ">
<use xlink:href="#Symbol_12_0_Layer0_2_FILL"/>
</g>

<g transform="matrix( 1, 0, 0, 1, 0,0) ">
<use xlink:href="#Symbol_12_0_Layer0_3_FILL"/>
</g>
</g>

<g id="legLeft_FL_FL" transform="matrix( -0.858612060546875, -0.499969482421875, -0.4956817626953125, 0.86602783203125, 114.15,89.5) ">
<g transform="matrix( 1, 0, 0, 1, 0,0) ">
<use xlink:href="#Symbol_11_0_Layer0_0_FILL"/>
</g>
</g>

<g id="armRight_FL_FL_FL_FL" transform="matrix( 0.773681640625, 0.6253204345703125, 0.619964599609375, -0.780364990234375, 139.2,63.85) ">
<g transform="matrix( 1, 0, 0, 1, 0,0) ">
<use xlink:href="#Symbol_8_0_Layer0_0_FILL"/>
</g>
</g>

<g id="body_FL_FL" transform="matrix( 0.991424560546875, 0, 0, 1, 122.85,80.25) ">
<g transform="matrix( 1, 0, 0, 1, 0,0) ">
<use xlink:href="#Symbol_10_0_Layer0_0_FILL"/>
</g>

<g transform="matrix( 0.6724700927734375, 0.18017578125, -0.18017578125, 0.6724700927734375, 4.55,2.4) ">
<use xlink:href="#Symbol_10_0_Layer0_1_FILL"/>
</g>

<g transform="matrix( 0.829620361328125, -0.558319091796875, 0.558319091796875, 0.829620361328125, -21.5,-4.2) ">
<use xlink:href="#Symbol_10_0_Layer0_2_FILL"/>
</g>

<g transform="matrix( 1, 0, 0, 1, -4.5,-16.7) ">
<use xlink:href="#Symbol_10_0_Layer0_3_FILL"/>
</g>
</g>

<g id="armLeft_FL_FL_FL" transform="matrix( 0.9059906005859375, 0.406097412109375, -0.402618408203125, 0.913818359375, 102.1,65.35) ">
<g transform="matrix( 1, 0, 0, 1, 0,0) ">
<use xlink:href="#Symbol_8_0_Layer0_0_FILL"/>
</g>
</g>

<g id="handLeft_FL_FL_FL" transform="matrix( 0.8837890625, 0.4531707763671875, -0.44927978515625, 0.89141845703125, 91.75,91.45) ">
<g transform="matrix( 1, 0, 0, 1, 0,0) ">
<use xlink:href="#Symbol_9_0_Layer0_0_FILL"/>
</g>
</g>

<g id="handRight_FL_FL_FL_FL" transform="matrix( -0.9189910888671875, -0.3751678466796875, 0.3719482421875, -0.92694091796875, 147.25,34.7) ">
<g transform="matrix( 1, 0, 0, 1, 0,0) ">
<use xlink:href="#Symbol_9_0_Layer0_0_FILL"/>
</g>
</g>

<g id="head_FL_FL" transform="matrix( 0.991424560546875, 0, 0, 1, 122.75,61.25) ">
<g transform="matrix( 1, 0, 0, 1, 0,0) ">
<use xlink:href="#Symbol_12_0_Layer0_0_FILL"/>
</g>

<g transform="matrix( 1, 0, 0, 1, 0,0) ">
<use xlink:href="#Symbol_12_0_Layer0_1_FILL"/>
</g>

<g transform="matrix( 1, 0, 0, 1, -13.6,-5.7) ">
<use xlink:href="#Symbol_12_0_Layer0_1_MEMBER_0_FILL"/>
</g>

<g transform="matrix( 0.5523834228515625, 0, 0, 0.5523834228515625, 23,25.2) ">
<use xlink:href="#Symbol_12_0_Layer0_2_FILL"/>
</g>

<g transform="matrix( 1, 0, 0, 1, 0,0) ">
<use xlink:href="#Symbol_12_0_Layer0_3_FILL"/>
</g>
</g>

<g id="legRight_FL_FL" transform="matrix( -0.9887542724609375, -0.1416015625, -0.256591796875, 0.9659271240234375, 135.5,83.5) ">
<g transform="matrix( 1, 0, 0, 1, 0,0) ">
<use xlink:href="#Symbol_11_0_Layer0_0_FILL"/>
</g>
</g>

<g id="legLeft_FL_FL_FL" transform="matrix( -0.9180755615234375, -0.4373779296875, -0.2588043212890625, 0.9659271240234375, 190.2,86.2) ">
<g transform="matrix( 1, 0, 0, 1, 0,0) ">
<use xlink:href="#Symbol_11_0_Layer0_0_FILL"/>
</g>
</g>

<g id="legRight_FL_FL_FL" transform="matrix( -1.0137786865234375, 0.080230712890625, 0.2588043212890625, 0.9659271240234375, 214.3,91.65) ">
<g transform="matrix( 1, 0, 0, 1, 0,0) ">
<use xlink:href="#Symbol_11_0_Layer0_0_FILL"/>
</g>
</g>

<g id="body_FL_FL_FL" transform="matrix( 1.00140380859375, 0.027069091796875, -0.08673095703125, 0.9962310791015625, 201,79.95) ">
<g transform="matrix( 1, 0, 0, 1, 0,0) ">
<use xlink:href="#Symbol_10_0_Layer0_0_FILL"/>
</g>

<g transform="matrix( 0.6724700927734375, 0.18017578125, -0.18017578125, 0.6724700927734375, 4.55,2.4) ">
<use xlink:href="#Symbol_10_0_Layer0_1_FILL"/>
</g>

<g transform="matrix( 0.829620361328125, -0.558319091796875, 0.558319091796875, 0.829620361328125, -21.5,-4.2) ">
<use xlink:href="#Symbol_10_0_Layer0_2_FILL"/>
</g>

<g transform="matrix( 1, 0, 0, 1, -4.5,-16.7) ">
<use xlink:href="#Symbol_10_0_Layer0_3_FILL"/>
</g>
</g>

<g id="armLeft_FL_FL_FL_FL" transform="matrix( 0.7071075439453125, 0.70709228515625, -0.70709228515625, 0.7071075439453125, 185.55,64.55) ">
<g transform="matrix( 1, 0, 0, 1, 0,0) ">
<use xlink:href="#Symbol_8_0_Layer0_0_FILL"/>
</g>
</g>

<g id="handLeft_FL_FL_FL_FL" transform="matrix( 0.86602783203125, 0.4999847412109375, -0.4999847412109375, 0.86602783203125, 169.9,83.55) ">
<g transform="matrix( 1, 0, 0, 1, 0,0) ">
<use xlink:href="#Symbol_9_0_Layer0_0_FILL"/>
</g>
</g>

<g id="armRight_FL_FL_FL_FL_FL" transform="matrix( -0.8660125732421875, 0.5, 0.5, 0.8660125732421875, 220.75,67.05) ">
<g transform="matrix( 1, 0, 0, 1, 0,0) ">
<use xlink:href="#Symbol_8_0_Layer0_0_FILL"/>
</g>
</g>

<g id="handRight_FL_FL_FL_FL_FL" transform="matrix( -0.9659271240234375, 0.2588043212890625, 0.2588043212890625, 0.9659271240234375, 231.05,89.7) ">
<g transform="matrix( 1, 0, 0, 1, 0,0) ">
<use xlink:href="#Symbol_9_0_Layer0_0_FILL"/>
</g>
</g>

<g id="legLeft_FL_FL_FL_FL" transform="matrix( 0.25885009765625, -0.9658966064453125, -0.9658966064453125, -0.2588348388671875, 270.8,101.15) ">
<g transform="matrix( 1, 0, 0, 1, 0,0) ">
<use xlink:href="#Symbol_11_0_Layer0_0_FILL"/>
</g>
</g>

<g id="body_FL_FL_FL_FL" transform="matrix( 0.9965667724609375, -0.0825958251953125, 0.0825958251953125, 0.9965667724609375, 281.35,92.6) ">
<g transform="matrix( 1, 0, 0, 1, 0,0) ">
<use xlink:href="#Symbol_10_0_Layer0_0_FILL"/>
</g>

<g transform="matrix( 0.6724700927734375, 0.18017578125, -0.18017578125, 0.6724700927734375, 4.55,2.4) ">
<use xlink:href="#Symbol_10_0_Layer0_1_FILL"/>
</g>

<g transform="matrix( 0.829620361328125, -0.558319091796875, 0.558319091796875, 0.829620361328125, -21.5,-4.2) ">
<use xlink:href="#Symbol_10_0_Layer0_2_FILL"/>
</g>

<g transform="matrix( 1, 0, 0, 1, -4.5,-16.7) ">
<use xlink:href="#Symbol_10_0_Layer0_3_FILL"/>
</g>
</g>

<g id="legRight_FL_FL_FL_FL" transform="matrix( -1, 0, 0, 1, 291.9,93.85) ">
<g transform="matrix( 1, 0, 0, 1, 0,0) ">
<use xlink:href="#Symbol_11_0_Layer0_0_FILL"/>
</g>
</g>

<g id="armLeft_FL_FL_FL_FL_FL" transform="matrix( 0.9351959228515625, 0.3541259765625, -0.3541259765625, 0.9351959228515625, 264.6,77) ">
<g transform="matrix( 1, 0, 0, 1, 0,0) ">
<use xlink:href="#Symbol_8_0_Layer0_0_FILL"/>
</g>
</g>

<g id="handLeft_FL_FL_FL_FL_FL" transform="matrix( 0.9351959228515625, 0.3541259765625, -0.3541259765625, 0.9351959228515625, 256.35,102.6) ">
<g transform="matrix( 1, 0, 0, 1, 0,0) ">
<use xlink:href="#Symbol_9_0_Layer0_0_FILL"/>
</g>
</g>

<g id="armRight_FL_FL_FL_FL_FL_FL" transform="matrix( -0.9659271240234375, 0.2588043212890625, 0.2588043212890625, 0.9659271240234375, 298.1,73.75) ">
<g transform="matrix( 1, 0, 0, 1, 0,0) ">
<use xlink:href="#Symbol_8_0_Layer0_0_FILL"/>
</g>
</g>

<g id="handRight_FL_FL_FL_FL_FL_FL" transform="matrix( -0.9659271240234375, -0.2588043212890625, -0.2588043212890625, 0.9659271240234375, 302.2,95.7) ">
<g transform="matrix( 1, 0, 0, 1, 0,0) ">
<use xlink:href="#Symbol_9_0_Layer0_0_FILL"/>
</g>
</g>

<g id="legLeft_FL_FL_FL_FL_FL" transform="matrix( 0.8660125732421875, 0.5000152587890625, -0.4088287353515625, 0.9186553955078125, 352.45,87.5) ">
<g transform="matrix( 1, 0, 0, 1, 0,0) ">
<use xlink:href="#Symbol_11_0_Layer0_0_FILL"/>
</g>
</g>

<g id="legRight_FL_FL_FL_FL_FL" transform="matrix( -0.8660125732421875, 0.4999847412109375, 0.7039794921875, 0.823089599609375, 370.1,86.5) ">
<g transform="matrix( 1, 0, 0, 1, 0,0) ">
<use xlink:href="#Symbol_11_0_Layer0_0_FILL"/>
</g>
</g>

<g id="body_FL_FL_FL_FL_FL" transform="matrix( 0.8311614990234375, -0.0647735595703125, 0, 1, 361.55,77.8) ">
<g transform="matrix( 1, 0, 0, 1, 0,0) ">
<use xlink:href="#Symbol_10_0_Layer0_0_FILL"/>
</g>

<g transform="matrix( 0.6724700927734375, 0.18017578125, -0.18017578125, 0.6724700927734375, 4.55,2.4) ">
<use xlink:href="#Symbol_10_0_Layer0_1_FILL"/>
</g>

<g transform="matrix( 0.829620361328125, -0.558319091796875, 0.558319091796875, 0.829620361328125, -21.5,-4.2) ">
<use xlink:href="#Symbol_10_0_Layer0_2_FILL"/>
</g>

<g transform="matrix( 1, 0, 0, 1, -4.5,-16.7) ">
<use xlink:href="#Symbol_10_0_Layer0_3_FILL"/>
</g>
</g>

<g id="armLeft_FL_FL_FL_FL_FL_FL" transform="matrix( 0.707122802734375, 0.70709228515625, -0.70709228515625, 0.707122802734375, 347.25,62.7) ">
<g transform="matrix( 1, 0, 0, 1, 0,0) ">
<use xlink:href="#Symbol_8_0_Layer0_0_FILL"/>
</g>
</g>

<g id="handLeft_FL_FL_FL_FL_FL_FL" transform="matrix( 0.707122802734375, 0.70709228515625, -0.70709228515625, 0.707122802734375, 328.65,83.3) ">
<g transform="matrix( 1, 0, 0, 1, 0,0) ">
<use xlink:href="#Symbol_9_0_Layer0_0_FILL"/>
</g>
</g>

<g id="armRight_FL_FL_FL_FL_FL_FL_FL" transform="matrix( -0.81951904296875, 0.5730438232421875, 0.5730438232421875, 0.81951904296875, 376.95,62.25) ">
<g transform="matrix( 1, 0, 0, 1, 0,0) ">
<use xlink:href="#Symbol_8_0_Layer0_0_FILL"/>
</g>
</g>

<g id="handRight_FL_FL_FL_FL_FL_FL_FL" transform="matrix( -0.707122802734375, 0.7070770263671875, 0.7070770263671875, 0.707122802734375, 392.05,84.1) ">
<g transform="matrix( 1, 0, 0, 1, 0,0) ">
<use xlink:href="#Symbol_9_0_Layer0_0_FILL"/>
</g>
</g>

<g id="legLeft_FL_FL_FL_FL_FL_FL" transform="matrix( -0.7071075439453125, -0.70709228515625, -0.70709228515625, 0.7071075439453125, 30.25,199.75) ">
<g transform="matrix( 1, 0, 0, 1, 0,0) ">
<use xlink:href="#Symbol_11_0_Layer0_0_FILL"/>
</g>
</g>

<g id="armRight_FL_FL_FL_FL_FL_FL_FL_FL" transform="matrix( -1, 0, 0, 1, 60.6,179.75) ">
<g transform="matrix( 1, 0, 0, 1, 0,0) ">
<use xlink:href="#Symbol_8_0_Layer0_0_FILL"/>
</g>
</g>

<g id="handRight_FL_FL_FL_FL_FL_FL_FL_FL" transform="matrix( 0.965911865234375, -0.258819580078125, 0.258819580078125, 0.965911865234375, 67.65,202.9) ">
<g transform="matrix( 1, 0, 0, 1, 0,0) ">
<use xlink:href="#Symbol_9_0_Layer0_0_FILL"/>
</g>
</g>

<g id="legRight_FL_FL_FL_FL_FL_FL" transform="matrix( -0.7071075439453125, 0.70709228515625, 0.70709228515625, 0.7071075439453125, 53.9,202.25) ">
<g transform="matrix( 1, 0, 0, 1, 0,0) ">
<use xlink:href="#Symbol_11_0_Layer0_0_FILL"/>
</g>
</g>

<g id="body_FL_FL_FL_FL_FL_FL" transform="matrix( 0.99761962890625, -0.0689544677734375, 0.0689544677734375, 0.99761962890625, 41.35,193.4) ">
<g transform="matrix( 1, 0, 0, 1, 0,0) ">
<use xlink:href="#Symbol_10_0_Layer0_0_FILL"/>
</g>

<g transform="matrix( 0.6724700927734375, 0.18017578125, -0.18017578125, 0.6724700927734375, 4.55,2.4) ">
<use xlink:href="#Symbol_10_0_Layer0_1_FILL"/>
</g>

<g transform="matrix( 0.829620361328125, -0.558319091796875, 0.558319091796875, 0.829620361328125, -21.5,-4.2) ">
<use xlink:href="#Symbol_10_0_Layer0_2_FILL"/>
</g>

<g transform="matrix( 1, 0, 0, 1, -4.5,-16.7) ">
<use xlink:href="#Symbol_10_0_Layer0_3_FILL"/>
</g>
</g>

<g id="armLeft_FL_FL_FL_FL_FL_FL_FL" transform="matrix( 0.86602783203125, 0.4999847412109375, -0.4999847412109375, 0.86602783203125, 22.9,179.75) ">
<g transform="matrix( 1, 0, 0, 1, 0,0) ">
<use xlink:href="#Symbol_8_0_Layer0_0_FILL"/>
</g>
</g>

<g id="handLeft_FL_FL_FL_FL_FL_FL_FL" transform="matrix( 0.707122802734375, 0.7070770263671875, -0.7070770263671875, 0.707122802734375, 10.2,200.9) ">
<g transform="matrix( 1, 0, 0, 1, 0,0) ">
<use xlink:href="#Symbol_9_0_Layer0_0_FILL"/>
</g>
</g>

<g id="head_FL_FL_FL" transform="matrix( 1, 0, 0, 1, 41.25,175.65) ">
<g transform="matrix( 1, 0, 0, 1, 0,0) ">
<use xlink:href="#Symbol_12_0_Layer0_0_FILL"/>
</g>

<g transform="matrix( 1, 0, 0, 1, 0,0) ">
<use xlink:href="#Symbol_12_0_Layer0_1_FILL"/>
</g>

<g transform="matrix( 1, 0, 0, 1, -13.6,-5.7) ">
<use xlink:href="#Symbol_12_0_Layer0_1_MEMBER_0_FILL"/>
</g>

<g transform="matrix( 0.5523834228515625, 0, 0, 0.5523834228515625, 23,25.2) ">
<use xlink:href="#Symbol_12_0_Layer0_2_FILL"/>
</g>

<g transform="matrix( 1, 0, 0, 1, 0,0) ">
<use xlink:href="#Symbol_12_0_Layer0_3_FILL"/>
</g>
</g>

<g id="legLeft_FL_FL_FL_FL_FL_FL_FL" transform="matrix( -0.8660125732421875, -0.5, -0.5, 0.8660125732421875, 116.5,198.85) ">
<g transform="matrix( 1, 0, 0, 1, 0,0) ">
<use xlink:href="#Symbol_11_0_Layer0_0_FILL"/>
</g>
</g>

<g id="armRight_FL_FL_FL_FL_FL_FL_FL_FL_FL" transform="matrix( -0.935211181640625, -0.3540802001953125, -0.3540802001953125, 0.935211181640625, 136.9,179.15) ">
<g transform="matrix( 1, 0, 0, 1, 0,0) ">
<use xlink:href="#Symbol_8_0_Layer0_0_FILL"/>
</g>
</g>

<g id="handRight_FL_FL_FL_FL_FL_FL_FL_FL_FL" transform="matrix( 0.9949798583984375, 0.0999603271484375, -0.0999603271484375, 0.9949798583984375, 135.3,203.3) ">
<g transform="matrix( 1, 0, 0, 1, 0,0) ">
<use xlink:href="#Symbol_9_0_Layer0_0_FILL"/>
</g>
</g>

<g id="legRight_FL_FL_FL_FL_FL_FL_FL" transform="matrix( -0.9999847412109375, 0, 0, 0.9999847412109375, 125.15,203.85) ">
<g transform="matrix( 1, 0, 0, 1, 0,0) ">
<use xlink:href="#Symbol_11_0_Layer0_0_FILL"/>
</g>
</g>

<g id="body_FL_FL_FL_FL_FL_FL_FL" transform="matrix( 0.9992218017578125, 0.0394287109375, -0.0394287109375, 0.9992218017578125, 121.1,192.5) ">
<g transform="matrix( 1, 0, 0, 1, 0,0) ">
<use xlink:href="#Symbol_10_0_Layer0_0_FILL"/>
</g>

<g transform="matrix( 0.6724700927734375, 0.18017578125, -0.18017578125, 0.6724700927734375, 4.55,2.4) ">
<use xlink:href="#Symbol_10_0_Layer0_1_FILL"/>
</g>

<g transform="matrix( 0.829620361328125, -0.558319091796875, 0.558319091796875, 0.829620361328125, -21.5,-4.2) ">
<use xlink:href="#Symbol_10_0_Layer0_2_FILL"/>
</g>

<g transform="matrix( 1, 0, 0, 1, -4.5,-16.7) ">
<use xlink:href="#Symbol_10_0_Layer0_3_FILL"/>
</g>
</g>

<g id="armLeft_FL_FL_FL_FL_FL_FL_FL_FL" transform="matrix( 0.9861297607421875, 0.16595458984375, -0.16595458984375, 0.9861297607421875, 106.1,176.7) ">
<g transform="matrix( 1, 0, 0, 1, 0,0) ">
<use xlink:href="#Symbol_8_0_Layer0_0_FILL"/>
</g>
</g>

<g id="handLeft_FL_FL_FL_FL_FL_FL_FL_FL" transform="matrix( 0.9741668701171875, 0.22576904296875, -0.22576904296875, 0.9741668701171875, 102.5,202.1) ">
<g transform="matrix( 1, 0, 0, 1, 0,0) ">
<use xlink:href="#Symbol_9_0_Layer0_0_FILL"/>
</g>
</g>

<g id="head_FL_FL_FL_FL" transform="matrix( 1, 0, 0, 1, 125,174.75) ">
<g transform="matrix( 1, 0, 0, 1, 0,0) ">
<use xlink:href="#Symbol_12_0_Layer0_0_FILL"/>
</g>

<g transform="matrix( 1, 0, 0, 1, 0,0) ">
<use xlink:href="#Symbol_12_0_Layer0_1_FILL"/>
</g>

<g transform="matrix( 1, 0, 0, 1, -13.6,-5.7) ">
<use xlink:href="#Symbol_12_0_Layer0_1_MEMBER_0_FILL"/>
</g>

<g transform="matrix( 0.5523834228515625, 0, 0, 0.5523834228515625, 23,25.2) ">
<use xlink:href="#Symbol_12_0_Layer0_2_FILL"/>
</g>

<g transform="matrix( 1, 0, 0, 1, 0,0) ">
<use xlink:href="#Symbol_12_0_Layer0_3_FILL"/>
</g>
</g>

<g id="legLeft_FL_FL_FL_FL_FL_FL_FL_FL" transform="matrix( 1, 0, 0, 1, 181.25,203.85) ">
<g transform="matrix( 1, 0, 0, 1, 0,0) ">
<use xlink:href="#Symbol_11_0_Layer0_0_FILL"/>
</g>
</g>

<g id="legRight_FL_FL_FL_FL_FL_FL_FL_FL" transform="matrix( -1, 0, 0, 1, 202.4,203.85) ">
<g transform="matrix( 1, 0, 0, 1, 0,0) ">
<use xlink:href="#Symbol_11_0_Layer0_0_FILL"/>
</g>
</g>

<g id="body_FL_FL_FL_FL_FL_FL_FL_FL" transform="matrix( 1, 0, 0, 1, 191.85,195.15) ">
<g transform="matrix( 1, 0, 0, 1, 0,0) ">
<use xlink:href="#Symbol_10_0_Layer0_0_FILL"/>
</g>

<g transform="matrix( 0.6724700927734375, 0.18017578125, -0.18017578125, 0.6724700927734375, 4.55,2.4) ">
<use xlink:href="#Symbol_10_0_Layer0_1_FILL"/>
</g>

<g transform="matrix( 0.829620361328125, -0.558319091796875, 0.558319091796875, 0.829620361328125, -21.5,-4.2) ">
<use xlink:href="#Symbol_10_0_Layer0_2_FILL"/>
</g>

<g transform="matrix( 1, 0, 0, 1, -4.5,-16.7) ">
<use xlink:href="#Symbol_10_0_Layer0_3_FILL"/>
</g>
</g>

<g id="armLeft_FL_FL_FL_FL_FL_FL_FL_FL_FL" transform="matrix( 1, 0, 0, 1, 170.9,180.25) ">
<g transform="matrix( 1, 0, 0, 1, 0,0) ">
<use xlink:href="#Symbol_8_0_Layer0_0_FILL"/>
</g>
</g>

<g id="handLeft_FL_FL_FL_FL_FL_FL_FL_FL_FL" transform="matrix( 1, 0, 0, 1, 172.1,206.6) ">
<g transform="matrix( 1, 0, 0, 1, 0,0) ">
<use xlink:href="#Symbol_9_0_Layer0_0_FILL"/>
</g>
</g>

<g id="armRight_FL_FL_FL_FL_FL_FL_FL_FL_FL_FL" transform="matrix( -0.220489501953125, 0.9753875732421875, 0.9753875732421875, 0.220489501953125, 205.1,179.75) ">
<g transform="matrix( 1, 0, 0, 1, 0,0) ">
<use xlink:href="#Symbol_8_0_Layer0_0_FILL"/>
</g>
</g>

<g id="handRight_FL_FL_FL_FL_FL_FL_FL_FL_FL_FL" transform="matrix( 0.258819580078125, -0.965911865234375, 0.965911865234375, 0.258819580078125, 232.25,178.05) ">
<g transform="matrix( 1, 0, 0, 1, 0,0) ">
<use xlink:href="#Symbol_9_0_Layer0_0_FILL"/>
</g>
</g>

<g id="legLeft_FL_FL_FL_FL_FL_FL_FL_FL_FL" transform="matrix( 1, 0, 0, 1, 341.9,203.85) ">
<g transform="matrix( 1, 0, 0, 1, 0,0) ">
<use xlink:href="#Symbol_11_0_Layer0_0_FILL"/>
</g>
</g>

<g id="legRight_FL_FL_FL_FL_FL_FL_FL_FL_FL" transform="matrix( -0.6073760986328125, 0.7933807373046875, 0.8723297119140625, 0.506927490234375, 364.05,200.35) ">
<g transform="matrix( 1, 0, 0, 1, 0,0) ">
<use xlink:href="#Symbol_11_0_Layer0_0_FILL"/>
</g>
</g>

<g id="body_FL_FL_FL_FL_FL_FL_FL_FL_FL" transform="matrix( 0.8892822265625, -0.1226348876953125, 0.0825958251953125, 0.9965667724609375, 351,193.55) ">
<g transform="matrix( 1, 0, 0, 1, 0,0) ">
<use xlink:href="#Symbol_10_0_Layer0_0_FILL"/>
</g>

<g transform="matrix( 0.6724700927734375, 0.18017578125, -0.18017578125, 0.6724700927734375, 4.55,2.4) ">
<use xlink:href="#Symbol_10_0_Layer0_1_FILL"/>
</g>

<g transform="matrix( 0.829620361328125, -0.558319091796875, 0.558319091796875, 0.829620361328125, -21.5,-4.2) ">
<use xlink:href="#Symbol_10_0_Layer0_2_FILL"/>
</g>

<g transform="matrix( 1, 0, 0, 1, -4.5,-16.7) ">
<use xlink:href="#Symbol_10_0_Layer0_3_FILL"/>
</g>
</g>

<g id="armLeft_FL_FL_FL_FL_FL_FL_FL_FL_FL_FL" transform="matrix( 0.9965667724609375, -0.0825958251953125, 0.0825958251953125, 0.9965667724609375, 329.9,180.45) ">
<g transform="matrix( 1, 0, 0, 1, 0,0) ">
<use xlink:href="#Symbol_8_0_Layer0_0_FILL"/>
</g>
</g>

<g id="handLeft_FL_FL_FL_FL_FL_FL_FL_FL_FL_FL" transform="matrix( 0.9965667724609375, -0.0825958251953125, 0.0825958251953125, 0.9965667724609375, 333.1,206.05) ">
<g transform="matrix( 1, 0, 0, 1, 0,0) ">
<use xlink:href="#Symbol_9_0_Layer0_0_FILL"/>
</g>
</g>

<g id="armRight_FL_FL_FL_FL_FL_FL_FL_FL_FL_FL_FL" transform="matrix( 0.6817626953125, 0.731536865234375, 0.731536865234375, -0.6817626953125, 363.6,169.95) ">
<g transform="matrix( 1, 0, 0, 1, 0,0) ">
<use xlink:href="#Symbol_8_0_Layer0_0_FILL"/>
</g>
</g>

<g id="handRight_FL_FL_FL_FL_FL_FL_FL_FL_FL_FL_FL" transform="matrix( 0.904327392578125, 0.4267425537109375, 0.4267425537109375, -0.904327392578125, 382.45,150.35) ">
<g transform="matrix( 1, 0, 0, 1, 0,0) ">
<use xlink:href="#Symbol_9_0_Layer0_0_FILL"/>
</g>
</g>

<g id="head_FL_FL_FL_FL_FL" transform="matrix( 0.9965667724609375, -0.0825958251953125, 0.0825958251953125, 0.9965667724609375, 350.3,174.6) ">
<g transform="matrix( 1, 0, 0, 1, 0,0) ">
<use xlink:href="#Symbol_12_0_Layer0_0_FILL"/>
</g>

<g transform="matrix( 1, 0, 0, 1, 0,0) ">
<use xlink:href="#Symbol_12_0_Layer0_1_FILL"/>
</g>

<g transform="matrix( 1, 0, 0, 1, -13.6,-5.7) ">
<use xlink:href="#Symbol_12_0_Layer0_1_MEMBER_0_FILL"/>
</g>

<g transform="matrix( 0.5523834228515625, 0, 0, 0.5523834228515625, 23,25.2) ">
<use xlink:href="#Symbol_12_0_Layer0_2_FILL"/>
</g>

<g transform="matrix( 1, 0, 0, 1, 0,0) ">
<use xlink:href="#Symbol_12_0_Layer0_3_FILL"/>
</g>
</g>

<g id="legLeft_FL_FL_FL_FL_FL_FL_FL_FL_FL_FL" transform="matrix( 0.86602783203125, 0.4999847412109375, -0.4999847412109375, 0.86602783203125, 421.3,201.35) ">
<g transform="matrix( 1, 0, 0, 1, 0,0) ">
<use xlink:href="#Symbol_11_0_Layer0_0_FILL"/>
</g>
</g>

<g id="legRight_FL_FL_FL_FL_FL_FL_FL_FL_FL_FL" transform="matrix( -1, 0, 0, 1, 439.2,203.85) ">
<g transform="matrix( 1, 0, 0, 1, 0,0) ">
<use xlink:href="#Symbol_11_0_Layer0_0_FILL"/>
</g>
</g>

<g id="body_FL_FL_FL_FL_FL_FL_FL_FL_FL_FL" transform="matrix( 0.91351318359375, 0.183197021484375, -0.1000213623046875, 0.994964599609375, 431.2,193.7) ">
<g transform="matrix( 1, 0, 0, 1, 0,0) ">
<use xlink:href="#Symbol_10_0_Layer0_0_FILL"/>
</g>

<g transform="matrix( 0.6724700927734375, 0.18017578125, -0.18017578125, 0.6724700927734375, 4.55,2.4) ">
<use xlink:href="#Symbol_10_0_Layer0_1_FILL"/>
</g>

<g transform="matrix( 0.829620361328125, -0.558319091796875, 0.558319091796875, 0.829620361328125, -21.5,-4.2) ">
<use xlink:href="#Symbol_10_0_Layer0_2_FILL"/>
</g>

<g transform="matrix( 1, 0, 0, 1, -4.5,-16.7) ">
<use xlink:href="#Symbol_10_0_Layer0_3_FILL"/>
</g>
</g>

<g id="armLeft_FL_FL_FL_FL_FL_FL_FL_FL_FL_FL_FL" transform="matrix( 0.994964599609375, 0.1000213623046875, -0.1000213623046875, 0.994964599609375, 411.85,176.75) ">
<g transform="matrix( 1, 0, 0, 1, 0,0) ">
<use xlink:href="#Symbol_8_0_Layer0_0_FILL"/>
</g>
</g>

<g id="handLeft_FL_FL_FL_FL_FL_FL_FL_FL_FL_FL_FL" transform="matrix( 0.994964599609375, 0.1000213623046875, -0.1000213623046875, 0.994964599609375, 410.3,204.4) ">
<g transform="matrix( 1, 0, 0, 1, 0,0) ">
<use xlink:href="#Symbol_9_0_Layer0_0_FILL"/>
</g>
</g>

<g id="armRight_FL_FL_FL_FL_FL_FL_FL_FL_FL_FL_FL_FL" transform="matrix( -0.402496337890625, 0.915374755859375, 0.915374755859375, 0.402496337890625, 445.1,177.4) ">
<g transform="matrix( 1, 0, 0, 1, 0,0) ">
<use xlink:href="#Symbol_8_0_Layer0_0_FILL"/>
</g>
</g>

<g id="handRight_FL_FL_FL_FL_FL_FL_FL_FL_FL_FL_FL_FL" transform="matrix( 0.361968994140625, 0.9321136474609375, 0.9321136474609375, -0.361968994140625, 472.35,183.95) ">
<g transform="matrix( 1, 0, 0, 1, 0,0) ">
<use xlink:href="#Symbol_9_0_Layer0_0_FILL"/>
</g>
</g>

<g transform="matrix( 0.9901885986328125, 0.1395721435546875, -0.1395721435546875, 0.9901885986328125, 433.45,176.4) ">
<g transform="matrix( 1, 0, 0, 1, 0,0) ">
<use xlink:href="#Symbol_15_0_Layer0_0_FILL"/>
</g>

<g transform="matrix( 1, 0, 0, 1, 0,0) ">
<use xlink:href="#Symbol_15_0_Layer0_1_FILL"/>
</g>

<g transform="matrix( 1, 0, 0, 1, 0,0) ">
<use xlink:href="#Symbol_15_0_Layer0_2_FILL"/>
</g>

<g transform="matrix( 1, 0, 0, 1, 0,0) ">
<use xlink:href="#Symbol_15_0_Layer0_3_FILL"/>
</g>
</g>

<g id="legLeft_FL_FL_FL_FL_FL_FL_FL_FL_FL_FL_FL" transform="matrix( 1, 0, 0, 1, 507.4,203.85) ">
<g transform="matrix( 1, 0, 0, 1, 0,0) ">
<use xlink:href="#Symbol_11_0_Layer0_0_FILL"/>
</g>
</g>

<g id="armRight_FL_FL_FL_FL_FL_FL_FL_FL_FL_FL_FL_FL_FL" transform="matrix( -0.9482879638671875, 0.3173675537109375, 0.3173675537109375, 0.9482879638671875, 526.4,172.3) ">
<g transform="matrix( 1, 0, 0, 1, 0,0) ">
<use xlink:href="#Symbol_8_0_Layer0_0_FILL"/>
</g>
</g>

<g id="handRight_FL_FL_FL_FL_FL_FL_FL_FL_FL_FL_FL_FL_FL" transform="matrix( -0.9482879638671875, 0.3173675537109375, 0.3173675537109375, 0.9482879638671875, 533.4,197) ">
<g transform="matrix( 1, 0, 0, 1, 0,0) ">
<use xlink:href="#Symbol_9_0_Layer0_0_FILL"/>
</g>
</g>

<g id="legRight_FL_FL_FL_FL_FL_FL_FL_FL_FL_FL_FL" transform="matrix( -0.6176605224609375, 0.83392333984375, 0.997589111328125, 0.272064208984375, 535.05,196.35) ">
<g transform="matrix( 1, 0, 0, 1, 0,0) ">
<use xlink:href="#Symbol_11_0_Layer0_0_FILL"/>
</g>
</g>

<g id="body_FL_FL_FL_FL_FL_FL_FL_FL_FL_FL_FL" transform="matrix( 0.899658203125, -0.180694580078125, 0.11248779296875, 0.9936370849609375, 515.8,192.35) ">
<g transform="matrix( 1, 0, 0, 1, 0,0) ">
<use xlink:href="#Symbol_10_0_Layer0_0_FILL"/>
</g>

<g transform="matrix( 0.6724700927734375, 0.18017578125, -0.18017578125, 0.6724700927734375, 4.55,2.4) ">
<use xlink:href="#Symbol_10_0_Layer0_1_FILL"/>
</g>

<g transform="matrix( 0.829620361328125, -0.558319091796875, 0.558319091796875, 0.829620361328125, -21.5,-4.2) ">
<use xlink:href="#Symbol_10_0_Layer0_2_FILL"/>
</g>

<g transform="matrix( 1, 0, 0, 1, -4.5,-16.7) ">
<use xlink:href="#Symbol_10_0_Layer0_3_FILL"/>
</g>
</g>

<g id="armLeft_FL_FL_FL_FL_FL_FL_FL_FL_FL_FL_FL_FL" transform="matrix( 0.9702606201171875, 0.2420196533203125, -0.2420196533203125, 0.9702606201171875, 496.75,177.45) ">
<g transform="matrix( 1, 0, 0, 1, 0,0) ">
<use xlink:href="#Symbol_8_0_Layer0_0_FILL"/>
</g>
</g>

<g id="handLeft_FL_FL_FL_FL_FL_FL_FL_FL_FL_FL_FL_FL" transform="matrix( 0.9889068603515625, 0.14849853515625, -0.14849853515625, 0.9889068603515625, 492.05,203.8) ">
<g transform="matrix( 1, 0, 0, 1, 0,0) ">
<use xlink:href="#Symbol_9_0_Layer0_0_FILL"/>
</g>
</g>

<g id="legLeft_FL_FL_FL_FL_FL_FL_FL_FL_FL_FL_FL_FL" transform="matrix( 1, 0, 0, 1, 590.8,93.85) ">
<g transform="matrix( 1, 0, 0, 1, 0,0) ">
<use xlink:href="#Symbol_11_0_Layer0_0_FILL"/>
</g>
</g>

<g id="legRight_FL_FL_FL_FL_FL_FL_FL_FL_FL_FL_FL_FL" transform="matrix( -1, 0, 0, 1, 611.95,93.85) ">
<g transform="matrix( 1, 0, 0, 1, 0,0) ">
<use xlink:href="#Symbol_11_0_Layer0_0_FILL"/>
</g>
</g>

<g id="body_FL_FL_FL_FL_FL_FL_FL_FL_FL_FL_FL_FL" transform="matrix( 1, 0, 0, 1, 601.4,85.15) ">
<g transform="matrix( 1, 0, 0, 1, 0,0) ">
<use xlink:href="#Symbol_10_0_Layer0_0_FILL"/>
</g>

<g transform="matrix( 0.6724700927734375, 0.18017578125, -0.18017578125, 0.6724700927734375, 4.55,2.4) ">
<use xlink:href="#Symbol_10_0_Layer0_1_FILL"/>
</g>

<g transform="matrix( 0.829620361328125, -0.558319091796875, 0.558319091796875, 0.829620361328125, -21.5,-4.2) ">
<use xlink:href="#Symbol_10_0_Layer0_2_FILL"/>
</g>

<g transform="matrix( 1, 0, 0, 1, -4.5,-16.7) ">
<use xlink:href="#Symbol_10_0_Layer0_3_FILL"/>
</g>
</g>

<g id="armLeft_FL_FL_FL_FL_FL_FL_FL_FL_FL_FL_FL_FL_FL" transform="matrix( 0.829071044921875, -0.5591278076171875, -0.5591278076171875, -0.829071044921875, 584.05,66.6) ">
<g transform="matrix( 1, 0, 0, 1, 0,0) ">
<use xlink:href="#Symbol_8_0_Layer0_0_FILL"/>
</g>
</g>

<g id="handLeft_FL_FL_FL_FL_FL_FL_FL_FL_FL_FL_FL_FL_FL" transform="matrix( 0.829071044921875, -0.5591278076171875, -0.5591278076171875, -0.829071044921875, 570.3,43.65) ">
<g transform="matrix( 1, 0, 0, 1, 0,0) ">
<use xlink:href="#Symbol_9_0_Layer0_0_FILL"/>
</g>
</g>

<g id="armRight_FL_FL_FL_FL_FL_FL_FL_FL_FL_FL_FL_FL_FL_FL" transform="matrix( -0.871307373046875, -0.4907073974609375, 0.4907073974609375, -0.871307373046875, 617.75,67.2) ">
<g transform="matrix( 1, 0, 0, 1, 0,0) ">
<use xlink:href="#Symbol_8_0_Layer0_0_FILL"/>
</g>
</g>

<g id="handRight_FL_FL_FL_FL_FL_FL_FL_FL_FL_FL_FL_FL_FL_FL" transform="matrix( -0.871307373046875, -0.4907073974609375, 0.4907073974609375, -0.871307373046875, 629.7,43.2) ">
<g transform="matrix( 1, 0, 0, 1, 0,0) ">
<use xlink:href="#Symbol_9_0_Layer0_0_FILL"/>
</g>
</g>

<g id="head_FL_FL_FL_FL_FL_FL" transform="matrix( 0.9978790283203125, -0.065093994140625, 0.065093994140625, 0.9978790283203125, 601.3,66.15) ">
<g transform="matrix( 1, 0, 0, 1, 0,0) ">
<use xlink:href="#Symbol_12_0_Layer0_0_FILL"/>
</g>

<g transform="matrix( 1, 0, 0, 1, 0,0) ">
<use xlink:href="#Symbol_12_0_Layer0_1_FILL"/>
</g>

<g transform="matrix( 1, 0, 0, 1, -13.6,-5.7) ">
<use xlink:href="#Symbol_12_0_Layer0_1_MEMBER_0_FILL"/>
</g>

<g transform="matrix( 0.5523834228515625, 0, 0, 0.5523834228515625, 23,25.2) ">
<use xlink:href="#Symbol_12_0_Layer0_2_FILL"/>
</g>

<g transform="matrix( 1, 0, 0, 1, 0,0) ">
<use xlink:href="#Symbol_12_0_Layer0_3_FILL"/>
</g>
</g>

<g id="legLeft_FL_FL_FL_FL_FL_FL_FL_FL_FL_FL_FL_FL_FL" transform="matrix( -0.939910888671875, -0.3414154052734375, -0.3414154052734375, 0.939910888671875, 591.05,196.85) ">
<g transform="matrix( 1, 0, 0, 1, 0,0) ">
<use xlink:href="#Symbol_11_0_Layer0_0_FILL"/>
</g>
</g>

<g id="legRight_FL_FL_FL_FL_FL_FL_FL_FL_FL_FL_FL_FL_FL" transform="matrix( -0.9890594482421875, 0.1475067138671875, 0.1475067138671875, 0.9890594482421875, 611.05,196.8) ">
<g transform="matrix( 1, 0, 0, 1, 0,0) ">
<use xlink:href="#Symbol_11_0_Layer0_0_FILL"/>
</g>
</g>

<g id="body_FL_FL_FL_FL_FL_FL_FL_FL_FL_FL_FL_FL_FL" transform="matrix( 0.8961029052734375, 0, 0, 1, 600.65,189.15) ">
<g transform="matrix( 1, 0, 0, 1, 0,0) ">
<use xlink:href="#Symbol_10_0_Layer0_0_FILL"/>
</g>

<g transform="matrix( 0.6724700927734375, 0.18017578125, -0.18017578125, 0.6724700927734375, 4.55,2.4) ">
<use xlink:href="#Symbol_10_0_Layer0_1_FILL"/>
</g>

<g transform="matrix( 0.829620361328125, -0.558319091796875, 0.558319091796875, 0.829620361328125, -21.5,-4.2) ">
<use xlink:href="#Symbol_10_0_Layer0_2_FILL"/>
</g>

<g transform="matrix( 1, 0, 0, 1, -4.5,-16.7) ">
<use xlink:href="#Symbol_10_0_Layer0_3_FILL"/>
</g>
</g>

<g id="armLeft_FL_FL_FL_FL_FL_FL_FL_FL_FL_FL_FL_FL_FL_FL" transform="matrix( 0.646881103515625, 0.7625885009765625, -0.7625885009765625, 0.646881103515625, 585.35,174.55) ">
<g transform="matrix( 1, 0, 0, 1, 0,0) ">
<use xlink:href="#Symbol_8_0_Layer0_0_FILL"/>
</g>
</g>

<g id="handLeft_FL_FL_FL_FL_FL_FL_FL_FL_FL_FL_FL_FL_FL_FL" transform="matrix( 0.25885009765625, 0.9658966064453125, -0.9658966064453125, 0.25885009765625, 567.4,189.6) ">
<g transform="matrix( 1, 0, 0, 1, 0,0) ">
<use xlink:href="#Symbol_9_0_Layer0_0_FILL"/>
</g>
</g>

<g id="armRight_FL_FL_FL_FL_FL_FL_FL_FL_FL_FL_FL_FL_FL_FL_FL" transform="matrix( -0.62646484375, 0.779449462890625, 0.779449462890625, 0.62646484375, 613.65,173.3) ">
<g transform="matrix( 1, 0, 0, 1, 0,0) ">
<use xlink:href="#Symbol_8_0_Layer0_0_FILL"/>
</g>
</g>

<g id="handRight_FL_FL_FL_FL_FL_FL_FL_FL_FL_FL_FL_FL_FL_FL_FL" transform="matrix( -0.42279052734375, 0.9062042236328125, 0.9062042236328125, 0.42279052734375, 632.05,187.75) ">
<g transform="matrix( 1, 0, 0, 1, 0,0) ">
<use xlink:href="#Symbol_9_0_Layer0_0_FILL"/>
</g>
</g>

<g id="legLeft_FL_FL_FL_FL_FL_FL_FL_FL_FL_FL_FL_FL_FL_FL" transform="matrix( -0.52630615234375, -0.8502655029296875, -0.8502655029296875, 0.52630615234375, 126,311.3) ">
<g transform="matrix( 1, 0, 0, 1, 0,0) ">
<use xlink:href="#Symbol_11_0_Layer0_0_FILL"/>
</g>
</g>

<g id="legRight_FL_FL_FL_FL_FL_FL_FL_FL_FL_FL_FL_FL_FL_FL" transform="matrix( -0.70709228515625, 0.70709228515625, 0.70709228515625, 0.7071075439453125, 139.05,300.75) ">
<g transform="matrix( 1, 0, 0, 1, 0,0) ">
<use xlink:href="#Symbol_11_0_Layer0_0_FILL"/>
</g>
</g>

<g id="armRight_FL_FL_FL_FL_FL_FL_FL_FL_FL_FL_FL_FL_FL_FL_FL_FL" transform="matrix( 0.168670654296875, 0.9856719970703125, 0.9856719970703125, -0.168670654296875, 125.55,284.35) ">
<g transform="matrix( 1, 0, 0, 1, 0,0) ">
<use xlink:href="#Symbol_8_0_Layer0_0_FILL"/>
</g>
</g>

<g id="handRight_FL_FL_FL_FL_FL_FL_FL_FL_FL_FL_FL_FL_FL_FL_FL_FL" transform="matrix( 0.168670654296875, 0.9856719970703125, 0.9856719970703125, -0.168670654296875, 150.8,281.3) ">
<g transform="matrix( 1, 0, 0, 1, 0,0) ">
<use xlink:href="#Symbol_9_0_Layer0_0_FILL"/>
</g>
</g>

<g id="body_FL_FL_FL_FL_FL_FL_FL_FL_FL_FL_FL_FL_FL_FL" transform="matrix( 0.4500732421875, -0.654541015625, 0.947845458984375, 0.3809814453125, 127.55,300.75) ">
<g transform="matrix( 1, 0, 0, 1, 0,0) ">
<use xlink:href="#Symbol_10_0_Layer0_0_FILL"/>
</g>

<g transform="matrix( 0.6724700927734375, 0.18017578125, -0.18017578125, 0.6724700927734375, 4.55,2.4) ">
<use xlink:href="#Symbol_10_0_Layer0_1_FILL"/>
</g>

<g transform="matrix( 0.829620361328125, -0.558319091796875, 0.558319091796875, 0.829620361328125, -21.5,-4.2) ">
<use xlink:href="#Symbol_10_0_Layer0_2_FILL"/>
</g>

<g transform="matrix( 1, 0, 0, 1, -4.5,-16.7) ">
<use xlink:href="#Symbol_10_0_Layer0_3_FILL"/>
</g>
</g>

<g id="armLeft_FL_FL_FL_FL_FL_FL_FL_FL_FL_FL_FL_FL_FL_FL_FL" transform="matrix( 0.7070770263671875, 0.70709228515625, -0.70709228515625, 0.7070770263671875, 108.1,298.95) ">
<g transform="matrix( 1, 0, 0, 1, 0,0) ">
<use xlink:href="#Symbol_8_0_Layer0_0_FILL"/>
</g>
</g>

<g id="handLeft_FL_FL_FL_FL_FL_FL_FL_FL_FL_FL_FL_FL_FL_FL_FL" transform="matrix( 0.8659820556640625, 0.5, -0.499969482421875, 0.865997314453125, 92.15,318.25) ">
<g transform="matrix( 1, 0, 0, 1, 0,0) ">
<use xlink:href="#Symbol_9_0_Layer0_0_FILL"/>
</g>
</g>

<g id="body_FL_FL_FL_FL_FL_FL_FL_FL_FL_FL_FL_FL_FL_FL_FL" transform="matrix( 1, 0, 0, 1, 681.9,84.15) ">
<g transform="matrix( 1, 0, 0, 1, 0,0) ">
<use xlink:href="#Symbol_10_0_Layer0_0_FILL"/>
</g>

<g transform="matrix( 0.6724700927734375, 0.18017578125, -0.18017578125, 0.6724700927734375, 4.55,2.4) ">
<use xlink:href="#Symbol_10_0_Layer0_1_FILL"/>
</g>

<g transform="matrix( 0.829620361328125, -0.558319091796875, 0.558319091796875, 0.829620361328125, -21.5,-4.2) ">
<use xlink:href="#Symbol_10_0_Layer0_2_FILL"/>
</g>

<g transform="matrix( 1, 0, 0, 1, -4.5,-16.7) ">
<use xlink:href="#Symbol_10_0_Layer0_3_FILL"/>
</g>
</g>

<g id="armLeft_FL_FL_FL_FL_FL_FL_FL_FL_FL_FL_FL_FL_FL_FL_FL_FL" transform="matrix( 0.829071044921875, -0.5591278076171875, -0.5591278076171875, -0.829071044921875, 664.55,67.6) ">
<g transform="matrix( 1, 0, 0, 1, 0,0) ">
<use xlink:href="#Symbol_8_0_Layer0_0_FILL"/>
</g>
</g>

<g id="handLeft_FL_FL_FL_FL_FL_FL_FL_FL_FL_FL_FL_FL_FL_FL_FL_FL" transform="matrix( 0.829071044921875, -0.5591278076171875, -0.5591278076171875, -0.829071044921875, 650.8,44.65) ">
<g transform="matrix( 1, 0, 0, 1, 0,0) ">
<use xlink:href="#Symbol_9_0_Layer0_0_FILL"/>
</g>
</g>

<g id="armRight_FL_FL_FL_FL_FL_FL_FL_FL_FL_FL_FL_FL_FL_FL_FL_FL_FL" transform="matrix( -0.871307373046875, -0.4907073974609375, 0.4907073974609375, -0.871307373046875, 698.25,68.2) ">
<g transform="matrix( 1, 0, 0, 1, 0,0) ">
<use xlink:href="#Symbol_8_0_Layer0_0_FILL"/>
</g>
</g>

<g id="handRight_FL_FL_FL_FL_FL_FL_FL_FL_FL_FL_FL_FL_FL_FL_FL_FL_FL" transform="matrix( -0.871307373046875, -0.4907073974609375, 0.4907073974609375, -0.871307373046875, 710.15,44.65) ">
<g transform="matrix( 1, 0, 0, 1, 0,0) ">
<use xlink:href="#Symbol_9_0_Layer0_0_FILL"/>
</g>
</g>

<g id="head_FL_FL_FL_FL_FL_FL_FL" transform="matrix( 0.9978790283203125, -0.065093994140625, 0.065093994140625, 0.9978790283203125, 681.8,67.15) ">
<g transform="matrix( 1, 0, 0, 1, 0,0) ">
<use xlink:href="#Symbol_12_0_Layer0_0_FILL"/>
</g>

<g transform="matrix( 1, 0, 0, 1, 0,0) ">
<use xlink:href="#Symbol_12_0_Layer0_1_FILL"/>
</g>

<g transform="matrix( 1, 0, 0, 1, -13.6,-5.7) ">
<use xlink:href="#Symbol_12_0_Layer0_1_MEMBER_0_FILL"/>
</g>

<g transform="matrix( 0.5523834228515625, 0, 0, 0.5523834228515625, 23,25.2) ">
<use xlink:href="#Symbol_12_0_Layer0_2_FILL"/>
</g>

<g transform="matrix( 1, 0, 0, 1, 0,0) ">
<use xlink:href="#Symbol_12_0_Layer0_3_FILL"/>
</g>
</g>

<g id="legLeft_FL_FL_FL_FL_FL_FL_FL_FL_FL_FL_FL_FL_FL_FL_FL" transform="matrix( -0.96484375, -0.2628021240234375, -0.2628021240234375, 0.96484375, 672,198.85) ">
<g transform="matrix( 1, 0, 0, 1, 0,0) ">
<use xlink:href="#Symbol_11_0_Layer0_0_FILL"/>
</g>
</g>

<g id="legRight_FL_FL_FL_FL_FL_FL_FL_FL_FL_FL_FL_FL_FL_FL_FL" transform="matrix( -0.999755859375, 0.022491455078125, 0.022491455078125, 0.999755859375, 692,194.8) ">
<g transform="matrix( 1, 0, 0, 1, 0,0) ">
<use xlink:href="#Symbol_11_0_Layer0_0_FILL"/>
</g>
</g>

<g id="body_FL_FL_FL_FL_FL_FL_FL_FL_FL_FL_FL_FL_FL_FL_FL_FL" transform="matrix( 0.8961029052734375, 0, 0, 1, 681.6,189.15) ">
<g transform="matrix( 1, 0, 0, 1, 0,0) ">
<use xlink:href="#Symbol_10_0_Layer0_0_FILL"/>
</g>

<g transform="matrix( 0.6724700927734375, 0.18017578125, -0.18017578125, 0.6724700927734375, 4.55,2.4) ">
<use xlink:href="#Symbol_10_0_Layer0_1_FILL"/>
</g>

<g transform="matrix( 0.829620361328125, -0.558319091796875, 0.558319091796875, 0.829620361328125, -21.5,-4.2) ">
<use xlink:href="#Symbol_10_0_Layer0_2_FILL"/>
</g>

<g transform="matrix( 1, 0, 0, 1, -4.5,-16.7) ">
<use xlink:href="#Symbol_10_0_Layer0_3_FILL"/>
</g>
</g>

<g id="armLeft_FL_FL_FL_FL_FL_FL_FL_FL_FL_FL_FL_FL_FL_FL_FL_FL_FL" transform="matrix( 0.760528564453125, 0.6492919921875, -0.6492919921875, 0.760528564453125, 665.35,173.15) ">
<g transform="matrix( 1, 0, 0, 1, 0,0) ">
<use xlink:href="#Symbol_8_0_Layer0_0_FILL"/>
</g>
</g>

<g id="handLeft_FL_FL_FL_FL_FL_FL_FL_FL_FL_FL_FL_FL_FL_FL_FL_FL_FL" transform="matrix( 0.632080078125, 0.7748565673828125, -0.7748565673828125, 0.632080078125, 650.1,191.05) ">
<g transform="matrix( 1, 0, 0, 1, 0,0) ">
<use xlink:href="#Symbol_9_0_Layer0_0_FILL"/>
</g>
</g>

<g id="armRight_FL_FL_FL_FL_FL_FL_FL_FL_FL_FL_FL_FL_FL_FL_FL_FL_FL_FL" transform="matrix( -0.7285614013671875, 0.68499755859375, 0.68499755859375, 0.7285614013671875, 695.4,172.05) ">
<g transform="matrix( 1, 0, 0, 1, 0,0) ">
<use xlink:href="#Symbol_8_0_Layer0_0_FILL"/>
</g>
</g>

<g id="handRight_FL_FL_FL_FL_FL_FL_FL_FL_FL_FL_FL_FL_FL_FL_FL_FL_FL_FL" transform="matrix( -0.5598602294921875, 0.8285369873046875, 0.8285369873046875, 0.5598602294921875, 711.05,188.9) ">
<g transform="matrix( 1, 0, 0, 1, 0,0) ">
<use xlink:href="#Symbol_9_0_Layer0_0_FILL"/>
</g>
</g>

<g id="legLeft_FL_FL_FL_FL_FL_FL_FL_FL_FL_FL_FL_FL_FL_FL_FL_FL" transform="matrix( 1, 0, -0.0464324951171875, 1, 262.25,203.85) ">
<g transform="matrix( 1, 0, 0, 1, 0,0) ">
<use xlink:href="#Symbol_11_0_Layer0_0_FILL"/>
</g>
</g>

<g id="legRight_FL_FL_FL_FL_FL_FL_FL_FL_FL_FL_FL_FL_FL_FL_FL_FL" transform="matrix( -1, 0, 0.2167205810546875, 1, 281.4,203.85) ">
<g transform="matrix( 1, 0, 0, 1, 0,0) ">
<use xlink:href="#Symbol_11_0_Layer0_0_FILL"/>
</g>
</g>

<g id="armRight_FL_FL_FL_FL_FL_FL_FL_FL_FL_FL_FL_FL_FL_FL_FL_FL_FL_FL_FL" transform="matrix( -0.8426971435546875, 0.5383758544921875, 0.287139892578125, 1.003204345703125, 286.4,178.75) ">
<g transform="matrix( 1, 0, 0, 1, 0,0) ">
<use xlink:href="#Symbol_8_0_Layer0_0_FILL"/>
</g>
</g>

<g id="body_FL_FL_FL_FL_FL_FL_FL_FL_FL_FL_FL_FL_FL_FL_FL_FL_FL" transform="matrix( 0.9220733642578125, 0, -0.1209259033203125, 1, 270.85,195.15) ">
<g transform="matrix( 1, 0, 0, 1, 0,0) ">
<use xlink:href="#Symbol_10_0_Layer0_0_FILL"/>
</g>

<g transform="matrix( 0.6724700927734375, 0.18017578125, -0.18017578125, 0.6724700927734375, 4.55,2.4) ">
<use xlink:href="#Symbol_10_0_Layer0_1_FILL"/>
</g>

<g transform="matrix( 0.829620361328125, -0.558319091796875, 0.558319091796875, 0.829620361328125, -21.5,-4.2) ">
<use xlink:href="#Symbol_10_0_Layer0_2_FILL"/>
</g>

<g transform="matrix( 1, 0, 0, 1, -4.5,-16.7) ">
<use xlink:href="#Symbol_10_0_Layer0_3_FILL"/>
</g>
</g>

<g id="legLeft_FL_FL_FL_FL_FL_FL_FL_FL_FL_FL_FL_FL_FL_FL_FL_FL_FL" transform="matrix( -0.86602783203125, -0.499969482421875, -0.499969482421875, 0.86602783203125, 198.55,309.4) ">
<g transform="matrix( 1, 0, 0, 1, 0,0) ">
<use xlink:href="#Symbol_11_0_Layer0_0_FILL"/>
</g>
</g>

<g id="armRight_FL_FL_FL_FL_FL_FL_FL_FL_FL_FL_FL_FL_FL_FL_FL_FL_FL_FL_FL_FL" transform="matrix( 0.915496826171875, 0.402313232421875, 0.402313232421875, -0.915496826171875, 222.45,271.25) ">
<g transform="matrix( 1, 0, 0, 1, 0,0) ">
<use xlink:href="#Symbol_8_0_Layer0_0_FILL"/>
</g>
</g>

<g id="body_FL_FL_FL_FL_FL_FL_FL_FL_FL_FL_FL_FL_FL_FL_FL_FL_FL_FL" transform="matrix( 0.8961029052734375, -0.1512908935546875, 0, 1, 207.35,295.15) ">
<g transform="matrix( 1, 0, 0, 1, 0,0) ">
<use xlink:href="#Symbol_10_0_Layer0_0_FILL"/>
</g>

<g transform="matrix( 0.6724700927734375, 0.18017578125, -0.18017578125, 0.6724700927734375, 4.55,2.4) ">
<use xlink:href="#Symbol_10_0_Layer0_1_FILL"/>
</g>

<g transform="matrix( 0.829620361328125, -0.558319091796875, 0.558319091796875, 0.829620361328125, -21.5,-4.2) ">
<use xlink:href="#Symbol_10_0_Layer0_2_FILL"/>
</g>

<g transform="matrix( 1, 0, 0, 1, -4.5,-16.7) ">
<use xlink:href="#Symbol_10_0_Layer0_3_FILL"/>
</g>
</g>

<g id="armLeft_FL_FL_FL_FL_FL_FL_FL_FL_FL_FL_FL_FL_FL_FL_FL_FL_FL_FL" transform="matrix( 0.7775726318359375, 0.628753662109375, -0.628753662109375, 0.7775726318359375, 189.35,282.35) ">
<g transform="matrix( 1, 0, 0, 1, 0,0) ">
<use xlink:href="#Symbol_8_0_Layer0_0_FILL"/>
</g>
</g>

<g id="handLeft_FL_FL_FL_FL_FL_FL_FL_FL_FL_FL_FL_FL_FL_FL_FL_FL_FL_FL" transform="matrix( 0.7437591552734375, 0.668426513671875, -0.668426513671875, 0.7437591552734375, 172.55,304.85) ">
<g transform="matrix( 1, 0, 0, 1, 0,0) ">
<use xlink:href="#Symbol_9_0_Layer0_0_FILL"/>
</g>
</g>

<g id="handRight_FL_FL_FL_FL_FL_FL_FL_FL_FL_FL_FL_FL_FL_FL_FL_FL_FL_FL_FL" transform="matrix( 0.602294921875, 0.7982330322265625, 0.7982330322265625, -0.602294921875, 233.7,252.15) ">
<g transform="matrix( 1, 0, 0, 1, 0,0) ">
<use xlink:href="#Symbol_9_0_Layer0_0_FILL"/>
</g>
</g>

<g id="legRight_FL_FL_FL_FL_FL_FL_FL_FL_FL_FL_FL_FL_FL_FL_FL_FL_FL" transform="matrix( -0.8993072509765625, -0.2700347900390625, -0.2588043212890625, 0.9659271240234375, 220.15,300.9) ">
<g transform="matrix( 1, 0, 0, 1, 0,0) ">
<use xlink:href="#Symbol_11_0_Layer0_0_FILL"/>
</g>
</g>

<g id="legLeft_FL_FL_FL_FL_FL_FL_FL_FL_FL_FL_FL_FL_FL_FL_FL_FL_FL_FL" transform="matrix( -1.0149383544921875, 0.3154144287109375, 0.6787109375, 0.84124755859375, 288.3,310.6) ">
<g transform="matrix( 1, 0, 0, 1, 0,0) ">
<use xlink:href="#Symbol_11_0_Layer0_0_FILL"/>
</g>
</g>

<g id="legRight_FL_FL_FL_FL_FL_FL_FL_FL_FL_FL_FL_FL_FL_FL_FL_FL_FL_FL" transform="matrix( -0.7070770263671875, 0.707061767578125, 0.6151123046875, 0.7990264892578125, 270.75,311.9) ">
<g transform="matrix( 1, 0, 0, 1, 0,0) ">
<use xlink:href="#Symbol_11_0_Layer0_0_FILL"/>
</g>
</g>

<g id="body_FL_FL_FL_FL_FL_FL_FL_FL_FL_FL_FL_FL_FL_FL_FL_FL_FL_FL_FL" transform="matrix( 0.922210693359375, -0.0208587646484375, 0, 1, 281.1,301.65) ">
<g transform="matrix( 1, 0, 0, 1, 0,0) ">
<use xlink:href="#Symbol_10_0_Layer0_0_FILL"/>
</g>

<g transform="matrix( 0.6724700927734375, 0.18017578125, -0.18017578125, 0.6724700927734375, 4.55,2.4) ">
<use xlink:href="#Symbol_10_0_Layer0_1_FILL"/>
</g>

<g transform="matrix( 0.829620361328125, -0.558319091796875, 0.558319091796875, 0.829620361328125, -21.5,-4.2) ">
<use xlink:href="#Symbol_10_0_Layer0_2_FILL"/>
</g>

<g transform="matrix( 1, 0, 0, 1, -4.5,-16.7) ">
<use xlink:href="#Symbol_10_0_Layer0_3_FILL"/>
</g>
</g>

<g id="armRight_FL_FL_FL_FL_FL_FL_FL_FL_FL_FL_FL_FL_FL_FL_FL_FL_FL_FL_FL_FL_FL" transform="matrix( 0.6365509033203125, 0.771240234375, 0.69598388671875, -0.5744476318359375, 292.35,288.35) ">
<g transform="matrix( 1, 0, 0, 1, 0,0) ">
<use xlink:href="#Symbol_8_0_Layer0_0_FILL"/>
</g>
</g>

<g id="head_FL_FL_FL_FL_FL_FL_FL_FL" transform="matrix( -0.99542236328125, 0.0955657958984375, 0.0955657958984375, 0.99542236328125, 278.5,285.15) ">
<g transform="matrix( 1, 0, 0, 1, 0,0) ">
<use xlink:href="#Symbol_12_0_Layer0_0_FILL"/>
</g>

<g transform="matrix( 1, 0, 0, 1, 0,0) ">
<use xlink:href="#Symbol_12_0_Layer0_1_FILL"/>
</g>

<g transform="matrix( 1, 0, 0, 1, -13.6,-5.7) ">
<use xlink:href="#Symbol_12_0_Layer0_1_MEMBER_0_FILL"/>
</g>

<g transform="matrix( 0.5523834228515625, 0, 0, 0.5523834228515625, 23,25.2) ">
<use xlink:href="#Symbol_12_0_Layer0_2_FILL"/>
</g>

<g transform="matrix( 1, 0, 0, 1, 0,0) ">
<use xlink:href="#Symbol_12_0_Layer0_3_FILL"/>
</g>
</g>

<g id="handRight_FL_FL_FL_FL_FL_FL_FL_FL_FL_FL_FL_FL_FL_FL_FL_FL_FL_FL_FL_FL" transform="matrix( -0.5000152587890625, 0.865997314453125, 0.865997314453125, 0.5000152587890625, 309.35,283.5) ">
<g transform="matrix( 1, 0, 0, 1, 0,0) ">
<use xlink:href="#Symbol_9_0_Layer0_0_FILL"/>
</g>
</g>

<g id="armLeft_FL_FL_FL_FL_FL_FL_FL_FL_FL_FL_FL_FL_FL_FL_FL_FL_FL_FL_FL" transform="matrix( 0.5000152587890625, -0.865997314453125, 0.7815093994140625, 0.4512176513671875, 260.95,292.65) ">
<g transform="matrix( 1, 0, 0, 1, 0,0) ">
<use xlink:href="#Symbol_8_0_Layer0_0_FILL"/>
</g>
</g>

<g id="handLeft_FL_FL_FL_FL_FL_FL_FL_FL_FL_FL_FL_FL_FL_FL_FL_FL_FL_FL_FL" transform="matrix( 0.2588043212890625, -0.9659271240234375, 0.9659271240234375, 0.2588043212890625, 281.95,301.85) ">
<g transform="matrix( 1, 0, 0, 1, 0,0) ">
<use xlink:href="#Symbol_9_0_Layer0_0_FILL"/>
</g>
</g>

<g id="body_FL_FL_FL_FL_FL_FL_FL_FL_FL_FL_FL_FL_FL_FL_FL_FL_FL_FL_FL_FL" transform="matrix( 1, 0, 0, 1, 792,99) ">
<g transform="matrix( 1, 0, 0, 1, 0,0) ">
<use xlink:href="#Symbol_10_0_Layer0_0_FILL"/>
</g>

<g transform="matrix( 0.6724700927734375, 0.18017578125, -0.18017578125, 0.6724700927734375, 4.55,2.4) ">
<use xlink:href="#Symbol_10_0_Layer0_1_FILL"/>
</g>

<g transform="matrix( 0.829620361328125, -0.558319091796875, 0.558319091796875, 0.829620361328125, -21.5,-4.2) ">
<use xlink:href="#Symbol_10_0_Layer0_2_FILL"/>
</g>

<g transform="matrix( 1, 0, 0, 1, -4.5,-16.7) ">
<use xlink:href="#Symbol_10_0_Layer0_3_FILL"/>
</g>
</g>

<g id="armRight_FL_FL_FL_FL_FL_FL_FL_FL_FL_FL_FL_FL_FL_FL_FL_FL_FL_FL_FL_FL_FL_FL" transform="matrix( -1, 0, 0, 1, 887,91) ">
<g transform="matrix( 1, 0, 0, 1, 0,0) ">
<use xlink:href="#Symbol_8_0_Layer0_0_FILL"/>
</g>
</g>

<g id="handRight_FL_FL_FL_FL_FL_FL_FL_FL_FL_FL_FL_FL_FL_FL_FL_FL_FL_FL_FL_FL_FL" transform="matrix( -1, 0, 0, 1, 885,141) ">
<g transform="matrix( 1, 0, 0, 1, 0,0) ">
<use xlink:href="#Symbol_9_0_Layer0_0_FILL"/>
</g>
</g>

<g id="legRight_FL_FL_FL_FL_FL_FL_FL_FL_FL_FL_FL_FL_FL_FL_FL_FL_FL_FL_FL" transform="matrix( -1, 0, 0, 1, 850,133) ">
<g transform="matrix( 1, 0, 0, 1, 0,0) ">
<use xlink:href="#Symbol_11_0_Layer0_0_FILL"/>
</g>
</g>

<g id="head_FL_FL_FL_FL_FL_FL_FL_FL_FL" transform="matrix( 1, 0, 0, 1, 791.4,52.25) ">
<g transform="matrix( 1, 0, 0, 1, 0,0) ">
<use xlink:href="#Symbol_12_0_Layer0_0_FILL"/>
</g>

<g transform="matrix( 1, 0, 0, 1, 0,0) ">
<use xlink:href="#Symbol_12_0_Layer0_1_FILL"/>
</g>

<g transform="matrix( 1, 0, 0, 1, -13.6,-5.7) ">
<use xlink:href="#Symbol_12_0_Layer0_1_MEMBER_0_FILL"/>
</g>

<g transform="matrix( 0.5523834228515625, 0, 0, 0.5523834228515625, 23,25.2) ">
<use xlink:href="#Symbol_12_0_Layer0_2_FILL"/>
</g>

<g transform="matrix( 1, 0, 0, 1, 0,0) ">
<use xlink:href="#Symbol_12_0_Layer0_3_FILL"/>
</g>
</g>

<g id="armLeft_FL_FL_FL_FL_FL_FL_FL_FL_FL_FL_FL_FL_FL_FL_FL_FL_FL_FL_FL_FL" transform="matrix( 0.9659271240234375, 0.2588043212890625, -0.233551025390625, 0.8716888427734375, 343.55,290.35) ">
<g transform="matrix( 1, 0, 0, 1, 0,0) ">
<use xlink:href="#Symbol_8_0_Layer0_0_FILL"/>
</g>
</g>

<g id="handLeft_FL_FL_FL_FL_FL_FL_FL_FL_FL_FL_FL_FL_FL_FL_FL_FL_FL_FL_FL_FL" transform="matrix( 0.9659271240234375, 0.2588043212890625, -0.2588043212890625, 0.9659271240234375, 338.5,314.25) ">
<g transform="matrix( 1, 0, 0, 1, 0,0) ">
<use xlink:href="#Symbol_9_0_Layer0_0_FILL"/>
</g>
</g>

<g id="armRight_FL_FL_FL_FL_FL_FL_FL_FL_FL_FL_FL_FL_FL_FL_FL_FL_FL_FL_FL_FL_FL_FL_FL" transform="matrix( -0.9659271240234375, 0.2588043212890625, 0.233551025390625, 0.8716888427734375, 377.6,289.35) ">
<g transform="matrix( 1, 0, 0, 1, 0,0) ">
<use xlink:href="#Symbol_8_0_Layer0_0_FILL"/>
</g>
</g>

<g id="handRight_FL_FL_FL_FL_FL_FL_FL_FL_FL_FL_FL_FL_FL_FL_FL_FL_FL_FL_FL_FL_FL_FL" transform="matrix( -0.9659271240234375, 0.2588043212890625, 0.2588043212890625, 0.9659271240234375, 382.9,314.5) ">
<g transform="matrix( 1, 0, 0, 1, 0,0) ">
<use xlink:href="#Symbol_9_0_Layer0_0_FILL"/>
</g>
</g>

<g id="legLeft_FL_FL_FL_FL_FL_FL_FL_FL_FL_FL_FL_FL_FL_FL_FL_FL_FL_FL_FL" transform="matrix( 1, 0, 0, 1, 350.75,313.85) ">
<g transform="matrix( 1, 0, 0, 1, 0,0) ">
<use xlink:href="#Symbol_11_0_Layer0_0_FILL"/>
</g>
</g>

<g id="legRight_FL_FL_FL_FL_FL_FL_FL_FL_FL_FL_FL_FL_FL_FL_FL_FL_FL_FL_FL_FL" transform="matrix( -1, 0, 0, 1, 371.9,313.85) ">
<g transform="matrix( 1, 0, 0, 1, 0,0) ">
<use xlink:href="#Symbol_11_0_Layer0_0_FILL"/>
</g>
</g>

<g transform="matrix( 1, 0, 0, 1, 361.35,304.15) ">
<g transform="matrix( 1, 0, 0, 1, 0,0) ">
<use xlink:href="#Symbol_18_0_Layer0_0_FILL"/>
</g>

<g transform="matrix( 1, 0, 0, 1, 14.5,-14.35) ">
<use xlink:href="#Symbol_18_0_Layer0_1_FILL"/>
</g>

<g transform="matrix( -0.9871368408203125, -0.1598663330078125, -0.1598663330078125, 0.9871368408203125, -7.45,14.05) ">
<use xlink:href="#Symbol_18_0_Layer0_2_FILL"/>
</g>

<g transform="matrix( 0.5, -0.8660125732421875, 0.8660125732421875, 0.5, -488.55,663.6) ">
<use xlink:href="#Symbol_18_0_Layer0_3_FILL"/>
</g>
</g>

<g id="handRight_FL_FL_FL_FL_FL_FL_FL_FL_FL_FL_FL_FL_FL_FL_FL_FL_FL_FL_FL_FL_FL_FL_FL" transform="matrix( -0.25616455078125, -0.9665679931640625, -0.9665679931640625, 0.25616455078125, 291.7,196) ">
<g transform="matrix( 1, 0, 0, 1, 0,0) ">
<use xlink:href="#Symbol_9_0_Layer0_0_FILL"/>
</g>
</g>

<g id="legLeft_FL_FL_FL_FL_FL_FL_FL_FL_FL_FL_FL_FL_FL_FL_FL_FL_FL_FL_FL_FL" transform="matrix( -1, 0, -0.2476806640625, 1, 430.75,313.85) ">
<g transform="matrix( 1, 0, 0, 1, 0,0) ">
<use xlink:href="#Symbol_11_0_Layer0_0_FILL"/>
</g>
</g>

<g id="legRight_FL_FL_FL_FL_FL_FL_FL_FL_FL_FL_FL_FL_FL_FL_FL_FL_FL_FL_FL_FL_FL" transform="matrix( -1, 0, 0.1083526611328125, 1, 451.9,313.85) ">
<g transform="matrix( 1, 0, 0, 1, 0,0) ">
<use xlink:href="#Symbol_11_0_Layer0_0_FILL"/>
</g>
</g>

<g id="body_FL_FL_FL_FL_FL_FL_FL_FL_FL_FL_FL_FL_FL_FL_FL_FL_FL_FL_FL_FL_FL" transform="matrix( 1, 0, 0, 1, 441.35,305.15) ">
<g transform="matrix( 1, 0, 0, 1, 0,0) ">
<use xlink:href="#Symbol_10_0_Layer0_0_FILL"/>
</g>

<g transform="matrix( 0.6724700927734375, 0.18017578125, -0.18017578125, 0.6724700927734375, 4.55,2.4) ">
<use xlink:href="#Symbol_10_0_Layer0_1_FILL"/>
</g>

<g transform="matrix( 0.829620361328125, -0.558319091796875, 0.558319091796875, 0.829620361328125, -21.5,-4.2) ">
<use xlink:href="#Symbol_10_0_Layer0_2_FILL"/>
</g>

<g transform="matrix( 1, 0, 0, 1, -4.5,-16.7) ">
<use xlink:href="#Symbol_10_0_Layer0_3_FILL"/>
</g>
</g>

<g id="armLeft_FL_FL_FL_FL_FL_FL_FL_FL_FL_FL_FL_FL_FL_FL_FL_FL_FL_FL_FL_FL_FL" transform="matrix( 0.9660186767578125, 0.2584228515625, -0.23321533203125, 0.87176513671875, 424.55,289.35) ">
<g transform="matrix( 1, 0, 0, 1, 0,0) ">
<use xlink:href="#Symbol_8_0_Layer0_0_FILL"/>
</g>
</g>

<g id="handLeft_FL_FL_FL_FL_FL_FL_FL_FL_FL_FL_FL_FL_FL_FL_FL_FL_FL_FL_FL_FL_FL" transform="matrix( 0.965911865234375, -0.258819580078125, 0.258819580078125, 0.965911865234375, 422.3,310.3) ">
<g transform="matrix( 1, 0, 0, 1, 0,0) ">
<use xlink:href="#Symbol_9_0_Layer0_0_FILL"/>
</g>
</g>

<g id="legRight_FL_FL_FL_FL_FL_FL_FL_FL_FL_FL_FL_FL_FL_FL_FL_FL_FL_FL_FL_FL_FL_FL" transform="matrix( 0.942108154296875, -0.34771728515625, 0.2938079833984375, 0.9530029296875, 506.4,79.35) ">
<g transform="matrix( 1, 0, 0, 1, 0,0) ">
<use xlink:href="#Symbol_11_0_Layer0_0_FILL"/>
</g>
</g>

<g id="legLeft_FL_FL_FL_FL_FL_FL_FL_FL_FL_FL_FL_FL_FL_FL_FL_FL_FL_FL_FL_FL_FL" transform="matrix( -0.9604034423828125, -0.2794342041015625, -0.1309356689453125, 1.00311279296875, 533.95,85.65) ">
<g transform="matrix( 1, 0, 0, 1, 0,0) ">
<use xlink:href="#Symbol_11_0_Layer0_0_FILL"/>
</g>
</g>

<g id="legLeft_FL_FL_FL_FL_FL_FL_FL_FL_FL_FL_FL_FL_FL_FL_FL_FL_FL_FL_FL_FL_FL_FL" transform="matrix( 0.8357696533203125, 0.5355377197265625, -0.6060791015625, 0.8081207275390625, 669.3,91.85) ">
<g transform="matrix( 1, 0, 0, 1, 0,0) ">
<use xlink:href="#Symbol_11_0_Layer0_0_FILL"/>
</g>
</g>

<g id="legRight_FL_FL_FL_FL_FL_FL_FL_FL_FL_FL_FL_FL_FL_FL_FL_FL_FL_FL_FL_FL_FL_FL_FL" transform="matrix( -0.8170928955078125, 0.59710693359375, 0.6360321044921875, 0.759033203125, 694.45,91.85) ">
<g transform="matrix( 1, 0, 0, 1, 0,0) ">
<use xlink:href="#Symbol_11_0_Layer0_0_FILL"/>
</g>
</g>

<g transform="matrix( 0.9996185302734375, 0.0266265869140625, -0.0266265869140625, 0.9996185302734375, 273.7,177.55) ">
<g transform="matrix( 1, 0, 0, 1, 0,0) ">
<use xlink:href="#Symbol_15_0_Layer0_0_FILL"/>
</g>

<g transform="matrix( 1, 0, 0, 1, 0,0) ">
<use xlink:href="#Symbol_15_0_Layer0_1_FILL"/>
</g>

<g transform="matrix( 1, 0, 0, 1, 0,0) ">
<use xlink:href="#Symbol_15_0_Layer0_2_FILL"/>
</g>

<g transform="matrix( 1, 0, 0, 1, 0,0) ">
<use xlink:href="#Symbol_15_0_Layer0_3_FILL"/>
</g>
</g>

<g id="armLeft_FL_FL_FL_FL_FL_FL_FL_FL_FL_FL_FL_FL_FL_FL_FL_FL_FL_FL_FL_FL_FL_FL" transform="matrix( 0.65667724609375, -0.7541656494140625, 0.7541656494140625, 0.65667724609375, 261.4,180.9) ">
<g transform="matrix( 1, 0, 0, 1, 0,0) ">
<use xlink:href="#Symbol_8_0_Layer0_0_FILL"/>
</g>
</g>

<g id="handLeft_FL_FL_FL_FL_FL_FL_FL_FL_FL_FL_FL_FL_FL_FL_FL_FL_FL_FL_FL_FL_FL_FL" transform="matrix( 0.4999847412109375, -0.8660125732421875, 0.8660125732421875, 0.4999847412109375, 282.65,195.8) ">
<g transform="matrix( 1, 0, 0, 1, 0,0) ">
<use xlink:href="#Symbol_9_0_Layer0_0_FILL"/>
</g>
</g>

<g transform="matrix( 1, 0, 0, 1, 910.6,53.7) ">
<g transform="matrix( 1, 0, 0, 1, 0,0) ">
<use xlink:href="#Symbol_15_0_Layer0_0_FILL"/>
</g>

<g transform="matrix( 1, 0, 0, 1, 0,0) ">
<use xlink:href="#Symbol_15_0_Layer0_1_FILL"/>
</g>

<g transform="matrix( 1, 0, 0, 1, 0,0) ">
<use xlink:href="#Symbol_15_0_Layer0_2_FILL"/>
</g>

<g transform="matrix( 1, 0, 0, 1, 0,0) ">
<use xlink:href="#Symbol_15_0_Layer0_3_FILL"/>
</g>
</g>

<g transform="matrix( 1, 0, 0, 1, 842,99) ">
<g transform="matrix( 1, 0, 0, 1, 0,0) ">
<use xlink:href="#Symbol_18_0_Layer0_0_FILL"/>
</g>

<g transform="matrix( 1, 0, 0, 1, 14.5,-14.35) ">
<use xlink:href="#Symbol_18_0_Layer0_1_FILL"/>
</g>

<g transform="matrix( -0.9871368408203125, -0.1598663330078125, -0.1598663330078125, 0.9871368408203125, -7.45,14.05) ">
<use xlink:href="#Symbol_18_0_Layer0_2_FILL"/>
</g>

<g transform="matrix( 0.5, -0.8660125732421875, 0.8660125732421875, 0.5, -488.55,663.6) ">
<use xlink:href="#Symbol_18_0_Layer0_3_FILL"/>
</g>
</g>

<g transform="matrix( 0.9969329833984375, 0.0782470703125, -0.0782470703125, 0.9969329833984375, 204.7,62.55) ">
<g transform="matrix( 1, 0, 0, 1, 0,0) ">
<use xlink:href="#Symbol_16_0_Layer0_0_FILL"/>
</g>

<g transform="matrix( 1, 0, 0, 1, 0,0) ">
<use xlink:href="#Symbol_16_0_Layer0_1_FILL"/>
</g>

<g transform="matrix( 1, 0, 0, 1, 0,0) ">
<use xlink:href="#Symbol_16_0_Layer0_2_FILL"/>
</g>

<g transform="matrix( 1, 0, 0, 1, 0,0) ">
<use xlink:href="#Symbol_16_0_Layer0_3_FILL"/>
</g>
</g>

<g transform="matrix( 0.9969329833984375, 0.0782470703125, -0.0782470703125, 0.9969329833984375, 360.75,60.2) ">
<g transform="matrix( 1, 0, 0, 1, 0,0) ">
<use xlink:href="#Symbol_16_0_Layer0_0_FILL"/>
</g>

<g transform="matrix( 1, 0, 0, 1, 0,0) ">
<use xlink:href="#Symbol_16_0_Layer0_1_FILL"/>
</g>

<g transform="matrix( 1, 0, 0, 1, 0,0) ">
<use xlink:href="#Symbol_16_0_Layer0_2_FILL"/>
</g>

<g transform="matrix( 1, 0, 0, 1, 0,0) ">
<use xlink:href="#Symbol_16_0_Layer0_3_FILL"/>
</g>
</g>

<g transform="matrix( -0.9965667724609375, -0.0825958251953125, -0.0825958251953125, 0.9965667724609375, 521.1,62.6) ">
<g transform="matrix( 1, 0, 0, 1, 0,0) ">
<use xlink:href="#Symbol_17_0_Layer0_0_FILL"/>
</g>

<g transform="matrix( 1, 0, 0, 1, 0,0) ">
<use xlink:href="#Symbol_17_0_Layer0_1_FILL"/>
</g>
</g>

<g transform="matrix( 0.9965667724609375, 0.0825958251953125, -0.0825958251953125, 0.9965667724609375, 281.35,77.4) ">
<g transform="matrix( 1, 0, 0, 1, 0,0) ">
<use xlink:href="#Symbol_15_0_Layer0_0_FILL"/>
</g>

<g transform="matrix( 1, 0, 0, 1, 0,0) ">
<use xlink:href="#Symbol_15_0_Layer0_1_FILL"/>
</g>

<g transform="matrix( 1, 0, 0, 1, 0,0) ">
<use xlink:href="#Symbol_15_0_Layer0_2_FILL"/>
</g>

<g transform="matrix( 1, 0, 0, 1, 0,0) ">
<use xlink:href="#Symbol_15_0_Layer0_3_FILL"/>
</g>
</g>

<g transform="matrix( 0.9996185302734375, 0.0266265869140625, -0.0266265869140625, 0.9996185302734375, 189.05,177.55) ">
<g transform="matrix( 1, 0, 0, 1, 0,0) ">
<use xlink:href="#Symbol_15_0_Layer0_0_FILL"/>
</g>

<g transform="matrix( 1, 0, 0, 1, 0,0) ">
<use xlink:href="#Symbol_15_0_Layer0_1_FILL"/>
</g>

<g transform="matrix( 1, 0, 0, 1, 0,0) ">
<use xlink:href="#Symbol_15_0_Layer0_2_FILL"/>
</g>

<g transform="matrix( 1, 0, 0, 1, 0,0) ">
<use xlink:href="#Symbol_15_0_Layer0_3_FILL"/>
</g>
</g>

<g transform="matrix( 0.9996185302734375, 0.0266265869140625, -0.0266265869140625, 0.9996185302734375, 513.9,175) ">
<g transform="matrix( 1, 0, 0, 1, 0,0) ">
<use xlink:href="#Symbol_15_0_Layer0_0_FILL"/>
</g>

<g transform="matrix( 1, 0, 0, 1, 0,0) ">
<use xlink:href="#Symbol_15_0_Layer0_1_FILL"/>
</g>

<g transform="matrix( 1, 0, 0, 1, 0,0) ">
<use xlink:href="#Symbol_15_0_Layer0_2_FILL"/>
</g>

<g transform="matrix( 1, 0, 0, 1, 0,0) ">
<use xlink:href="#Symbol_15_0_Layer0_3_FILL"/>
</g>
</g>

<g transform="matrix( 0.9996185302734375, 0.0266265869140625, -0.0266265869140625, 0.9996185302734375, 599.05,170) ">
<g transform="matrix( 1, 0, 0, 1, 0,0) ">
<use xlink:href="#Symbol_15_0_Layer0_0_FILL"/>
</g>

<g transform="matrix( 1, 0, 0, 1, 0,0) ">
<use xlink:href="#Symbol_15_0_Layer0_1_FILL"/>
</g>

<g transform="matrix( 1, 0, 0, 1, 0,0) ">
<use xlink:href="#Symbol_15_0_Layer0_2_FILL"/>
</g>

<g transform="matrix( 1, 0, 0, 1, 0,0) ">
<use xlink:href="#Symbol_15_0_Layer0_3_FILL"/>
</g>
</g>

<g transform="matrix( 0.9998931884765625, -0.012420654296875, 0.012420654296875, 0.9998931884765625, 679.4,170) ">
<g transform="matrix( 1, 0, 0, 1, 0,0) ">
<use xlink:href="#Symbol_15_0_Layer0_0_FILL"/>
</g>

<g transform="matrix( 1, 0, 0, 1, 0,0) ">
<use xlink:href="#Symbol_15_0_Layer0_1_FILL"/>
</g>

<g transform="matrix( 1, 0, 0, 1, 0,0) ">
<use xlink:href="#Symbol_15_0_Layer0_2_FILL"/>
</g>

<g transform="matrix( 1, 0, 0, 1, 0,0) ">
<use xlink:href="#Symbol_15_0_Layer0_3_FILL"/>
</g>
</g>

<g transform="matrix( 0.9996185302734375, 0.0266265869140625, -0.0266265869140625, 0.9996185302734375, 439.95,286.9) ">
<g transform="matrix( 1, 0, 0, 1, 0,0) ">
<use xlink:href="#Symbol_15_0_Layer0_0_FILL"/>
</g>

<g transform="matrix( 1, 0, 0, 1, 0,0) ">
<use xlink:href="#Symbol_15_0_Layer0_1_FILL"/>
</g>

<g transform="matrix( 1, 0, 0, 1, 0,0) ">
<use xlink:href="#Symbol_15_0_Layer0_2_FILL"/>
</g>

<g transform="matrix( 1, 0, 0, 1, 0,0) ">
<use xlink:href="#Symbol_15_0_Layer0_3_FILL"/>
</g>
</g>

<g transform="matrix( 0.990966796875, -0.133819580078125, 0.133819580078125, 0.990966796875, 203.2,278.4) ">
<g transform="matrix( 1, 0, 0, 1, 0,0) ">
<use xlink:href="#Symbol_15_0_Layer0_0_FILL"/>
</g>

<g transform="matrix( 1, 0, 0, 1, 0,0) ">
<use xlink:href="#Symbol_15_0_Layer0_1_FILL"/>
</g>

<g transform="matrix( 1, 0, 0, 1, 0,0) ">
<use xlink:href="#Symbol_15_0_Layer0_2_FILL"/>
</g>

<g transform="matrix( 1, 0, 0, 1, 0,0) ">
<use xlink:href="#Symbol_15_0_Layer0_3_FILL"/>
</g>
</g>

<g transform="matrix( 0.9857025146484375, -0.168243408203125, 0.168243408203125, 0.9857025146484375, 111.7,294.95) ">
<g transform="matrix( 1, 0, 0, 1, 0,0) ">
<use xlink:href="#Symbol_15_0_Layer0_0_FILL"/>
</g>

<g transform="matrix( 1, 0, 0, 1, 0,0) ">
<use xlink:href="#Symbol_15_0_Layer0_1_FILL"/>
</g>

<g transform="matrix( 1, 0, 0, 1, 0,0) ">
<use xlink:href="#Symbol_15_0_Layer0_2_FILL"/>
</g>

<g transform="matrix( 1, 0, 0, 1, 0,0) ">
<use xlink:href="#Symbol_15_0_Layer0_3_FILL"/>
</g>
</g>

<g transform="matrix( 1, 0, 0, 1, 360.6,287.65) ">
<g transform="matrix( 1, 0, 0, 1, 0,0) ">
<use xlink:href="#Symbol_17_0_Layer0_0_FILL"/>
</g>

<g transform="matrix( 1, 0, 0, 1, 0,0) ">
<use xlink:href="#Symbol_17_0_Layer0_1_FILL"/>
</g>
</g>

<g id="armLeft_FL_FL_FL_FL_FL_FL_FL_FL_FL_FL_FL_FL_FL_FL_FL_FL_FL_FL_FL_FL_FL_FL_FL" transform="matrix( -0.86602783203125, 0.4999847412109375, -0.4110107421875, -1.1675262451171875, 420.55,57.15) ">
<g transform="matrix( 1, 0, 0, 1, 0,0) ">
<use xlink:href="#Symbol_8_0_Layer0_0_FILL"/>
</g>
</g>

<g id="handLeft_FL_FL_FL_FL_FL_FL_FL_FL_FL_FL_FL_FL_FL_FL_FL_FL_FL_FL_FL_FL_FL_FL_FL" transform="matrix( 0.965911865234375, -0.2587890625, -0.2587890625, -0.9658966064453125, 419.05,23.6) ">
<g transform="matrix( 1, 0, 0, 1, 0,0) ">
<use xlink:href="#Symbol_9_0_Layer0_0_FILL"/>
</g>
</g>

<g id="armRight_FL_FL_FL_FL_FL_FL_FL_FL_FL_FL_FL_FL_FL_FL_FL_FL_FL_FL_FL_FL_FL_FL_FL_FL" transform="matrix( 0.6365509033203125, 0.7712249755859375, 0.5618133544921875, -0.463714599609375, 453.8,62.15) ">
<g transform="matrix( 1, 0, 0, 1, 0,0) ">
<use xlink:href="#Symbol_8_0_Layer0_0_FILL"/>
</g>
</g>

<g id="handRight_FL_FL_FL_FL_FL_FL_FL_FL_FL_FL_FL_FL_FL_FL_FL_FL_FL_FL_FL_FL_FL_FL_FL_FL" transform="matrix( -0.9999237060546875, 0.0097808837890625, -0.0097808837890625, -0.9999237060546875, 457.6,44.1) ">
<g transform="matrix( 1, 0, 0, 1, 0,0) ">
<use xlink:href="#Symbol_9_0_Layer0_0_FILL"/>
</g>
</g>

<g transform="matrix( -0.9870147705078125, 0.158935546875, 0, 1, 438.65,78.35) ">
<g transform="matrix( 1, 0, 0, 1, 0,0) ">
<use xlink:href="#Symbol_18_0_Layer0_0_FILL"/>
</g>

<g transform="matrix( 1, 0, 0, 1, 14.5,-14.35) ">
<use xlink:href="#Symbol_18_0_Layer0_1_FILL"/>
</g>

<g transform="matrix( -0.9871368408203125, -0.1598663330078125, -0.1598663330078125, 0.9871368408203125, -7.45,14.05) ">
<use xlink:href="#Symbol_18_0_Layer0_2_FILL"/>
</g>

<g transform="matrix( 0.5, -0.8660125732421875, 0.8660125732421875, 0.5, -488.55,663.6) ">
<use xlink:href="#Symbol_18_0_Layer0_3_FILL"/>
</g>
</g>

<g id="legRight_FL_FL_FL_FL_FL_FL_FL_FL_FL_FL_FL_FL_FL_FL_FL_FL_FL_FL_FL_FL_FL_FL_FL_FL" transform="matrix( -0.942108154296875, -0.34771728515625, -0.2938079833984375, 0.9530029296875, 453.6,79.35) ">
<g transform="matrix( 1, 0, 0, 1, 0,0) ">
<use xlink:href="#Symbol_11_0_Layer0_0_FILL"/>
</g>
</g>

<g id="legLeft_FL_FL_FL_FL_FL_FL_FL_FL_FL_FL_FL_FL_FL_FL_FL_FL_FL_FL_FL_FL_FL_FL_FL" transform="matrix( 0.9604034423828125, -0.2794342041015625, 0.1309356689453125, 1.00311279296875, 426.05,85.65) ">
<g transform="matrix( 1, 0, 0, 1, 0,0) ">
<use xlink:href="#Symbol_11_0_Layer0_0_FILL"/>
</g>
</g>

<g transform="matrix( 0.9965667724609375, -0.0825958251953125, 0.0825958251953125, 0.9965667724609375, 438.9,62.6) ">
<g transform="matrix( 1, 0, 0, 1, 0,0) ">
<use xlink:href="#Symbol_17_0_Layer0_0_FILL"/>
</g>

<g transform="matrix( 1, 0, 0, 1, 0,0) ">
<use xlink:href="#Symbol_17_0_Layer0_1_FILL"/>
</g>
</g>
</svg>
